# MagicaVoxel @ Ephtracy

# group
o 

# material
mtllib donut-2.mtl
usemtl palette

# normals
vn -1 0 0
vn 1 0 0
vn 0 0 1
vn 0 0 -1
vn 0 -1 0
vn 0 1 0

# texcoords
vt 0.244141 0.5
vt 0.298828 0.5
vt 0.396484 0.5
vt 0.619141 0.5
vt 0.708984 0.5
vt 0.958984 0.5

# verts
v -2.6 1.4 2.4
v -2.6 1.4 2.2
v -2.6 1.5 2.4
v -2.6 1.5 2.2
v -2.3 1.4 -2
v -2.3 1.4 -2.3
v -2.3 1.5 -2
v -2.3 1.5 -2.3
v -2.2 1.4 -0.8
v -2.2 1.4 -1.2
v -2.2 1.5 -0.8
v -2.2 1.5 -1.2
v -2 1.4 0.5
v -2 1.4 0
v -2 1.5 0.5
v -2 1.5 0
v -1.8 1.4 1.4
v -1.8 1.4 1.2
v -1.8 1.5 1.4
v -1.8 1.5 1.2
v -1.1 1.4 -1.9
v -1.1 1.4 -2.1
v -1.1 1.5 -1.9
v -1.1 1.5 -2.1
v -0.7 1.4 2.2
v -0.7 1.4 1.8
v -0.7 1.5 2.2
v -0.7 1.5 1.8
v -0.0999999 1.4 2.6
v -0.0999999 1.4 2.2
v -0.0999999 1.5 2.6
v -0.0999999 1.5 2.2
v 0.4 1.4 -1.8
v 0.4 1.4 -2.2
v 0.4 1.5 -1.8
v 0.4 1.5 -2.2
v 1.1 1.4 2.4
v 1.1 1.4 2.2
v 1.1 1.4 0.3
v 1.1 1.4 0.0999999
v 1.1 1.5 2.4
v 1.1 1.5 2.2
v 1.1 1.5 0.3
v 1.1 1.5 0.0999999
v 1.6 1.4 -1.1
v 1.6 1.4 -1.5
v 1.6 1.5 -1.1
v 1.6 1.5 -1.5
v 1.8 1.4 2
v 1.8 1.4 1.6
v 1.8 1.5 2
v 1.8 1.5 1.6
v 1.9 1.4 0.9
v 1.9 1.4 0.7
v 1.9 1.5 0.9
v 1.9 1.5 0.7
v 2.1 1.4 -2.2
v 2.1 1.4 -2.6
v 2.1 1.5 -2.2
v 2.1 1.5 -2.6
v -2.2 1.4 2.4
v -2.2 1.4 2.2
v -2.2 1.5 2.4
v -2.2 1.5 2.2
v -2.1 1.4 -2
v -2.1 1.4 -2.3
v -2.1 1.5 -2
v -2.1 1.5 -2.3
v -2 1.4 -0.8
v -2 1.4 -1.2
v -2 1.5 -0.8
v -2 1.5 -1.2
v -1.8 1.4 0.5
v -1.8 1.4 0
v -1.8 1.5 0.5
v -1.8 1.5 0
v -1.4 1.4 1.4
v -1.4 1.4 1.2
v -1.4 1.5 1.4
v -1.4 1.5 1.2
v -0.7 1.4 -1.9
v -0.7 1.4 -2.1
v -0.7 1.5 -1.9
v -0.7 1.5 -2.1
v -0.5 1.4 2.2
v -0.5 1.4 1.8
v -0.5 1.5 2.2
v -0.5 1.5 1.8
v 0.0999999 1.4 2.6
v 0.0999999 1.4 2.2
v 0.0999999 1.5 2.6
v 0.0999999 1.5 2.2
v 0.6 1.4 -1.8
v 0.6 1.4 -2.2
v 0.6 1.5 -1.8
v 0.6 1.5 -2.2
v 1.4 1.4 0.3
v 1.4 1.4 0.0999999
v 1.4 1.5 0.3
v 1.4 1.5 0.0999999
v 1.5 1.4 2.4
v 1.5 1.4 2.2
v 1.5 1.5 2.4
v 1.5 1.5 2.2
v 1.8 1.4 -1.1
v 1.8 1.4 -1.5
v 1.8 1.5 -1.1
v 1.8 1.5 -1.5
v 2 1.4 2
v 2 1.4 1.6
v 2 1.5 2
v 2 1.5 1.6
v 2.2 1.4 0.9
v 2.2 1.4 0.7
v 2.2 1.5 0.9
v 2.2 1.5 0.7
v 2.3 1.4 -2.2
v 2.3 1.4 -2.6
v 2.3 1.5 -2.2
v 2.3 1.5 -2.6
v -0.0999999 1.4 2.6
v -0.0999999 1.5 2.6
v 0.0999999 1.4 2.6
v 0.0999999 1.5 2.6
v -2.6 1.4 2.4
v -2.6 1.5 2.4
v -2.2 1.4 2.4
v -2.2 1.5 2.4
v 1.1 1.4 2.4
v 1.1 1.5 2.4
v 1.5 1.4 2.4
v 1.5 1.5 2.4
v -0.7 1.4 2.2
v -0.7 1.5 2.2
v -0.5 1.4 2.2
v -0.5 1.5 2.2
v 1.8 1.4 2
v 1.8 1.5 2
v 2 1.4 2
v 2 1.5 2
v -1.8 1.4 1.4
v -1.8 1.5 1.4
v -1.4 1.4 1.4
v -1.4 1.5 1.4
v 1.9 1.4 0.9
v 1.9 1.5 0.9
v 2.2 1.4 0.9
v 2.2 1.5 0.9
v -2 1.4 0.5
v -2 1.5 0.5
v -1.8 1.4 0.5
v -1.8 1.5 0.5
v 1.1 1.4 0.3
v 1.1 1.5 0.3
v 1.4 1.4 0.3
v 1.4 1.5 0.3
v -2.2 1.4 -0.8
v -2.2 1.5 -0.8
v -2 1.4 -0.8
v -2 1.5 -0.8
v 1.6 1.4 -1.1
v 1.6 1.5 -1.1
v 1.8 1.4 -1.1
v 1.8 1.5 -1.1
v 0.4 1.4 -1.8
v 0.4 1.5 -1.8
v 0.6 1.4 -1.8
v 0.6 1.5 -1.8
v -1.1 1.4 -1.9
v -1.1 1.5 -1.9
v -0.7 1.4 -1.9
v -0.7 1.5 -1.9
v -2.3 1.4 -2
v -2.3 1.5 -2
v -2.1 1.4 -2
v -2.1 1.5 -2
v 2.1 1.4 -2.2
v 2.1 1.5 -2.2
v 2.3 1.4 -2.2
v 2.3 1.5 -2.2
v -2.6 1.4 2.2
v -2.6 1.5 2.2
v -2.2 1.4 2.2
v -2.2 1.5 2.2
v -0.0999999 1.4 2.2
v -0.0999999 1.5 2.2
v 0.0999999 1.4 2.2
v 0.0999999 1.5 2.2
v 1.1 1.4 2.2
v 1.1 1.5 2.2
v 1.5 1.4 2.2
v 1.5 1.5 2.2
v -0.7 1.4 1.8
v -0.7 1.5 1.8
v -0.5 1.4 1.8
v -0.5 1.5 1.8
v 1.8 1.4 1.6
v 1.8 1.5 1.6
v 2 1.4 1.6
v 2 1.5 1.6
v -1.8 1.4 1.2
v -1.8 1.5 1.2
v -1.4 1.4 1.2
v -1.4 1.5 1.2
v 1.9 1.4 0.7
v 1.9 1.5 0.7
v 2.2 1.4 0.7
v 2.2 1.5 0.7
v 1.1 1.4 0.0999999
v 1.1 1.5 0.0999999
v 1.4 1.4 0.0999999
v 1.4 1.5 0.0999999
v -2 1.4 0
v -2 1.5 0
v -1.8 1.4 0
v -1.8 1.5 0
v -2.2 1.4 -1.2
v -2.2 1.5 -1.2
v -2 1.4 -1.2
v -2 1.5 -1.2
v 1.6 1.4 -1.5
v 1.6 1.5 -1.5
v 1.8 1.4 -1.5
v 1.8 1.5 -1.5
v -1.1 1.4 -2.1
v -1.1 1.5 -2.1
v -0.7 1.4 -2.1
v -0.7 1.5 -2.1
v 0.4 1.4 -2.2
v 0.4 1.5 -2.2
v 0.6 1.4 -2.2
v 0.6 1.5 -2.2
v -2.3 1.4 -2.3
v -2.3 1.5 -2.3
v -2.1 1.4 -2.3
v -2.1 1.5 -2.3
v 2.1 1.4 -2.6
v 2.1 1.5 -2.6
v 2.3 1.4 -2.6
v 2.3 1.5 -2.6
v -0.0999999 1.4 2.6
v 0.0999999 1.4 2.6
v -2.6 1.4 2.4
v -2.2 1.4 2.4
v 1.1 1.4 2.4
v 1.5 1.4 2.4
v -2.6 1.4 2.2
v -2.2 1.4 2.2
v -0.7 1.4 2.2
v -0.5 1.4 2.2
v -0.0999999 1.4 2.2
v 0.0999999 1.4 2.2
v 1.1 1.4 2.2
v 1.5 1.4 2.2
v 1.8 1.4 2
v 2 1.4 2
v -0.7 1.4 1.8
v -0.5 1.4 1.8
v 1.8 1.4 1.6
v 2 1.4 1.6
v -1.8 1.4 1.4
v -1.4 1.4 1.4
v -1.8 1.4 1.2
v -1.4 1.4 1.2
v 1.9 1.4 0.9
v 2.2 1.4 0.9
v 1.9 1.4 0.7
v 2.2 1.4 0.7
v -2 1.4 0.5
v -1.8 1.4 0.5
v 1.1 1.4 0.3
v 1.4 1.4 0.3
v 1.1 1.4 0.0999999
v 1.4 1.4 0.0999999
v -2 1.4 0
v -1.8 1.4 0
v -2.2 1.4 -0.8
v -2 1.4 -0.8
v 1.6 1.4 -1.1
v 1.8 1.4 -1.1
v -2.2 1.4 -1.2
v -2 1.4 -1.2
v 1.6 1.4 -1.5
v 1.8 1.4 -1.5
v 0.4 1.4 -1.8
v 0.6 1.4 -1.8
v -1.1 1.4 -1.9
v -0.7 1.4 -1.9
v -2.3 1.4 -2
v -2.1 1.4 -2
v -1.1 1.4 -2.1
v -0.7 1.4 -2.1
v 0.4 1.4 -2.2
v 0.6 1.4 -2.2
v 2.1 1.4 -2.2
v 2.3 1.4 -2.2
v -2.3 1.4 -2.3
v -2.1 1.4 -2.3
v 2.1 1.4 -2.6
v 2.3 1.4 -2.6
v -0.0999999 1.5 2.6
v 0.0999999 1.5 2.6
v -2.6 1.5 2.4
v -2.2 1.5 2.4
v 1.1 1.5 2.4
v 1.5 1.5 2.4
v -2.6 1.5 2.2
v -2.2 1.5 2.2
v -0.7 1.5 2.2
v -0.5 1.5 2.2
v -0.0999999 1.5 2.2
v 0.0999999 1.5 2.2
v 1.1 1.5 2.2
v 1.5 1.5 2.2
v 1.8 1.5 2
v 2 1.5 2
v -0.7 1.5 1.8
v -0.5 1.5 1.8
v 1.8 1.5 1.6
v 2 1.5 1.6
v -1.8 1.5 1.4
v -1.4 1.5 1.4
v -1.8 1.5 1.2
v -1.4 1.5 1.2
v 1.9 1.5 0.9
v 2.2 1.5 0.9
v 1.9 1.5 0.7
v 2.2 1.5 0.7
v -2 1.5 0.5
v -1.8 1.5 0.5
v 1.1 1.5 0.3
v 1.4 1.5 0.3
v 1.1 1.5 0.0999999
v 1.4 1.5 0.0999999
v -2 1.5 0
v -1.8 1.5 0
v -2.2 1.5 -0.8
v -2 1.5 -0.8
v 1.6 1.5 -1.1
v 1.8 1.5 -1.1
v -2.2 1.5 -1.2
v -2 1.5 -1.2
v 1.6 1.5 -1.5
v 1.8 1.5 -1.5
v 0.4 1.5 -1.8
v 0.6 1.5 -1.8
v -1.1 1.5 -1.9
v -0.7 1.5 -1.9
v -2.3 1.5 -2
v -2.1 1.5 -2
v -1.1 1.5 -2.1
v -0.7 1.5 -2.1
v 0.4 1.5 -2.2
v 0.6 1.5 -2.2
v 2.1 1.5 -2.2
v 2.3 1.5 -2.2
v -2.3 1.5 -2.3
v -2.1 1.5 -2.3
v 2.1 1.5 -2.6
v 2.3 1.5 -2.6

# faces
f 3/3/1 2/3/1 1/3/1
f 4/3/1 2/3/1 3/3/1
f 7/4/1 6/4/1 5/4/1
f 8/4/1 6/4/1 7/4/1
f 11/6/1 10/6/1 9/6/1
f 12/6/1 10/6/1 11/6/1
f 15/2/1 14/2/1 13/2/1
f 16/2/1 14/2/1 15/2/1
f 19/1/1 18/1/1 17/1/1
f 20/1/1 18/1/1 19/1/1
f 23/3/1 22/3/1 21/3/1
f 24/3/1 22/3/1 23/3/1
f 27/4/1 26/4/1 25/4/1
f 28/4/1 26/4/1 27/4/1
f 31/2/1 30/2/1 29/2/1
f 32/2/1 30/2/1 31/2/1
f 35/2/1 34/2/1 33/2/1
f 36/2/1 34/2/1 35/2/1
f 41/5/1 38/5/1 37/5/1
f 42/5/1 38/5/1 41/5/1
f 43/6/1 40/6/1 39/6/1
f 44/6/1 40/6/1 43/6/1
f 47/5/1 46/5/1 45/5/1
f 48/5/1 46/5/1 47/5/1
f 51/1/1 50/1/1 49/1/1
f 52/1/1 50/1/1 51/1/1
f 55/4/1 54/4/1 53/4/1
f 56/4/1 54/4/1 55/4/1
f 59/1/1 58/1/1 57/1/1
f 60/1/1 58/1/1 59/1/1
f 61/3/2 62/3/2 63/3/2
f 63/3/2 62/3/2 64/3/2
f 65/4/2 66/4/2 67/4/2
f 67/4/2 66/4/2 68/4/2
f 69/6/2 70/6/2 71/6/2
f 71/6/2 70/6/2 72/6/2
f 73/2/2 74/2/2 75/2/2
f 75/2/2 74/2/2 76/2/2
f 77/1/2 78/1/2 79/1/2
f 79/1/2 78/1/2 80/1/2
f 81/3/2 82/3/2 83/3/2
f 83/3/2 82/3/2 84/3/2
f 85/4/2 86/4/2 87/4/2
f 87/4/2 86/4/2 88/4/2
f 89/2/2 90/2/2 91/2/2
f 91/2/2 90/2/2 92/2/2
f 93/2/2 94/2/2 95/2/2
f 95/2/2 94/2/2 96/2/2
f 97/6/2 98/6/2 99/6/2
f 99/6/2 98/6/2 100/6/2
f 101/5/2 102/5/2 103/5/2
f 103/5/2 102/5/2 104/5/2
f 105/5/2 106/5/2 107/5/2
f 107/5/2 106/5/2 108/5/2
f 109/1/2 110/1/2 111/1/2
f 111/1/2 110/1/2 112/1/2
f 113/4/2 114/4/2 115/4/2
f 115/4/2 114/4/2 116/4/2
f 117/1/2 118/1/2 119/1/2
f 119/1/2 118/1/2 120/1/2
f 123/2/3 122/2/3 121/2/3
f 124/2/3 122/2/3 123/2/3
f 127/3/3 126/3/3 125/3/3
f 128/3/3 126/3/3 127/3/3
f 131/5/3 130/5/3 129/5/3
f 132/5/3 130/5/3 131/5/3
f 135/4/3 134/4/3 133/4/3
f 136/4/3 134/4/3 135/4/3
f 139/1/3 138/1/3 137/1/3
f 140/1/3 138/1/3 139/1/3
f 143/1/3 142/1/3 141/1/3
f 144/1/3 142/1/3 143/1/3
f 147/4/3 146/4/3 145/4/3
f 148/4/3 146/4/3 147/4/3
f 151/2/3 150/2/3 149/2/3
f 152/2/3 150/2/3 151/2/3
f 155/6/3 154/6/3 153/6/3
f 156/6/3 154/6/3 155/6/3
f 159/6/3 158/6/3 157/6/3
f 160/6/3 158/6/3 159/6/3
f 163/5/3 162/5/3 161/5/3
f 164/5/3 162/5/3 163/5/3
f 167/2/3 166/2/3 165/2/3
f 168/2/3 166/2/3 167/2/3
f 171/3/3 170/3/3 169/3/3
f 172/3/3 170/3/3 171/3/3
f 175/4/3 174/4/3 173/4/3
f 176/4/3 174/4/3 175/4/3
f 179/1/3 178/1/3 177/1/3
f 180/1/3 178/1/3 179/1/3
f 181/3/4 182/3/4 183/3/4
f 183/3/4 182/3/4 184/3/4
f 185/2/4 186/2/4 187/2/4
f 187/2/4 186/2/4 188/2/4
f 189/5/4 190/5/4 191/5/4
f 191/5/4 190/5/4 192/5/4
f 193/4/4 194/4/4 195/4/4
f 195/4/4 194/4/4 196/4/4
f 197/1/4 198/1/4 199/1/4
f 199/1/4 198/1/4 200/1/4
f 201/1/4 202/1/4 203/1/4
f 203/1/4 202/1/4 204/1/4
f 205/4/4 206/4/4 207/4/4
f 207/4/4 206/4/4 208/4/4
f 209/6/4 210/6/4 211/6/4
f 211/6/4 210/6/4 212/6/4
f 213/2/4 214/2/4 215/2/4
f 215/2/4 214/2/4 216/2/4
f 217/6/4 218/6/4 219/6/4
f 219/6/4 218/6/4 220/6/4
f 221/5/4 222/5/4 223/5/4
f 223/5/4 222/5/4 224/5/4
f 225/3/4 226/3/4 227/3/4
f 227/3/4 226/3/4 228/3/4
f 229/2/4 230/2/4 231/2/4
f 231/2/4 230/2/4 232/2/4
f 233/4/4 234/4/4 235/4/4
f 235/4/4 234/4/4 236/4/4
f 237/1/4 238/1/4 239/1/4
f 239/1/4 238/1/4 240/1/4
f 247/3/5 244/3/5 243/3/5
f 248/3/5 244/3/5 247/3/5
f 251/2/5 242/2/5 241/2/5
f 252/2/5 242/2/5 251/2/5
f 253/5/5 246/5/5 245/5/5
f 254/5/5 246/5/5 253/5/5
f 257/4/5 250/4/5 249/4/5
f 258/4/5 250/4/5 257/4/5
f 259/1/5 256/1/5 255/1/5
f 260/1/5 256/1/5 259/1/5
f 263/1/5 262/1/5 261/1/5
f 264/1/5 262/1/5 263/1/5
f 267/4/5 266/4/5 265/4/5
f 268/4/5 266/4/5 267/4/5
f 273/6/5 272/6/5 271/6/5
f 274/6/5 272/6/5 273/6/5
f 275/2/5 270/2/5 269/2/5
f 276/2/5 270/2/5 275/2/5
f 281/6/5 278/6/5 277/6/5
f 282/6/5 278/6/5 281/6/5
f 283/5/5 280/5/5 279/5/5
f 284/5/5 280/5/5 283/5/5
f 291/3/5 288/3/5 287/3/5
f 292/3/5 288/3/5 291/3/5
f 293/2/5 286/2/5 285/2/5
f 294/2/5 286/2/5 293/2/5
f 297/4/5 290/4/5 289/4/5
f 298/4/5 290/4/5 297/4/5
f 299/1/5 296/1/5 295/1/5
f 300/1/5 296/1/5 299/1/5
f 303/3/6 304/3/6 307/3/6
f 307/3/6 304/3/6 308/3/6
f 301/2/6 302/2/6 311/2/6
f 311/2/6 302/2/6 312/2/6
f 305/5/6 306/5/6 313/5/6
f 313/5/6 306/5/6 314/5/6
f 309/4/6 310/4/6 317/4/6
f 317/4/6 310/4/6 318/4/6
f 315/1/6 316/1/6 319/1/6
f 319/1/6 316/1/6 320/1/6
f 321/1/6 322/1/6 323/1/6
f 323/1/6 322/1/6 324/1/6
f 325/4/6 326/4/6 327/4/6
f 327/4/6 326/4/6 328/4/6
f 331/6/6 332/6/6 333/6/6
f 333/6/6 332/6/6 334/6/6
f 329/2/6 330/2/6 335/2/6
f 335/2/6 330/2/6 336/2/6
f 337/6/6 338/6/6 341/6/6
f 341/6/6 338/6/6 342/6/6
f 339/5/6 340/5/6 343/5/6
f 343/5/6 340/5/6 344/5/6
f 347/3/6 348/3/6 351/3/6
f 351/3/6 348/3/6 352/3/6
f 345/2/6 346/2/6 353/2/6
f 353/2/6 346/2/6 354/2/6
f 349/4/6 350/4/6 357/4/6
f 357/4/6 350/4/6 358/4/6
f 355/1/6 356/1/6 359/1/6
f 359/1/6 356/1/6 360/1/6
