# MagicaVoxel @ Ephtracy

# group
o 

# material
mtllib star.mtl
usemtl palette

# normals
vn -1 0 0
vn 1 0 0
vn 0 0 1
vn 0 0 -1
vn 0 -1 0
vn 0 1 0

# texcoords
vt 0.177734 0.5
vt 0.181641 0.5
vt 0.185547 0.5
vt 0.958984 0.5

# verts
v -0.85 -0.05 0.6
v -0.85 -0.05 0.4
v -0.85 -0.05 -0.4
v -0.85 -0.05 -0.6
v -0.85 0.05 0.6
v -0.85 0.05 0.4
v -0.85 0.05 -0.4
v -0.85 0.05 -0.6
v -0.75 -0.05 0.7
v -0.75 -0.05 0.6
v -0.75 -0.05 0.4
v -0.75 -0.05 0.3
v -0.75 -0.05 -0.3
v -0.75 -0.05 -0.4
v -0.75 -0.05 -0.6
v -0.75 -0.05 -0.7
v -0.75 0.05 0.7
v -0.75 0.05 0.6
v -0.75 0.05 0.4
v -0.75 0.05 0.3
v -0.75 0.05 -0.3
v -0.75 0.05 -0.4
v -0.75 0.05 -0.6
v -0.75 0.05 -0.7
v -0.65 -0.05 0.3
v -0.65 -0.05 0.1
v -0.65 -0.05 -0.1
v -0.65 -0.05 -0.3
v -0.65 0.05 0.3
v -0.65 0.05 0.1
v -0.65 0.05 -0.1
v -0.65 0.05 -0.3
v -0.55 -0.05 0.1
v -0.55 -0.05 -0.1
v -0.55 0.05 0.1
v -0.55 0.05 -0.1
v -0.05 -0.05 0.6
v -0.05 -0.05 0.5
v -0.05 -0.05 -0.5
v -0.05 -0.05 -0.6
v -0.05 0.05 0.6
v -0.05 0.05 0.5
v -0.05 0.05 -0.5
v -0.05 0.05 -0.6
v 0.05 -0.05 0.7
v 0.05 -0.05 0.6
v 0.05 -0.05 -0.6
v 0.05 -0.05 -0.7
v 0.05 0.05 0.7
v 0.05 0.05 0.6
v 0.05 0.05 -0.6
v 0.05 0.05 -0.7
v 0.15 -0.05 0.8
v 0.15 -0.05 0.7
v 0.15 -0.05 -0.7
v 0.15 -0.05 -0.8
v 0.15 0.05 0.8
v 0.15 0.05 0.7
v 0.15 0.05 -0.7
v 0.15 0.05 -0.8
v -0.55 -0.05 0.7
v -0.55 -0.05 0.6
v -0.55 -0.05 -0.6
v -0.55 -0.05 -0.7
v -0.55 0.05 0.7
v -0.55 0.05 0.6
v -0.55 0.05 -0.6
v -0.55 0.05 -0.7
v -0.35 -0.05 0.6
v -0.35 -0.05 0.5
v -0.35 -0.05 -0.5
v -0.35 -0.05 -0.6
v -0.35 0.05 0.6
v -0.35 0.05 0.5
v -0.35 0.05 -0.5
v -0.35 0.05 -0.6
v 0.35 -0.05 0.8
v 0.35 -0.05 0.3
v 0.35 -0.05 -0.3
v 0.35 -0.05 -0.8
v 0.35 0.05 0.8
v 0.35 0.05 0.3
v 0.35 0.05 -0.3
v 0.35 0.05 -0.8
v 0.55 -0.05 0.3
v 0.55 -0.05 0.2
v 0.55 -0.05 -0.2
v 0.55 -0.05 -0.3
v 0.55 0.05 0.3
v 0.55 0.05 0.2
v 0.55 0.05 -0.2
v 0.55 0.05 -0.3
v 0.75 -0.05 0.2
v 0.75 -0.05 0.1
v 0.75 -0.05 -0.1
v 0.75 -0.05 -0.2
v 0.75 0.05 0.2
v 0.75 0.05 0.1
v 0.75 0.05 -0.1
v 0.75 0.05 -0.2
v 0.85 -0.05 0.1
v 0.85 -0.05 -0.1
v 0.85 0.05 0.1
v 0.85 0.05 -0.1
v 0.15 -0.05 0.8
v 0.15 0.05 0.8
v 0.35 -0.05 0.8
v 0.35 0.05 0.8
v -0.75 -0.05 0.7
v -0.75 0.05 0.7
v -0.55 -0.05 0.7
v -0.55 0.05 0.7
v 0.05 -0.05 0.7
v 0.05 0.05 0.7
v 0.15 -0.05 0.7
v 0.15 0.05 0.7
v -0.85 -0.05 0.6
v -0.85 0.05 0.6
v -0.75 -0.05 0.6
v -0.75 0.05 0.6
v -0.55 -0.05 0.6
v -0.55 0.05 0.6
v -0.35 -0.05 0.6
v -0.35 0.05 0.6
v -0.05 -0.05 0.6
v -0.05 0.05 0.6
v 0.05 -0.05 0.6
v 0.05 0.05 0.6
v -0.35 -0.05 0.5
v -0.35 0.05 0.5
v -0.05 -0.05 0.5
v -0.05 0.05 0.5
v 0.35 -0.05 0.3
v 0.35 0.05 0.3
v 0.55 -0.05 0.3
v 0.55 0.05 0.3
v 0.55 -0.05 0.2
v 0.55 0.05 0.2
v 0.75 -0.05 0.2
v 0.75 0.05 0.2
v 0.75 -0.05 0.1
v 0.75 0.05 0.1
v 0.85 -0.05 0.1
v 0.85 0.05 0.1
v -0.65 -0.05 -0.1
v -0.65 0.05 -0.1
v -0.55 -0.05 -0.1
v -0.55 0.05 -0.1
v -0.75 -0.05 -0.3
v -0.75 0.05 -0.3
v -0.65 -0.05 -0.3
v -0.65 0.05 -0.3
v -0.85 -0.05 -0.4
v -0.85 0.05 -0.4
v -0.75 -0.05 -0.4
v -0.75 0.05 -0.4
v -0.85 -0.05 0.4
v -0.85 0.05 0.4
v -0.75 -0.05 0.4
v -0.75 0.05 0.4
v -0.75 -0.05 0.3
v -0.75 0.05 0.3
v -0.65 -0.05 0.3
v -0.65 0.05 0.3
v -0.65 -0.05 0.1
v -0.65 0.05 0.1
v -0.55 -0.05 0.1
v -0.55 0.05 0.1
v 0.75 -0.05 -0.1
v 0.75 0.05 -0.1
v 0.85 -0.05 -0.1
v 0.85 0.05 -0.1
v 0.55 -0.05 -0.2
v 0.55 0.05 -0.2
v 0.75 -0.05 -0.2
v 0.75 0.05 -0.2
v 0.35 -0.05 -0.3
v 0.35 0.05 -0.3
v 0.55 -0.05 -0.3
v 0.55 0.05 -0.3
v -0.35 -0.05 -0.5
v -0.35 0.05 -0.5
v -0.05 -0.05 -0.5
v -0.05 0.05 -0.5
v -0.85 -0.05 -0.6
v -0.85 0.05 -0.6
v -0.75 -0.05 -0.6
v -0.75 0.05 -0.6
v -0.55 -0.05 -0.6
v -0.55 0.05 -0.6
v -0.35 -0.05 -0.6
v -0.35 0.05 -0.6
v -0.05 -0.05 -0.6
v -0.05 0.05 -0.6
v 0.05 -0.05 -0.6
v 0.05 0.05 -0.6
v -0.75 -0.05 -0.7
v -0.75 0.05 -0.7
v -0.55 -0.05 -0.7
v -0.55 0.05 -0.7
v 0.05 -0.05 -0.7
v 0.05 0.05 -0.7
v 0.15 -0.05 -0.7
v 0.15 0.05 -0.7
v 0.15 -0.05 -0.8
v 0.15 0.05 -0.8
v 0.35 -0.05 -0.8
v 0.35 0.05 -0.8
v 0.15 -0.05 0.8
v 0.35 -0.05 0.8
v -0.75 -0.05 0.7
v -0.55 -0.05 0.7
v 0.05 -0.05 0.7
v 0.15 -0.05 0.7
v 0.25 -0.05 0.7
v -0.85 -0.05 0.6
v -0.75 -0.05 0.6
v -0.65 -0.05 0.6
v -0.55 -0.05 0.6
v -0.35 -0.05 0.6
v -0.05 -0.05 0.6
v 0.05 -0.05 0.6
v 0.15 -0.05 0.6
v -0.65 -0.05 0.5
v -0.55 -0.05 0.5
v -0.35 -0.05 0.5
v -0.05 -0.05 0.5
v 0.05 -0.05 0.5
v 0.15 -0.05 0.5
v -0.85 -0.05 0.4
v -0.75 -0.05 0.4
v -0.65 -0.05 0.4
v -0.55 -0.05 0.4
v -0.35 -0.05 0.4
v -0.05 -0.05 0.4
v 0.05 -0.05 0.4
v -0.75 -0.05 0.3
v -0.65 -0.05 0.3
v -0.55 -0.05 0.3
v -0.45 -0.05 0.3
v 0.15 -0.05 0.3
v 0.25 -0.05 0.3
v 0.35 -0.05 0.3
v 0.55 -0.05 0.3
v 0.25 -0.05 0.2
v 0.35 -0.05 0.2
v 0.55 -0.05 0.2
v 0.75 -0.05 0.2
v -0.65 -0.05 0.1
v -0.55 -0.05 0.1
v -0.45 -0.05 0.1
v -0.35 -0.05 0.1
v 0.35 -0.05 0.1
v 0.55 -0.05 0.1
v 0.75 -0.05 0.1
v 0.85 -0.05 0.1
v -0.65 -0.05 -0.1
v -0.55 -0.05 -0.1
v -0.45 -0.05 -0.1
v -0.35 -0.05 -0.1
v 0.35 -0.05 -0.1
v 0.55 -0.05 -0.1
v 0.75 -0.05 -0.1
v 0.85 -0.05 -0.1
v 0.25 -0.05 -0.2
v 0.35 -0.05 -0.2
v 0.55 -0.05 -0.2
v 0.75 -0.05 -0.2
v -0.75 -0.05 -0.3
v -0.65 -0.05 -0.3
v -0.55 -0.05 -0.3
v -0.45 -0.05 -0.3
v 0.15 -0.05 -0.3
v 0.25 -0.05 -0.3
v 0.35 -0.05 -0.3
v 0.55 -0.05 -0.3
v -0.85 -0.05 -0.4
v -0.75 -0.05 -0.4
v -0.65 -0.05 -0.4
v -0.55 -0.05 -0.4
v -0.35 -0.05 -0.4
v -0.05 -0.05 -0.4
v 0.05 -0.05 -0.4
v -0.65 -0.05 -0.5
v -0.55 -0.05 -0.5
v -0.35 -0.05 -0.5
v -0.05 -0.05 -0.5
v 0.05 -0.05 -0.5
v 0.15 -0.05 -0.5
v -0.85 -0.05 -0.6
v -0.75 -0.05 -0.6
v -0.65 -0.05 -0.6
v -0.55 -0.05 -0.6
v -0.35 -0.05 -0.6
v -0.05 -0.05 -0.6
v 0.05 -0.05 -0.6
v 0.15 -0.05 -0.6
v -0.75 -0.05 -0.7
v -0.55 -0.05 -0.7
v 0.05 -0.05 -0.7
v 0.15 -0.05 -0.7
v 0.25 -0.05 -0.7
v 0.15 -0.05 -0.8
v 0.35 -0.05 -0.8
v 0.15 0.05 0.8
v 0.35 0.05 0.8
v -0.75 0.05 0.7
v -0.55 0.05 0.7
v 0.05 0.05 0.7
v 0.15 0.05 0.7
v 0.25 0.05 0.7
v -0.85 0.05 0.6
v -0.75 0.05 0.6
v -0.65 0.05 0.6
v -0.55 0.05 0.6
v -0.35 0.05 0.6
v -0.05 0.05 0.6
v 0.05 0.05 0.6
v 0.15 0.05 0.6
v -0.65 0.05 0.5
v -0.55 0.05 0.5
v -0.35 0.05 0.5
v -0.05 0.05 0.5
v 0.05 0.05 0.5
v 0.15 0.05 0.5
v -0.85 0.05 0.4
v -0.75 0.05 0.4
v -0.65 0.05 0.4
v -0.55 0.05 0.4
v -0.35 0.05 0.4
v -0.05 0.05 0.4
v 0.05 0.05 0.4
v -0.75 0.05 0.3
v -0.65 0.05 0.3
v -0.55 0.05 0.3
v -0.45 0.05 0.3
v 0.15 0.05 0.3
v 0.25 0.05 0.3
v 0.35 0.05 0.3
v 0.55 0.05 0.3
v 0.25 0.05 0.2
v 0.35 0.05 0.2
v 0.55 0.05 0.2
v 0.75 0.05 0.2
v -0.65 0.05 0.1
v -0.55 0.05 0.1
v -0.45 0.05 0.1
v -0.35 0.05 0.1
v 0.35 0.05 0.1
v 0.55 0.05 0.1
v 0.75 0.05 0.1
v 0.85 0.05 0.1
v -0.65 0.05 -0.1
v -0.55 0.05 -0.1
v -0.45 0.05 -0.1
v -0.35 0.05 -0.1
v 0.35 0.05 -0.1
v 0.55 0.05 -0.1
v 0.75 0.05 -0.1
v 0.85 0.05 -0.1
v 0.25 0.05 -0.2
v 0.35 0.05 -0.2
v 0.55 0.05 -0.2
v 0.75 0.05 -0.2
v -0.75 0.05 -0.3
v -0.65 0.05 -0.3
v -0.55 0.05 -0.3
v -0.45 0.05 -0.3
v 0.15 0.05 -0.3
v 0.25 0.05 -0.3
v 0.35 0.05 -0.3
v 0.55 0.05 -0.3
v -0.85 0.05 -0.4
v -0.75 0.05 -0.4
v -0.65 0.05 -0.4
v -0.55 0.05 -0.4
v -0.35 0.05 -0.4
v -0.05 0.05 -0.4
v 0.05 0.05 -0.4
v -0.65 0.05 -0.5
v -0.55 0.05 -0.5
v -0.35 0.05 -0.5
v -0.05 0.05 -0.5
v 0.05 0.05 -0.5
v 0.15 0.05 -0.5
v -0.85 0.05 -0.6
v -0.75 0.05 -0.6
v -0.65 0.05 -0.6
v -0.55 0.05 -0.6
v -0.35 0.05 -0.6
v -0.05 0.05 -0.6
v 0.05 0.05 -0.6
v 0.15 0.05 -0.6
v -0.75 0.05 -0.7
v -0.55 0.05 -0.7
v 0.05 0.05 -0.7
v 0.15 0.05 -0.7
v 0.25 0.05 -0.7
v 0.15 0.05 -0.8
v 0.35 0.05 -0.8

# faces
f 5/4/1 2/4/1 1/4/1
f 6/4/1 2/4/1 5/4/1
f 7/4/1 4/4/1 3/4/1
f 8/4/1 4/4/1 7/4/1
f 17/4/1 10/4/1 9/4/1
f 18/4/1 10/4/1 17/4/1
f 19/4/1 12/4/1 11/4/1
f 20/4/1 12/4/1 19/4/1
f 21/4/1 14/4/1 13/4/1
f 22/4/1 14/4/1 21/4/1
f 23/4/1 16/4/1 15/4/1
f 24/4/1 16/4/1 23/4/1
f 29/4/1 26/4/1 25/4/1
f 30/4/1 26/4/1 29/4/1
f 31/4/1 28/4/1 27/4/1
f 32/4/1 28/4/1 31/4/1
f 35/4/1 34/4/1 33/4/1
f 36/4/1 34/4/1 35/4/1
f 41/4/1 38/4/1 37/4/1
f 42/4/1 38/4/1 41/4/1
f 43/4/1 40/4/1 39/4/1
f 44/4/1 40/4/1 43/4/1
f 49/4/1 46/4/1 45/4/1
f 50/4/1 46/4/1 49/4/1
f 51/4/1 48/4/1 47/4/1
f 52/4/1 48/4/1 51/4/1
f 57/4/1 54/4/1 53/4/1
f 58/4/1 54/4/1 57/4/1
f 59/4/1 56/4/1 55/4/1
f 60/4/1 56/4/1 59/4/1
f 61/4/2 62/4/2 65/4/2
f 65/4/2 62/4/2 66/4/2
f 63/4/2 64/4/2 67/4/2
f 67/4/2 64/4/2 68/4/2
f 69/4/2 70/4/2 73/4/2
f 73/4/2 70/4/2 74/4/2
f 71/4/2 72/4/2 75/4/2
f 75/4/2 72/4/2 76/4/2
f 77/4/2 78/4/2 81/4/2
f 81/4/2 78/4/2 82/4/2
f 79/4/2 80/4/2 83/4/2
f 83/4/2 80/4/2 84/4/2
f 85/4/2 86/4/2 89/4/2
f 89/4/2 86/4/2 90/4/2
f 87/4/2 88/4/2 91/4/2
f 91/4/2 88/4/2 92/4/2
f 93/4/2 94/4/2 97/4/2
f 97/4/2 94/4/2 98/4/2
f 95/4/2 96/4/2 99/4/2
f 99/4/2 96/4/2 100/4/2
f 101/4/2 102/4/2 103/4/2
f 103/4/2 102/4/2 104/4/2
f 107/4/3 106/4/3 105/4/3
f 108/4/3 106/4/3 107/4/3
f 111/4/3 110/4/3 109/4/3
f 112/4/3 110/4/3 111/4/3
f 115/4/3 114/4/3 113/4/3
f 116/4/3 114/4/3 115/4/3
f 119/4/3 118/4/3 117/4/3
f 120/4/3 118/4/3 119/4/3
f 123/4/3 122/4/3 121/4/3
f 124/4/3 122/4/3 123/4/3
f 127/4/3 126/4/3 125/4/3
f 128/4/3 126/4/3 127/4/3
f 131/4/3 130/4/3 129/4/3
f 132/4/3 130/4/3 131/4/3
f 135/4/3 134/4/3 133/4/3
f 136/4/3 134/4/3 135/4/3
f 139/4/3 138/4/3 137/4/3
f 140/4/3 138/4/3 139/4/3
f 143/4/3 142/4/3 141/4/3
f 144/4/3 142/4/3 143/4/3
f 147/4/3 146/4/3 145/4/3
f 148/4/3 146/4/3 147/4/3
f 151/4/3 150/4/3 149/4/3
f 152/4/3 150/4/3 151/4/3
f 155/4/3 154/4/3 153/4/3
f 156/4/3 154/4/3 155/4/3
f 157/4/4 158/4/4 159/4/4
f 159/4/4 158/4/4 160/4/4
f 161/4/4 162/4/4 163/4/4
f 163/4/4 162/4/4 164/4/4
f 165/4/4 166/4/4 167/4/4
f 167/4/4 166/4/4 168/4/4
f 169/4/4 170/4/4 171/4/4
f 171/4/4 170/4/4 172/4/4
f 173/4/4 174/4/4 175/4/4
f 175/4/4 174/4/4 176/4/4
f 177/4/4 178/4/4 179/4/4
f 179/4/4 178/4/4 180/4/4
f 181/4/4 182/4/4 183/4/4
f 183/4/4 182/4/4 184/4/4
f 185/4/4 186/4/4 187/4/4
f 187/4/4 186/4/4 188/4/4
f 189/4/4 190/4/4 191/4/4
f 191/4/4 190/4/4 192/4/4
f 193/4/4 194/4/4 195/4/4
f 195/4/4 194/4/4 196/4/4
f 197/4/4 198/4/4 199/4/4
f 199/4/4 198/4/4 200/4/4
f 201/4/4 202/4/4 203/4/4
f 203/4/4 202/4/4 204/4/4
f 205/4/4 206/4/4 207/4/4
f 207/4/4 206/4/4 208/4/4
f 214/4/5 210/4/5 209/4/5
f 215/4/5 210/4/5 214/4/5
f 217/4/5 212/4/5 211/4/5
f 218/4/5 212/4/5 217/4/5
f 219/4/5 212/4/5 218/4/5
f 222/4/5 214/4/5 213/4/5
f 223/3/5 215/3/5 214/3/5
f 223/4/5 214/4/5 222/4/5
f 224/2/5 218/2/5 217/2/5
f 224/3/5 219/3/5 218/3/5
f 225/4/5 220/4/5 219/4/5
f 225/3/5 219/3/5 224/3/5
f 226/4/5 220/4/5 225/4/5
f 227/4/5 222/4/5 221/4/5
f 228/2/5 223/2/5 222/2/5
f 228/4/5 222/4/5 227/4/5
f 229/3/5 215/3/5 223/3/5
f 229/2/5 223/2/5 228/2/5
f 230/4/5 217/4/5 216/4/5
f 231/2/5 224/2/5 217/2/5
f 231/4/5 217/4/5 230/4/5
f 232/1/5 225/1/5 224/1/5
f 232/2/5 224/2/5 231/2/5
f 233/3/5 226/3/5 225/3/5
f 233/1/5 225/1/5 232/1/5
f 234/4/5 227/4/5 226/4/5
f 234/3/5 226/3/5 233/3/5
f 235/2/5 228/2/5 227/2/5
f 235/4/5 227/4/5 234/4/5
f 236/1/5 229/1/5 228/1/5
f 236/2/5 228/2/5 235/2/5
f 237/4/5 232/4/5 231/4/5
f 238/2/5 233/2/5 232/2/5
f 238/4/5 232/4/5 237/4/5
f 239/1/5 234/1/5 233/1/5
f 239/2/5 233/2/5 238/2/5
f 239/1/5 236/1/5 235/1/5
f 239/1/5 235/1/5 234/1/5
f 240/1/5 236/1/5 239/1/5
f 241/1/5 229/1/5 236/1/5
f 241/1/5 236/1/5 240/1/5
f 241/3/5 215/3/5 229/3/5
f 242/4/5 210/4/5 215/4/5
f 242/3/5 215/3/5 241/3/5
f 243/4/5 210/4/5 242/4/5
f 245/1/5 241/1/5 240/1/5
f 245/3/5 243/3/5 242/3/5
f 245/1/5 242/1/5 241/1/5
f 246/4/5 244/4/5 243/4/5
f 246/3/5 243/3/5 245/3/5
f 247/4/5 244/4/5 246/4/5
f 249/4/5 239/4/5 238/4/5
f 250/2/5 240/2/5 239/2/5
f 250/4/5 239/4/5 249/4/5
f 251/1/5 245/1/5 240/1/5
f 251/2/5 240/2/5 250/2/5
f 251/1/5 246/1/5 245/1/5
f 252/1/5 246/1/5 251/1/5
f 253/3/5 247/3/5 246/3/5
f 253/1/5 246/1/5 252/1/5
f 254/4/5 248/4/5 247/4/5
f 254/3/5 247/3/5 253/3/5
f 255/4/5 248/4/5 254/4/5
f 258/4/5 251/4/5 250/4/5
f 259/2/5 252/2/5 251/2/5
f 259/4/5 251/4/5 258/4/5
f 260/1/5 253/1/5 252/1/5
f 260/2/5 252/2/5 259/2/5
f 260/1/5 254/1/5 253/1/5
f 261/1/5 254/1/5 260/1/5
f 262/3/5 255/3/5 254/3/5
f 262/1/5 254/1/5 261/1/5
f 263/4/5 256/4/5 255/4/5
f 263/3/5 255/3/5 262/3/5
f 264/4/5 256/4/5 263/4/5
f 265/1/5 261/1/5 260/1/5
f 265/1/5 260/1/5 259/1/5
f 266/3/5 262/3/5 261/3/5
f 266/1/5 261/1/5 265/1/5
f 267/4/5 263/4/5 262/4/5
f 267/3/5 262/3/5 266/3/5
f 268/4/5 263/4/5 267/4/5
f 270/4/5 258/4/5 257/4/5
f 271/2/5 259/2/5 258/2/5
f 271/4/5 258/4/5 270/4/5
f 272/1/5 265/1/5 259/1/5
f 272/2/5 259/2/5 271/2/5
f 273/1/5 265/1/5 272/1/5
f 274/3/5 266/3/5 265/3/5
f 274/1/5 265/1/5 273/1/5
f 275/4/5 267/4/5 266/4/5
f 275/3/5 266/3/5 274/3/5
f 276/4/5 267/4/5 275/4/5
f 278/4/5 270/4/5 269/4/5
f 279/2/5 271/2/5 270/2/5
f 279/4/5 270/4/5 278/4/5
f 280/1/5 273/1/5 272/1/5
f 280/2/5 271/2/5 279/2/5
f 280/1/5 272/1/5 271/1/5
f 281/1/5 273/1/5 280/1/5
f 282/1/5 273/1/5 281/1/5
f 283/1/5 273/1/5 282/1/5
f 284/2/5 279/2/5 278/2/5
f 284/1/5 280/1/5 279/1/5
f 285/3/5 281/3/5 280/3/5
f 285/1/5 280/1/5 284/1/5
f 286/4/5 282/4/5 281/4/5
f 286/3/5 281/3/5 285/3/5
f 287/2/5 283/2/5 282/2/5
f 287/4/5 282/4/5 286/4/5
f 288/1/5 273/1/5 283/1/5
f 288/2/5 283/2/5 287/2/5
f 289/3/5 274/3/5 273/3/5
f 289/1/5 273/1/5 288/1/5
f 290/4/5 278/4/5 277/4/5
f 291/2/5 284/2/5 278/2/5
f 291/4/5 278/4/5 290/4/5
f 292/3/5 285/3/5 284/3/5
f 292/2/5 284/2/5 291/2/5
f 293/4/5 286/4/5 285/4/5
f 293/3/5 285/3/5 292/3/5
f 294/4/5 286/4/5 293/4/5
f 295/4/5 288/4/5 287/4/5
f 296/2/5 289/2/5 288/2/5
f 296/4/5 288/4/5 295/4/5
f 297/3/5 274/3/5 289/3/5
f 297/2/5 289/2/5 296/2/5
f 298/4/5 292/4/5 291/4/5
f 298/4/5 293/4/5 292/4/5
f 299/4/5 293/4/5 298/4/5
f 300/4/5 297/4/5 296/4/5
f 301/3/5 274/3/5 297/3/5
f 301/4/5 297/4/5 300/4/5
f 302/4/5 275/4/5 274/4/5
f 302/3/5 274/3/5 301/3/5
f 303/4/5 302/4/5 301/4/5
f 304/4/5 275/4/5 302/4/5
f 304/4/5 302/4/5 303/4/5
f 305/4/6 306/4/6 310/4/6
f 310/4/6 306/4/6 311/4/6
f 307/4/6 308/4/6 313/4/6
f 313/4/6 308/4/6 314/4/6
f 314/4/6 308/4/6 315/4/6
f 309/4/6 310/4/6 318/4/6
f 310/3/6 311/3/6 319/3/6
f 318/4/6 310/4/6 319/4/6
f 313/2/6 314/2/6 320/2/6
f 314/3/6 315/3/6 320/3/6
f 315/4/6 316/4/6 321/4/6
f 320/3/6 315/3/6 321/3/6
f 321/4/6 316/4/6 322/4/6
f 317/4/6 318/4/6 323/4/6
f 318/2/6 319/2/6 324/2/6
f 323/4/6 318/4/6 324/4/6
f 319/3/6 311/3/6 325/3/6
f 324/2/6 319/2/6 325/2/6
f 312/4/6 313/4/6 326/4/6
f 313/2/6 320/2/6 327/2/6
f 326/4/6 313/4/6 327/4/6
f 320/1/6 321/1/6 328/1/6
f 327/2/6 320/2/6 328/2/6
f 321/3/6 322/3/6 329/3/6
f 328/1/6 321/1/6 329/1/6
f 322/4/6 323/4/6 330/4/6
f 329/3/6 322/3/6 330/3/6
f 323/2/6 324/2/6 331/2/6
f 330/4/6 323/4/6 331/4/6
f 324/1/6 325/1/6 332/1/6
f 331/2/6 324/2/6 332/2/6
f 327/4/6 328/4/6 333/4/6
f 328/2/6 329/2/6 334/2/6
f 333/4/6 328/4/6 334/4/6
f 329/1/6 330/1/6 335/1/6
f 334/2/6 329/2/6 335/2/6
f 331/1/6 332/1/6 335/1/6
f 330/1/6 331/1/6 335/1/6
f 335/1/6 332/1/6 336/1/6
f 332/1/6 325/1/6 337/1/6
f 336/1/6 332/1/6 337/1/6
f 325/3/6 311/3/6 337/3/6
f 311/4/6 306/4/6 338/4/6
f 337/3/6 311/3/6 338/3/6
f 338/4/6 306/4/6 339/4/6
f 336/1/6 337/1/6 341/1/6
f 338/3/6 339/3/6 341/3/6
f 337/1/6 338/1/6 341/1/6
f 339/4/6 340/4/6 342/4/6
f 341/3/6 339/3/6 342/3/6
f 342/4/6 340/4/6 343/4/6
f 334/4/6 335/4/6 345/4/6
f 335/2/6 336/2/6 346/2/6
f 345/4/6 335/4/6 346/4/6
f 336/1/6 341/1/6 347/1/6
f 346/2/6 336/2/6 347/2/6
f 341/1/6 342/1/6 347/1/6
f 347/1/6 342/1/6 348/1/6
f 342/3/6 343/3/6 349/3/6
f 348/1/6 342/1/6 349/1/6
f 343/4/6 344/4/6 350/4/6
f 349/3/6 343/3/6 350/3/6
f 350/4/6 344/4/6 351/4/6
f 346/4/6 347/4/6 354/4/6
f 347/2/6 348/2/6 355/2/6
f 354/4/6 347/4/6 355/4/6
f 348/1/6 349/1/6 356/1/6
f 355/2/6 348/2/6 356/2/6
f 349/1/6 350/1/6 356/1/6
f 356/1/6 350/1/6 357/1/6
f 350/3/6 351/3/6 358/3/6
f 357/1/6 350/1/6 358/1/6
f 351/4/6 352/4/6 359/4/6
f 358/3/6 351/3/6 359/3/6
f 359/4/6 352/4/6 360/4/6
f 356/1/6 357/1/6 361/1/6
f 355/1/6 356/1/6 361/1/6
f 357/3/6 358/3/6 362/3/6
f 361/1/6 357/1/6 362/1/6
f 358/4/6 359/4/6 363/4/6
f 362/3/6 358/3/6 363/3/6
f 363/4/6 359/4/6 364/4/6
f 353/4/6 354/4/6 366/4/6
f 354/2/6 355/2/6 367/2/6
f 366/4/6 354/4/6 367/4/6
f 355/1/6 361/1/6 368/1/6
f 367/2/6 355/2/6 368/2/6
f 368/1/6 361/1/6 369/1/6
f 361/3/6 362/3/6 370/3/6
f 369/1/6 361/1/6 370/1/6
f 362/4/6 363/4/6 371/4/6
f 370/3/6 362/3/6 371/3/6
f 371/4/6 363/4/6 372/4/6
f 365/4/6 366/4/6 374/4/6
f 366/2/6 367/2/6 375/2/6
f 374/4/6 366/4/6 375/4/6
f 368/1/6 369/1/6 376/1/6
f 375/2/6 367/2/6 376/2/6
f 367/1/6 368/1/6 376/1/6
f 376/1/6 369/1/6 377/1/6
f 377/1/6 369/1/6 378/1/6
f 378/1/6 369/1/6 379/1/6
f 374/2/6 375/2/6 380/2/6
f 375/1/6 376/1/6 380/1/6
f 376/3/6 377/3/6 381/3/6
f 380/1/6 376/1/6 381/1/6
f 377/4/6 378/4/6 382/4/6
f 381/3/6 377/3/6 382/3/6
f 378/2/6 379/2/6 383/2/6
f 382/4/6 378/4/6 383/4/6
f 379/1/6 369/1/6 384/1/6
f 383/2/6 379/2/6 384/2/6
f 369/3/6 370/3/6 385/3/6
f 384/1/6 369/1/6 385/1/6
f 373/4/6 374/4/6 386/4/6
f 374/2/6 380/2/6 387/2/6
f 386/4/6 374/4/6 387/4/6
f 380/3/6 381/3/6 388/3/6
f 387/2/6 380/2/6 388/2/6
f 381/4/6 382/4/6 389/4/6
f 388/3/6 381/3/6 389/3/6
f 389/4/6 382/4/6 390/4/6
f 383/4/6 384/4/6 391/4/6
f 384/2/6 385/2/6 392/2/6
f 391/4/6 384/4/6 392/4/6
f 385/3/6 370/3/6 393/3/6
f 392/2/6 385/2/6 393/2/6
f 387/4/6 388/4/6 394/4/6
f 388/4/6 389/4/6 394/4/6
f 394/4/6 389/4/6 395/4/6
f 392/4/6 393/4/6 396/4/6
f 393/3/6 370/3/6 397/3/6
f 396/4/6 393/4/6 397/4/6
f 370/4/6 371/4/6 398/4/6
f 397/3/6 370/3/6 398/3/6
f 397/4/6 398/4/6 399/4/6
f 398/4/6 371/4/6 400/4/6
f 399/4/6 398/4/6 400/4/6
