# MagicaVoxel @ Ephtracy

# group
o 

# material
mtllib Voxel The Tape.mtl
usemtl palette

# normals
vn 0 1 0
vn 0 -1 0
vn 1 0 0
vn -1 0 0
vn 0 0 1
vn 0 0 -1

# texcoords
vt 0.0605469 0.5
vt 0.0878906 0.5
vt 0.0917969 0.5
vt 0.255859 0.5
vt 0.294922 0.5
vt 0.302734 0.5
vt 0.306641 0.5
vt 0.466797 0.5
vt 0.724609 0.5
vt 0.958984 0.5
vt 0.986328 0.5
vt 0.990234 0.5
vt 0.994141 0.5

# verts
v 1.1 2 0.3
v -1.4 2 0.3
v 1.1 2 -0.1
v -1.4 2 -0.1
v 0 1.2 0.2
v -0.3 1.2 0.2
v 0 1.2 0.1
v -0.3 1.2 0.1
v 0 1.2 0
v -0.3 1.2 0
v 0.5 1.1 0.2
v 0.2 1.1 0.2
v -0.5 1.1 0.2
v -0.8 1.1 0.2
v 0.5 1.1 0.1
v 0.2 1.1 0.1
v -0.5 1.1 0.1
v -0.8 1.1 0.1
v 0.5 1.1 0
v 0.2 1.1 0
v -0.5 1.1 0
v -0.8 1.1 0
v 0.9 0.7 0.3
v 0.6 0.7 0.3
v -0.9 0.7 0.3
v -1.2 0.7 0.3
v 0.9 0.7 0.2
v 0.6 0.7 0.2
v -0.9 0.7 0.2
v -1.2 0.7 0.2
v 0.9 0.7 0
v 0.6 0.7 0
v -0.9 0.7 0
v -1.2 0.7 0
v 0.9 0.7 -0.1
v 0.6 0.7 -0.1
v -0.9 0.7 -0.1
v -1.2 0.7 -0.1
v 0.5 0.5 0
v 0.4 0.5 0
v -0.7 0.5 0
v -0.8 0.5 0
v 0.5 0.5 -0.1
v 0.4 0.5 -0.1
v -0.7 0.5 -0.1
v -0.8 0.5 -0.1
v 0.8 1.8 0.3
v -1.1 1.8 0.3
v 0.8 1.8 0.2
v -1.1 1.8 0.2
v 0.8 1.8 0
v -1.1 1.8 0
v 0.8 1.8 -0.1
v -1.1 1.8 -0.1
v 0.9 1.7 0.3
v 0.8 1.7 0.3
v -1.1 1.7 0.3
v -1.2 1.7 0.3
v 0.9 1.7 0.2
v 0.8 1.7 0.2
v -1.1 1.7 0.2
v -1.2 1.7 0.2
v 0.9 1.7 0
v 0.8 1.7 0
v -1.1 1.7 0
v -1.2 1.7 0
v 0.9 1.7 -0.1
v 0.8 1.7 -0.1
v -1.1 1.7 -0.1
v -1.2 1.7 -0.1
v 0.5 1.4 0.2
v 0.2 1.4 0.2
v -0.5 1.4 0.2
v -0.8 1.4 0.2
v 0.5 1.4 0.1
v 0.2 1.4 0.1
v -0.5 1.4 0.1
v -0.8 1.4 0.1
v 0.5 1.4 0
v 0.2 1.4 0
v -0.5 1.4 0
v -0.8 1.4 0
v 0 1.3 0.2
v -0.3 1.3 0.2
v 0 1.3 0.1
v -0.3 1.3 0.1
v 0 1.3 0
v -0.3 1.3 0
v 0.5 0.6 0
v 0.4 0.6 0
v -0.7 0.6 0
v -0.8 0.6 0
v 0.5 0.6 -0.1
v 0.4 0.6 -0.1
v -0.7 0.6 -0.1
v -0.8 0.6 -0.1
v 1.1 0.4 0.3
v 0.8 0.4 0.3
v -1.1 0.4 0.3
v -1.4 0.4 0.3
v 1.1 0.4 -0.1
v 0.8 0.4 -0.1
v -1.1 0.4 -0.1
v -1.4 0.4 -0.1
v 1.1 2 0.3
v 1.1 2 -0.1
v 1.1 0.4 0.3
v 1.1 0.4 -0.1
v 0.4 0.6 0
v 0.4 0.6 -0.1
v 0.4 0.5 0
v 0.4 0.5 -0.1
v 0.2 1.4 0.2
v 0.2 1.4 0.1
v 0.2 1.4 0
v 0.2 1.3 0.2
v 0.2 1.3 0.1
v 0.2 1.2 0.2
v 0.2 1.2 0.1
v 0.2 1.1 0.2
v 0.2 1.1 0.1
v 0.2 1.1 0
v -0.3 1.3 0.2
v -0.3 1.3 0.1
v -0.3 1.3 0
v -0.3 1.2 0.2
v -0.3 1.2 0.1
v -0.3 1.2 0
v -0.8 1.4 0.2
v -0.8 1.4 0.1
v -0.8 1.4 0
v -0.8 1.1 0.2
v -0.8 1.1 0.1
v -0.8 1.1 0
v -0.8 0.6 0
v -0.8 0.6 -0.1
v -0.8 0.5 0
v -0.8 0.5 -0.1
v -1.1 1.8 0.3
v -1.1 1.8 0.2
v -1.1 1.8 0
v -1.1 1.8 -0.1
v -1.1 1.7 0.3
v -1.1 1.7 0.2
v -1.1 1.7 0
v -1.1 1.7 -0.1
v -1.2 1.7 0.3
v -1.2 1.7 0.2
v -1.2 1.7 0
v -1.2 1.7 -0.1
v -1.2 1.6 0.2
v -1.2 1.5 0.2
v -1.2 1.4 0.2
v -1.2 1.3 0.2
v -1.2 1.2 0.2
v -1.2 1.1 0.2
v -1.2 1 0.2
v -1.2 0.7 0.3
v -1.2 0.7 0.2
v -1.2 0.7 0
v -1.2 0.7 -0.1
v 0.9 1.7 0.3
v 0.9 1.7 0.2
v 0.9 1.7 0
v 0.9 1.7 -0.1
v 0.9 1.6 0.2
v 0.9 1.5 0.2
v 0.9 1.4 0.2
v 0.9 1.3 0.2
v 0.9 1.2 0.2
v 0.9 1.1 0.2
v 0.9 1 0.2
v 0.9 0.7 0.3
v 0.9 0.7 0.2
v 0.9 0.7 0
v 0.9 0.7 -0.1
v 0.8 1.8 0.3
v 0.8 1.8 0.2
v 0.8 1.8 0
v 0.8 1.8 -0.1
v 0.8 1.7 0.3
v 0.8 1.7 0.2
v 0.8 1.7 0
v 0.8 1.7 -0.1
v 0.5 1.4 0.2
v 0.5 1.4 0.1
v 0.5 1.4 0
v 0.5 1.1 0.2
v 0.5 1.1 0.1
v 0.5 1.1 0
v 0.5 0.6 0
v 0.5 0.6 -0.1
v 0.5 0.5 0
v 0.5 0.5 -0.1
v 0 1.3 0.2
v 0 1.3 0.1
v 0 1.3 0
v 0 1.2 0.2
v 0 1.2 0.1
v 0 1.2 0
v -0.5 1.4 0.2
v -0.5 1.4 0.1
v -0.5 1.4 0
v -0.5 1.3 0.2
v -0.5 1.3 0.1
v -0.5 1.2 0.2
v -0.5 1.2 0.1
v -0.5 1.1 0.2
v -0.5 1.1 0.1
v -0.5 1.1 0
v -0.7 0.6 0
v -0.7 0.6 -0.1
v -0.7 0.5 0
v -0.7 0.5 -0.1
v -1.4 2 0.3
v -1.4 2 -0.1
v -1.4 0.4 0.3
v -1.4 0.4 -0.1
v 1.1 2 0.3
v 1.1 0.4 0.3
v 0.9 1.7 0.3
v 0.9 0.7 0.3
v 0.8 1.8 0.3
v 0.8 1.7 0.3
v 0.8 0.5 0.3
v 0.8 0.4 0.3
v 0.7 0.6 0.3
v 0.7 0.5 0.3
v 0.6 0.7 0.3
v 0.6 0.6 0.3
v -0.9 0.7 0.3
v -0.9 0.6 0.3
v -1 0.6 0.3
v -1 0.5 0.3
v -1.1 1.8 0.3
v -1.1 1.7 0.3
v -1.1 0.5 0.3
v -1.1 0.4 0.3
v -1.2 1.7 0.3
v -1.2 0.7 0.3
v -1.4 2 0.3
v -1.4 0.4 0.3
v 0.9 1.7 0.2
v 0.9 1.6 0.2
v 0.9 1.5 0.2
v 0.9 1.4 0.2
v 0.9 1.3 0.2
v 0.9 1.2 0.2
v 0.9 1.1 0.2
v 0.9 1 0.2
v 0.9 0.7 0.2
v 0.8 1.8 0.2
v 0.8 1.7 0.2
v 0.6 1.5 0.2
v 0.6 1.4 0.2
v 0.6 1.3 0.2
v 0.6 1.2 0.2
v 0.6 1.1 0.2
v 0.6 1 0.2
v 0.6 0.7 0.2
v 0.5 1.4 0.2
v 0.5 1.1 0.2
v 0.2 1.4 0.2
v 0.2 1.3 0.2
v 0.2 1.2 0.2
v 0.2 1.1 0.2
v 0.1 1.4 0.2
v 0.1 1.3 0.2
v 0.1 1.2 0.2
v 0.1 1.1 0.2
v 0 1.3 0.2
v 0 1.2 0.2
v -0.3 1.3 0.2
v -0.3 1.2 0.2
v -0.4 1.4 0.2
v -0.4 1.3 0.2
v -0.4 1.2 0.2
v -0.4 1.1 0.2
v -0.5 1.4 0.2
v -0.5 1.3 0.2
v -0.5 1.2 0.2
v -0.5 1.1 0.2
v -0.8 1.4 0.2
v -0.8 1.1 0.2
v -0.9 1.5 0.2
v -0.9 1.4 0.2
v -0.9 1.3 0.2
v -0.9 1.2 0.2
v -0.9 1.1 0.2
v -0.9 1 0.2
v -0.9 0.7 0.2
v -1.1 1.8 0.2
v -1.1 1.7 0.2
v -1.2 1.7 0.2
v -1.2 1.6 0.2
v -1.2 1.5 0.2
v -1.2 1.4 0.2
v -1.2 1.3 0.2
v -1.2 1.2 0.2
v -1.2 1.1 0.2
v -1.2 1 0.2
v -1.2 0.7 0.2
v 0.9 1.7 0
v 0.9 0.7 0
v 0.8 1.8 0
v 0.8 1.7 0
v 0.6 0.7 0
v 0.5 1.4 0
v 0.5 1.1 0
v 0.5 0.6 0
v 0.5 0.5 0
v 0.4 0.6 0
v 0.4 0.5 0
v 0.2 1.4 0
v 0.2 1.1 0
v 0 1.3 0
v 0 1.2 0
v -0.3 1.3 0
v -0.3 1.2 0
v -0.5 1.4 0
v -0.5 1.1 0
v -0.7 0.6 0
v -0.7 0.5 0
v -0.8 1.4 0
v -0.8 1.1 0
v -0.8 0.6 0
v -0.8 0.5 0
v -0.9 0.7 0
v -1.1 1.8 0
v -1.1 1.7 0
v -1.2 1.7 0
v -1.2 0.7 0
v 1.1 2 -0.1
v 1.1 0.4 -0.1
v 0.9 1.7 -0.1
v 0.9 0.7 -0.1
v 0.8 1.8 -0.1
v 0.8 1.7 -0.1
v 0.8 0.5 -0.1
v 0.8 0.4 -0.1
v 0.7 0.6 -0.1
v 0.7 0.5 -0.1
v 0.6 0.7 -0.1
v 0.6 0.6 -0.1
v 0.5 0.6 -0.1
v 0.5 0.5 -0.1
v 0.4 0.6 -0.1
v 0.4 0.5 -0.1
v -0.7 0.6 -0.1
v -0.7 0.5 -0.1
v -0.8 0.6 -0.1
v -0.8 0.5 -0.1
v -0.9 0.7 -0.1
v -0.9 0.6 -0.1
v -1 0.6 -0.1
v -1 0.5 -0.1
v -1.1 1.8 -0.1
v -1.1 1.7 -0.1
v -1.1 0.5 -0.1
v -1.1 0.4 -0.1
v -1.2 1.7 -0.1
v -1.2 0.7 -0.1
v -1.4 2 -0.1
v -1.4 0.4 -0.1

# faces
f 3/12/1 2/12/1 1/12/1
f 4/12/1 2/12/1 3/12/1
f 7/13/1 6/13/1 5/13/1
f 8/13/1 6/13/1 7/13/1
f 9/11/1 8/11/1 7/11/1
f 10/11/1 8/11/1 9/11/1
f 15/10/1 12/10/1 11/10/1
f 16/10/1 12/10/1 15/10/1
f 17/10/1 14/10/1 13/10/1
f 18/10/1 14/10/1 17/10/1
f 19/11/1 16/11/1 15/11/1
f 20/11/1 16/11/1 19/11/1
f 21/11/1 18/11/1 17/11/1
f 22/11/1 18/11/1 21/11/1
f 27/12/1 24/12/1 23/12/1
f 28/11/1 25/11/1 24/11/1
f 28/12/1 24/12/1 27/12/1
f 29/12/1 26/12/1 25/12/1
f 29/11/1 25/11/1 28/11/1
f 30/12/1 26/12/1 29/12/1
f 35/12/1 32/12/1 31/12/1
f 36/11/1 33/11/1 32/11/1
f 36/12/1 32/12/1 35/12/1
f 37/12/1 34/12/1 33/12/1
f 37/11/1 33/11/1 36/11/1
f 38/12/1 34/12/1 37/12/1
f 43/11/1 40/11/1 39/11/1
f 44/11/1 40/11/1 43/11/1
f 45/11/1 42/11/1 41/11/1
f 46/11/1 42/11/1 45/11/1
f 47/12/2 48/12/2 49/12/2
f 49/12/2 48/12/2 50/12/2
f 51/12/2 52/12/2 53/12/2
f 53/12/2 52/12/2 54/12/2
f 55/12/2 56/12/2 59/12/2
f 59/12/2 56/12/2 60/12/2
f 57/12/2 58/12/2 61/12/2
f 61/12/2 58/12/2 62/12/2
f 63/12/2 64/12/2 67/12/2
f 67/12/2 64/12/2 68/12/2
f 65/12/2 66/12/2 69/12/2
f 69/12/2 66/12/2 70/12/2
f 71/10/2 72/10/2 75/10/2
f 75/10/2 72/10/2 76/10/2
f 73/10/2 74/10/2 77/10/2
f 77/10/2 74/10/2 78/10/2
f 75/11/2 76/11/2 79/11/2
f 79/11/2 76/11/2 80/11/2
f 77/11/2 78/11/2 81/11/2
f 81/11/2 78/11/2 82/11/2
f 83/13/2 84/13/2 85/13/2
f 85/13/2 84/13/2 86/13/2
f 85/11/2 86/11/2 87/11/2
f 87/11/2 86/11/2 88/11/2
f 89/11/2 90/11/2 93/11/2
f 93/11/2 90/11/2 94/11/2
f 91/11/2 92/11/2 95/11/2
f 95/11/2 92/11/2 96/11/2
f 97/12/2 98/12/2 101/12/2
f 98/11/2 99/11/2 102/11/2
f 101/12/2 98/12/2 102/12/2
f 99/12/2 100/12/2 103/12/2
f 102/11/2 99/11/2 103/11/2
f 103/12/2 100/12/2 104/12/2
f 107/12/3 106/12/3 105/12/3
f 108/12/3 106/12/3 107/12/3
f 111/11/3 110/11/3 109/11/3
f 112/11/3 110/11/3 111/11/3
f 116/8/3 114/8/3 113/8/3
f 117/11/3 115/11/3 114/11/3
f 117/8/3 114/8/3 116/8/3
f 118/1/3 117/1/3 116/1/3
f 119/11/3 115/11/3 117/11/3
f 119/1/3 117/1/3 118/1/3
f 120/2/3 119/2/3 118/2/3
f 121/11/3 115/11/3 119/11/3
f 121/2/3 119/2/3 120/2/3
f 122/11/3 115/11/3 121/11/3
f 126/10/3 124/10/3 123/10/3
f 127/11/3 125/11/3 124/11/3
f 127/10/3 124/10/3 126/10/3
f 128/11/3 125/11/3 127/11/3
f 132/10/3 130/10/3 129/10/3
f 133/11/3 131/11/3 130/11/3
f 133/10/3 130/10/3 132/10/3
f 134/11/3 131/11/3 133/11/3
f 137/11/3 136/11/3 135/11/3
f 138/11/3 136/11/3 137/11/3
f 143/12/3 140/12/3 139/12/3
f 144/12/3 140/12/3 143/12/3
f 145/12/3 142/12/3 141/12/3
f 146/12/3 142/12/3 145/12/3
f 151/12/3 148/12/3 147/12/3
f 152/12/3 151/12/3 147/12/3
f 153/12/3 152/12/3 147/12/3
f 154/12/3 153/12/3 147/12/3
f 155/12/3 154/12/3 147/12/3
f 156/12/3 155/12/3 147/12/3
f 157/12/3 156/12/3 147/12/3
f 158/12/3 157/12/3 147/12/3
f 159/12/3 157/12/3 158/12/3
f 160/12/3 150/12/3 149/12/3
f 161/12/3 150/12/3 160/12/3
f 162/12/4 163/12/4 166/12/4
f 162/12/4 166/12/4 167/12/4
f 162/12/4 167/12/4 168/12/4
f 162/12/4 168/12/4 169/12/4
f 162/12/4 169/12/4 170/12/4
f 162/12/4 170/12/4 171/12/4
f 162/12/4 171/12/4 172/12/4
f 162/12/4 172/12/4 173/12/4
f 173/12/4 172/12/4 174/12/4
f 164/12/4 165/12/4 175/12/4
f 175/12/4 165/12/4 176/12/4
f 177/12/4 178/12/4 181/12/4
f 181/12/4 178/12/4 182/12/4
f 179/12/4 180/12/4 183/12/4
f 183/12/4 180/12/4 184/12/4
f 185/10/4 186/10/4 188/10/4
f 186/11/4 187/11/4 189/11/4
f 188/10/4 186/10/4 189/10/4
f 189/11/4 187/11/4 190/11/4
f 191/11/4 192/11/4 193/11/4
f 193/11/4 192/11/4 194/11/4
f 195/10/4 196/10/4 198/10/4
f 196/11/4 197/11/4 199/11/4
f 198/10/4 196/10/4 199/10/4
f 199/11/4 197/11/4 200/11/4
f 201/8/4 202/8/4 204/8/4
f 202/11/4 203/11/4 205/11/4
f 204/8/4 202/8/4 205/8/4
f 204/1/4 205/1/4 206/1/4
f 205/11/4 203/11/4 207/11/4
f 206/1/4 205/1/4 207/1/4
f 206/2/4 207/2/4 208/2/4
f 207/11/4 203/11/4 209/11/4
f 208/2/4 207/2/4 209/2/4
f 209/11/4 203/11/4 210/11/4
f 211/11/4 212/11/4 213/11/4
f 213/11/4 212/11/4 214/11/4
f 215/12/4 216/12/4 217/12/4
f 217/12/4 216/12/4 218/12/4
f 221/12/5 220/12/5 219/12/5
f 222/12/5 220/12/5 221/12/5
f 223/12/5 221/12/5 219/12/5
f 224/12/5 221/12/5 223/12/5
f 225/12/5 220/12/5 222/12/5
f 226/12/5 220/12/5 225/12/5
f 227/12/5 225/12/5 222/12/5
f 228/11/5 226/11/5 225/11/5
f 228/12/5 225/12/5 227/12/5
f 229/12/5 227/12/5 222/12/5
f 230/11/5 228/11/5 227/11/5
f 230/12/5 227/12/5 229/12/5
f 231/11/5 230/11/5 229/11/5
f 232/11/5 228/11/5 230/11/5
f 232/11/5 230/11/5 231/11/5
f 233/12/5 232/12/5 231/12/5
f 233/11/5 228/11/5 232/11/5
f 234/11/5 226/11/5 228/11/5
f 234/11/5 228/11/5 233/11/5
f 235/12/5 223/12/5 219/12/5
f 237/11/5 226/11/5 234/11/5
f 237/12/5 234/12/5 233/12/5
f 238/11/5 226/11/5 237/11/5
f 239/12/5 236/12/5 235/12/5
f 240/12/5 233/12/5 231/12/5
f 240/12/5 237/12/5 233/12/5
f 240/12/5 238/12/5 237/12/5
f 241/12/5 239/12/5 235/12/5
f 241/12/5 240/12/5 239/12/5
f 241/12/5 235/12/5 219/12/5
f 242/12/5 238/12/5 240/12/5
f 242/12/5 240/12/5 241/12/5
f 253/5/5 244/5/5 243/5/5
f 254/6/5 245/6/5 244/6/5
f 254/9/5 246/9/5 245/9/5
f 255/8/5 247/8/5 246/8/5
f 255/9/5 246/9/5 254/9/5
f 256/1/5 248/1/5 247/1/5
f 256/8/5 247/8/5 255/8/5
f 257/2/5 249/2/5 248/2/5
f 257/1/5 248/1/5 256/1/5
f 258/3/5 250/3/5 249/3/5
f 258/2/5 249/2/5 257/2/5
f 259/4/5 251/4/5 250/4/5
f 259/3/5 250/3/5 258/3/5
f 260/4/5 251/4/5 259/4/5
f 261/10/5 258/10/5 257/10/5
f 261/10/5 255/10/5 254/10/5
f 261/10/5 256/10/5 255/10/5
f 261/10/5 259/10/5 258/10/5
f 261/10/5 257/10/5 256/10/5
f 262/10/5 259/10/5 261/10/5
f 263/10/5 261/10/5 254/10/5
f 266/10/5 259/10/5 262/10/5
f 267/10/5 263/10/5 254/10/5
f 267/8/5 264/8/5 263/8/5
f 268/1/5 265/1/5 264/1/5
f 268/8/5 264/8/5 267/8/5
f 269/2/5 266/2/5 265/2/5
f 269/1/5 265/1/5 268/1/5
f 270/10/5 259/10/5 266/10/5
f 270/2/5 266/2/5 269/2/5
f 271/13/5 268/13/5 267/13/5
f 271/10/5 269/10/5 268/10/5
f 272/13/5 270/13/5 269/13/5
f 272/10/5 269/10/5 271/10/5
f 273/13/5 271/13/5 267/13/5
f 274/13/5 270/13/5 272/13/5
f 275/10/5 267/10/5 254/10/5
f 275/13/5 273/13/5 267/13/5
f 276/10/5 274/10/5 273/10/5
f 276/13/5 273/13/5 275/13/5
f 277/13/5 270/13/5 274/13/5
f 277/10/5 274/10/5 276/10/5
f 278/10/5 259/10/5 270/10/5
f 278/13/5 270/13/5 277/13/5
f 279/10/5 275/10/5 254/10/5
f 279/8/5 276/8/5 275/8/5
f 280/1/5 277/1/5 276/1/5
f 280/8/5 276/8/5 279/8/5
f 281/2/5 278/2/5 277/2/5
f 281/1/5 277/1/5 280/1/5
f 282/10/5 259/10/5 278/10/5
f 282/2/5 278/2/5 281/2/5
f 283/10/5 279/10/5 254/10/5
f 284/10/5 259/10/5 282/10/5
f 285/6/5 254/6/5 244/6/5
f 285/10/5 284/10/5 283/10/5
f 285/10/5 283/10/5 254/10/5
f 286/10/5 284/10/5 285/10/5
f 287/10/5 284/10/5 286/10/5
f 288/10/5 284/10/5 287/10/5
f 289/10/5 259/10/5 284/10/5
f 289/10/5 284/10/5 288/10/5
f 290/4/5 260/4/5 259/4/5
f 290/10/5 259/10/5 289/10/5
f 291/4/5 260/4/5 290/4/5
f 292/10/5 253/10/5 252/10/5
f 293/5/5 244/5/5 253/5/5
f 293/10/5 253/10/5 292/10/5
f 294/5/5 244/5/5 293/5/5
f 295/6/5 285/6/5 244/6/5
f 295/5/5 244/5/5 294/5/5
f 296/9/5 286/9/5 285/9/5
f 296/6/5 285/6/5 295/6/5
f 297/8/5 287/8/5 286/8/5
f 297/9/5 286/9/5 296/9/5
f 298/1/5 288/1/5 287/1/5
f 298/8/5 287/8/5 297/8/5
f 299/2/5 289/2/5 288/2/5
f 299/1/5 288/1/5 298/1/5
f 300/3/5 290/3/5 289/3/5
f 300/2/5 289/2/5 299/2/5
f 301/4/5 291/4/5 290/4/5
f 301/3/5 290/3/5 300/3/5
f 302/4/5 291/4/5 301/4/5
f 303/11/6 304/11/6 306/11/6
f 306/11/6 304/11/6 307/11/6
f 305/11/6 306/11/6 307/11/6
f 305/11/6 307/11/6 308/11/6
f 308/11/6 307/11/6 309/11/6
f 310/12/6 311/12/6 312/12/6
f 312/12/6 311/12/6 313/12/6
f 305/11/6 308/11/6 314/11/6
f 309/11/6 307/11/6 315/11/6
f 314/11/6 315/11/6 316/11/6
f 316/11/6 315/11/6 317/11/6
f 314/11/6 316/11/6 318/11/6
f 317/11/6 315/11/6 319/11/6
f 305/11/6 314/11/6 320/11/6
f 318/11/6 319/11/6 320/11/6
f 314/11/6 318/11/6 320/11/6
f 319/11/6 315/11/6 321/11/6
f 320/11/6 319/11/6 321/11/6
f 315/11/6 307/11/6 321/11/6
f 305/11/6 320/11/6 324/11/6
f 321/11/6 307/11/6 325/11/6
f 322/12/6 323/12/6 326/12/6
f 326/12/6 323/12/6 327/12/6
f 324/11/6 325/11/6 328/11/6
f 325/11/6 307/11/6 328/11/6
f 305/11/6 324/11/6 329/11/6
f 324/11/6 328/11/6 329/11/6
f 329/11/6 328/11/6 330/11/6
f 330/11/6 328/11/6 331/11/6
f 331/11/6 328/11/6 332/11/6
f 333/12/6 334/12/6 335/12/6
f 335/12/6 334/12/6 336/12/6
f 333/12/6 335/12/6 337/12/6
f 337/12/6 335/12/6 338/12/6
f 336/12/6 334/12/6 339/12/6
f 339/12/6 334/12/6 340/12/6
f 336/12/6 339/12/6 341/12/6
f 339/11/6 340/11/6 342/11/6
f 341/12/6 339/12/6 342/12/6
f 336/12/6 341/12/6 343/12/6
f 341/11/6 342/11/6 344/11/6
f 343/12/6 341/12/6 344/12/6
f 343/11/6 344/11/6 345/11/6
f 344/11/6 342/11/6 345/11/6
f 342/11/6 340/11/6 346/11/6
f 345/11/6 342/11/6 346/11/6
f 343/11/6 345/11/6 347/11/6
f 346/11/6 340/11/6 348/11/6
f 343/11/6 347/11/6 349/11/6
f 347/11/6 348/11/6 349/11/6
f 348/11/6 340/11/6 350/11/6
f 349/11/6 348/11/6 350/11/6
f 343/11/6 349/11/6 351/11/6
f 350/11/6 340/11/6 352/11/6
f 343/11/6 351/11/6 353/11/6
f 351/11/6 352/11/6 353/11/6
f 353/11/6 352/11/6 354/11/6
f 353/12/6 354/12/6 355/12/6
f 354/11/6 352/11/6 355/11/6
f 352/11/6 340/11/6 356/11/6
f 355/11/6 352/11/6 356/11/6
f 333/12/6 337/12/6 357/12/6
f 356/11/6 340/11/6 359/11/6
f 355/12/6 356/12/6 359/12/6
f 359/11/6 340/11/6 360/11/6
f 357/12/6 358/12/6 361/12/6
f 353/12/6 355/12/6 362/12/6
f 355/12/6 359/12/6 362/12/6
f 359/12/6 360/12/6 362/12/6
f 357/12/6 361/12/6 363/12/6
f 361/12/6 362/12/6 363/12/6
f 333/12/6 357/12/6 363/12/6
f 362/12/6 360/12/6 364/12/6
f 363/12/6 362/12/6 364/12/6
