# MagicaVoxel @ Ephtracy

# group
o 

# material
mtllib bear-5.mtl
usemtl palette

# normals
vn -1 0 0
vn 1 0 0
vn 0 0 1
vn 0 0 -1
vn 0 -1 0
vn 0 1 0

# texcoords
vt 0.181641 0.5
vt 0.185547 0.5
vt 0.228516 0.5
vt 0.232422 0.5
vt 0.986328 0.5

# verts
v -0.8 0.7 0.05
v -0.8 0.7 -0.05
v -0.8 0.8 0.15
v -0.8 0.8 0.05
v -0.8 0.9 0.15
v -0.8 0.9 0.05
v -0.8 0.9 -0.05
v -0.7 0.6 0.15
v -0.7 0.6 0.05
v -0.7 0.7 0.15
v -0.7 0.7 0.05
v -0.7 0.8 0.15
v -0.7 0.8 0.05
v -0.6 0.1 0.25
v -0.6 0.1 0.15
v -0.6 0.4 0.25
v -0.6 0.4 0.15
v -0.5 0.7 0.05
v -0.5 0.7 -0.05
v -0.5 0.8 0.05
v -0.5 0.9 0.05
v -0.5 0.9 -0.05
v -0.5 1.1 0.05
v -0.5 1.1 -0.05
v -0.4 1.1 0.05
v -0.4 1.1 -0.05
v -0.4 1.2 0.05
v -0.4 1.2 -0.05
v -0.3 1.2 0.05
v -0.3 1.2 -0.05
v -0.3 1.2 -0.15
v -0.3 1.3 0.05
v -0.3 1.3 -0.05
v -0.3 1.3 -0.15
v 0 0.1 0.25
v 0 0.1 0.15
v 0 0.2 0.25
v 0 0.2 0.15
v 0 0.3 0.25
v 0 0.3 0.15
v 0 0.4 0.25
v 0 0.4 0.15
v 0.1 1.2 0.05
v 0.1 1.2 -0.05
v 0.1 1.2 -0.15
v 0.1 1.3 0.05
v 0.1 1.3 -0.05
v 0.1 1.3 -0.15
v 0.2 1.1 -0.05
v 0.2 1.1 -0.15
v 0.2 1.2 -0.05
v 0.2 1.2 -0.15
v 0.3 0.9 -0.05
v 0.3 0.9 -0.15
v 0.3 1.1 -0.05
v 0.3 1.1 -0.15
v 0.4 0.1 0.25
v 0.4 0.1 0.15
v 0.4 0.2 0.25
v 0.4 0.2 0.15
v 0.4 0.7 0.05
v 0.4 0.7 -0.05
v 0.4 0.8 0.05
v 0.4 0.8 -0.05
v 0.4 0.8 -0.15
v 0.4 0.9 -0.05
v 0.4 0.9 -0.15
v 0.6 0.7 0.05
v 0.6 0.7 -0.05
v 0.6 0.8 0.05
v 0.6 0.9 0.05
v 0.6 0.9 -0.05
v 0.7 0.8 0.15
v 0.7 0.8 0.05
v 0.7 0.9 0.15
v 0.7 0.9 0.05
v -0.6 0.7 0.05
v -0.6 0.7 -0.05
v -0.6 0.8 0.15
v -0.6 0.8 0.05
v -0.6 0.9 0.15
v -0.6 0.9 0.05
v -0.6 0.9 -0.05
v -0.4 0.7 0.05
v -0.4 0.7 -0.05
v -0.4 0.8 0.05
v -0.4 0.8 -0.05
v -0.3 0.1 0.25
v -0.3 0.1 0.15
v -0.3 0.2 0.25
v -0.3 0.2 0.15
v -0.3 0.3 0.25
v -0.3 0.3 0.15
v -0.3 0.4 0.25
v -0.3 0.4 0.15
v -0.2 1.2 0.05
v -0.2 1.2 -0.05
v -0.2 1.3 0.05
v -0.2 1.3 -0.05
v -0.1 1.2 -0.05
v -0.1 1.2 -0.15
v -0.1 1.3 -0.05
v -0.1 1.3 -0.15
v 0.2 1.1 0.05
v 0.2 1.1 -0.05
v 0.2 1.3 0.05
v 0.2 1.3 -0.05
v 0.3 0.1 0.25
v 0.3 0.1 0.15
v 0.3 0.2 0.25
v 0.3 0.2 0.15
v 0.3 0.3 0.25
v 0.3 0.3 0.15
v 0.3 0.4 0.25
v 0.3 0.4 0.15
v 0.3 0.9 0.05
v 0.3 0.9 -0.05
v 0.3 1.1 0.05
v 0.3 1.1 -0.05
v 0.3 1.2 -0.05
v 0.3 1.2 -0.15
v 0.3 1.3 -0.05
v 0.3 1.3 -0.15
v 0.4 0.8 0.05
v 0.4 0.8 -0.05
v 0.4 0.9 0.05
v 0.4 0.9 -0.05
v 0.4 1.1 -0.05
v 0.4 1.1 -0.15
v 0.4 1.2 -0.05
v 0.4 1.2 -0.15
v 0.5 0.1 0.25
v 0.5 0.1 0.15
v 0.5 0.3 0.25
v 0.5 0.3 0.15
v 0.5 0.7 0.05
v 0.5 0.7 -0.05
v 0.5 0.8 0.05
v 0.5 0.8 -0.05
v 0.5 0.8 -0.15
v 0.5 0.9 -0.05
v 0.5 0.9 -0.15
v 0.5 1.1 -0.05
v 0.5 1.1 -0.15
v 0.7 0.6 0.15
v 0.7 0.6 0.05
v 0.7 0.7 0.15
v 0.7 0.7 0.05
v 0.7 0.8 0.15
v 0.7 0.8 0.05
v 0.8 0.7 0.05
v 0.8 0.7 -0.05
v 0.8 0.8 0.15
v 0.8 0.8 0.05
v 0.8 0.9 0.15
v 0.8 0.9 0.05
v 0.8 0.9 -0.05
v -0.6 0.1 0.25
v -0.6 0.4 0.25
v -0.5 0.2 0.25
v -0.5 0.3 0.25
v -0.4 0.2 0.25
v -0.4 0.3 0.25
v -0.3 0.1 0.25
v -0.3 0.2 0.25
v -0.3 0.3 0.25
v -0.3 0.4 0.25
v 0 0.1 0.25
v 0 0.2 0.25
v 0 0.3 0.25
v 0 0.4 0.25
v 0.1 0.2 0.25
v 0.1 0.3 0.25
v 0.2 0.2 0.25
v 0.2 0.3 0.25
v 0.3 0.1 0.25
v 0.3 0.2 0.25
v 0.3 0.3 0.25
v 0.3 0.4 0.25
v 0.4 0.1 0.25
v 0.4 0.2 0.25
v 0.5 0.1 0.25
v 0.5 0.3 0.25
v -0.8 0.8 0.15
v -0.8 0.9 0.15
v -0.7 0.6 0.15
v -0.7 0.7 0.15
v -0.7 0.8 0.15
v -0.6 0.8 0.15
v -0.6 0.9 0.15
v 0.7 0.6 0.15
v 0.7 0.7 0.15
v 0.7 0.8 0.15
v 0.7 0.9 0.15
v 0.8 0.8 0.15
v 0.8 0.9 0.15
v -0.8 0.7 0.05
v -0.8 0.8 0.05
v -0.7 0.7 0.05
v -0.7 0.8 0.05
v -0.5 0.8 0.05
v -0.5 0.9 0.05
v -0.5 1.1 0.05
v -0.4 1.1 0.05
v -0.4 1.2 0.05
v -0.3 1.2 0.05
v -0.3 1.3 0.05
v -0.2 1.2 0.05
v -0.2 1.3 0.05
v 0.1 1.2 0.05
v 0.1 1.3 0.05
v 0.2 1.1 0.05
v 0.2 1.3 0.05
v 0.3 0.9 0.05
v 0.3 1.1 0.05
v 0.4 0.8 0.05
v 0.4 0.9 0.05
v 0.6 0.8 0.05
v 0.6 0.9 0.05
v 0.7 0.7 0.05
v 0.7 0.8 0.05
v 0.7 0.9 0.05
v 0.8 0.7 0.05
v 0.8 0.8 0.05
v -0.2 1.2 -0.05
v -0.2 1.3 -0.05
v -0.1 1.2 -0.05
v -0.1 1.3 -0.05
v 0.2 1.1 -0.05
v 0.2 1.3 -0.05
v 0.3 0.9 -0.05
v 0.3 1.1 -0.05
v 0.3 1.2 -0.05
v 0.3 1.3 -0.05
v 0.4 0.8 -0.05
v 0.4 0.9 -0.05
v 0.4 1.1 -0.05
v 0.4 1.2 -0.05
v 0.5 0.8 -0.05
v 0.5 0.9 -0.05
v 0.5 1.1 -0.05
v -0.6 0.1 0.15
v -0.6 0.4 0.15
v -0.5 0.2 0.15
v -0.5 0.3 0.15
v -0.4 0.2 0.15
v -0.4 0.3 0.15
v -0.3 0.1 0.15
v -0.3 0.2 0.15
v -0.3 0.3 0.15
v -0.3 0.4 0.15
v 0 0.1 0.15
v 0 0.2 0.15
v 0 0.3 0.15
v 0 0.4 0.15
v 0.1 0.2 0.15
v 0.1 0.3 0.15
v 0.2 0.2 0.15
v 0.2 0.3 0.15
v 0.3 0.1 0.15
v 0.3 0.2 0.15
v 0.3 0.3 0.15
v 0.3 0.4 0.15
v 0.4 0.1 0.15
v 0.4 0.2 0.15
v 0.5 0.1 0.15
v 0.5 0.3 0.15
v -0.7 0.6 0.05
v -0.7 0.7 0.05
v -0.6 0.7 0.05
v -0.6 0.8 0.05
v -0.5 0.7 0.05
v -0.5 0.8 0.05
v -0.4 0.7 0.05
v -0.4 0.8 0.05
v 0.4 0.7 0.05
v 0.4 0.8 0.05
v 0.5 0.7 0.05
v 0.5 0.8 0.05
v 0.6 0.7 0.05
v 0.6 0.8 0.05
v 0.7 0.6 0.05
v 0.7 0.7 0.05
v -0.8 0.7 -0.05
v -0.8 0.9 -0.05
v -0.6 0.7 -0.05
v -0.6 0.9 -0.05
v -0.5 0.7 -0.05
v -0.5 0.9 -0.05
v -0.5 1.1 -0.05
v -0.4 0.7 -0.05
v -0.4 0.8 -0.05
v -0.4 1.1 -0.05
v -0.4 1.2 -0.05
v -0.3 1.2 -0.05
v -0.1 1.2 -0.05
v 0.1 1.2 -0.05
v 0.2 1.1 -0.05
v 0.2 1.2 -0.05
v 0.3 0.9 -0.05
v 0.3 1.1 -0.05
v 0.4 0.7 -0.05
v 0.4 0.8 -0.05
v 0.4 0.9 -0.05
v 0.5 0.7 -0.05
v 0.5 0.8 -0.05
v 0.6 0.7 -0.05
v 0.6 0.9 -0.05
v 0.8 0.7 -0.05
v 0.8 0.9 -0.05
v -0.3 1.2 -0.15
v -0.3 1.3 -0.15
v -0.1 1.2 -0.15
v -0.1 1.3 -0.15
v 0.1 1.2 -0.15
v 0.1 1.3 -0.15
v 0.2 1.1 -0.15
v 0.2 1.2 -0.15
v 0.3 0.9 -0.15
v 0.3 1.1 -0.15
v 0.3 1.2 -0.15
v 0.3 1.3 -0.15
v 0.4 0.8 -0.15
v 0.4 0.9 -0.15
v 0.4 1.1 -0.15
v 0.4 1.2 -0.15
v 0.5 0.8 -0.15
v 0.5 0.9 -0.15
v 0.5 1.1 -0.15
v -0.6 0.1 0.25
v -0.3 0.1 0.25
v 0 0.1 0.25
v 0.3 0.1 0.25
v 0.4 0.1 0.25
v 0.5 0.1 0.25
v -0.6 0.1 0.15
v -0.3 0.1 0.15
v 0 0.1 0.15
v 0.3 0.1 0.15
v 0.4 0.1 0.15
v 0.5 0.1 0.15
v -0.3 0.2 0.25
v 0 0.2 0.25
v 0.3 0.2 0.25
v 0.4 0.2 0.25
v -0.3 0.2 0.15
v 0 0.2 0.15
v 0.3 0.2 0.15
v 0.4 0.2 0.15
v -0.7 0.6 0.15
v 0.7 0.6 0.15
v -0.7 0.6 0.05
v 0.7 0.6 0.05
v -0.8 0.7 0.05
v -0.7 0.7 0.05
v -0.6 0.7 0.05
v -0.5 0.7 0.05
v -0.4 0.7 0.05
v 0.4 0.7 0.05
v 0.5 0.7 0.05
v 0.6 0.7 0.05
v 0.7 0.7 0.05
v 0.8 0.7 0.05
v -0.8 0.7 -0.05
v -0.6 0.7 -0.05
v -0.5 0.7 -0.05
v -0.4 0.7 -0.05
v 0.4 0.7 -0.05
v 0.5 0.7 -0.05
v 0.6 0.7 -0.05
v 0.8 0.7 -0.05
v -0.8 0.8 0.15
v -0.7 0.8 0.15
v 0.7 0.8 0.15
v 0.8 0.8 0.15
v -0.8 0.8 0.05
v -0.7 0.8 0.05
v -0.4 0.8 0.05
v 0.4 0.8 0.05
v 0.7 0.8 0.05
v 0.8 0.8 0.05
v -0.4 0.8 -0.05
v 0.4 0.8 -0.05
v 0.5 0.8 -0.05
v 0.4 0.8 -0.15
v 0.5 0.8 -0.15
v 0.3 0.9 -0.05
v 0.4 0.9 -0.05
v 0.3 0.9 -0.15
v 0.4 0.9 -0.15
v 0.2 1.1 -0.05
v 0.3 1.1 -0.05
v 0.2 1.1 -0.15
v 0.3 1.1 -0.15
v -0.3 1.2 -0.05
v -0.1 1.2 -0.05
v 0.1 1.2 -0.05
v 0.2 1.2 -0.05
v -0.3 1.2 -0.15
v -0.1 1.2 -0.15
v 0.1 1.2 -0.15
v 0.2 1.2 -0.15
v -0.3 0.3 0.25
v 0 0.3 0.25
v 0.3 0.3 0.25
v 0.5 0.3 0.25
v -0.3 0.3 0.15
v 0 0.3 0.15
v 0.3 0.3 0.15
v 0.5 0.3 0.15
v -0.6 0.4 0.25
v -0.3 0.4 0.25
v 0 0.4 0.25
v 0.3 0.4 0.25
v -0.6 0.4 0.15
v -0.3 0.4 0.15
v 0 0.4 0.15
v 0.3 0.4 0.15
v -0.6 0.8 0.15
v 0.7 0.8 0.15
v -0.6 0.8 0.05
v -0.5 0.8 0.05
v 0.4 0.8 0.05
v 0.5 0.8 0.05
v 0.6 0.8 0.05
v 0.7 0.8 0.05
v 0.4 0.8 -0.05
v 0.5 0.8 -0.05
v -0.8 0.9 0.15
v -0.6 0.9 0.15
v 0.7 0.9 0.15
v 0.8 0.9 0.15
v -0.8 0.9 0.05
v -0.6 0.9 0.05
v 0.3 0.9 0.05
v 0.4 0.9 0.05
v 0.6 0.9 0.05
v 0.7 0.9 0.05
v 0.8 0.9 0.05
v -0.8 0.9 -0.05
v -0.6 0.9 -0.05
v 0.3 0.9 -0.05
v 0.4 0.9 -0.05
v 0.6 0.9 -0.05
v 0.8 0.9 -0.05
v -0.5 1.1 0.05
v -0.4 1.1 0.05
v 0.2 1.1 0.05
v 0.3 1.1 0.05
v -0.5 1.1 -0.05
v -0.4 1.1 -0.05
v 0.2 1.1 -0.05
v 0.3 1.1 -0.05
v 0.4 1.1 -0.05
v 0.5 1.1 -0.05
v 0.4 1.1 -0.15
v 0.5 1.1 -0.15
v -0.4 1.2 0.05
v -0.3 1.2 0.05
v -0.2 1.2 0.05
v 0.1 1.2 0.05
v -0.4 1.2 -0.05
v -0.3 1.2 -0.05
v -0.2 1.2 -0.05
v -0.1 1.2 -0.05
v 0.1 1.2 -0.05
v 0.3 1.2 -0.05
v 0.4 1.2 -0.05
v 0.3 1.2 -0.15
v 0.4 1.2 -0.15
v -0.3 1.3 0.05
v -0.2 1.3 0.05
v 0.1 1.3 0.05
v 0.2 1.3 0.05
v -0.3 1.3 -0.05
v -0.2 1.3 -0.05
v -0.1 1.3 -0.05
v 0.1 1.3 -0.05
v 0.2 1.3 -0.05
v 0.3 1.3 -0.05
v -0.3 1.3 -0.15
v -0.1 1.3 -0.15
v 0.1 1.3 -0.15
v 0.3 1.3 -0.15

# faces
f 4/1/1 2/1/1 1/1/1
f 5/2/1 4/2/1 3/2/1
f 6/1/1 2/1/1 4/1/1
f 6/2/1 4/2/1 5/2/1
f 7/1/1 2/1/1 6/1/1
f 10/1/1 9/1/1 8/1/1
f 11/1/1 9/1/1 10/1/1
f 12/2/1 11/2/1 10/2/1
f 13/2/1 11/2/1 12/2/1
f 16/3/1 15/3/1 14/3/1
f 17/3/1 15/3/1 16/3/1
f 20/4/1 19/4/1 18/4/1
f 21/4/1 19/4/1 20/4/1
f 22/4/1 19/4/1 21/4/1
f 23/2/1 22/2/1 21/2/1
f 24/2/1 22/2/1 23/2/1
f 27/2/1 26/2/1 25/2/1
f 28/2/1 26/2/1 27/2/1
f 32/2/1 30/2/1 29/2/1
f 33/1/1 31/1/1 30/1/1
f 33/2/1 30/2/1 32/2/1
f 34/1/1 31/1/1 33/1/1
f 37/3/1 36/3/1 35/3/1
f 38/3/1 36/3/1 37/3/1
f 41/3/1 40/3/1 39/3/1
f 42/3/1 40/3/1 41/3/1
f 46/2/1 44/2/1 43/2/1
f 47/1/1 45/1/1 44/1/1
f 47/2/1 44/2/1 46/2/1
f 48/1/1 45/1/1 47/1/1
f 51/1/1 50/1/1 49/1/1
f 52/1/1 50/1/1 51/1/1
f 55/1/1 54/1/1 53/1/1
f 56/1/1 54/1/1 55/1/1
f 59/5/1 58/5/1 57/5/1
f 60/5/1 58/5/1 59/5/1
f 63/4/1 62/4/1 61/4/1
f 64/4/1 62/4/1 63/4/1
f 66/4/1 65/4/1 64/4/1
f 67/4/1 65/4/1 66/4/1
f 70/1/1 69/1/1 68/1/1
f 71/1/1 69/1/1 70/1/1
f 72/1/1 69/1/1 71/1/1
f 75/2/1 74/2/1 73/2/1
f 76/2/1 74/2/1 75/2/1
f 77/1/2 78/1/2 80/1/2
f 79/2/2 80/2/2 81/2/2
f 80/1/2 78/1/2 82/1/2
f 81/2/2 80/2/2 82/2/2
f 82/1/2 78/1/2 83/1/2
f 84/4/2 85/4/2 86/4/2
f 86/4/2 85/4/2 87/4/2
f 88/3/2 89/3/2 90/3/2
f 90/3/2 89/3/2 91/3/2
f 92/3/2 93/3/2 94/3/2
f 94/3/2 93/3/2 95/3/2
f 96/2/2 97/2/2 98/2/2
f 98/2/2 97/2/2 99/2/2
f 100/1/2 101/1/2 102/1/2
f 102/1/2 101/1/2 103/1/2
f 104/2/2 105/2/2 106/2/2
f 106/2/2 105/2/2 107/2/2
f 108/3/2 109/3/2 110/3/2
f 110/3/2 109/3/2 111/3/2
f 112/3/2 113/3/2 114/3/2
f 114/3/2 113/3/2 115/3/2
f 116/2/2 117/2/2 118/2/2
f 118/2/2 117/2/2 119/2/2
f 120/1/2 121/1/2 122/1/2
f 122/1/2 121/1/2 123/1/2
f 124/4/2 125/4/2 126/4/2
f 126/4/2 125/4/2 127/4/2
f 128/1/2 129/1/2 130/1/2
f 130/1/2 129/1/2 131/1/2
f 132/5/2 133/5/2 134/5/2
f 134/5/2 133/5/2 135/5/2
f 136/4/2 137/4/2 138/4/2
f 138/4/2 137/4/2 139/4/2
f 139/4/2 140/4/2 141/4/2
f 141/4/2 140/4/2 142/4/2
f 141/1/2 142/1/2 143/1/2
f 143/1/2 142/1/2 144/1/2
f 145/1/2 146/1/2 147/1/2
f 147/1/2 146/1/2 148/1/2
f 147/2/2 148/2/2 149/2/2
f 149/2/2 148/2/2 150/2/2
f 151/1/2 152/1/2 154/1/2
f 153/2/2 154/2/2 155/2/2
f 154/1/2 152/1/2 156/1/2
f 155/2/2 154/2/2 156/2/2
f 156/1/2 152/1/2 157/1/2
f 160/3/3 159/3/3 158/3/3
f 161/3/3 159/3/3 160/3/3
f 162/3/3 160/3/3 158/3/3
f 162/4/3 161/4/3 160/4/3
f 163/3/3 159/3/3 161/3/3
f 163/4/3 161/4/3 162/4/3
f 164/3/3 162/3/3 158/3/3
f 164/3/3 163/3/3 162/3/3
f 165/3/3 163/3/3 164/3/3
f 166/3/3 159/3/3 163/3/3
f 166/3/3 163/3/3 165/3/3
f 167/3/3 159/3/3 166/3/3
f 169/5/3 166/5/3 165/5/3
f 170/5/3 166/5/3 169/5/3
f 172/3/3 169/3/3 168/3/3
f 172/3/3 171/3/3 170/3/3
f 172/3/3 170/3/3 169/3/3
f 173/3/3 171/3/3 172/3/3
f 174/3/3 172/3/3 168/3/3
f 174/4/3 173/4/3 172/4/3
f 175/3/3 171/3/3 173/3/3
f 175/4/3 173/4/3 174/4/3
f 176/3/3 174/3/3 168/3/3
f 176/3/3 175/3/3 174/3/3
f 177/3/3 175/3/3 176/3/3
f 178/3/3 171/3/3 175/3/3
f 178/3/3 175/3/3 177/3/3
f 179/3/3 171/3/3 178/3/3
f 181/5/3 178/5/3 177/5/3
f 182/5/3 181/5/3 180/5/3
f 183/5/3 178/5/3 181/5/3
f 183/5/3 181/5/3 182/5/3
f 188/2/3 185/2/3 184/2/3
f 189/2/3 185/2/3 188/2/3
f 189/2/3 188/2/3 187/2/3
f 190/2/3 185/2/3 189/2/3
f 191/1/3 187/1/3 186/1/3
f 192/2/3 189/2/3 187/2/3
f 192/1/3 187/1/3 191/1/3
f 193/2/3 189/2/3 192/2/3
f 195/2/3 194/2/3 193/2/3
f 196/2/3 194/2/3 195/2/3
f 199/1/3 198/1/3 197/1/3
f 200/1/3 198/1/3 199/1/3
f 204/2/3 203/2/3 202/2/3
f 206/2/3 205/2/3 204/2/3
f 208/2/3 206/2/3 204/2/3
f 208/2/3 207/2/3 206/2/3
f 209/2/3 207/2/3 208/2/3
f 210/2/3 208/2/3 204/2/3
f 212/2/3 204/2/3 202/2/3
f 212/2/3 211/2/3 210/2/3
f 212/2/3 210/2/3 204/2/3
f 213/2/3 211/2/3 212/2/3
f 214/4/3 202/4/3 201/4/3
f 214/2/3 212/2/3 202/2/3
f 215/2/3 212/2/3 214/2/3
f 216/4/3 214/4/3 201/4/3
f 217/4/3 214/4/3 216/4/3
f 221/1/3 219/1/3 218/1/3
f 222/1/3 219/1/3 221/1/3
f 223/1/3 221/1/3 220/1/3
f 224/1/3 221/1/3 223/1/3
f 227/1/3 226/1/3 225/1/3
f 228/1/3 226/1/3 227/1/3
f 232/1/3 230/1/3 229/1/3
f 233/1/3 230/1/3 232/1/3
f 234/1/3 230/1/3 233/1/3
f 236/1/3 232/1/3 231/1/3
f 236/1/3 233/1/3 232/1/3
f 237/1/3 233/1/3 236/1/3
f 238/1/3 233/1/3 237/1/3
f 239/4/3 236/4/3 235/4/3
f 240/1/3 237/1/3 236/1/3
f 240/4/3 236/4/3 239/4/3
f 241/1/3 237/1/3 240/1/3
f 242/3/4 243/3/4 244/3/4
f 244/3/4 243/3/4 245/3/4
f 242/3/4 244/3/4 246/3/4
f 244/4/4 245/4/4 246/4/4
f 245/3/4 243/3/4 247/3/4
f 246/4/4 245/4/4 247/4/4
f 242/3/4 246/3/4 248/3/4
f 246/3/4 247/3/4 248/3/4
f 248/3/4 247/3/4 249/3/4
f 247/3/4 243/3/4 250/3/4
f 249/3/4 247/3/4 250/3/4
f 250/3/4 243/3/4 251/3/4
f 249/5/4 250/5/4 253/5/4
f 253/5/4 250/5/4 254/5/4
f 252/3/4 253/3/4 256/3/4
f 254/3/4 255/3/4 256/3/4
f 253/3/4 254/3/4 256/3/4
f 256/3/4 255/3/4 257/3/4
f 252/3/4 256/3/4 258/3/4
f 256/4/4 257/4/4 258/4/4
f 257/3/4 255/3/4 259/3/4
f 258/4/4 257/4/4 259/4/4
f 252/3/4 258/3/4 260/3/4
f 258/3/4 259/3/4 260/3/4
f 260/3/4 259/3/4 261/3/4
f 259/3/4 255/3/4 262/3/4
f 261/3/4 259/3/4 262/3/4
f 262/3/4 255/3/4 263/3/4
f 261/5/4 262/5/4 265/5/4
f 264/5/4 265/5/4 266/5/4
f 265/5/4 262/5/4 267/5/4
f 266/5/4 265/5/4 267/5/4
f 268/1/4 269/1/4 270/1/4
f 268/1/4 270/1/4 272/1/4
f 270/2/4 271/2/4 272/2/4
f 272/2/4 271/2/4 273/2/4
f 268/1/4 272/1/4 274/1/4
f 268/1/4 274/1/4 276/1/4
f 274/2/4 275/2/4 276/2/4
f 276/2/4 275/2/4 277/2/4
f 268/1/4 276/1/4 278/1/4
f 268/1/4 278/1/4 280/1/4
f 278/2/4 279/2/4 280/2/4
f 280/2/4 279/2/4 281/2/4
f 268/1/4 280/1/4 282/1/4
f 282/1/4 280/1/4 283/1/4
f 284/1/4 285/1/4 286/1/4
f 286/1/4 285/1/4 287/1/4
f 288/4/4 289/4/4 291/4/4
f 291/4/4 289/4/4 292/4/4
f 289/2/4 290/2/4 293/2/4
f 293/2/4 294/2/4 295/2/4
f 293/2/4 295/2/4 296/2/4
f 293/2/4 296/2/4 297/2/4
f 289/2/4 293/2/4 298/2/4
f 293/2/4 297/2/4 298/2/4
f 298/2/4 297/2/4 299/2/4
f 292/4/4 289/4/4 300/4/4
f 289/2/4 298/2/4 300/2/4
f 300/2/4 298/2/4 301/2/4
f 292/4/4 300/4/4 303/4/4
f 303/4/4 300/4/4 304/4/4
f 302/4/4 303/4/4 305/4/4
f 305/4/4 303/4/4 306/4/4
f 307/1/4 308/1/4 309/1/4
f 309/1/4 308/1/4 310/1/4
f 311/1/4 312/1/4 313/1/4
f 313/1/4 312/1/4 314/1/4
f 315/1/4 316/1/4 318/1/4
f 317/1/4 318/1/4 320/1/4
f 318/1/4 316/1/4 321/1/4
f 320/1/4 318/1/4 321/1/4
f 321/1/4 316/1/4 322/1/4
f 319/1/4 320/1/4 324/1/4
f 320/1/4 321/1/4 324/1/4
f 324/1/4 321/1/4 325/1/4
f 325/1/4 321/1/4 326/1/4
f 323/4/4 324/4/4 327/4/4
f 324/1/4 325/1/4 328/1/4
f 327/4/4 324/4/4 328/4/4
f 328/1/4 325/1/4 329/1/4
f 336/3/5 331/3/5 330/3/5
f 337/3/5 331/3/5 336/3/5
f 338/3/5 333/3/5 332/3/5
f 339/3/5 333/3/5 338/3/5
f 340/5/5 335/5/5 334/5/5
f 341/5/5 335/5/5 340/5/5
f 346/5/5 343/5/5 342/5/5
f 347/5/5 343/5/5 346/5/5
f 348/5/5 345/5/5 344/5/5
f 349/5/5 345/5/5 348/5/5
f 352/1/5 351/1/5 350/1/5
f 353/1/5 351/1/5 352/1/5
f 364/1/5 355/1/5 354/1/5
f 364/1/5 356/1/5 355/1/5
f 365/1/5 356/1/5 364/1/5
f 366/4/5 358/4/5 357/4/5
f 367/4/5 358/4/5 366/4/5
f 368/4/5 360/4/5 359/4/5
f 369/4/5 360/4/5 368/4/5
f 370/1/5 363/1/5 362/1/5
f 370/1/5 362/1/5 361/1/5
f 371/1/5 363/1/5 370/1/5
f 376/2/5 373/2/5 372/2/5
f 377/2/5 373/2/5 376/2/5
f 380/2/5 375/2/5 374/2/5
f 381/2/5 375/2/5 380/2/5
f 382/4/5 379/4/5 378/4/5
f 383/4/5 379/4/5 382/4/5
f 385/4/5 384/4/5 383/4/5
f 386/4/5 384/4/5 385/4/5
f 389/1/5 388/1/5 387/1/5
f 390/1/5 388/1/5 389/1/5
f 393/1/5 392/1/5 391/1/5
f 394/1/5 392/1/5 393/1/5
f 399/1/5 396/1/5 395/1/5
f 400/1/5 396/1/5 399/1/5
f 401/1/5 398/1/5 397/1/5
f 402/1/5 398/1/5 401/1/5
f 403/5/6 404/5/6 407/5/6
f 407/5/6 404/5/6 408/5/6
f 405/5/6 406/5/6 409/5/6
f 409/5/6 406/5/6 410/5/6
f 411/3/6 412/3/6 415/3/6
f 415/3/6 412/3/6 416/3/6
f 413/3/6 414/3/6 417/3/6
f 417/3/6 414/3/6 418/3/6
f 419/2/6 420/2/6 421/2/6
f 421/2/6 420/2/6 422/2/6
f 422/2/6 420/2/6 423/2/6
f 423/2/6 420/2/6 424/2/6
f 424/2/6 420/2/6 425/2/6
f 425/2/6 420/2/6 426/2/6
f 423/4/6 424/4/6 427/4/6
f 427/4/6 424/4/6 428/4/6
f 429/2/6 430/2/6 433/2/6
f 433/2/6 430/2/6 434/2/6
f 431/2/6 432/2/6 438/2/6
f 438/2/6 432/2/6 439/2/6
f 433/1/6 434/1/6 440/1/6
f 440/1/6 434/1/6 441/1/6
f 435/4/6 436/4/6 442/4/6
f 442/4/6 436/4/6 443/4/6
f 437/1/6 438/1/6 444/1/6
f 438/1/6 439/1/6 444/1/6
f 444/1/6 439/1/6 445/1/6
f 446/2/6 447/2/6 450/2/6
f 450/2/6 447/2/6 451/2/6
f 448/2/6 449/2/6 452/2/6
f 452/2/6 449/2/6 453/2/6
f 454/1/6 455/1/6 456/1/6
f 456/1/6 455/1/6 457/1/6
f 458/2/6 459/2/6 462/2/6
f 462/2/6 459/2/6 463/2/6
f 460/2/6 461/2/6 464/2/6
f 464/2/6 461/2/6 465/2/6
f 465/2/6 461/2/6 466/2/6
f 467/1/6 468/1/6 469/1/6
f 469/1/6 468/1/6 470/1/6
f 471/2/6 472/2/6 475/2/6
f 475/2/6 472/2/6 476/2/6
f 473/2/6 474/2/6 478/2/6
f 478/2/6 474/2/6 479/2/6
f 476/1/6 477/1/6 481/1/6
f 475/1/6 476/1/6 481/1/6
f 481/1/6 477/1/6 482/1/6
f 479/1/6 480/1/6 483/1/6
f 478/1/6 479/1/6 483/1/6
f 483/1/6 480/1/6 484/1/6
