# MagicaVoxel @ Ephtracy

# group
o 

# material
mtllib bear-2.mtl
usemtl palette

# normals
vn -1 0 0
vn 1 0 0
vn 0 0 1
vn 0 0 -1
vn 0 -1 0
vn 0 1 0

# texcoords
vt 0.958984 0.5
vt 0.962891 0.5
vt 0.966797 0.5

# verts
v -0.6 -0.8 -0.05
v -0.6 -0.8 -0.25
v -0.6 -0.4 -0.05
v -0.6 -0.4 -0.25
v 0.5 -0.8 -0.05
v 0.5 -0.8 -0.15
v 0.5 -0.4 -0.05
v 0.5 -0.4 -0.15
v 0.6 -0.8 -0.15
v 0.6 -0.8 -0.25
v 0.6 -0.4 -0.15
v 0.6 -0.4 -0.25
v -0.5 -0.8 -0.05
v -0.5 -0.8 -0.25
v -0.5 -0.4 -0.05
v -0.5 -0.4 -0.25
v 0.6 -0.8 -0.05
v 0.6 -0.8 -0.15
v 0.6 -0.4 -0.05
v 0.6 -0.4 -0.15
v 0.7 -0.8 -0.15
v 0.7 -0.8 -0.25
v 0.7 -0.4 -0.15
v 0.7 -0.4 -0.25
v -0.6 -0.8 -0.05
v -0.6 -0.4 -0.05
v -0.5 -0.8 -0.05
v -0.5 -0.4 -0.05
v 0.5 -0.8 -0.05
v 0.5 -0.4 -0.05
v 0.6 -0.8 -0.05
v 0.6 -0.4 -0.05
v 0.6 -0.8 -0.15
v 0.6 -0.4 -0.15
v 0.7 -0.8 -0.15
v 0.7 -0.4 -0.15
v 0.5 -0.8 -0.15
v 0.5 -0.4 -0.15
v 0.6 -0.8 -0.15
v 0.6 -0.4 -0.15
v -0.6 -0.8 -0.25
v -0.6 -0.4 -0.25
v -0.5 -0.8 -0.25
v -0.5 -0.4 -0.25
v 0.6 -0.8 -0.25
v 0.6 -0.4 -0.25
v 0.7 -0.8 -0.25
v 0.7 -0.4 -0.25
v -0.6 -0.8 -0.05
v -0.5 -0.8 -0.05
v 0.5 -0.8 -0.05
v 0.6 -0.8 -0.05
v 0.5 -0.8 -0.15
v 0.6 -0.8 -0.15
v 0.7 -0.8 -0.15
v -0.6 -0.8 -0.25
v -0.5 -0.8 -0.25
v 0.6 -0.8 -0.25
v 0.7 -0.8 -0.25
v -0.6 -0.4 -0.05
v -0.5 -0.4 -0.05
v 0.5 -0.4 -0.05
v 0.6 -0.4 -0.05
v 0.5 -0.4 -0.15
v 0.6 -0.4 -0.15
v 0.7 -0.4 -0.15
v -0.6 -0.4 -0.25
v -0.5 -0.4 -0.25
v 0.6 -0.4 -0.25
v 0.7 -0.4 -0.25

# faces
f 3/1/1 2/1/1 1/1/1
f 4/1/1 2/1/1 3/1/1
f 7/2/1 6/2/1 5/2/1
f 8/2/1 6/2/1 7/2/1
f 11/3/1 10/3/1 9/3/1
f 12/3/1 10/3/1 11/3/1
f 13/1/2 14/1/2 15/1/2
f 15/1/2 14/1/2 16/1/2
f 17/2/2 18/2/2 19/2/2
f 19/2/2 18/2/2 20/2/2
f 21/3/2 22/3/2 23/3/2
f 23/3/2 22/3/2 24/3/2
f 27/1/3 26/1/3 25/1/3
f 28/1/3 26/1/3 27/1/3
f 31/2/3 30/2/3 29/2/3
f 32/2/3 30/2/3 31/2/3
f 35/3/3 34/3/3 33/3/3
f 36/3/3 34/3/3 35/3/3
f 37/2/4 38/2/4 39/2/4
f 39/2/4 38/2/4 40/2/4
f 41/1/4 42/1/4 43/1/4
f 43/1/4 42/1/4 44/1/4
f 45/3/4 46/3/4 47/3/4
f 47/3/4 46/3/4 48/3/4
f 53/2/5 52/2/5 51/2/5
f 54/2/5 52/2/5 53/2/5
f 56/1/5 50/1/5 49/1/5
f 57/1/5 50/1/5 56/1/5
f 58/3/5 55/3/5 54/3/5
f 59/3/5 55/3/5 58/3/5
f 62/2/6 63/2/6 64/2/6
f 64/2/6 63/2/6 65/2/6
f 60/1/6 61/1/6 67/1/6
f 67/1/6 61/1/6 68/1/6
f 65/3/6 66/3/6 69/3/6
f 69/3/6 66/3/6 70/3/6
