# MagicaVoxel @ Ephtracy

# group
o 

# material
mtllib bear2-4.mtl
usemtl palette

# normals
vn -1 0 0
vn 1 0 0
vn 0 0 1
vn 0 0 -1
vn 0 -1 0
vn 0 1 0

# texcoords
vt 0.0371094 0.5
vt 0.0644531 0.5
vt 0.0683594 0.5

# verts
v -0.7 0.4 0.15
v -0.7 0.4 0.05
v -0.7 0.5 0.15
v -0.7 0.5 0.05
v -0.6 0.4 0.25
v -0.6 0.4 0.15
v -0.6 0.5 0.25
v -0.6 0.5 0.15
v -0.6 0.5 0.05
v -0.6 0.5 -0.05
v -0.6 0.8 0.05
v -0.6 0.8 -0.05
v -0.5 0.5 0.15
v -0.5 0.5 0.05
v -0.5 0.8 0.15
v -0.5 0.8 0.05
v -0.5 0.8 -0.05
v -0.5 0.9 0.05
v -0.5 0.9 -0.05
v -0.4 0.8 0.15
v -0.4 0.8 0.05
v -0.4 0.9 0.15
v -0.4 0.9 0.05
v -0.4 0.9 -0.05
v -0.4 1 0.05
v -0.4 1 -0.05
v -0.2 0.5 0.25
v -0.2 0.5 0.15
v -0.2 0.9 0.15
v -0.2 0.9 0.05
v -0.2 1 0.25
v -0.2 1 0.05
v -0.1 1 0.15
v -0.1 1 0.05
v -0.1 1.1 0.15
v -0.1 1.1 0.05
v 0.4 0.8 0.05
v 0.4 0.8 -0.05
v 0.4 0.9 0.05
v 0.4 0.9 -0.05
v 0.5 0.5 0.05
v 0.5 0.5 -0.05
v 0.5 0.8 0.05
v 0.5 0.8 -0.05
v 0.7 0.4 0.05
v 0.7 0.4 -0.05
v 0.7 0.5 0.05
v 0.7 0.5 -0.05
v -0.5 0.5 0.05
v -0.5 0.5 -0.05
v -0.5 0.8 0.05
v -0.5 0.8 -0.05
v -0.4 0.8 0.05
v -0.4 0.8 -0.05
v -0.4 0.9 0.05
v -0.4 0.9 -0.05
v 0 0.5 0.25
v 0 0.5 0.15
v 0 1 0.25
v 0 1 0.15
v 0.2 1 0.15
v 0.2 1 0.05
v 0.2 1.1 0.15
v 0.2 1.1 0.05
v 0.5 0.8 0.15
v 0.5 0.8 0.05
v 0.5 0.9 0.15
v 0.5 0.9 0.05
v 0.5 0.9 -0.05
v 0.5 1 0.15
v 0.5 1 -0.05
v 0.6 0.4 0.25
v 0.6 0.4 0.15
v 0.6 0.5 0.25
v 0.6 0.5 0.15
v 0.6 0.5 0.05
v 0.6 0.8 0.15
v 0.6 0.8 0.05
v 0.6 0.8 -0.05
v 0.6 0.9 0.05
v 0.6 0.9 -0.05
v 0.7 0.4 0.15
v 0.7 0.4 0.05
v 0.7 0.5 0.15
v 0.7 0.5 0.05
v 0.7 0.5 -0.05
v 0.7 0.8 0.05
v 0.7 0.8 -0.05
v 0.8 0.4 0.05
v 0.8 0.4 -0.05
v 0.8 0.5 0.05
v 0.8 0.5 -0.05
v -0.6 0.4 0.25
v -0.6 0.5 0.25
v -0.3 0.4 0.25
v -0.3 0.5 0.25
v -0.2 0.4 0.25
v -0.2 0.5 0.25
v -0.2 1 0.25
v -0.1 0.4 0.25
v -0.1 0.5 0.25
v -0.1 1 0.25
v 0 0.4 0.25
v 0 0.5 0.25
v 0 1 0.25
v 0.6 0.4 0.25
v 0.6 0.5 0.25
v -0.7 0.4 0.15
v -0.7 0.5 0.15
v -0.6 0.4 0.15
v -0.6 0.5 0.15
v -0.5 0.5 0.15
v -0.5 0.8 0.15
v -0.4 0.8 0.15
v -0.4 0.9 0.15
v -0.3 0.5 0.15
v -0.2 0.5 0.15
v -0.2 0.9 0.15
v -0.1 1 0.15
v -0.1 1.1 0.15
v 0 0.5 0.15
v 0 1 0.15
v 0 1.1 0.15
v 0.1 0.5 0.15
v 0.1 0.9 0.15
v 0.1 1 0.15
v 0.1 1.1 0.15
v 0.2 1 0.15
v 0.2 1.1 0.15
v 0.5 0.8 0.15
v 0.5 0.9 0.15
v 0.5 1 0.15
v 0.6 0.4 0.15
v 0.6 0.5 0.15
v 0.6 0.8 0.15
v 0.7 0.4 0.15
v 0.7 0.5 0.15
v -0.6 0.5 0.05
v -0.6 0.8 0.05
v -0.5 0.5 0.05
v -0.5 0.8 0.05
v -0.5 0.9 0.05
v -0.4 0.8 0.05
v -0.4 0.9 0.05
v -0.4 1 0.05
v -0.2 0.9 0.05
v -0.2 1 0.05
v 0.5 0.8 0.05
v 0.5 0.9 0.05
v 0.6 0.5 0.05
v 0.6 0.8 0.05
v 0.6 0.9 0.05
v 0.7 0.4 0.05
v 0.7 0.5 0.05
v 0.7 0.8 0.05
v 0.8 0.4 0.05
v 0.8 0.5 0.05
v -0.7 0.4 0.05
v -0.7 0.5 0.05
v -0.6 0.4 0.05
v -0.6 0.5 0.05
v -0.5 0.5 0.05
v -0.5 0.8 0.05
v -0.4 0.8 0.05
v -0.4 0.9 0.05
v -0.1 1 0.05
v -0.1 1.1 0.05
v 0 0.5 0.05
v 0 0.9 0.05
v 0 1 0.05
v 0 1.1 0.05
v 0.1 0.5 0.05
v 0.1 0.9 0.05
v 0.1 1 0.05
v 0.1 1.1 0.05
v 0.2 1 0.05
v 0.2 1.1 0.05
v 0.4 0.8 0.05
v 0.4 0.9 0.05
v 0.5 0.5 0.05
v 0.5 0.8 0.05
v 0.6 0.5 0.05
v 0.7 0.4 0.05
v 0.7 0.5 0.05
v -0.6 0.5 -0.05
v -0.6 0.8 -0.05
v -0.5 0.5 -0.05
v -0.5 0.8 -0.05
v -0.5 0.9 -0.05
v -0.4 0.8 -0.05
v -0.4 0.9 -0.05
v -0.4 1 -0.05
v 0.4 0.8 -0.05
v 0.4 0.9 -0.05
v 0.5 0.5 -0.05
v 0.5 0.8 -0.05
v 0.5 0.9 -0.05
v 0.5 1 -0.05
v 0.6 0.5 -0.05
v 0.6 0.8 -0.05
v 0.6 0.9 -0.05
v 0.7 0.4 -0.05
v 0.7 0.5 -0.05
v 0.7 0.8 -0.05
v 0.8 0.4 -0.05
v 0.8 0.5 -0.05
v -0.6 0.4 0.25
v -0.3 0.4 0.25
v -0.2 0.4 0.25
v -0.1 0.4 0.25
v 0 0.4 0.25
v 0.6 0.4 0.25
v -0.7 0.4 0.15
v -0.6 0.4 0.15
v -0.3 0.4 0.15
v -0.2 0.4 0.15
v -0.1 0.4 0.15
v 0 0.4 0.15
v 0.6 0.4 0.15
v 0.7 0.4 0.15
v -0.7 0.4 0.05
v -0.6 0.4 0.05
v 0.7 0.4 0.05
v 0.8 0.4 0.05
v 0.7 0.4 -0.05
v 0.8 0.4 -0.05
v -0.6 0.5 0.05
v -0.5 0.5 0.05
v 0.5 0.5 0.05
v 0.6 0.5 0.05
v 0.7 0.5 0.05
v -0.6 0.5 -0.05
v -0.5 0.5 -0.05
v 0.5 0.5 -0.05
v 0.6 0.5 -0.05
v 0.7 0.5 -0.05
v -0.5 0.8 0.05
v -0.4 0.8 0.05
v 0.4 0.8 0.05
v 0.5 0.8 0.05
v -0.5 0.8 -0.05
v -0.4 0.8 -0.05
v 0.4 0.8 -0.05
v 0.5 0.8 -0.05
v -0.4 0.9 0.05
v 0 0.9 0.05
v 0.1 0.9 0.05
v 0.4 0.9 0.05
v -0.4 0.9 -0.05
v 0.4 0.9 -0.05
v -0.6 0.5 0.25
v -0.3 0.5 0.25
v -0.2 0.5 0.25
v 0 0.5 0.25
v 0.6 0.5 0.25
v -0.7 0.5 0.15
v -0.6 0.5 0.15
v -0.5 0.5 0.15
v -0.3 0.5 0.15
v -0.2 0.5 0.15
v 0 0.5 0.15
v 0.1 0.5 0.15
v 0.6 0.5 0.15
v 0.7 0.5 0.15
v -0.7 0.5 0.05
v -0.6 0.5 0.05
v -0.5 0.5 0.05
v 0.6 0.5 0.05
v 0.7 0.5 0.05
v 0.8 0.5 0.05
v 0.7 0.5 -0.05
v 0.8 0.5 -0.05
v -0.5 0.8 0.15
v -0.4 0.8 0.15
v 0.5 0.8 0.15
v 0.6 0.8 0.15
v -0.6 0.8 0.05
v -0.5 0.8 0.05
v -0.4 0.8 0.05
v 0.5 0.8 0.05
v 0.6 0.8 0.05
v 0.7 0.8 0.05
v -0.6 0.8 -0.05
v -0.5 0.8 -0.05
v 0.6 0.8 -0.05
v 0.7 0.8 -0.05
v -0.4 0.9 0.15
v -0.2 0.9 0.15
v -0.5 0.9 0.05
v -0.4 0.9 0.05
v -0.2 0.9 0.05
v 0.5 0.9 0.05
v 0.6 0.9 0.05
v -0.5 0.9 -0.05
v -0.4 0.9 -0.05
v 0.5 0.9 -0.05
v 0.6 0.9 -0.05
v -0.2 1 0.25
v -0.1 1 0.25
v 0 1 0.25
v -0.1 1 0.15
v 0 1 0.15
v 0.2 1 0.15
v 0.5 1 0.15
v -0.4 1 0.05
v -0.2 1 0.05
v -0.1 1 0.05
v 0 1 0.05
v 0.1 1 0.05
v 0.2 1 0.05
v -0.4 1 -0.05
v 0.5 1 -0.05
v -0.1 1.1 0.15
v 0 1.1 0.15
v 0.1 1.1 0.15
v 0.2 1.1 0.15
v -0.1 1.1 0.05
v 0 1.1 0.05
v 0.1 1.1 0.05
v 0.2 1.1 0.05

# faces
f 3/1/1 2/1/1 1/1/1
f 4/1/1 2/1/1 3/1/1
f 7/2/1 6/2/1 5/2/1
f 8/2/1 6/2/1 7/2/1
f 11/1/1 10/1/1 9/1/1
f 12/1/1 10/1/1 11/1/1
f 15/2/1 14/2/1 13/2/1
f 16/2/1 14/2/1 15/2/1
f 18/1/1 17/1/1 16/1/1
f 19/1/1 17/1/1 18/1/1
f 22/2/1 21/2/1 20/2/1
f 23/2/1 21/2/1 22/2/1
f 25/1/1 24/1/1 23/1/1
f 26/1/1 24/1/1 25/1/1
f 29/1/1 28/1/1 27/1/1
f 31/1/1 29/1/1 27/1/1
f 31/1/1 30/1/1 29/1/1
f 32/1/1 30/1/1 31/1/1
f 35/1/1 34/1/1 33/1/1
f 36/1/1 34/1/1 35/1/1
f 39/3/1 38/3/1 37/3/1
f 40/3/1 38/3/1 39/3/1
f 43/2/1 42/2/1 41/2/1
f 44/2/1 42/2/1 43/2/1
f 47/3/1 46/3/1 45/3/1
f 48/3/1 46/3/1 47/3/1
f 49/1/2 50/1/2 51/1/2
f 51/1/2 50/1/2 52/1/2
f 53/1/2 54/1/2 55/1/2
f 55/1/2 54/1/2 56/1/2
f 57/2/2 58/2/2 59/2/2
f 59/2/2 58/2/2 60/2/2
f 61/3/2 62/3/2 63/3/2
f 63/3/2 62/3/2 64/3/2
f 65/2/2 66/2/2 67/2/2
f 67/2/2 66/2/2 68/2/2
f 67/1/2 68/1/2 70/1/2
f 68/1/2 69/1/2 70/1/2
f 70/1/2 69/1/2 71/1/2
f 72/2/2 73/2/2 74/2/2
f 74/2/2 73/2/2 75/2/2
f 75/2/2 76/2/2 77/2/2
f 77/2/2 76/2/2 78/2/2
f 78/3/2 79/3/2 80/3/2
f 80/3/2 79/3/2 81/3/2
f 82/2/2 83/2/2 84/2/2
f 84/2/2 83/2/2 85/2/2
f 85/3/2 86/3/2 87/3/2
f 87/3/2 86/3/2 88/3/2
f 89/3/2 90/3/2 91/3/2
f 91/3/2 90/3/2 92/3/2
f 95/2/3 94/2/3 93/2/3
f 96/2/3 94/2/3 95/2/3
f 97/1/3 96/1/3 95/1/3
f 98/1/3 96/1/3 97/1/3
f 100/2/3 98/2/3 97/2/3
f 101/1/3 99/1/3 98/1/3
f 101/2/3 98/2/3 100/2/3
f 102/1/3 99/1/3 101/1/3
f 103/3/3 101/3/3 100/3/3
f 104/2/3 102/2/3 101/2/3
f 104/3/3 101/3/3 103/3/3
f 105/2/3 102/2/3 104/2/3
f 106/2/3 104/2/3 103/2/3
f 107/2/3 104/2/3 106/2/3
f 110/1/3 109/1/3 108/1/3
f 111/1/3 109/1/3 110/1/3
f 114/2/3 113/2/3 112/2/3
f 116/2/3 114/2/3 112/2/3
f 116/2/3 115/2/3 114/2/3
f 117/2/3 115/2/3 116/2/3
f 118/2/3 115/2/3 117/2/3
f 122/1/3 120/1/3 119/1/3
f 123/1/3 120/1/3 122/1/3
f 124/3/3 122/3/3 121/3/3
f 125/3/3 122/3/3 124/3/3
f 126/2/3 123/2/3 122/2/3
f 126/3/3 122/3/3 125/3/3
f 127/2/3 123/2/3 126/2/3
f 128/1/3 126/1/3 125/1/3
f 128/3/3 127/3/3 126/3/3
f 129/3/3 127/3/3 128/3/3
f 130/2/3 125/2/3 124/2/3
f 131/1/3 128/1/3 125/1/3
f 131/2/3 125/2/3 130/2/3
f 132/1/3 128/1/3 131/1/3
f 134/2/3 130/2/3 124/2/3
f 135/2/3 130/2/3 134/2/3
f 136/2/3 134/2/3 133/2/3
f 137/2/3 134/2/3 136/2/3
f 140/1/3 139/1/3 138/1/3
f 141/1/3 139/1/3 140/1/3
f 143/1/3 142/1/3 141/1/3
f 144/1/3 142/1/3 143/1/3
f 146/1/3 145/1/3 144/1/3
f 147/1/3 145/1/3 146/1/3
f 151/3/3 149/3/3 148/3/3
f 152/3/3 149/3/3 151/3/3
f 154/3/3 151/3/3 150/3/3
f 155/3/3 151/3/3 154/3/3
f 156/3/3 154/3/3 153/3/3
f 157/3/3 154/3/3 156/3/3
f 158/1/4 159/1/4 160/1/4
f 160/1/4 159/1/4 161/1/4
f 160/2/4 161/2/4 162/2/4
f 162/2/4 163/2/4 164/2/4
f 160/2/4 162/2/4 168/2/4
f 162/2/4 164/2/4 168/2/4
f 164/2/4 165/2/4 168/2/4
f 168/2/4 165/2/4 169/2/4
f 166/1/4 167/1/4 170/1/4
f 170/1/4 167/1/4 171/1/4
f 168/3/4 169/3/4 172/3/4
f 160/2/4 168/2/4 172/2/4
f 172/3/4 169/3/4 173/3/4
f 170/2/4 171/2/4 174/2/4
f 174/2/4 171/2/4 175/2/4
f 174/3/4 175/3/4 176/3/4
f 176/3/4 175/3/4 177/3/4
f 172/2/4 173/2/4 178/2/4
f 178/2/4 173/2/4 179/2/4
f 160/2/4 172/2/4 180/2/4
f 172/2/4 178/2/4 180/2/4
f 180/2/4 178/2/4 181/2/4
f 160/2/4 180/2/4 182/2/4
f 160/2/4 182/2/4 183/2/4
f 183/2/4 182/2/4 184/2/4
f 185/1/4 186/1/4 187/1/4
f 187/1/4 186/1/4 188/1/4
f 188/1/4 189/1/4 190/1/4
f 190/1/4 189/1/4 191/1/4
f 191/1/4 192/1/4 194/1/4
f 193/3/4 194/3/4 196/3/4
f 194/1/4 192/1/4 197/1/4
f 196/3/4 194/3/4 197/3/4
f 197/1/4 192/1/4 198/1/4
f 195/2/4 196/2/4 199/2/4
f 196/3/4 197/3/4 200/3/4
f 199/2/4 196/2/4 200/2/4
f 200/3/4 197/3/4 201/3/4
f 199/3/4 200/3/4 203/3/4
f 203/3/4 200/3/4 204/3/4
f 202/3/4 203/3/4 205/3/4
f 205/3/4 203/3/4 206/3/4
f 214/2/5 208/2/5 207/2/5
f 215/1/5 209/1/5 208/1/5
f 215/2/5 208/2/5 214/2/5
f 216/2/5 210/2/5 209/2/5
f 216/1/5 209/1/5 215/1/5
f 217/3/5 211/3/5 210/3/5
f 217/2/5 210/2/5 216/2/5
f 218/2/5 212/2/5 211/2/5
f 218/3/5 211/3/5 217/3/5
f 219/2/5 212/2/5 218/2/5
f 221/1/5 214/1/5 213/1/5
f 222/2/5 217/2/5 216/2/5
f 222/1/5 214/1/5 221/1/5
f 222/2/5 220/2/5 219/2/5
f 222/2/5 219/2/5 218/2/5
f 222/2/5 218/2/5 217/2/5
f 222/2/5 215/2/5 214/2/5
f 222/2/5 216/2/5 215/2/5
f 223/2/5 220/2/5 222/2/5
f 225/3/5 224/3/5 223/3/5
f 226/3/5 224/3/5 225/3/5
f 232/1/5 228/1/5 227/1/5
f 233/1/5 228/1/5 232/1/5
f 234/2/5 230/2/5 229/2/5
f 235/3/5 231/3/5 230/3/5
f 235/2/5 230/2/5 234/2/5
f 236/3/5 231/3/5 235/3/5
f 241/1/5 238/1/5 237/1/5
f 242/1/5 238/1/5 241/1/5
f 243/3/5 240/3/5 239/3/5
f 244/3/5 240/3/5 243/3/5
f 249/1/5 246/1/5 245/1/5
f 249/1/5 248/1/5 247/1/5
f 249/1/5 247/1/5 246/1/5
f 250/1/5 248/1/5 249/1/5
f 251/2/6 252/2/6 257/2/6
f 257/2/6 252/2/6 258/2/6
f 252/1/6 253/1/6 259/1/6
f 258/2/6 252/2/6 259/2/6
f 259/1/6 253/1/6 260/1/6
f 254/2/6 255/2/6 261/2/6
f 261/2/6 255/2/6 262/2/6
f 262/2/6 255/2/6 263/2/6
f 256/1/6 257/1/6 265/1/6
f 257/2/6 258/2/6 266/2/6
f 265/1/6 257/1/6 266/1/6
f 266/2/6 258/2/6 267/2/6
f 263/2/6 264/2/6 268/2/6
f 268/2/6 264/2/6 269/2/6
f 269/3/6 270/3/6 271/3/6
f 271/3/6 270/3/6 272/3/6
f 273/2/6 274/2/6 278/2/6
f 278/2/6 274/2/6 279/2/6
f 275/2/6 276/2/6 280/2/6
f 280/2/6 276/2/6 281/2/6
f 277/1/6 278/1/6 283/1/6
f 283/1/6 278/1/6 284/1/6
f 281/3/6 282/3/6 285/3/6
f 285/3/6 282/3/6 286/3/6
f 287/2/6 288/2/6 290/2/6
f 290/2/6 288/2/6 291/2/6
f 289/1/6 290/1/6 294/1/6
f 294/1/6 290/1/6 295/1/6
f 292/3/6 293/3/6 296/3/6
f 296/3/6 293/3/6 297/3/6
f 298/1/6 299/1/6 301/1/6
f 299/2/6 300/2/6 301/2/6
f 301/2/6 300/2/6 302/2/6
f 298/1/6 301/1/6 306/1/6
f 306/1/6 301/1/6 307/1/6
f 303/1/6 304/1/6 310/1/6
f 308/1/6 309/1/6 311/1/6
f 309/1/6 310/1/6 311/1/6
f 305/1/6 306/1/6 311/1/6
f 306/1/6 307/1/6 311/1/6
f 307/1/6 308/1/6 311/1/6
f 310/1/6 304/1/6 312/1/6
f 311/1/6 310/1/6 312/1/6
f 313/1/6 314/1/6 317/1/6
f 314/2/6 315/2/6 318/2/6
f 317/1/6 314/1/6 318/1/6
f 315/3/6 316/3/6 319/3/6
f 318/2/6 315/2/6 319/2/6
f 319/3/6 316/3/6 320/3/6
