# MagicaVoxel @ Ephtracy

# group
o 

# material
mtllib bear2-1.mtl
usemtl palette

# normals
vn -1 0 0
vn 1 0 0
vn 0 0 1
vn 0 0 -1
vn 0 -1 0
vn 0 1 0

# texcoords
vt 0.958984 0.5
vt 0.966797 0.5
vt 0.994141 0.5

# verts
v -0.6 0 0.05
v -0.6 0 -0.25
v -0.6 0.4 0.05
v -0.6 0.4 -0.25
v -0.6 0.5 0.05
v -0.6 0.5 -0.25
v -0.6 0.8 0.05
v -0.6 0.8 -0.25
v -0.5 -0.1 0.05
v -0.5 -0.1 -0.25
v -0.5 0 0.05
v -0.5 0 -0.25
v -0.5 0.4 0.05
v -0.5 0.4 -0.25
v -0.5 0.5 0.05
v -0.5 0.5 -0.25
v -0.4 -0.2 0.05
v -0.4 -0.2 -0.25
v -0.4 -0.1 0.05
v -0.4 -0.1 -0.25
v -0.4 0.6 0.05
v -0.4 0.6 -0.05
v -0.4 0.7 0.05
v -0.4 0.7 -0.05
v -0.4 0.8 0.05
v -0.4 0.8 -0.25
v -0.4 0.9 0.05
v -0.4 0.9 -0.25
v -0.3 0.3 0.15
v -0.3 0.3 0.05
v -0.3 0.4 0.15
v -0.3 0.4 0.05
v -0.2 0.2 0.15
v -0.2 0.2 0.05
v -0.2 0.3 0.15
v -0.2 0.3 0.05
v 0.5 0.6 0.05
v 0.5 0.6 -0.05
v 0.5 0.7 0.05
v 0.5 0.7 -0.05
v -0.5 0.6 0.05
v -0.5 0.6 -0.05
v -0.5 0.7 0.05
v -0.5 0.7 -0.05
v -0.1 0.2 0.15
v -0.1 0.2 0.05
v -0.1 0.3 0.15
v -0.1 0.3 0.05
v 0 0.3 0.15
v 0 0.3 0.05
v 0 0.4 0.15
v 0 0.4 0.05
v 0.3 0.8 0.05
v 0.3 0.8 -0.15
v 0.3 0.9 0.05
v 0.3 0.9 -0.15
v 0.4 -0.2 0.05
v 0.4 -0.2 -0.15
v 0.4 0 0.05
v 0.4 0 -0.15
v 0.4 0.6 0.05
v 0.4 0.6 -0.05
v 0.4 0.7 0.05
v 0.4 0.7 -0.05
v 0.4 0.8 -0.15
v 0.4 0.8 -0.25
v 0.4 0.9 -0.15
v 0.4 0.9 -0.25
v 0.5 -0.2 -0.15
v 0.5 -0.2 -0.25
v 0.5 -0.1 -0.15
v 0.5 -0.1 -0.25
v 0.5 0 0.05
v 0.5 0 -0.15
v 0.5 0.5 0.05
v 0.5 0.5 -0.15
v 0.6 -0.1 -0.15
v 0.6 -0.1 -0.25
v 0.6 0.5 0.05
v 0.6 0.5 -0.15
v 0.6 0.5 -0.25
v 0.6 0.8 0.05
v 0.6 0.8 -0.25
v -0.3 0.3 0.15
v -0.3 0.4 0.15
v -0.2 0.2 0.15
v -0.2 0.3 0.15
v -0.1 0.2 0.15
v -0.1 0.3 0.15
v 0 0.3 0.15
v 0 0.4 0.15
v -0.6 0 0.05
v -0.6 0.4 0.05
v -0.6 0.5 0.05
v -0.6 0.8 0.05
v -0.5 -0.1 0.05
v -0.5 0 0.05
v -0.5 0.4 0.05
v -0.5 0.5 0.05
v -0.5 0.6 0.05
v -0.5 0.7 0.05
v -0.4 -0.2 0.05
v -0.4 -0.1 0.05
v -0.4 0.6 0.05
v -0.4 0.7 0.05
v -0.4 0.8 0.05
v -0.4 0.9 0.05
v -0.3 0.3 0.05
v -0.3 0.4 0.05
v -0.3 0.5 0.05
v -0.3 0.6 0.05
v -0.2 0 0.05
v -0.2 0.1 0.05
v -0.2 0.2 0.05
v -0.2 0.3 0.05
v -0.2 0.5 0.05
v -0.2 0.6 0.05
v -0.1 0.2 0.05
v -0.1 0.3 0.05
v 0 0 0.05
v 0 0.1 0.05
v 0 0.3 0.05
v 0 0.4 0.05
v 0.1 0.5 0.05
v 0.1 0.6 0.05
v 0.2 0.5 0.05
v 0.2 0.6 0.05
v 0.3 0.8 0.05
v 0.3 0.9 0.05
v 0.4 -0.2 0.05
v 0.4 0 0.05
v 0.4 0.6 0.05
v 0.4 0.7 0.05
v 0.5 0 0.05
v 0.5 0.5 0.05
v 0.5 0.6 0.05
v 0.5 0.7 0.05
v 0.6 0.5 0.05
v 0.6 0.8 0.05
v -0.5 0.6 -0.05
v -0.5 0.7 -0.05
v -0.4 0.6 -0.05
v -0.4 0.7 -0.05
v 0.4 0.6 -0.05
v 0.4 0.7 -0.05
v 0.5 0.6 -0.05
v 0.5 0.7 -0.05
v 0.3 0.8 -0.15
v 0.3 0.9 -0.15
v 0.4 -0.2 -0.15
v 0.4 0 -0.15
v 0.4 0.8 -0.15
v 0.4 0.9 -0.15
v 0.5 -0.2 -0.15
v 0.5 -0.1 -0.15
v 0.5 0 -0.15
v 0.5 0.5 -0.15
v 0.6 -0.1 -0.15
v 0.6 0.5 -0.15
v -0.6 0 -0.25
v -0.6 0.4 -0.25
v -0.6 0.5 -0.25
v -0.6 0.8 -0.25
v -0.5 -0.1 -0.25
v -0.5 0 -0.25
v -0.5 0.4 -0.25
v -0.5 0.5 -0.25
v -0.5 0.6 -0.25
v -0.5 0.7 -0.25
v -0.4 -0.2 -0.25
v -0.4 -0.1 -0.25
v -0.4 0.6 -0.25
v -0.4 0.7 -0.25
v -0.4 0.8 -0.25
v -0.4 0.9 -0.25
v -0.3 0.3 -0.25
v -0.3 0.4 -0.25
v -0.3 0.5 -0.25
v -0.3 0.6 -0.25
v -0.2 0 -0.25
v -0.2 0.1 -0.25
v -0.2 0.2 -0.25
v -0.2 0.3 -0.25
v -0.2 0.5 -0.25
v -0.2 0.6 -0.25
v -0.1 0.2 -0.25
v -0.1 0.3 -0.25
v 0 0 -0.25
v 0 0.1 -0.25
v 0 0.3 -0.25
v 0 0.4 -0.25
v 0.1 0.5 -0.25
v 0.1 0.6 -0.25
v 0.2 0.5 -0.25
v 0.2 0.6 -0.25
v 0.3 0.8 -0.25
v 0.3 0.9 -0.25
v 0.4 -0.2 -0.25
v 0.4 0 -0.25
v 0.4 0.6 -0.25
v 0.4 0.7 -0.25
v 0.4 0.8 -0.25
v 0.4 0.9 -0.25
v 0.5 -0.2 -0.25
v 0.5 -0.1 -0.25
v 0.5 0 -0.25
v 0.5 0.5 -0.25
v 0.5 0.6 -0.25
v 0.5 0.7 -0.25
v 0.6 -0.1 -0.25
v 0.6 0.5 -0.25
v 0.6 0.8 -0.25
v -0.4 -0.2 0.05
v 0.4 -0.2 0.05
v 0.4 -0.2 -0.15
v 0.5 -0.2 -0.15
v -0.4 -0.2 -0.25
v 0.4 -0.2 -0.25
v 0.5 -0.2 -0.25
v -0.5 -0.1 0.05
v -0.4 -0.1 0.05
v 0.5 -0.1 -0.15
v 0.6 -0.1 -0.15
v -0.5 -0.1 -0.25
v -0.4 -0.1 -0.25
v 0.5 -0.1 -0.25
v 0.6 -0.1 -0.25
v -0.6 0 0.05
v -0.5 0 0.05
v 0.4 0 0.05
v 0.5 0 0.05
v 0.4 0 -0.15
v 0.5 0 -0.15
v -0.6 0 -0.25
v -0.5 0 -0.25
v -0.2 0.2 0.15
v -0.1 0.2 0.15
v -0.2 0.2 0.05
v -0.1 0.2 0.05
v -0.3 0.3 0.15
v -0.2 0.3 0.15
v -0.1 0.3 0.15
v 0 0.3 0.15
v -0.3 0.3 0.05
v -0.2 0.3 0.05
v -0.1 0.3 0.05
v 0 0.3 0.05
v -0.6 0.5 0.05
v -0.5 0.5 0.05
v 0.5 0.5 0.05
v 0.6 0.5 0.05
v 0.5 0.5 -0.15
v 0.6 0.5 -0.15
v -0.6 0.5 -0.25
v -0.5 0.5 -0.25
v -0.5 0.7 0.05
v -0.4 0.7 0.05
v 0.4 0.7 0.05
v 0.5 0.7 0.05
v -0.5 0.7 -0.05
v -0.4 0.7 -0.05
v 0.4 0.7 -0.05
v 0.5 0.7 -0.05
v -0.3 0.4 0.15
v 0 0.4 0.15
v -0.6 0.4 0.05
v -0.5 0.4 0.05
v -0.3 0.4 0.05
v 0 0.4 0.05
v -0.6 0.4 -0.25
v -0.5 0.4 -0.25
v -0.5 0.6 0.05
v -0.4 0.6 0.05
v 0.4 0.6 0.05
v 0.5 0.6 0.05
v -0.5 0.6 -0.05
v -0.4 0.6 -0.05
v 0.4 0.6 -0.05
v 0.5 0.6 -0.05
v -0.6 0.8 0.05
v -0.4 0.8 0.05
v 0.3 0.8 0.05
v 0.6 0.8 0.05
v 0.3 0.8 -0.15
v 0.4 0.8 -0.15
v -0.6 0.8 -0.25
v -0.4 0.8 -0.25
v 0.4 0.8 -0.25
v 0.6 0.8 -0.25
v -0.4 0.9 0.05
v 0.3 0.9 0.05
v 0.3 0.9 -0.15
v 0.4 0.9 -0.15
v -0.4 0.9 -0.25
v 0.3 0.9 -0.25
v 0.4 0.9 -0.25

# faces
f 3/1/1 2/1/1 1/1/1
f 4/1/1 2/1/1 3/1/1
f 7/1/1 6/1/1 5/1/1
f 8/1/1 6/1/1 7/1/1
f 11/1/1 10/1/1 9/1/1
f 12/1/1 10/1/1 11/1/1
f 15/1/1 14/1/1 13/1/1
f 16/1/1 14/1/1 15/1/1
f 19/1/1 18/1/1 17/1/1
f 20/1/1 18/1/1 19/1/1
f 23/1/1 22/1/1 21/1/1
f 24/1/1 22/1/1 23/1/1
f 27/1/1 26/1/1 25/1/1
f 28/1/1 26/1/1 27/1/1
f 31/3/1 30/3/1 29/3/1
f 32/3/1 30/3/1 31/3/1
f 35/3/1 34/3/1 33/3/1
f 36/3/1 34/3/1 35/3/1
f 39/1/1 38/1/1 37/1/1
f 40/1/1 38/1/1 39/1/1
f 41/1/2 42/1/2 43/1/2
f 43/1/2 42/1/2 44/1/2
f 45/3/2 46/3/2 47/3/2
f 47/3/2 46/3/2 48/3/2
f 49/3/2 50/3/2 51/3/2
f 51/3/2 50/3/2 52/3/2
f 53/1/2 54/1/2 55/1/2
f 55/1/2 54/1/2 56/1/2
f 57/1/2 58/1/2 59/1/2
f 59/1/2 58/1/2 60/1/2
f 61/1/2 62/1/2 63/1/2
f 63/1/2 62/1/2 64/1/2
f 65/2/2 66/2/2 67/2/2
f 67/2/2 66/2/2 68/2/2
f 69/2/2 70/2/2 71/2/2
f 71/2/2 70/2/2 72/2/2
f 73/1/2 74/1/2 75/1/2
f 75/1/2 74/1/2 76/1/2
f 77/2/2 78/2/2 80/2/2
f 80/2/2 78/2/2 81/2/2
f 79/1/2 80/1/2 82/1/2
f 80/1/2 81/1/2 82/1/2
f 82/1/2 81/1/2 83/1/2
f 87/3/3 85/3/3 84/3/3
f 88/3/3 87/3/3 86/3/3
f 89/3/3 85/3/3 87/3/3
f 89/3/3 87/3/3 88/3/3
f 90/3/3 85/3/3 89/3/3
f 91/3/3 85/3/3 90/3/3
f 97/1/3 93/1/3 92/1/3
f 98/1/3 93/1/3 97/1/3
f 99/1/3 95/1/3 94/1/3
f 100/1/3 95/1/3 99/1/3
f 101/1/3 95/1/3 100/1/3
f 103/1/3 98/1/3 97/1/3
f 103/1/3 97/1/3 96/1/3
f 103/1/3 100/1/3 99/1/3
f 103/1/3 99/1/3 98/1/3
f 104/1/3 100/1/3 103/1/3
f 105/1/3 95/1/3 101/1/3
f 106/1/3 95/1/3 105/1/3
f 108/1/3 104/1/3 103/1/3
f 108/1/3 107/1/3 106/1/3
f 108/1/3 106/1/3 105/1/3
f 108/1/3 105/1/3 104/1/3
f 108/1/3 103/1/3 102/1/3
f 109/1/3 107/1/3 108/1/3
f 110/1/3 107/1/3 109/1/3
f 111/1/3 107/1/3 110/1/3
f 112/1/3 108/1/3 102/1/3
f 113/1/3 108/1/3 112/1/3
f 114/1/3 108/1/3 113/1/3
f 115/1/3 108/1/3 114/1/3
f 116/3/3 111/3/3 110/3/3
f 116/1/3 110/1/3 109/1/3
f 117/1/3 107/1/3 111/1/3
f 117/3/3 111/3/3 116/3/3
f 118/1/3 114/1/3 113/1/3
f 120/1/3 112/1/3 102/1/3
f 120/3/3 113/3/3 112/3/3
f 121/1/3 119/1/3 118/1/3
f 121/3/3 113/3/3 120/3/3
f 121/1/3 118/1/3 113/1/3
f 122/1/3 119/1/3 121/1/3
f 123/1/3 116/1/3 109/1/3
f 123/1/3 117/1/3 116/1/3
f 124/1/3 122/1/3 121/1/3
f 124/1/3 123/1/3 122/1/3
f 124/1/3 117/1/3 123/1/3
f 124/1/3 121/1/3 120/1/3
f 125/1/3 107/1/3 117/1/3
f 125/1/3 117/1/3 124/1/3
f 126/1/3 124/1/3 120/1/3
f 126/3/3 125/3/3 124/3/3
f 127/1/3 107/1/3 125/1/3
f 127/3/3 125/3/3 126/3/3
f 128/1/3 127/1/3 126/1/3
f 128/1/3 107/1/3 127/1/3
f 129/1/3 107/1/3 128/1/3
f 130/1/3 126/1/3 120/1/3
f 130/1/3 120/1/3 102/1/3
f 130/1/3 128/1/3 126/1/3
f 131/1/3 128/1/3 130/1/3
f 132/1/3 128/1/3 131/1/3
f 133/1/3 128/1/3 132/1/3
f 134/1/3 132/1/3 131/1/3
f 135/1/3 132/1/3 134/1/3
f 136/1/3 132/1/3 135/1/3
f 137/1/3 128/1/3 133/1/3
f 138/1/3 136/1/3 135/1/3
f 138/1/3 137/1/3 136/1/3
f 139/1/3 128/1/3 137/1/3
f 139/1/3 137/1/3 138/1/3
f 142/2/3 141/2/3 140/2/3
f 143/2/3 141/2/3 142/2/3
f 146/2/3 145/2/3 144/2/3
f 147/2/3 145/2/3 146/2/3
f 152/2/3 149/2/3 148/2/3
f 153/2/3 149/2/3 152/2/3
f 154/2/3 151/2/3 150/2/3
f 155/2/3 151/2/3 154/2/3
f 156/2/3 151/2/3 155/2/3
f 158/2/3 157/2/3 156/2/3
f 158/2/3 156/2/3 155/2/3
f 159/2/3 157/2/3 158/2/3
f 160/1/4 161/1/4 165/1/4
f 165/1/4 161/1/4 166/1/4
f 162/1/4 163/1/4 167/1/4
f 167/1/4 163/1/4 168/1/4
f 168/1/4 163/1/4 169/1/4
f 165/1/4 166/1/4 171/1/4
f 164/1/4 165/1/4 171/1/4
f 166/1/4 167/1/4 171/1/4
f 167/1/4 168/1/4 171/1/4
f 168/2/4 169/2/4 172/2/4
f 171/1/4 168/1/4 172/1/4
f 169/1/4 163/1/4 173/1/4
f 172/2/4 169/2/4 173/2/4
f 173/1/4 163/1/4 174/1/4
f 171/1/4 172/1/4 176/1/4
f 174/1/4 175/1/4 176/1/4
f 173/1/4 174/1/4 176/1/4
f 172/1/4 173/1/4 176/1/4
f 170/1/4 171/1/4 176/1/4
f 176/1/4 175/1/4 177/1/4
f 177/1/4 175/1/4 178/1/4
f 178/1/4 175/1/4 179/1/4
f 170/1/4 176/1/4 180/1/4
f 180/1/4 176/1/4 181/1/4
f 181/1/4 176/1/4 182/1/4
f 176/3/4 177/3/4 183/3/4
f 182/1/4 176/1/4 183/1/4
f 177/1/4 178/1/4 184/1/4
f 178/3/4 179/3/4 184/3/4
f 179/1/4 175/1/4 185/1/4
f 184/3/4 179/3/4 185/3/4
f 181/1/4 182/1/4 186/1/4
f 182/3/4 183/3/4 186/3/4
f 183/3/4 177/3/4 187/3/4
f 186/3/4 183/3/4 187/3/4
f 170/1/4 180/1/4 188/1/4
f 180/3/4 181/3/4 188/3/4
f 181/1/4 186/1/4 189/1/4
f 188/3/4 181/3/4 189/3/4
f 186/1/4 187/1/4 189/1/4
f 187/3/4 177/3/4 190/3/4
f 189/1/4 187/1/4 190/1/4
f 177/1/4 184/1/4 191/1/4
f 190/3/4 177/3/4 191/3/4
f 184/1/4 185/1/4 191/1/4
f 189/1/4 190/1/4 192/1/4
f 191/1/4 185/1/4 192/1/4
f 190/1/4 191/1/4 192/1/4
f 188/1/4 189/1/4 192/1/4
f 185/1/4 175/1/4 193/1/4
f 192/1/4 185/1/4 193/1/4
f 188/1/4 192/1/4 194/1/4
f 192/3/4 193/3/4 194/3/4
f 193/1/4 175/1/4 195/1/4
f 194/3/4 193/3/4 195/3/4
f 194/1/4 195/1/4 196/1/4
f 195/1/4 175/1/4 196/1/4
f 196/1/4 175/1/4 197/1/4
f 170/1/4 188/1/4 198/1/4
f 188/1/4 194/1/4 198/1/4
f 194/1/4 196/1/4 198/1/4
f 198/1/4 196/1/4 199/1/4
f 199/1/4 196/1/4 200/1/4
f 200/1/4 196/1/4 201/1/4
f 196/2/4 197/2/4 202/2/4
f 201/1/4 196/1/4 202/1/4
f 202/2/4 197/2/4 203/2/4
f 198/2/4 199/2/4 204/2/4
f 204/2/4 199/2/4 205/2/4
f 199/1/4 200/1/4 206/1/4
f 205/2/4 199/2/4 206/2/4
f 206/1/4 200/1/4 207/1/4
f 200/2/4 201/2/4 208/2/4
f 207/1/4 200/1/4 208/1/4
f 201/1/4 202/1/4 209/1/4
f 208/2/4 201/2/4 209/2/4
f 206/2/4 207/2/4 210/2/4
f 205/2/4 206/2/4 210/2/4
f 208/1/4 209/1/4 211/1/4
f 210/2/4 207/2/4 211/2/4
f 207/1/4 208/1/4 211/1/4
f 209/1/4 202/1/4 212/1/4
f 211/1/4 209/1/4 212/1/4
f 215/1/5 214/1/5 213/1/5
f 217/1/5 215/1/5 213/1/5
f 218/2/5 216/2/5 215/2/5
f 218/1/5 215/1/5 217/1/5
f 219/2/5 216/2/5 218/2/5
f 224/1/5 221/1/5 220/1/5
f 225/1/5 221/1/5 224/1/5
f 226/2/5 223/2/5 222/2/5
f 227/2/5 223/2/5 226/2/5
f 232/1/5 231/1/5 230/1/5
f 233/1/5 231/1/5 232/1/5
f 234/1/5 229/1/5 228/1/5
f 235/1/5 229/1/5 234/1/5
f 238/3/5 237/3/5 236/3/5
f 239/3/5 237/3/5 238/3/5
f 244/3/5 241/3/5 240/3/5
f 245/3/5 241/3/5 244/3/5
f 246/3/5 243/3/5 242/3/5
f 247/3/5 243/3/5 246/3/5
f 252/1/5 251/1/5 250/1/5
f 253/1/5 251/1/5 252/1/5
f 254/1/5 249/1/5 248/1/5
f 255/1/5 249/1/5 254/1/5
f 260/1/5 257/1/5 256/1/5
f 261/1/5 257/1/5 260/1/5
f 262/1/5 259/1/5 258/1/5
f 263/1/5 259/1/5 262/1/5
f 264/3/6 265/3/6 268/3/6
f 268/3/6 265/3/6 269/3/6
f 266/1/6 267/1/6 270/1/6
f 270/1/6 267/1/6 271/1/6
f 272/1/6 273/1/6 276/1/6
f 276/1/6 273/1/6 277/1/6
f 274/1/6 275/1/6 278/1/6
f 278/1/6 275/1/6 279/1/6
f 282/1/6 283/1/6 284/1/6
f 284/1/6 283/1/6 285/1/6
f 280/1/6 281/1/6 286/1/6
f 286/1/6 281/1/6 287/1/6
f 285/1/6 283/1/6 288/1/6
f 288/1/6 283/1/6 289/1/6
f 290/1/6 291/1/6 292/1/6
f 290/1/6 292/1/6 294/1/6
f 292/2/6 293/2/6 295/2/6
f 294/1/6 292/1/6 295/1/6
f 295/2/6 293/2/6 296/2/6
