# MagicaVoxel @ Ephtracy

# group
o 

# material
mtllib bear-10.mtl
usemtl palette

# normals
vn -1 0 0
vn 1 0 0
vn 0 0 1
vn 0 0 -1
vn 0 -1 0
vn 0 1 0

# texcoords
vt 0.771484 0.5
vt 0.775391 0.5
vt 0.779297 0.5
vt 0.962891 0.5
vt 0.966797 0.5

# verts
v -0.6 0.4 0.15
v -0.6 0.4 0.05
v -0.6 0.5 0.15
v -0.6 0.5 0.05
v -0.6 0.7 0.15
v -0.6 0.7 0.05
v -0.5 -0.5 0.15
v -0.5 -0.5 0.05
v -0.5 -0.3 0.15
v -0.5 -0.3 0.05
v -0.5 0.7 0.15
v -0.5 0.7 0.05
v -0.5 0.9 0.15
v -0.5 0.9 0.05
v -0.4 0.9 0.15
v -0.4 0.9 0.05
v -0.4 1 0.15
v -0.4 1 0.05
v -0.3 1 0.15
v -0.3 1 0.05
v -0.3 1.1 0.15
v -0.3 1.1 0.05
v -0.1 1 0.25
v -0.1 1 0.15
v -0.1 1.1 0.25
v -0.1 1.1 0.15
v -0.1 1.1 0.05
v -0.1 1.2 0.25
v -0.1 1.2 0.05
v 0.2 -0.9 0.15
v 0.2 -0.9 0.05
v 0.2 -0.5 0.15
v 0.2 -0.5 0.05
v 0.2 1 0.25
v 0.2 1 0.15
v 0.2 1.1 0.25
v 0.2 1.1 0.15
v 0.2 1.1 0.05
v 0.2 1.2 0.25
v 0.2 1.2 0.05
v 0.3 -0.9 0.15
v 0.3 -0.9 0.05
v 0.3 -0.8 0.15
v 0.3 -0.8 0.05
v 0.4 -0.8 0.15
v 0.4 -0.8 0.05
v 0.4 -0.5 0.15
v 0.4 -0.5 0.05
v 0.4 1 0.15
v 0.4 1 0.05
v 0.4 1.1 0.15
v 0.4 1.1 0.05
v 0.5 0.9 0.15
v 0.5 0.9 0.05
v 0.5 1 0.15
v 0.5 1 0.05
v 0.6 -0.5 0.15
v 0.6 -0.5 0.05
v 0.6 -0.3 0.15
v 0.6 -0.3 0.05
v 0.6 0.7 0.15
v 0.6 0.7 0.05
v 0.6 0.9 0.15
v 0.6 0.9 0.05
v 0.7 0.4 0.15
v 0.7 0.4 0.05
v 0.7 0.7 0.15
v 0.7 0.7 0.05
v -0.1 1 0.25
v -0.1 1.1 0.25
v -0.1 1.2 0.25
v 0.2 1 0.25
v 0.2 1.1 0.25
v 0.2 1.2 0.25
v -0.6 0.4 0.15
v -0.6 0.5 0.15
v -0.6 0.7 0.15
v -0.5 -0.5 0.15
v -0.5 -0.3 0.15
v -0.5 0.5 0.15
v -0.5 0.7 0.15
v -0.5 0.9 0.15
v -0.4 -0.5 0.15
v -0.4 -0.4 0.15
v -0.4 0.5 0.15
v -0.4 0.7 0.15
v -0.4 0.9 0.15
v -0.4 1 0.15
v -0.3 0.5 0.15
v -0.3 0.7 0.15
v -0.3 0.9 0.15
v -0.3 1 0.15
v -0.3 1.1 0.15
v -0.2 0.5 0.15
v -0.2 0.7 0.15
v -0.1 0.5 0.15
v -0.1 0.7 0.15
v -0.1 1 0.15
v -0.1 1.1 0.15
v 0 0.5 0.15
v 0 0.7 0.15
v 0.1 0.5 0.15
v 0.1 0.7 0.15
v 0.2 -0.9 0.15
v 0.2 -0.5 0.15
v 0.2 -0.4 0.15
v 0.2 0.5 0.15
v 0.2 0.7 0.15
v 0.2 1 0.15
v 0.2 1.1 0.15
v 0.3 -0.9 0.15
v 0.3 -0.8 0.15
v 0.3 -0.3 0.15
v 0.3 0.5 0.15
v 0.3 0.7 0.15
v 0.3 1 0.15
v 0.3 1.1 0.15
v 0.4 -0.8 0.15
v 0.4 -0.5 0.15
v 0.4 -0.3 0.15
v 0.4 0.5 0.15
v 0.4 0.7 0.15
v 0.4 0.9 0.15
v 0.4 1 0.15
v 0.4 1.1 0.15
v 0.5 0.5 0.15
v 0.5 0.9 0.15
v 0.5 1 0.15
v 0.6 -0.5 0.15
v 0.6 -0.3 0.15
v 0.6 0.7 0.15
v 0.6 0.9 0.15
v 0.7 0.4 0.15
v 0.7 0.7 0.15
v -0.6 0.4 0.05
v -0.6 0.5 0.05
v -0.6 0.7 0.05
v -0.5 -0.5 0.05
v -0.5 -0.3 0.05
v -0.5 0.5 0.05
v -0.5 0.7 0.05
v -0.5 0.9 0.05
v -0.4 -0.5 0.05
v -0.4 -0.4 0.05
v -0.4 0.5 0.05
v -0.4 0.7 0.05
v -0.4 0.9 0.05
v -0.4 1 0.05
v -0.3 0.5 0.05
v -0.3 0.7 0.05
v -0.3 0.9 0.05
v -0.3 1 0.05
v -0.3 1.1 0.05
v -0.2 0.5 0.05
v -0.2 0.7 0.05
v -0.1 0.5 0.05
v -0.1 0.7 0.05
v -0.1 1 0.05
v -0.1 1.1 0.05
v -0.1 1.2 0.05
v 0 0.5 0.05
v 0 0.7 0.05
v 0.1 0.5 0.05
v 0.1 0.7 0.05
v 0.2 -0.9 0.05
v 0.2 -0.5 0.05
v 0.2 -0.4 0.05
v 0.2 0.5 0.05
v 0.2 0.7 0.05
v 0.2 1.1 0.05
v 0.2 1.2 0.05
v 0.3 -0.9 0.05
v 0.3 -0.8 0.05
v 0.3 -0.3 0.05
v 0.3 0.5 0.05
v 0.3 0.7 0.05
v 0.3 1 0.05
v 0.3 1.1 0.05
v 0.4 -0.8 0.05
v 0.4 -0.5 0.05
v 0.4 -0.3 0.05
v 0.4 0.5 0.05
v 0.4 0.7 0.05
v 0.4 0.9 0.05
v 0.4 1 0.05
v 0.4 1.1 0.05
v 0.5 0.5 0.05
v 0.5 0.9 0.05
v 0.5 1 0.05
v 0.6 -0.5 0.05
v 0.6 -0.3 0.05
v 0.6 0.7 0.05
v 0.6 0.9 0.05
v 0.7 0.4 0.05
v 0.7 0.7 0.05
v 0.2 -0.9 0.15
v 0.3 -0.9 0.15
v 0.2 -0.9 0.05
v 0.3 -0.9 0.05
v 0.3 -0.8 0.15
v 0.4 -0.8 0.15
v 0.3 -0.8 0.05
v 0.4 -0.8 0.05
v -0.5 -0.5 0.15
v -0.4 -0.5 0.15
v 0.2 -0.5 0.15
v 0.4 -0.5 0.15
v 0.6 -0.5 0.15
v -0.5 -0.5 0.05
v -0.4 -0.5 0.05
v 0.2 -0.5 0.05
v 0.4 -0.5 0.05
v 0.6 -0.5 0.05
v -0.6 0.4 0.15
v 0.7 0.4 0.15
v -0.6 0.4 0.05
v 0.7 0.4 0.05
v -0.1 1 0.25
v 0.2 1 0.25
v -0.1 1 0.15
v 0.2 1 0.15
v -0.5 -0.3 0.15
v 0.3 -0.3 0.15
v 0.4 -0.3 0.15
v 0.6 -0.3 0.15
v -0.5 -0.3 0.05
v 0.3 -0.3 0.05
v 0.4 -0.3 0.05
v 0.6 -0.3 0.05
v -0.6 0.7 0.15
v -0.5 0.7 0.15
v 0.6 0.7 0.15
v 0.7 0.7 0.15
v -0.6 0.7 0.05
v -0.5 0.7 0.05
v 0.6 0.7 0.05
v 0.7 0.7 0.05
v -0.5 0.9 0.15
v -0.4 0.9 0.15
v 0.5 0.9 0.15
v 0.6 0.9 0.15
v -0.5 0.9 0.05
v -0.4 0.9 0.05
v 0.5 0.9 0.05
v 0.6 0.9 0.05
v -0.4 1 0.15
v -0.3 1 0.15
v 0.4 1 0.15
v 0.5 1 0.15
v -0.4 1 0.05
v -0.3 1 0.05
v 0.4 1 0.05
v 0.5 1 0.05
v -0.3 1.1 0.15
v -0.1 1.1 0.15
v 0.2 1.1 0.15
v 0.3 1.1 0.15
v 0.4 1.1 0.15
v -0.3 1.1 0.05
v -0.1 1.1 0.05
v 0.2 1.1 0.05
v 0.3 1.1 0.05
v 0.4 1.1 0.05
v -0.1 1.2 0.25
v 0.2 1.2 0.25
v -0.1 1.2 0.05
v 0.2 1.2 0.05

# faces
f 3/3/1 2/3/1 1/3/1
f 4/3/1 2/3/1 3/3/1
f 5/1/1 4/1/1 3/1/1
f 6/1/1 4/1/1 5/1/1
f 9/1/1 8/1/1 7/1/1
f 10/1/1 8/1/1 9/1/1
f 13/1/1 12/1/1 11/1/1
f 14/1/1 12/1/1 13/1/1
f 17/1/1 16/1/1 15/1/1
f 18/1/1 16/1/1 17/1/1
f 21/1/1 20/1/1 19/1/1
f 22/1/1 20/1/1 21/1/1
f 25/5/1 24/5/1 23/5/1
f 26/5/1 24/5/1 25/5/1
f 28/4/1 26/4/1 25/4/1
f 28/4/1 27/4/1 26/4/1
f 29/4/1 27/4/1 28/4/1
f 32/1/1 31/1/1 30/1/1
f 33/1/1 31/1/1 32/1/1
f 34/5/2 35/5/2 36/5/2
f 36/5/2 35/5/2 37/5/2
f 36/4/2 37/4/2 39/4/2
f 37/4/2 38/4/2 39/4/2
f 39/4/2 38/4/2 40/4/2
f 41/1/2 42/1/2 43/1/2
f 43/1/2 42/1/2 44/1/2
f 45/2/2 46/2/2 47/2/2
f 47/2/2 46/2/2 48/2/2
f 49/3/2 50/3/2 51/3/2
f 51/3/2 50/3/2 52/3/2
f 53/3/2 54/3/2 55/3/2
f 55/3/2 54/3/2 56/3/2
f 57/3/2 58/3/2 59/3/2
f 59/3/2 58/3/2 60/3/2
f 61/3/2 62/3/2 63/3/2
f 63/3/2 62/3/2 64/3/2
f 65/3/2 66/3/2 67/3/2
f 67/3/2 66/3/2 68/3/2
f 72/5/3 70/5/3 69/5/3
f 73/4/3 71/4/3 70/4/3
f 73/5/3 70/5/3 72/5/3
f 74/4/3 71/4/3 73/4/3
f 80/3/3 76/3/3 75/3/3
f 80/1/3 77/1/3 76/1/3
f 81/1/3 77/1/3 80/1/3
f 83/1/3 79/1/3 78/1/3
f 84/1/3 79/1/3 83/1/3
f 85/3/3 80/3/3 75/3/3
f 85/3/3 81/3/3 80/3/3
f 86/1/3 82/1/3 81/1/3
f 86/3/3 81/3/3 85/3/3
f 87/1/3 82/1/3 86/1/3
f 89/3/3 85/3/3 75/3/3
f 89/2/3 86/2/3 85/2/3
f 89/2/3 87/2/3 86/2/3
f 90/2/3 87/2/3 89/2/3
f 91/1/3 88/1/3 87/1/3
f 91/2/3 87/2/3 90/2/3
f 92/1/3 88/1/3 91/1/3
f 94/3/3 90/3/3 89/3/3
f 94/3/3 89/3/3 75/3/3
f 95/2/3 92/2/3 91/2/3
f 95/3/3 90/3/3 94/3/3
f 95/2/3 91/2/3 90/2/3
f 96/3/3 94/3/3 75/3/3
f 96/2/3 95/2/3 94/2/3
f 97/2/3 92/2/3 95/2/3
f 97/2/3 95/2/3 96/2/3
f 98/1/3 93/1/3 92/1/3
f 98/2/3 92/2/3 97/2/3
f 99/1/3 93/1/3 98/1/3
f 100/3/3 97/3/3 96/3/3
f 100/3/3 96/3/3 75/3/3
f 101/2/3 98/2/3 97/2/3
f 101/3/3 97/3/3 100/3/3
f 102/3/3 100/3/3 75/3/3
f 102/2/3 101/2/3 100/2/3
f 103/2/3 98/2/3 101/2/3
f 103/2/3 101/2/3 102/2/3
f 105/2/3 84/2/3 83/2/3
f 106/1/3 79/1/3 84/1/3
f 106/2/3 84/2/3 105/2/3
f 107/3/3 102/3/3 75/3/3
f 107/3/3 103/3/3 102/3/3
f 108/2/3 98/2/3 103/2/3
f 108/3/3 103/3/3 107/3/3
f 109/2/3 98/2/3 108/2/3
f 111/1/3 105/1/3 104/1/3
f 111/1/3 106/1/3 105/1/3
f 112/1/3 106/1/3 111/1/3
f 113/1/3 79/1/3 106/1/3
f 113/1/3 106/1/3 112/1/3
f 114/2/3 110/2/3 109/2/3
f 114/3/3 107/3/3 75/3/3
f 114/2/3 109/2/3 108/2/3
f 114/2/3 108/2/3 107/2/3
f 115/2/3 110/2/3 114/2/3
f 116/2/3 110/2/3 115/2/3
f 117/2/3 110/2/3 116/2/3
f 118/2/3 113/2/3 112/2/3
f 119/2/3 113/2/3 118/2/3
f 120/2/3 113/2/3 119/2/3
f 121/3/3 114/3/3 75/3/3
f 121/3/3 115/3/3 114/3/3
f 122/2/3 116/2/3 115/2/3
f 122/3/3 115/3/3 121/3/3
f 123/2/3 116/2/3 122/2/3
f 124/3/3 117/3/3 116/3/3
f 124/2/3 116/2/3 123/2/3
f 125/3/3 117/3/3 124/3/3
f 126/2/3 123/2/3 122/2/3
f 126/3/3 121/3/3 75/3/3
f 126/2/3 122/2/3 121/2/3
f 127/3/3 124/3/3 123/3/3
f 127/2/3 123/2/3 126/2/3
f 128/3/3 124/3/3 127/3/3
f 129/3/3 120/3/3 119/3/3
f 130/3/3 120/3/3 129/3/3
f 131/3/3 127/3/3 126/3/3
f 132/3/3 127/3/3 131/3/3
f 133/3/3 126/3/3 75/3/3
f 133/3/3 131/3/3 126/3/3
f 134/3/3 131/3/3 133/3/3
f 135/3/4 136/3/4 140/3/4
f 136/1/4 137/1/4 140/1/4
f 140/1/4 137/1/4 141/1/4
f 138/1/4 139/1/4 143/1/4
f 143/1/4 139/1/4 144/1/4
f 135/3/4 140/3/4 145/3/4
f 140/3/4 141/3/4 145/3/4
f 141/1/4 142/1/4 146/1/4
f 145/3/4 141/3/4 146/3/4
f 146/1/4 142/1/4 147/1/4
f 135/3/4 145/3/4 149/3/4
f 145/2/4 146/2/4 149/2/4
f 146/2/4 147/2/4 149/2/4
f 149/2/4 147/2/4 150/2/4
f 147/1/4 148/1/4 151/1/4
f 150/2/4 147/2/4 151/2/4
f 151/1/4 148/1/4 152/1/4
f 149/3/4 150/3/4 154/3/4
f 135/3/4 149/3/4 154/3/4
f 151/2/4 152/2/4 155/2/4
f 154/3/4 150/3/4 155/3/4
f 150/2/4 151/2/4 155/2/4
f 135/3/4 154/3/4 156/3/4
f 154/2/4 155/2/4 156/2/4
f 155/2/4 152/2/4 157/2/4
f 156/2/4 155/2/4 157/2/4
f 152/1/4 153/1/4 158/1/4
f 157/2/4 152/2/4 158/2/4
f 158/1/4 153/1/4 159/1/4
f 156/3/4 157/3/4 161/3/4
f 135/3/4 156/3/4 161/3/4
f 158/2/4 159/2/4 162/2/4
f 161/3/4 157/3/4 162/3/4
f 157/2/4 158/2/4 162/2/4
f 135/3/4 161/3/4 163/3/4
f 161/2/4 162/2/4 163/2/4
f 162/2/4 159/2/4 164/2/4
f 163/2/4 162/2/4 164/2/4
f 143/2/4 144/2/4 166/2/4
f 144/1/4 139/1/4 167/1/4
f 166/2/4 144/2/4 167/2/4
f 135/3/4 163/3/4 168/3/4
f 163/3/4 164/3/4 168/3/4
f 164/2/4 159/2/4 169/2/4
f 168/3/4 164/3/4 169/3/4
f 159/4/4 160/4/4 170/4/4
f 169/2/4 159/2/4 170/2/4
f 170/4/4 160/4/4 171/4/4
f 165/1/4 166/1/4 172/1/4
f 166/1/4 167/1/4 172/1/4
f 172/1/4 167/1/4 173/1/4
f 167/1/4 139/1/4 174/1/4
f 173/1/4 167/1/4 174/1/4
f 168/2/4 169/2/4 175/2/4
f 135/3/4 168/3/4 175/3/4
f 169/2/4 170/2/4 175/2/4
f 175/2/4 170/2/4 176/2/4
f 176/2/4 170/2/4 177/2/4
f 177/2/4 170/2/4 178/2/4
f 173/2/4 174/2/4 179/2/4
f 179/2/4 174/2/4 180/2/4
f 180/2/4 174/2/4 181/2/4
f 135/3/4 175/3/4 182/3/4
f 175/3/4 176/3/4 182/3/4
f 176/2/4 177/2/4 183/2/4
f 182/3/4 176/3/4 183/3/4
f 183/2/4 177/2/4 184/2/4
f 177/3/4 178/3/4 185/3/4
f 184/2/4 177/2/4 185/2/4
f 185/3/4 178/3/4 186/3/4
f 183/2/4 184/2/4 187/2/4
f 135/3/4 182/3/4 187/3/4
f 182/2/4 183/2/4 187/2/4
f 184/3/4 185/3/4 188/3/4
f 187/2/4 184/2/4 188/2/4
f 188/3/4 185/3/4 189/3/4
f 180/3/4 181/3/4 190/3/4
f 190/3/4 181/3/4 191/3/4
f 187/3/4 188/3/4 192/3/4
f 192/3/4 188/3/4 193/3/4
f 135/3/4 187/3/4 194/3/4
f 187/3/4 192/3/4 194/3/4
f 194/3/4 192/3/4 195/3/4
f 198/1/5 197/1/5 196/1/5
f 199/1/5 197/1/5 198/1/5
f 202/2/5 201/2/5 200/2/5
f 203/2/5 201/2/5 202/2/5
f 209/1/5 205/1/5 204/1/5
f 210/2/5 206/2/5 205/2/5
f 210/1/5 205/1/5 209/1/5
f 211/2/5 206/2/5 210/2/5
f 212/3/5 208/3/5 207/3/5
f 213/3/5 208/3/5 212/3/5
f 216/3/5 215/3/5 214/3/5
f 217/3/5 215/3/5 216/3/5
f 220/5/5 219/5/5 218/5/5
f 221/5/5 219/5/5 220/5/5
f 222/1/6 223/1/6 226/1/6
f 223/2/6 224/2/6 227/2/6
f 226/1/6 223/1/6 227/1/6
f 224/3/6 225/3/6 228/3/6
f 227/2/6 224/2/6 228/2/6
f 228/3/6 225/3/6 229/3/6
f 230/1/6 231/1/6 234/1/6
f 234/1/6 231/1/6 235/1/6
f 232/3/6 233/3/6 236/3/6
f 236/3/6 233/3/6 237/3/6
f 238/1/6 239/1/6 242/1/6
f 242/1/6 239/1/6 243/1/6
f 240/3/6 241/3/6 244/3/6
f 244/3/6 241/3/6 245/3/6
f 246/1/6 247/1/6 250/1/6
f 250/1/6 247/1/6 251/1/6
f 248/3/6 249/3/6 252/3/6
f 252/3/6 249/3/6 253/3/6
f 254/1/6 255/1/6 259/1/6
f 259/1/6 255/1/6 260/1/6
f 256/2/6 257/2/6 261/2/6
f 257/3/6 258/3/6 262/3/6
f 261/2/6 257/2/6 262/2/6
f 262/3/6 258/3/6 263/3/6
f 264/4/6 265/4/6 266/4/6
f 266/4/6 265/4/6 267/4/6
