# MagicaVoxel @ Ephtracy

# group
o 

# material
mtllib bear-3.mtl
usemtl palette

# normals
vn -1 0 0
vn 1 0 0
vn 0 0 1
vn 0 0 -1
vn 0 -1 0
vn 0 1 0

# texcoords
vt 0.958984 0.5
vt 0.966797 0.5

# verts
v -0.4 -1.3 -0.05
v -0.4 -1.3 -0.25
v -0.4 -1.1 -0.05
v -0.4 -1.1 -0.25
v 0.2 -1.3 -0.05
v 0.2 -1.3 -0.25
v 0.2 -1.2 -0.05
v 0.2 -1.2 -0.25
v -0.1 -1.3 -0.05
v -0.1 -1.3 -0.25
v -0.1 -1.2 -0.05
v -0.1 -1.2 -0.25
v 0.4 -1.3 -0.05
v 0.4 -1.3 -0.15
v 0.4 -1.1 -0.05
v 0.4 -1.1 -0.15
v 0.5 -1.3 -0.15
v 0.5 -1.3 -0.25
v 0.5 -1.1 -0.15
v 0.5 -1.1 -0.25
v -0.4 -1.3 -0.05
v -0.4 -1.1 -0.05
v -0.1 -1.3 -0.05
v -0.1 -1.2 -0.05
v 0.2 -1.3 -0.05
v 0.2 -1.2 -0.05
v 0.4 -1.3 -0.05
v 0.4 -1.1 -0.05
v 0.4 -1.3 -0.15
v 0.4 -1.1 -0.15
v 0.5 -1.3 -0.15
v 0.5 -1.1 -0.15
v -0.4 -1.3 -0.25
v -0.4 -1.1 -0.25
v -0.1 -1.3 -0.25
v -0.1 -1.2 -0.25
v 0.2 -1.3 -0.25
v 0.2 -1.2 -0.25
v 0.4 -1.3 -0.25
v 0.4 -1.1 -0.25
v 0.5 -1.3 -0.25
v 0.5 -1.1 -0.25
v -0.4 -1.3 -0.05
v -0.1 -1.3 -0.05
v 0.2 -1.3 -0.05
v 0.4 -1.3 -0.05
v 0.4 -1.3 -0.15
v 0.5 -1.3 -0.15
v -0.4 -1.3 -0.25
v -0.1 -1.3 -0.25
v 0.2 -1.3 -0.25
v 0.4 -1.3 -0.25
v 0.5 -1.3 -0.25
v -0.1 -1.2 -0.05
v 0.2 -1.2 -0.05
v -0.1 -1.2 -0.25
v 0.2 -1.2 -0.25
v -0.4 -1.1 -0.05
v 0.4 -1.1 -0.05
v 0.4 -1.1 -0.15
v 0.5 -1.1 -0.15
v -0.4 -1.1 -0.25
v 0.4 -1.1 -0.25
v 0.5 -1.1 -0.25

# faces
f 3/1/1 2/1/1 1/1/1
f 4/1/1 2/1/1 3/1/1
f 7/1/1 6/1/1 5/1/1
f 8/1/1 6/1/1 7/1/1
f 9/1/2 10/1/2 11/1/2
f 11/1/2 10/1/2 12/1/2
f 13/1/2 14/1/2 15/1/2
f 15/1/2 14/1/2 16/1/2
f 17/2/2 18/2/2 19/2/2
f 19/2/2 18/2/2 20/2/2
f 23/1/3 22/1/3 21/1/3
f 24/1/3 22/1/3 23/1/3
f 26/1/3 22/1/3 24/1/3
f 27/1/3 26/1/3 25/1/3
f 28/1/3 22/1/3 26/1/3
f 28/1/3 26/1/3 27/1/3
f 31/2/3 30/2/3 29/2/3
f 32/2/3 30/2/3 31/2/3
f 33/1/4 34/1/4 35/1/4
f 35/1/4 34/1/4 36/1/4
f 36/1/4 34/1/4 38/1/4
f 37/1/4 38/1/4 39/1/4
f 38/1/4 34/1/4 40/1/4
f 39/1/4 38/1/4 40/1/4
f 39/2/4 40/2/4 41/2/4
f 41/2/4 40/2/4 42/2/4
f 47/1/5 46/1/5 45/1/5
f 49/1/5 44/1/5 43/1/5
f 50/1/5 44/1/5 49/1/5
f 51/1/5 47/1/5 45/1/5
f 52/2/5 48/2/5 47/2/5
f 52/1/5 47/1/5 51/1/5
f 53/2/5 48/2/5 52/2/5
f 56/1/5 55/1/5 54/1/5
f 57/1/5 55/1/5 56/1/5
f 58/1/6 59/1/6 60/1/6
f 58/1/6 60/1/6 62/1/6
f 60/2/6 61/2/6 63/2/6
f 62/1/6 60/1/6 63/1/6
f 63/2/6 61/2/6 64/2/6
