# MagicaVoxel @ Ephtracy

# group
o 

# material
mtllib cabin-4.mtl
usemtl palette

# normals
vn -1 0 0
vn 1 0 0
vn 0 0 1
vn 0 0 -1
vn 0 -1 0
vn 0 1 0

# texcoords
vt 0.0605469 0.5
vt 0.205078 0.5
vt 0.208984 0.5
vt 0.365234 0.5
vt 0.369141 0.5
vt 0.373047 0.5

# verts
v -7.5 0 -5.2
v -7.5 0 -5.6
v -7.5 0 -5.7
v -7.5 0 -6
v -7.5 0 -6.1
v -7.5 0 -6.4
v -7.5 0 -6.5
v -7.5 0 -6.6
v -7.5 0.1 -5.2
v -7.5 0.1 -5.3
v -7.5 0.2 -5.2
v -7.5 0.2 -5.3
v -7.5 0.2 -5.6
v -7.5 0.2 -5.7
v -7.5 0.2 -6
v -7.5 0.2 -6.1
v -7.5 0.2 -6.4
v -7.5 0.2 -6.5
v -7.5 0.2 -6.6
v -7.1 0 -5.2
v -7.1 0 -5.3
v -7.1 0 -6.5
v -7.1 0 -6.6
v -7.1 0.1 -5.2
v -7.1 0.1 -5.3
v -7.1 0.2 -5.2
v -7.1 0.2 -5.3
v -7.1 0.2 -6.5
v -7.1 0.2 -6.6
v -6.4 -0.1 -5.2
v -6.4 -0.1 -5.3
v -6.4 -0.1 -5.5
v -6.4 -0.1 -5.6
v -6.4 0 -5.2
v -6.4 0 -5.3
v -6.4 0 -5.5
v -6.4 0 -5.6
v -7.2 0 -5.2
v -7.2 0 -5.3
v -7.2 0 -6.5
v -7.2 0 -6.6
v -7.2 0.1 -5.2
v -7.2 0.1 -5.3
v -7.2 0.2 -5.2
v -7.2 0.2 -5.3
v -7.2 0.2 -6.5
v -7.2 0.2 -6.6
v -5.4 -0.1 -5.2
v -5.4 -0.1 -5.6
v -5.4 0 -5.2
v -5.4 0 -5.5
v -5.4 0 -5.6
v -5.3 0.1 -5.2
v -5.3 0.1 -5.3
v -5.3 0.1 -5.5
v -5.3 0.1 -5.6
v -5.3 0.1 -5.9
v -5.3 0.1 -6
v -5.3 0.1 -6.4
v -5.3 0.1 -6.5
v -5.3 0.1 -6.6
v -5.3 0.2 -5.2
v -5.3 0.2 -5.3
v -5.3 0.2 -5.5
v -5.3 0.2 -5.6
v -5.3 0.2 -5.9
v -5.3 0.2 -6
v -5.3 0.2 -6.4
v -5.3 0.2 -6.5
v -5.3 0.2 -6.6
v -5.2 0 -5.2
v -5.2 0 -6.6
v -5.2 0.1 -5.2
v -5.2 0.1 -6.6
v -7.5 0 -5.2
v -7.5 0.1 -5.2
v -7.5 0.2 -5.2
v -7.2 0 -5.2
v -7.2 0.1 -5.2
v -7.2 0.2 -5.2
v -7.1 0 -5.2
v -7.1 0.1 -5.2
v -7.1 0.2 -5.2
v -6.7 0 -5.2
v -6.7 0.1 -5.2
v -6.4 -0.1 -5.2
v -6.4 0 -5.2
v -6.4 0.1 -5.2
v -6.1 -0.1 -5.2
v -6.1 0 -5.2
v -5.7 -0.1 -5.2
v -5.7 0 -5.2
v -5.6 -0.1 -5.2
v -5.6 0 -5.2
v -5.5 -0.1 -5.2
v -5.5 0 -5.2
v -5.4 -0.1 -5.2
v -5.4 0 -5.2
v -5.3 0 -5.2
v -5.3 0.1 -5.2
v -5.3 0.2 -5.2
v -5.2 0 -5.2
v -5.2 0.1 -5.2
v -7.2 0 -5.3
v -7.2 0.1 -5.3
v -7.2 0.2 -5.3
v -7.1 0 -5.3
v -7.1 0.1 -5.3
v -7.1 0.2 -5.3
v -6.4 -0.1 -5.6
v -6.4 0 -5.6
v -6.2 -0.1 -5.6
v -6.2 0 -5.6
v -6.1 -0.1 -5.6
v -6.1 0 -5.6
v -6 0 -5.6
v -5.9 -0.1 -5.6
v -5.9 0 -5.6
v -5.8 -0.1 -5.6
v -5.8 0 -5.6
v -5.7 -0.1 -5.6
v -5.7 0 -5.6
v -5.6 -0.1 -5.6
v -5.6 0 -5.6
v -5.5 -0.1 -5.6
v -5.5 0 -5.6
v -5.4 -0.1 -5.6
v -5.4 0 -5.6
v -7.2 0 -6.5
v -7.2 0.2 -6.5
v -7.1 0 -6.5
v -7.1 0.2 -6.5
v -7.5 0 -6.6
v -7.5 0.2 -6.6
v -7.2 0 -6.6
v -7.2 0.2 -6.6
v -7.1 0 -6.6
v -7.1 0.2 -6.6
v -6.7 0 -6.6
v -6.7 0.2 -6.6
v -5.3 0 -6.6
v -5.3 0.1 -6.6
v -5.3 0.2 -6.6
v -5.2 0 -6.6
v -5.2 0.1 -6.6
v -6.4 -0.1 -5.2
v -6.1 -0.1 -5.2
v -5.7 -0.1 -5.2
v -5.6 -0.1 -5.2
v -5.5 -0.1 -5.2
v -5.4 -0.1 -5.2
v -6.4 -0.1 -5.3
v -6.1 -0.1 -5.3
v -5.9 -0.1 -5.3
v -5.8 -0.1 -5.3
v -5.7 -0.1 -5.3
v -5.6 -0.1 -5.3
v -5.5 -0.1 -5.3
v -5.9 -0.1 -5.4
v -5.8 -0.1 -5.4
v -6.4 -0.1 -5.5
v -6.2 -0.1 -5.5
v -6.1 -0.1 -5.5
v -5.9 -0.1 -5.5
v -5.8 -0.1 -5.5
v -5.7 -0.1 -5.5
v -5.6 -0.1 -5.5
v -6.4 -0.1 -5.6
v -6.2 -0.1 -5.6
v -6.1 -0.1 -5.6
v -5.9 -0.1 -5.6
v -5.8 -0.1 -5.6
v -5.7 -0.1 -5.6
v -5.6 -0.1 -5.6
v -5.5 -0.1 -5.6
v -5.4 -0.1 -5.6
v -7.5 0 -5.2
v -7.2 0 -5.2
v -7.1 0 -5.2
v -6.7 0 -5.2
v -6.4 0 -5.2
v -5.4 0 -5.2
v -5.3 0 -5.2
v -5.2 0 -5.2
v -7.2 0 -5.3
v -7.1 0 -5.3
v -6.4 0 -5.3
v -6.7 0 -5.4
v -6.5 0 -5.4
v -7.1 0 -5.5
v -6.9 0 -5.5
v -6.5 0 -5.5
v -6.4 0 -5.5
v -5.4 0 -5.5
v -5.3 0 -5.5
v -7.5 0 -5.6
v -7.2 0 -5.6
v -7.1 0 -5.6
v -7 0 -5.6
v -6.9 0 -5.6
v -6.4 0 -5.6
v -6.2 0 -5.6
v -6.1 0 -5.6
v -6 0 -5.6
v -5.9 0 -5.6
v -5.8 0 -5.6
v -5.7 0 -5.6
v -5.6 0 -5.6
v -5.5 0 -5.6
v -5.4 0 -5.6
v -5.3 0 -5.6
v -7.5 0 -5.7
v -7.2 0 -5.7
v -7 0 -5.7
v -6.2 0 -5.7
v -6 0 -5.7
v -5.8 0 -5.7
v -5.7 0 -5.7
v -5.5 0 -5.7
v -6.5 0 -5.8
v -6.2 0 -5.8
v -6 0 -5.8
v -5.7 0 -5.8
v -7.1 0 -5.9
v -6.9 0 -5.9
v -6.5 0 -5.9
v -6 0 -5.9
v -5.6 0 -5.9
v -5.3 0 -5.9
v -7.5 0 -6
v -7.2 0 -6
v -7.1 0 -6
v -7 0 -6
v -6.9 0 -6
v -6 0 -6
v -5.8 0 -6
v -5.6 0 -6
v -5.5 0 -6
v -5.3 0 -6
v -7.5 0 -6.1
v -7.2 0 -6.1
v -7 0 -6.1
v -6.2 0 -6.1
v -6 0 -6.1
v -5.8 0 -6.1
v -5.7 0 -6.1
v -5.5 0 -6.1
v -6.2 0 -6.2
v -5.7 0 -6.2
v -7.4 0 -6.3
v -7.2 0 -6.3
v -5.9 0 -6.3
v -5.7 0 -6.3
v -7.5 0 -6.4
v -7.4 0 -6.4
v -7.3 0 -6.4
v -7.2 0 -6.4
v -6.8 0 -6.4
v -6.2 0 -6.4
v -5.9 0 -6.4
v -5.8 0 -6.4
v -5.7 0 -6.4
v -5.3 0 -6.4
v -7.5 0 -6.5
v -7.3 0 -6.5
v -7.2 0 -6.5
v -7.1 0 -6.5
v -6.8 0 -6.5
v -6.7 0 -6.5
v -6.2 0 -6.5
v -5.8 0 -6.5
v -5.3 0 -6.5
v -7.5 0 -6.6
v -7.2 0 -6.6
v -7.1 0 -6.6
v -6.7 0 -6.6
v -5.3 0 -6.6
v -5.2 0 -6.6
v -5.3 0.1 -5.2
v -5.2 0.1 -5.2
v -5.3 0.1 -5.3
v -5.3 0.1 -5.5
v -5.3 0.1 -5.6
v -5.3 0.1 -5.9
v -5.3 0.1 -6
v -5.3 0.1 -6.4
v -5.3 0.1 -6.5
v -5.3 0.1 -6.6
v -5.2 0.1 -6.6
v -7.5 0.2 -5.2
v -7.2 0.2 -5.2
v -7.1 0.2 -5.2
v -5.3 0.2 -5.2
v -7.5 0.2 -5.3
v -7.2 0.2 -5.3
v -7.1 0.2 -5.3
v -6.7 0.2 -5.3
v -6.4 0.2 -5.3
v -5.3 0.2 -5.3
v -6.7 0.2 -5.4
v -6.5 0.2 -5.4
v -6.4 0.2 -5.4
v -6 0.2 -5.4
v -7.1 0.2 -5.5
v -6.9 0.2 -5.5
v -6.5 0.2 -5.5
v -6 0.2 -5.5
v -5.6 0.2 -5.5
v -5.3 0.2 -5.5
v -7.5 0.2 -5.6
v -7.2 0.2 -5.6
v -7.1 0.2 -5.6
v -7 0.2 -5.6
v -6.9 0.2 -5.6
v -6 0.2 -5.6
v -5.8 0.2 -5.6
v -5.6 0.2 -5.6
v -5.5 0.2 -5.6
v -5.3 0.2 -5.6
v -7.5 0.2 -5.7
v -7.2 0.2 -5.7
v -7 0.2 -5.7
v -6.2 0.2 -5.7
v -6 0.2 -5.7
v -5.8 0.2 -5.7
v -5.7 0.2 -5.7
v -5.5 0.2 -5.7
v -6.5 0.2 -5.8
v -6.2 0.2 -5.8
v -6 0.2 -5.8
v -5.7 0.2 -5.8
v -7.1 0.2 -5.9
v -6.9 0.2 -5.9
v -6.5 0.2 -5.9
v -6 0.2 -5.9
v -5.6 0.2 -5.9
v -5.3 0.2 -5.9
v -7.5 0.2 -6
v -7.2 0.2 -6
v -7.1 0.2 -6
v -7 0.2 -6
v -6.9 0.2 -6
v -6 0.2 -6
v -5.8 0.2 -6
v -5.6 0.2 -6
v -5.5 0.2 -6
v -5.3 0.2 -6
v -7.5 0.2 -6.1
v -7.2 0.2 -6.1
v -7 0.2 -6.1
v -6.2 0.2 -6.1
v -6 0.2 -6.1
v -5.8 0.2 -6.1
v -5.7 0.2 -6.1
v -5.5 0.2 -6.1
v -6.2 0.2 -6.2
v -5.7 0.2 -6.2
v -7.4 0.2 -6.3
v -7.2 0.2 -6.3
v -5.9 0.2 -6.3
v -5.7 0.2 -6.3
v -7.5 0.2 -6.4
v -7.4 0.2 -6.4
v -7.3 0.2 -6.4
v -7.2 0.2 -6.4
v -6.8 0.2 -6.4
v -6.2 0.2 -6.4
v -5.9 0.2 -6.4
v -5.8 0.2 -6.4
v -5.7 0.2 -6.4
v -5.3 0.2 -6.4
v -7.5 0.2 -6.5
v -7.3 0.2 -6.5
v -7.2 0.2 -6.5
v -7.1 0.2 -6.5
v -6.8 0.2 -6.5
v -6.7 0.2 -6.5
v -6.2 0.2 -6.5
v -5.8 0.2 -6.5
v -5.3 0.2 -6.5
v -7.5 0.2 -6.6
v -7.2 0.2 -6.6
v -7.1 0.2 -6.6
v -6.7 0.2 -6.6
v -5.3 0.2 -6.6

# faces
f 9/1/1 2/1/1 1/1/1
f 10/1/1 2/1/1 9/1/1
f 11/6/1 10/6/1 9/6/1
f 12/1/1 2/1/1 10/1/1
f 12/6/1 10/6/1 11/6/1
f 13/4/1 3/4/1 2/4/1
f 13/1/1 2/1/1 12/1/1
f 14/1/1 4/1/1 3/1/1
f 14/4/1 3/4/1 13/4/1
f 15/4/1 5/4/1 4/4/1
f 15/1/1 4/1/1 14/1/1
f 16/1/1 6/1/1 5/1/1
f 16/4/1 5/4/1 15/4/1
f 17/4/1 7/4/1 6/4/1
f 17/1/1 6/1/1 16/1/1
f 18/1/1 8/1/1 7/1/1
f 18/4/1 7/4/1 17/4/1
f 19/1/1 8/1/1 18/1/1
f 24/1/1 21/1/1 20/1/1
f 25/1/1 21/1/1 24/1/1
f 26/6/1 25/6/1 24/6/1
f 27/6/1 25/6/1 26/6/1
f 28/4/1 23/4/1 22/4/1
f 29/4/1 23/4/1 28/4/1
f 34/2/1 31/2/1 30/2/1
f 35/4/1 32/4/1 31/4/1
f 35/2/1 31/2/1 34/2/1
f 36/2/1 33/2/1 32/2/1
f 36/4/1 32/4/1 35/4/1
f 37/2/1 33/2/1 36/2/1
f 38/1/2 39/1/2 42/1/2
f 42/1/2 39/1/2 43/1/2
f 42/6/2 43/6/2 44/6/2
f 44/6/2 43/6/2 45/6/2
f 40/1/2 41/1/2 46/1/2
f 46/1/2 41/1/2 47/1/2
f 48/5/2 49/5/2 50/5/2
f 50/5/2 49/5/2 51/5/2
f 51/5/2 49/5/2 52/5/2
f 53/6/2 54/6/2 62/6/2
f 54/1/2 55/1/2 63/1/2
f 62/6/2 54/6/2 63/6/2
f 55/4/2 56/4/2 64/4/2
f 63/1/2 55/1/2 64/1/2
f 56/1/2 57/1/2 65/1/2
f 64/4/2 56/4/2 65/4/2
f 57/4/2 58/4/2 66/4/2
f 65/1/2 57/1/2 66/1/2
f 58/1/2 59/1/2 67/1/2
f 66/4/2 58/4/2 67/4/2
f 59/4/2 60/4/2 68/4/2
f 67/1/2 59/1/2 68/1/2
f 60/1/2 61/1/2 69/1/2
f 68/4/2 60/4/2 69/4/2
f 69/1/2 61/1/2 70/1/2
f 71/6/2 72/6/2 73/6/2
f 73/6/2 72/6/2 74/6/2
f 78/1/3 76/1/3 75/1/3
f 79/6/3 77/6/3 76/6/3
f 79/1/3 76/1/3 78/1/3
f 80/6/3 77/6/3 79/6/3
f 84/1/3 82/1/3 81/1/3
f 85/6/3 83/6/3 82/6/3
f 85/1/3 82/1/3 84/1/3
f 87/4/3 85/4/3 84/4/3
f 88/6/3 83/6/3 85/6/3
f 88/4/3 85/4/3 87/4/3
f 89/2/3 87/2/3 86/2/3
f 90/1/3 88/1/3 87/1/3
f 90/2/3 87/2/3 89/2/3
f 91/4/3 90/4/3 89/4/3
f 92/1/3 88/1/3 90/1/3
f 92/4/3 90/4/3 91/4/3
f 93/1/3 92/1/3 91/1/3
f 94/1/3 88/1/3 92/1/3
f 94/1/3 92/1/3 93/1/3
f 95/6/3 94/6/3 93/6/3
f 96/1/3 88/1/3 94/1/3
f 96/6/3 94/6/3 95/6/3
f 97/5/3 96/5/3 95/5/3
f 98/1/3 88/1/3 96/1/3
f 98/5/3 96/5/3 97/5/3
f 99/1/3 88/1/3 98/1/3
f 100/6/3 83/6/3 88/6/3
f 100/1/3 88/1/3 99/1/3
f 101/6/3 83/6/3 100/6/3
f 102/6/3 100/6/3 99/6/3
f 103/6/3 100/6/3 102/6/3
f 107/5/3 105/5/3 104/5/3
f 107/5/3 106/5/3 105/5/3
f 108/5/3 106/5/3 107/5/3
f 109/5/3 106/5/3 108/5/3
f 110/2/4 111/2/4 112/2/4
f 112/2/4 111/2/4 113/2/4
f 112/1/4 113/1/4 114/1/4
f 114/1/4 113/1/4 115/1/4
f 114/4/4 115/4/4 116/4/4
f 114/4/4 116/4/4 117/4/4
f 117/4/4 116/4/4 118/4/4
f 117/1/4 118/1/4 119/1/4
f 119/1/4 118/1/4 120/1/4
f 119/4/4 120/4/4 121/4/4
f 121/4/4 120/4/4 122/4/4
f 121/2/4 122/2/4 123/2/4
f 123/2/4 122/2/4 124/2/4
f 123/3/4 124/3/4 125/3/4
f 125/3/4 124/3/4 126/3/4
f 125/5/4 126/5/4 127/5/4
f 127/5/4 126/5/4 128/5/4
f 129/5/4 130/5/4 131/5/4
f 131/5/4 130/5/4 132/5/4
f 133/1/4 134/1/4 135/1/4
f 135/1/4 134/1/4 136/1/4
f 137/4/4 138/4/4 139/4/4
f 139/4/4 138/4/4 140/4/4
f 139/1/4 140/1/4 141/1/4
f 141/1/4 140/1/4 142/1/4
f 142/1/4 140/1/4 143/1/4
f 141/6/4 142/6/4 144/6/4
f 144/6/4 142/6/4 145/6/4
f 152/2/5 147/2/5 146/2/5
f 153/4/5 148/4/5 147/4/5
f 153/2/5 147/2/5 152/2/5
f 154/4/5 148/4/5 153/4/5
f 155/4/5 148/4/5 154/4/5
f 156/1/5 149/1/5 148/1/5
f 156/4/5 148/4/5 155/4/5
f 157/6/5 150/6/5 149/6/5
f 157/1/5 149/1/5 156/1/5
f 158/5/5 151/5/5 150/5/5
f 158/6/5 150/6/5 157/6/5
f 159/4/5 155/4/5 154/4/5
f 159/2/5 154/2/5 153/2/5
f 160/1/5 157/1/5 156/1/5
f 160/4/5 155/4/5 159/4/5
f 160/1/5 156/1/5 155/1/5
f 161/4/5 153/4/5 152/4/5
f 162/4/5 153/4/5 161/4/5
f 163/2/5 159/2/5 153/2/5
f 163/4/5 153/4/5 162/4/5
f 163/2/5 160/2/5 159/2/5
f 164/2/5 160/2/5 163/2/5
f 165/1/5 157/1/5 160/1/5
f 165/2/5 160/2/5 164/2/5
f 166/1/5 157/1/5 165/1/5
f 167/3/5 158/3/5 157/3/5
f 167/1/5 157/1/5 166/1/5
f 168/2/5 162/2/5 161/2/5
f 169/1/5 163/1/5 162/1/5
f 169/2/5 162/2/5 168/2/5
f 170/4/5 164/4/5 163/4/5
f 170/1/5 163/1/5 169/1/5
f 171/1/5 165/1/5 164/1/5
f 171/4/5 164/4/5 170/4/5
f 172/4/5 166/4/5 165/4/5
f 172/1/5 165/1/5 171/1/5
f 173/2/5 167/2/5 166/2/5
f 173/4/5 166/4/5 172/4/5
f 174/3/5 158/3/5 167/3/5
f 174/2/5 167/2/5 173/2/5
f 175/5/5 151/5/5 158/5/5
f 175/3/5 158/3/5 174/3/5
f 176/5/5 151/5/5 175/5/5
f 185/1/5 178/1/5 177/1/5
f 186/1/5 180/1/5 179/1/5
f 187/4/5 181/4/5 180/4/5
f 188/1/5 180/1/5 186/1/5
f 188/4/5 187/4/5 180/4/5
f 189/4/5 187/4/5 188/4/5
f 190/5/5 186/5/5 185/5/5
f 190/1/5 188/1/5 186/1/5
f 190/1/5 189/1/5 188/1/5
f 191/1/5 189/1/5 190/1/5
f 192/4/5 187/4/5 189/4/5
f 192/1/5 189/1/5 191/1/5
f 193/4/5 187/4/5 192/4/5
f 194/1/5 183/1/5 182/1/5
f 195/6/5 184/6/5 183/6/5
f 195/1/5 183/1/5 194/1/5
f 196/1/5 185/1/5 177/1/5
f 197/5/5 190/5/5 185/5/5
f 197/1/5 185/1/5 196/1/5
f 198/4/5 191/4/5 190/4/5
f 198/5/5 190/5/5 197/5/5
f 199/4/5 191/4/5 198/4/5
f 200/1/5 193/1/5 192/1/5
f 200/4/5 191/4/5 199/4/5
f 200/1/5 192/1/5 191/1/5
f 201/1/5 193/1/5 200/1/5
f 210/4/5 195/4/5 194/4/5
f 211/6/5 184/6/5 195/6/5
f 211/4/5 195/4/5 210/4/5
f 212/4/5 197/4/5 196/4/5
f 213/5/5 198/5/5 197/5/5
f 213/4/5 197/4/5 212/4/5
f 214/1/5 199/1/5 198/1/5
f 214/4/5 200/4/5 199/4/5
f 214/4/5 201/4/5 200/4/5
f 214/4/5 202/4/5 201/4/5
f 214/4/5 203/4/5 202/4/5
f 214/4/5 204/4/5 203/4/5
f 215/4/5 204/4/5 214/4/5
f 216/1/5 205/1/5 204/1/5
f 216/4/5 204/4/5 215/4/5
f 216/1/5 206/1/5 205/1/5
f 217/4/5 209/4/5 208/4/5
f 217/1/5 206/1/5 216/1/5
f 217/4/5 208/4/5 207/4/5
f 217/4/5 207/4/5 206/4/5
f 218/4/5 209/4/5 217/4/5
f 219/1/5 210/1/5 209/1/5
f 219/4/5 209/4/5 218/4/5
f 219/1/5 211/1/5 210/1/5
f 220/1/5 215/1/5 214/1/5
f 221/4/5 218/4/5 217/4/5
f 221/1/5 215/1/5 220/1/5
f 221/4/5 216/4/5 215/4/5
f 221/4/5 217/4/5 216/4/5
f 222/4/5 218/4/5 221/4/5
f 223/1/5 219/1/5 218/1/5
f 223/4/5 218/4/5 222/4/5
f 224/1/5 220/1/5 214/1/5
f 224/5/5 198/5/5 213/5/5
f 224/1/5 214/1/5 198/1/5
f 225/1/5 220/1/5 224/1/5
f 226/4/5 222/4/5 221/4/5
f 226/1/5 220/1/5 225/1/5
f 226/4/5 221/4/5 220/4/5
f 227/1/5 223/1/5 222/1/5
f 227/4/5 222/4/5 226/4/5
f 228/1/5 219/1/5 223/1/5
f 228/1/5 223/1/5 227/1/5
f 229/6/5 184/6/5 211/6/5
f 229/1/5 219/1/5 228/1/5
f 229/1/5 211/1/5 219/1/5
f 230/1/5 213/1/5 212/1/5
f 231/5/5 224/5/5 213/5/5
f 231/1/5 213/1/5 230/1/5
f 232/4/5 225/4/5 224/4/5
f 232/5/5 224/5/5 231/5/5
f 233/4/5 225/4/5 232/4/5
f 234/1/5 227/1/5 226/1/5
f 234/4/5 225/4/5 233/4/5
f 234/1/5 228/1/5 227/1/5
f 234/1/5 226/1/5 225/1/5
f 235/1/5 228/1/5 234/1/5
f 236/1/5 228/1/5 235/1/5
f 237/4/5 229/4/5 228/4/5
f 237/1/5 228/1/5 236/1/5
f 238/4/5 229/4/5 237/4/5
f 239/6/5 184/6/5 229/6/5
f 239/4/5 229/4/5 238/4/5
f 240/4/5 231/4/5 230/4/5
f 241/5/5 232/5/5 231/5/5
f 241/4/5 231/4/5 240/4/5
f 242/1/5 233/1/5 232/1/5
f 242/4/5 234/4/5 233/4/5
f 242/4/5 235/4/5 234/4/5
f 243/4/5 235/4/5 242/4/5
f 244/1/5 236/1/5 235/1/5
f 244/4/5 235/4/5 243/4/5
f 245/4/5 238/4/5 237/4/5
f 245/1/5 236/1/5 244/1/5
f 245/4/5 237/4/5 236/4/5
f 246/4/5 238/4/5 245/4/5
f 247/1/5 239/1/5 238/1/5
f 247/4/5 238/4/5 246/4/5
f 248/1/5 243/1/5 242/1/5
f 248/4/5 244/4/5 243/4/5
f 248/4/5 246/4/5 245/4/5
f 248/4/5 245/4/5 244/4/5
f 249/1/5 247/1/5 246/1/5
f 249/4/5 246/4/5 248/4/5
f 250/1/5 241/1/5 240/1/5
f 251/5/5 232/5/5 241/5/5
f 251/1/5 241/1/5 250/1/5
f 252/1/5 249/1/5 248/1/5
f 253/1/5 247/1/5 249/1/5
f 253/1/5 249/1/5 252/1/5
f 254/1/5 250/1/5 240/1/5
f 255/4/5 251/4/5 250/4/5
f 255/1/5 250/1/5 254/1/5
f 256/4/5 251/4/5 255/4/5
f 257/5/5 232/5/5 251/5/5
f 257/4/5 251/4/5 256/4/5
f 258/1/5 248/1/5 242/1/5
f 258/1/5 252/1/5 248/1/5
f 259/1/5 252/1/5 258/1/5
f 260/4/5 253/4/5 252/4/5
f 260/1/5 252/1/5 259/1/5
f 261/4/5 253/4/5 260/4/5
f 262/1/5 247/1/5 253/1/5
f 262/4/5 253/4/5 261/4/5
f 263/1/5 239/1/5 247/1/5
f 263/1/5 247/1/5 262/1/5
f 263/6/5 184/6/5 239/6/5
f 264/4/5 256/4/5 255/4/5
f 264/4/5 255/4/5 254/4/5
f 265/1/5 257/1/5 256/1/5
f 265/4/5 256/4/5 264/4/5
f 266/5/5 232/5/5 257/5/5
f 266/1/5 257/1/5 265/1/5
f 267/1/5 242/1/5 232/1/5
f 267/5/5 232/5/5 266/5/5
f 267/1/5 258/1/5 242/1/5
f 268/4/5 259/4/5 258/4/5
f 268/1/5 258/1/5 267/1/5
f 269/4/5 259/4/5 268/4/5
f 270/1/5 261/1/5 260/1/5
f 270/4/5 259/4/5 269/4/5
f 270/1/5 260/1/5 259/1/5
f 271/4/5 262/4/5 261/4/5
f 271/1/5 261/1/5 270/1/5
f 271/4/5 263/4/5 262/4/5
f 272/6/5 184/6/5 263/6/5
f 272/4/5 263/4/5 271/4/5
f 273/1/5 265/1/5 264/1/5
f 273/1/5 266/1/5 265/1/5
f 274/1/5 266/1/5 273/1/5
f 275/4/5 269/4/5 268/4/5
f 275/4/5 268/4/5 267/4/5
f 276/1/5 270/1/5 269/1/5
f 276/4/5 269/4/5 275/4/5
f 276/1/5 272/1/5 271/1/5
f 276/1/5 271/1/5 270/1/5
f 277/6/5 184/6/5 272/6/5
f 277/1/5 272/1/5 276/1/5
f 278/6/5 184/6/5 277/6/5
f 279/6/6 280/6/6 281/6/6
f 281/6/6 280/6/6 282/6/6
f 282/6/6 280/6/6 283/6/6
f 283/6/6 280/6/6 284/6/6
f 284/6/6 280/6/6 285/6/6
f 285/6/6 280/6/6 286/6/6
f 286/6/6 280/6/6 287/6/6
f 287/6/6 280/6/6 288/6/6
f 288/6/6 280/6/6 289/6/6
f 290/6/6 291/6/6 294/6/6
f 294/6/6 291/6/6 295/6/6
f 292/6/6 293/6/6 296/6/6
f 296/6/6 293/6/6 297/6/6
f 297/6/6 293/6/6 298/6/6
f 298/6/6 293/6/6 299/6/6
f 296/1/6 297/1/6 300/1/6
f 297/4/6 298/4/6 300/4/6
f 300/4/6 298/4/6 301/4/6
f 298/1/6 299/1/6 302/1/6
f 301/4/6 298/4/6 302/4/6
f 302/1/6 299/1/6 303/1/6
f 295/5/6 296/5/6 304/5/6
f 300/1/6 301/1/6 304/1/6
f 296/1/6 300/1/6 304/1/6
f 304/1/6 301/1/6 305/1/6
f 302/4/6 303/4/6 306/4/6
f 305/1/6 301/1/6 306/1/6
f 301/4/6 302/4/6 306/4/6
f 303/1/6 299/1/6 307/1/6
f 306/4/6 303/4/6 307/4/6
f 307/1/6 299/1/6 308/1/6
f 308/1/6 299/1/6 309/1/6
f 294/1/6 295/1/6 310/1/6
f 295/5/6 304/5/6 311/5/6
f 310/1/6 295/1/6 311/1/6
f 304/4/6 305/4/6 312/4/6
f 311/5/6 304/5/6 312/5/6
f 312/4/6 305/4/6 313/4/6
f 305/1/6 306/1/6 314/1/6
f 313/4/6 305/4/6 314/4/6
f 306/1/6 307/1/6 314/1/6
f 307/1/6 308/1/6 314/1/6
f 314/1/6 308/1/6 315/1/6
f 315/1/6 308/1/6 316/1/6
f 308/4/6 309/4/6 317/4/6
f 316/1/6 308/1/6 317/1/6
f 317/4/6 309/4/6 318/4/6
f 318/4/6 309/4/6 319/4/6
f 310/4/6 311/4/6 320/4/6
f 311/5/6 312/5/6 321/5/6
f 320/4/6 311/4/6 321/4/6
f 312/1/6 313/1/6 322/1/6
f 313/4/6 314/4/6 322/4/6
f 314/4/6 315/4/6 322/4/6
f 322/4/6 315/4/6 323/4/6
f 315/1/6 316/1/6 324/1/6
f 323/4/6 315/4/6 324/4/6
f 316/4/6 317/4/6 325/4/6
f 324/1/6 316/1/6 325/1/6
f 317/4/6 318/4/6 325/4/6
f 325/4/6 318/4/6 326/4/6
f 318/1/6 319/1/6 327/1/6
f 326/4/6 318/4/6 327/4/6
f 322/1/6 323/1/6 328/1/6
f 325/4/6 326/4/6 329/4/6
f 328/1/6 323/1/6 329/1/6
f 323/4/6 324/4/6 329/4/6
f 324/4/6 325/4/6 329/4/6
f 329/4/6 326/4/6 330/4/6
f 326/1/6 327/1/6 331/1/6
f 330/4/6 326/4/6 331/4/6
f 321/5/6 312/5/6 332/5/6
f 322/1/6 328/1/6 332/1/6
f 312/1/6 322/1/6 332/1/6
f 332/1/6 328/1/6 333/1/6
f 329/4/6 330/4/6 334/4/6
f 333/1/6 328/1/6 334/1/6
f 328/4/6 329/4/6 334/4/6
f 330/1/6 331/1/6 335/1/6
f 334/4/6 330/4/6 335/4/6
f 331/1/6 327/1/6 336/1/6
f 335/1/6 331/1/6 336/1/6
f 327/1/6 319/1/6 337/1/6
f 336/1/6 327/1/6 337/1/6
f 320/1/6 321/1/6 338/1/6
f 321/5/6 332/5/6 339/5/6
f 338/1/6 321/1/6 339/1/6
f 332/4/6 333/4/6 340/4/6
f 339/5/6 332/5/6 340/5/6
f 340/4/6 333/4/6 341/4/6
f 334/1/6 335/1/6 342/1/6
f 341/4/6 333/4/6 342/4/6
f 335/1/6 336/1/6 342/1/6
f 333/1/6 334/1/6 342/1/6
f 342/1/6 336/1/6 343/1/6
f 343/1/6 336/1/6 344/1/6
f 336/4/6 337/4/6 345/4/6
f 344/1/6 336/1/6 345/1/6
f 345/4/6 337/4/6 346/4/6
f 346/4/6 337/4/6 347/4/6
f 338/4/6 339/4/6 348/4/6
f 339/5/6 340/5/6 349/5/6
f 348/4/6 339/4/6 349/4/6
f 340/1/6 341/1/6 350/1/6
f 341/4/6 342/4/6 350/4/6
f 342/4/6 343/4/6 350/4/6
f 350/4/6 343/4/6 351/4/6
f 343/1/6 344/1/6 352/1/6
f 351/4/6 343/4/6 352/4/6
f 344/4/6 345/4/6 353/4/6
f 352/1/6 344/1/6 353/1/6
f 345/4/6 346/4/6 353/4/6
f 353/4/6 346/4/6 354/4/6
f 346/1/6 347/1/6 355/1/6
f 354/4/6 346/4/6 355/4/6
f 350/1/6 351/1/6 356/1/6
f 353/4/6 354/4/6 356/4/6
f 351/4/6 352/4/6 356/4/6
f 352/4/6 353/4/6 356/4/6
f 354/1/6 355/1/6 357/1/6
f 356/4/6 354/4/6 357/4/6
f 348/1/6 349/1/6 358/1/6
f 349/5/6 340/5/6 359/5/6
f 358/1/6 349/1/6 359/1/6
f 356/1/6 357/1/6 360/1/6
f 357/1/6 355/1/6 361/1/6
f 360/1/6 357/1/6 361/1/6
f 348/1/6 358/1/6 362/1/6
f 358/4/6 359/4/6 363/4/6
f 362/1/6 358/1/6 363/1/6
f 363/4/6 359/4/6 364/4/6
f 359/5/6 340/5/6 365/5/6
f 364/4/6 359/4/6 365/4/6
f 356/1/6 360/1/6 366/1/6
f 350/1/6 356/1/6 366/1/6
f 366/1/6 360/1/6 367/1/6
f 360/4/6 361/4/6 368/4/6
f 367/1/6 360/1/6 368/1/6
f 368/4/6 361/4/6 369/4/6
f 361/1/6 355/1/6 370/1/6
f 369/4/6 361/4/6 370/4/6
f 355/1/6 347/1/6 371/1/6
f 370/1/6 355/1/6 371/1/6
f 363/4/6 364/4/6 372/4/6
f 362/4/6 363/4/6 372/4/6
f 364/1/6 365/1/6 373/1/6
f 372/4/6 364/4/6 373/4/6
f 365/5/6 340/5/6 374/5/6
f 373/1/6 365/1/6 374/1/6
f 340/1/6 350/1/6 375/1/6
f 374/5/6 340/5/6 375/5/6
f 350/1/6 366/1/6 375/1/6
f 366/4/6 367/4/6 376/4/6
f 375/1/6 366/1/6 376/1/6
f 376/4/6 367/4/6 377/4/6
f 368/1/6 369/1/6 378/1/6
f 377/4/6 367/4/6 378/4/6
f 367/1/6 368/1/6 378/1/6
f 369/4/6 370/4/6 379/4/6
f 378/1/6 369/1/6 379/1/6
f 370/4/6 371/4/6 379/4/6
f 379/4/6 371/4/6 380/4/6
f 372/1/6 373/1/6 381/1/6
f 373/1/6 374/1/6 381/1/6
f 381/1/6 374/1/6 382/1/6
f 376/4/6 377/4/6 383/4/6
f 375/4/6 376/4/6 383/4/6
f 377/1/6 378/1/6 384/1/6
f 383/4/6 377/4/6 384/4/6
f 379/1/6 380/1/6 384/1/6
f 378/1/6 379/1/6 384/1/6
f 384/1/6 380/1/6 385/1/6
