# MagicaVoxel @ Ephtracy

# group
o 

# material
mtllib cap.mtl
usemtl palette

# normals
vn -1 0 0
vn 1 0 0
vn 0 0 1
vn 0 0 -1
vn 0 -1 0
vn 0 1 0

# texcoords
vt 0.845703 0.5
vt 0.849609 0.5
vt 0.857422 0.5
vt 0.994141 0.5

# verts
v -0.6 0.3 0.05
v -0.6 0.3 -0.05
v -0.6 0.7 0.05
v -0.6 0.7 -0.05
v -0.5 0.3 0.15
v -0.5 0.3 0.05
v -0.5 0.7 0.15
v -0.5 0.7 0.05
v -0.5 0.7 -0.05
v -0.5 0.8 0.05
v -0.5 0.8 -0.05
v -0.4 0.7 0.15
v -0.4 0.7 0.05
v -0.4 0.8 0.15
v -0.4 0.8 0.05
v -0.4 0.8 -0.05
v -0.4 0.9 0.05
v -0.4 0.9 -0.05
v 0 0.4 0.15
v 0 0.4 0.05
v 0 0.6 0.15
v 0 0.6 0.05
v -0.4 0.4 0.15
v -0.4 0.4 0.05
v -0.4 0.6 0.15
v -0.4 0.6 0.05
v 0.3 0.7 0.15
v 0.3 0.7 0.05
v 0.3 0.8 0.15
v 0.3 0.8 0.05
v 0.4 0.4 0.15
v 0.4 0.4 0.05
v 0.4 0.7 0.15
v 0.4 0.7 0.05
v 0.4 0.8 0.05
v 0.4 0.8 -0.05
v 0.4 0.9 0.05
v 0.4 0.9 -0.05
v 0.5 0.7 0.05
v 0.5 0.7 -0.05
v 0.5 0.8 0.05
v 0.5 0.8 -0.05
v 0.6 0.4 0.05
v 0.6 0.4 -0.05
v 0.6 0.7 0.05
v 0.6 0.7 -0.05
v 0.8 0.3 0.15
v 0.8 0.3 0.05
v 0.8 0.4 0.15
v 0.8 0.4 0.05
v 0.9 0.3 0.05
v 0.9 0.3 -0.05
v 0.9 0.4 0.05
v 0.9 0.4 -0.05
v -0.5 0.3 0.15
v -0.5 0.7 0.15
v -0.4 0.4 0.15
v -0.4 0.6 0.15
v -0.4 0.7 0.15
v -0.4 0.8 0.15
v 0 0.4 0.15
v 0 0.6 0.15
v 0.3 0.7 0.15
v 0.3 0.8 0.15
v 0.4 0.4 0.15
v 0.4 0.7 0.15
v 0.8 0.3 0.15
v 0.8 0.4 0.15
v -0.6 0.3 0.05
v -0.6 0.7 0.05
v -0.5 0.3 0.05
v -0.5 0.7 0.05
v -0.5 0.8 0.05
v -0.4 0.4 0.05
v -0.4 0.6 0.05
v -0.4 0.7 0.05
v -0.4 0.8 0.05
v -0.4 0.9 0.05
v 0 0.4 0.05
v 0 0.6 0.05
v 0.3 0.7 0.05
v 0.3 0.8 0.05
v 0.3 0.9 0.05
v 0.4 0.4 0.05
v 0.4 0.7 0.05
v 0.4 0.8 0.05
v 0.4 0.9 0.05
v 0.5 0.4 0.05
v 0.5 0.7 0.05
v 0.5 0.8 0.05
v 0.6 0.4 0.05
v 0.6 0.7 0.05
v 0.8 0.3 0.05
v 0.8 0.4 0.05
v 0.9 0.3 0.05
v 0.9 0.4 0.05
v -0.6 0.3 -0.05
v -0.6 0.7 -0.05
v -0.5 0.3 -0.05
v -0.5 0.7 -0.05
v -0.5 0.8 -0.05
v -0.4 0.4 -0.05
v -0.4 0.6 -0.05
v -0.4 0.7 -0.05
v -0.4 0.8 -0.05
v -0.4 0.9 -0.05
v 0 0.4 -0.05
v 0 0.6 -0.05
v 0.3 0.8 -0.05
v 0.3 0.9 -0.05
v 0.4 0.7 -0.05
v 0.4 0.8 -0.05
v 0.4 0.9 -0.05
v 0.5 0.4 -0.05
v 0.5 0.7 -0.05
v 0.5 0.8 -0.05
v 0.6 0.4 -0.05
v 0.6 0.7 -0.05
v 0.8 0.3 -0.05
v 0.8 0.4 -0.05
v 0.9 0.3 -0.05
v 0.9 0.4 -0.05
v -0.5 0.3 0.15
v 0.8 0.3 0.15
v -0.6 0.3 0.05
v -0.5 0.3 0.05
v 0.8 0.3 0.05
v 0.9 0.3 0.05
v -0.6 0.3 -0.05
v -0.5 0.3 -0.05
v 0.8 0.3 -0.05
v 0.9 0.3 -0.05
v -0.4 0.6 0.15
v 0 0.6 0.15
v -0.4 0.6 0.05
v 0 0.6 0.05
v -0.4 0.4 0.15
v 0 0.4 0.15
v 0.4 0.4 0.15
v 0.8 0.4 0.15
v -0.4 0.4 0.05
v 0 0.4 0.05
v 0.4 0.4 0.05
v 0.5 0.4 0.05
v 0.6 0.4 0.05
v 0.8 0.4 0.05
v 0.9 0.4 0.05
v 0.6 0.4 -0.05
v 0.8 0.4 -0.05
v 0.9 0.4 -0.05
v -0.5 0.7 0.15
v -0.4 0.7 0.15
v 0.3 0.7 0.15
v 0.4 0.7 0.15
v -0.6 0.7 0.05
v -0.5 0.7 0.05
v -0.4 0.7 0.05
v 0.3 0.7 0.05
v 0.4 0.7 0.05
v 0.5 0.7 0.05
v 0.6 0.7 0.05
v -0.6 0.7 -0.05
v -0.5 0.7 -0.05
v 0.5 0.7 -0.05
v 0.6 0.7 -0.05
v -0.4 0.8 0.15
v 0.3 0.8 0.15
v -0.5 0.8 0.05
v -0.4 0.8 0.05
v 0.3 0.8 0.05
v 0.4 0.8 0.05
v 0.5 0.8 0.05
v -0.5 0.8 -0.05
v -0.4 0.8 -0.05
v 0.4 0.8 -0.05
v 0.5 0.8 -0.05
v -0.4 0.9 0.05
v 0.3 0.9 0.05
v 0.4 0.9 0.05
v -0.4 0.9 -0.05
v 0.3 0.9 -0.05
v 0.4 0.9 -0.05

# faces
f 3/1/1 2/1/1 1/1/1
f 4/1/1 2/1/1 3/1/1
f 7/2/1 6/2/1 5/2/1
f 8/2/1 6/2/1 7/2/1
f 10/1/1 9/1/1 8/1/1
f 11/1/1 9/1/1 10/1/1
f 14/2/1 13/2/1 12/2/1
f 15/2/1 13/2/1 14/2/1
f 17/1/1 16/1/1 15/1/1
f 18/1/1 16/1/1 17/1/1
f 21/2/1 20/2/1 19/2/1
f 22/2/1 20/2/1 21/2/1
f 23/2/2 24/2/2 25/2/2
f 25/2/2 24/2/2 26/2/2
f 27/2/2 28/2/2 29/2/2
f 29/2/2 28/2/2 30/2/2
f 31/2/2 32/2/2 33/2/2
f 33/2/2 32/2/2 34/2/2
f 35/3/2 36/3/2 37/3/2
f 37/3/2 36/3/2 38/3/2
f 39/3/2 40/3/2 41/3/2
f 41/3/2 40/3/2 42/3/2
f 43/3/2 44/3/2 45/3/2
f 45/3/2 44/3/2 46/3/2
f 47/2/2 48/2/2 49/2/2
f 49/2/2 48/2/2 50/2/2
f 51/3/2 52/3/2 53/3/2
f 53/3/2 52/3/2 54/3/2
f 57/2/3 56/2/3 55/2/3
f 58/2/3 56/2/3 57/2/3
f 59/2/3 56/2/3 58/2/3
f 61/2/3 57/2/3 55/2/3
f 62/2/3 60/2/3 59/2/3
f 62/2/3 59/2/3 58/2/3
f 63/2/3 60/2/3 62/2/3
f 63/2/3 62/2/3 61/2/3
f 64/2/3 60/2/3 63/2/3
f 65/2/3 61/2/3 55/2/3
f 65/2/3 63/2/3 61/2/3
f 66/2/3 63/2/3 65/2/3
f 67/2/3 65/2/3 55/2/3
f 68/2/3 65/2/3 67/2/3
f 71/1/3 70/1/3 69/1/3
f 72/1/3 70/1/3 71/1/3
f 76/1/3 73/1/3 72/1/3
f 77/1/3 73/1/3 76/1/3
f 79/4/3 75/4/3 74/4/3
f 80/4/3 75/4/3 79/4/3
f 82/1/3 78/1/3 77/1/3
f 83/1/3 78/1/3 82/1/3
f 85/2/3 82/2/3 81/2/3
f 86/3/3 83/3/3 82/3/3
f 86/2/3 82/2/3 85/2/3
f 87/3/3 83/3/3 86/3/3
f 88/2/3 85/2/3 84/2/3
f 89/3/3 86/3/3 85/3/3
f 89/2/3 85/2/3 88/2/3
f 90/3/3 86/3/3 89/3/3
f 91/3/3 89/3/3 88/3/3
f 92/3/3 89/3/3 91/3/3
f 95/3/3 94/3/3 93/3/3
f 96/3/3 94/3/3 95/3/3
f 97/1/4 98/1/4 99/1/4
f 99/1/4 98/1/4 100/1/4
f 99/2/4 100/2/4 102/2/4
f 102/2/4 100/2/4 103/2/4
f 100/1/4 101/1/4 104/1/4
f 103/2/4 100/2/4 104/2/4
f 104/1/4 101/1/4 105/1/4
f 102/4/4 103/4/4 107/4/4
f 99/2/4 102/2/4 107/2/4
f 104/2/4 105/2/4 108/2/4
f 107/4/4 103/4/4 108/4/4
f 103/2/4 104/2/4 108/2/4
f 105/1/4 106/1/4 109/1/4
f 108/2/4 105/2/4 109/2/4
f 107/2/4 108/2/4 109/2/4
f 109/1/4 106/1/4 110/1/4
f 107/2/4 109/2/4 111/2/4
f 109/3/4 110/3/4 112/3/4
f 111/2/4 109/2/4 112/2/4
f 112/3/4 110/3/4 113/3/4
f 99/2/4 107/2/4 114/2/4
f 107/2/4 111/2/4 114/2/4
f 111/3/4 112/3/4 115/3/4
f 114/2/4 111/2/4 115/2/4
f 115/3/4 112/3/4 116/3/4
f 99/2/4 114/2/4 117/2/4
f 114/3/4 115/3/4 117/3/4
f 117/3/4 115/3/4 118/3/4
f 99/2/4 117/2/4 119/2/4
f 119/2/4 117/2/4 120/2/4
f 119/3/4 120/3/4 121/3/4
f 121/3/4 120/3/4 122/3/4
f 126/2/5 124/2/5 123/2/5
f 127/2/5 124/2/5 126/2/5
f 129/1/5 126/1/5 125/1/5
f 130/2/5 127/2/5 126/2/5
f 130/1/5 126/1/5 129/1/5
f 131/3/5 128/3/5 127/3/5
f 131/2/5 127/2/5 130/2/5
f 132/3/5 128/3/5 131/3/5
f 135/2/5 134/2/5 133/2/5
f 136/2/5 134/2/5 135/2/5
f 137/2/6 138/2/6 141/2/6
f 141/2/6 138/2/6 142/2/6
f 139/2/6 140/2/6 143/2/6
f 143/2/6 140/2/6 144/2/6
f 144/2/6 140/2/6 145/2/6
f 145/2/6 140/2/6 146/2/6
f 145/2/6 146/2/6 148/2/6
f 146/3/6 147/3/6 149/3/6
f 148/2/6 146/2/6 149/2/6
f 149/3/6 147/3/6 150/3/6
f 151/2/6 152/2/6 156/2/6
f 156/2/6 152/2/6 157/2/6
f 153/2/6 154/2/6 158/2/6
f 158/2/6 154/2/6 159/2/6
f 155/1/6 156/1/6 162/1/6
f 162/1/6 156/1/6 163/1/6
f 160/3/6 161/3/6 164/3/6
f 164/3/6 161/3/6 165/3/6
f 166/2/6 167/2/6 169/2/6
f 169/2/6 167/2/6 170/2/6
f 168/1/6 169/1/6 173/1/6
f 173/1/6 169/1/6 174/1/6
f 171/3/6 172/3/6 175/3/6
f 175/3/6 172/3/6 176/3/6
f 177/1/6 178/1/6 180/1/6
f 178/3/6 179/3/6 181/3/6
f 180/1/6 178/1/6 181/1/6
f 181/3/6 179/3/6 182/3/6
