# MagicaVoxel @ Ephtracy

# group
o 

# material
mtllib fox-3.mtl
usemtl palette

# normals
vn -1 0 0
vn 1 0 0
vn 0 0 1
vn 0 0 -1
vn 0 -1 0
vn 0 1 0

# texcoords
vt 0.00585938 0.5
vt 0.505859 0.5

# verts
v 0.4 -0.95 -0.05
v 0.4 -0.95 -0.15
v 0.4 -0.65 -0.05
v 0.4 -0.65 -0.15
v 0.4 -0.65 -0.25
v 0.4 -0.55 -0.15
v 0.4 -0.55 -0.25
v 0.5 -0.75 -0.15
v 0.5 -0.75 -0.25
v 0.5 -0.65 -0.15
v 0.5 -0.65 -0.25
v 0.6 -0.85 -0.15
v 0.6 -0.85 -0.25
v 0.6 -0.75 -0.15
v 0.6 -0.75 -0.25
v 0.7 -0.95 -0.15
v 0.7 -0.95 -0.25
v 0.7 -0.85 -0.15
v 0.7 -0.85 -0.25
v 0.5 -0.75 -0.05
v 0.5 -0.75 -0.15
v 0.5 -0.65 -0.05
v 0.5 -0.65 -0.15
v 0.5 -0.65 -0.25
v 0.5 -0.55 -0.15
v 0.5 -0.55 -0.25
v 0.6 -0.85 -0.05
v 0.6 -0.85 -0.15
v 0.6 -0.75 -0.05
v 0.6 -0.75 -0.15
v 0.6 -0.75 -0.25
v 0.6 -0.65 -0.15
v 0.6 -0.65 -0.25
v 0.7 -0.95 -0.05
v 0.7 -0.95 -0.15
v 0.7 -0.85 -0.05
v 0.7 -0.85 -0.15
v 0.7 -0.85 -0.25
v 0.7 -0.75 -0.15
v 0.7 -0.75 -0.25
v 0.8 -0.95 -0.15
v 0.8 -0.95 -0.25
v 0.8 -0.85 -0.15
v 0.8 -0.85 -0.25
v 0.4 -0.95 -0.05
v 0.4 -0.65 -0.05
v 0.5 -0.75 -0.05
v 0.5 -0.65 -0.05
v 0.6 -0.85 -0.05
v 0.6 -0.75 -0.05
v 0.7 -0.95 -0.05
v 0.7 -0.85 -0.05
v 0.4 -0.65 -0.15
v 0.4 -0.55 -0.15
v 0.5 -0.75 -0.15
v 0.5 -0.65 -0.15
v 0.5 -0.55 -0.15
v 0.6 -0.85 -0.15
v 0.6 -0.75 -0.15
v 0.6 -0.65 -0.15
v 0.7 -0.95 -0.15
v 0.7 -0.85 -0.15
v 0.7 -0.75 -0.15
v 0.8 -0.95 -0.15
v 0.8 -0.85 -0.15
v 0.4 -0.95 -0.15
v 0.4 -0.65 -0.15
v 0.5 -0.75 -0.15
v 0.5 -0.65 -0.15
v 0.6 -0.85 -0.15
v 0.6 -0.75 -0.15
v 0.7 -0.95 -0.15
v 0.7 -0.85 -0.15
v 0.4 -0.65 -0.25
v 0.4 -0.55 -0.25
v 0.5 -0.75 -0.25
v 0.5 -0.65 -0.25
v 0.5 -0.55 -0.25
v 0.6 -0.85 -0.25
v 0.6 -0.75 -0.25
v 0.6 -0.65 -0.25
v 0.7 -0.95 -0.25
v 0.7 -0.85 -0.25
v 0.7 -0.75 -0.25
v 0.8 -0.95 -0.25
v 0.8 -0.85 -0.25
v 0.4 -0.95 -0.05
v 0.7 -0.95 -0.05
v 0.4 -0.95 -0.15
v 0.7 -0.95 -0.15
v 0.8 -0.95 -0.15
v 0.7 -0.95 -0.25
v 0.8 -0.95 -0.25
v 0.6 -0.85 -0.15
v 0.7 -0.85 -0.15
v 0.6 -0.85 -0.25
v 0.7 -0.85 -0.25
v 0.5 -0.75 -0.15
v 0.6 -0.75 -0.15
v 0.5 -0.75 -0.25
v 0.6 -0.75 -0.25
v 0.4 -0.65 -0.15
v 0.5 -0.65 -0.15
v 0.4 -0.65 -0.25
v 0.5 -0.65 -0.25
v 0.6 -0.85 -0.05
v 0.7 -0.85 -0.05
v 0.6 -0.85 -0.15
v 0.7 -0.85 -0.15
v 0.8 -0.85 -0.15
v 0.7 -0.85 -0.25
v 0.8 -0.85 -0.25
v 0.5 -0.75 -0.05
v 0.6 -0.75 -0.05
v 0.5 -0.75 -0.15
v 0.6 -0.75 -0.15
v 0.7 -0.75 -0.15
v 0.6 -0.75 -0.25
v 0.7 -0.75 -0.25
v 0.4 -0.65 -0.05
v 0.5 -0.65 -0.05
v 0.4 -0.65 -0.15
v 0.5 -0.65 -0.15
v 0.6 -0.65 -0.15
v 0.5 -0.65 -0.25
v 0.6 -0.65 -0.25
v 0.4 -0.55 -0.15
v 0.5 -0.55 -0.15
v 0.4 -0.55 -0.25
v 0.5 -0.55 -0.25

# faces
f 3/1/1 2/1/1 1/1/1
f 4/1/1 2/1/1 3/1/1
f 6/2/1 5/2/1 4/2/1
f 7/2/1 5/2/1 6/2/1
f 10/2/1 9/2/1 8/2/1
f 11/2/1 9/2/1 10/2/1
f 14/2/1 13/2/1 12/2/1
f 15/2/1 13/2/1 14/2/1
f 18/2/1 17/2/1 16/2/1
f 19/2/1 17/2/1 18/2/1
f 20/1/2 21/1/2 22/1/2
f 22/1/2 21/1/2 23/1/2
f 23/2/2 24/2/2 25/2/2
f 25/2/2 24/2/2 26/2/2
f 27/1/2 28/1/2 29/1/2
f 29/1/2 28/1/2 30/1/2
f 30/2/2 31/2/2 32/2/2
f 32/2/2 31/2/2 33/2/2
f 34/1/2 35/1/2 36/1/2
f 36/1/2 35/1/2 37/1/2
f 37/2/2 38/2/2 39/2/2
f 39/2/2 38/2/2 40/2/2
f 41/2/2 42/2/2 43/2/2
f 43/2/2 42/2/2 44/2/2
f 47/1/3 46/1/3 45/1/3
f 48/1/3 46/1/3 47/1/3
f 49/1/3 47/1/3 45/1/3
f 50/1/3 47/1/3 49/1/3
f 51/1/3 49/1/3 45/1/3
f 52/1/3 49/1/3 51/1/3
f 56/2/3 54/2/3 53/2/3
f 57/2/3 54/2/3 56/2/3
f 59/2/3 56/2/3 55/2/3
f 60/2/3 56/2/3 59/2/3
f 62/2/3 59/2/3 58/2/3
f 63/2/3 59/2/3 62/2/3
f 64/2/3 62/2/3 61/2/3
f 65/2/3 62/2/3 64/2/3
f 66/1/4 67/1/4 68/1/4
f 68/1/4 67/1/4 69/1/4
f 66/1/4 68/1/4 70/1/4
f 70/1/4 68/1/4 71/1/4
f 66/1/4 70/1/4 72/1/4
f 72/1/4 70/1/4 73/1/4
f 74/2/4 75/2/4 77/2/4
f 77/2/4 75/2/4 78/2/4
f 76/2/4 77/2/4 80/2/4
f 80/2/4 77/2/4 81/2/4
f 79/2/4 80/2/4 83/2/4
f 83/2/4 80/2/4 84/2/4
f 82/2/4 83/2/4 85/2/4
f 85/2/4 83/2/4 86/2/4
f 89/1/5 88/1/5 87/1/5
f 90/1/5 88/1/5 89/1/5
f 92/2/5 91/2/5 90/2/5
f 93/2/5 91/2/5 92/2/5
f 96/2/5 95/2/5 94/2/5
f 97/2/5 95/2/5 96/2/5
f 100/2/5 99/2/5 98/2/5
f 101/2/5 99/2/5 100/2/5
f 104/2/5 103/2/5 102/2/5
f 105/2/5 103/2/5 104/2/5
f 106/1/6 107/1/6 108/1/6
f 108/1/6 107/1/6 109/1/6
f 109/2/6 110/2/6 111/2/6
f 111/2/6 110/2/6 112/2/6
f 113/1/6 114/1/6 115/1/6
f 115/1/6 114/1/6 116/1/6
f 116/2/6 117/2/6 118/2/6
f 118/2/6 117/2/6 119/2/6
f 120/1/6 121/1/6 122/1/6
f 122/1/6 121/1/6 123/1/6
f 123/2/6 124/2/6 125/2/6
f 125/2/6 124/2/6 126/2/6
f 127/2/6 128/2/6 129/2/6
f 129/2/6 128/2/6 130/2/6
