# MagicaVoxel @ Ephtracy

# group
o 

# material
mtllib half-2.mtl
usemtl palette

# normals
vn -1 0 0
vn 1 0 0
vn 0 0 1
vn 0 0 -1
vn 0 -1 0
vn 0 1 0

# texcoords
vt 0.958984 0.5
vt 0.966797 0.5
vt 0.994141 0.5

# verts
v -0.45 0 0.1
v -0.45 0 -0.1
v -0.45 0.2 0.1
v -0.45 0.2 -0.1
v -0.35 -0.3 0.1
v -0.35 -0.3 0
v -0.35 -0.3 -0.1
v -0.35 -0.2 0.1
v -0.35 -0.2 0
v -0.35 -0.2 -0.1
v -0.25 -0.5 0.1
v -0.25 -0.5 -0.1
v -0.25 -0.4 0.1
v -0.25 -0.4 -0.1
v 0.05 -0.3 0.1
v 0.05 -0.3 0
v 0.05 -0.3 -0.1
v 0.05 -0.2 0.1
v 0.05 -0.2 0
v 0.05 -0.2 -0.1
v 0.05 0 0.1
v 0.05 0 0
v 0.05 0 -0.1
v 0.05 0.2 0.1
v 0.05 0.2 0
v 0.05 0.2 -0.1
v -0.25 -0.3 0.1
v -0.25 -0.3 0
v -0.25 -0.3 -0.1
v -0.25 -0.2 0.1
v -0.25 -0.2 0
v -0.25 -0.2 -0.1
v -0.25 0 0.1
v -0.25 0 -0.1
v -0.25 0.2 0.1
v -0.25 0.2 -0.1
v 0.05 -0.5 0.1
v 0.05 -0.5 0
v 0.05 -0.5 -0.1
v 0.05 -0.4 0.1
v 0.05 -0.4 0
v 0.05 -0.4 -0.1
v 0.15 -0.3 0.1
v 0.15 -0.3 0
v 0.15 -0.3 -0.1
v 0.15 -0.2 0.1
v 0.15 -0.2 0
v 0.15 -0.2 -0.1
v 0.25 0 0.1
v 0.25 0 -0.1
v 0.25 0.2 0.1
v 0.25 0.2 -0.1
v -0.45 0 0.1
v -0.45 0.2 0.1
v -0.35 -0.3 0.1
v -0.35 -0.2 0.1
v -0.35 0 0.1
v -0.35 0.2 0.1
v -0.25 -0.5 0.1
v -0.25 -0.4 0.1
v -0.25 -0.3 0.1
v -0.25 -0.2 0.1
v -0.25 0 0.1
v -0.25 0.2 0.1
v -0.15 -0.5 0.1
v -0.15 -0.4 0.1
v 0.05 -0.5 0.1
v 0.05 -0.4 0.1
v 0.05 -0.3 0.1
v 0.05 -0.2 0.1
v 0.05 0 0.1
v 0.05 0.2 0.1
v 0.15 -0.3 0.1
v 0.15 -0.2 0.1
v 0.15 0 0.1
v 0.15 0.2 0.1
v 0.25 0 0.1
v 0.25 0.2 0.1
v -0.45 0 -0.1
v -0.45 0.2 -0.1
v -0.35 -0.3 -0.1
v -0.35 -0.2 -0.1
v -0.35 0 -0.1
v -0.35 0.2 -0.1
v -0.25 -0.5 -0.1
v -0.25 -0.4 -0.1
v -0.25 -0.3 -0.1
v -0.25 -0.2 -0.1
v -0.25 0 -0.1
v -0.25 0.2 -0.1
v 0.05 -0.5 -0.1
v 0.05 -0.4 -0.1
v 0.05 -0.3 -0.1
v 0.05 -0.2 -0.1
v 0.05 0 -0.1
v 0.05 0.2 -0.1
v 0.15 -0.3 -0.1
v 0.15 -0.2 -0.1
v 0.25 0 -0.1
v 0.25 0.2 -0.1
v -0.25 -0.5 0.1
v -0.15 -0.5 0.1
v 0.05 -0.5 0.1
v -0.15 -0.5 0
v 0.05 -0.5 0
v -0.25 -0.5 -0.1
v 0.05 -0.5 -0.1
v -0.35 -0.3 0.1
v -0.25 -0.3 0.1
v 0.05 -0.3 0.1
v 0.15 -0.3 0.1
v -0.35 -0.3 0
v -0.25 -0.3 0
v 0.05 -0.3 0
v 0.15 -0.3 0
v -0.35 -0.3 -0.1
v -0.25 -0.3 -0.1
v 0.05 -0.3 -0.1
v 0.15 -0.3 -0.1
v -0.45 0 0.1
v -0.35 0 0.1
v -0.25 0 0.1
v 0.05 0 0.1
v 0.15 0 0.1
v 0.25 0 0.1
v 0.05 0 0
v 0.15 0 0
v -0.45 0 -0.1
v -0.35 0 -0.1
v -0.25 0 -0.1
v 0.05 0 -0.1
v 0.25 0 -0.1
v -0.25 -0.4 0.1
v -0.15 -0.4 0.1
v 0.05 -0.4 0.1
v -0.15 -0.4 0
v 0.05 -0.4 0
v -0.25 -0.4 -0.1
v 0.05 -0.4 -0.1
v -0.35 -0.2 0.1
v -0.25 -0.2 0.1
v 0.05 -0.2 0.1
v 0.15 -0.2 0.1
v -0.35 -0.2 0
v -0.25 -0.2 0
v 0.05 -0.2 0
v 0.15 -0.2 0
v -0.35 -0.2 -0.1
v -0.25 -0.2 -0.1
v 0.05 -0.2 -0.1
v 0.15 -0.2 -0.1
v -0.45 0.2 0.1
v -0.35 0.2 0.1
v -0.25 0.2 0.1
v 0.05 0.2 0.1
v 0.15 0.2 0.1
v 0.25 0.2 0.1
v 0.05 0.2 0
v 0.15 0.2 0
v -0.45 0.2 -0.1
v -0.35 0.2 -0.1
v -0.25 0.2 -0.1
v 0.05 0.2 -0.1
v 0.25 0.2 -0.1

# faces
f 3/1/1 2/1/1 1/1/1
f 4/1/1 2/1/1 3/1/1
f 8/2/1 6/2/1 5/2/1
f 9/1/1 7/1/1 6/1/1
f 9/2/1 6/2/1 8/2/1
f 10/1/1 7/1/1 9/1/1
f 13/1/1 12/1/1 11/1/1
f 14/1/1 12/1/1 13/1/1
f 18/2/1 16/2/1 15/2/1
f 19/1/1 17/1/1 16/1/1
f 19/2/1 16/2/1 18/2/1
f 20/1/1 17/1/1 19/1/1
f 24/3/1 22/3/1 21/3/1
f 25/1/1 23/1/1 22/1/1
f 25/3/1 22/3/1 24/3/1
f 26/1/1 23/1/1 25/1/1
f 27/2/2 28/2/2 30/2/2
f 28/1/2 29/1/2 31/1/2
f 30/2/2 28/2/2 31/2/2
f 31/1/2 29/1/2 32/1/2
f 33/3/2 34/3/2 35/3/2
f 35/3/2 34/3/2 36/3/2
f 37/3/2 38/3/2 40/3/2
f 38/1/2 39/1/2 41/1/2
f 40/3/2 38/3/2 41/3/2
f 41/1/2 39/1/2 42/1/2
f 43/2/2 44/2/2 46/2/2
f 44/1/2 45/1/2 47/1/2
f 46/2/2 44/2/2 47/2/2
f 47/1/2 45/1/2 48/1/2
f 49/1/2 50/1/2 51/1/2
f 51/1/2 50/1/2 52/1/2
f 57/1/3 54/1/3 53/1/3
f 58/1/3 54/1/3 57/1/3
f 61/2/3 56/2/3 55/2/3
f 62/2/3 56/2/3 61/2/3
f 63/3/3 58/3/3 57/3/3
f 64/3/3 58/3/3 63/3/3
f 65/1/3 60/1/3 59/1/3
f 66/1/3 60/1/3 65/1/3
f 67/3/3 66/3/3 65/3/3
f 68/3/3 66/3/3 67/3/3
f 73/2/3 70/2/3 69/2/3
f 74/2/3 70/2/3 73/2/3
f 75/3/3 72/3/3 71/3/3
f 76/3/3 72/3/3 75/3/3
f 77/1/3 76/1/3 75/1/3
f 78/1/3 76/1/3 77/1/3
f 79/1/4 80/1/4 83/1/4
f 83/1/4 80/1/4 84/1/4
f 81/1/4 82/1/4 87/1/4
f 87/1/4 82/1/4 88/1/4
f 83/3/4 84/3/4 89/3/4
f 89/3/4 84/3/4 90/3/4
f 85/1/4 86/1/4 91/1/4
f 91/1/4 86/1/4 92/1/4
f 93/1/4 94/1/4 97/1/4
f 97/1/4 94/1/4 98/1/4
f 95/1/4 96/1/4 99/1/4
f 99/1/4 96/1/4 100/1/4
f 104/1/5 102/1/5 101/1/5
f 104/3/5 103/3/5 102/3/5
f 105/3/5 103/3/5 104/3/5
f 106/1/5 104/1/5 101/1/5
f 106/1/5 105/1/5 104/1/5
f 107/1/5 105/1/5 106/1/5
f 112/2/5 109/2/5 108/2/5
f 113/2/5 109/2/5 112/2/5
f 114/2/5 111/2/5 110/2/5
f 115/2/5 111/2/5 114/2/5
f 116/1/5 113/1/5 112/1/5
f 117/1/5 113/1/5 116/1/5
f 118/1/5 115/1/5 114/1/5
f 119/1/5 115/1/5 118/1/5
f 126/3/5 124/3/5 123/3/5
f 127/1/5 125/1/5 124/1/5
f 127/3/5 124/3/5 126/3/5
f 128/1/5 121/1/5 120/1/5
f 129/3/5 122/3/5 121/3/5
f 129/1/5 121/1/5 128/1/5
f 130/3/5 122/3/5 129/3/5
f 131/1/5 127/1/5 126/1/5
f 132/1/5 125/1/5 127/1/5
f 132/1/5 127/1/5 131/1/5
f 133/1/6 134/1/6 136/1/6
f 134/3/6 135/3/6 136/3/6
f 136/3/6 135/3/6 137/3/6
f 133/1/6 136/1/6 138/1/6
f 136/1/6 137/1/6 138/1/6
f 138/1/6 137/1/6 139/1/6
f 140/2/6 141/2/6 144/2/6
f 144/2/6 141/2/6 145/2/6
f 142/2/6 143/2/6 146/2/6
f 146/2/6 143/2/6 147/2/6
f 144/1/6 145/1/6 148/1/6
f 148/1/6 145/1/6 149/1/6
f 146/1/6 147/1/6 150/1/6
f 150/1/6 147/1/6 151/1/6
f 155/3/6 156/3/6 158/3/6
f 156/1/6 157/1/6 159/1/6
f 158/3/6 156/3/6 159/3/6
f 152/1/6 153/1/6 160/1/6
f 153/3/6 154/3/6 161/3/6
f 160/1/6 153/1/6 161/1/6
f 161/3/6 154/3/6 162/3/6
f 158/1/6 159/1/6 163/1/6
f 159/1/6 157/1/6 164/1/6
f 163/1/6 159/1/6 164/1/6
