# MagicaVoxel @ Ephtracy

# group
o 

# material
mtllib pen-4.mtl
usemtl palette

# normals
vn -1 0 0
vn 1 0 0
vn 0 0 1
vn 0 0 -1
vn 0 -1 0
vn 0 1 0

# texcoords
vt 0.841797 0.5
vt 0.849609 0.5
vt 0.861328 0.5
vt 0.958984 0.5
vt 0.962891 0.5
vt 0.966797 0.5

# verts
v -0.65 -0.6 0.1
v -0.65 -0.6 0
v -0.65 -0.4 0.1
v -0.65 -0.4 0
v -0.65 0.3 0.1
v -0.65 0.3 0
v -0.65 0.4 0.1
v -0.65 0.4 0
v -0.65 0.5 0.1
v -0.65 0.5 0
v -0.65 0.6 0.1
v -0.65 0.6 0
v -0.55 0.6 0.1
v -0.55 0.6 0
v -0.55 0.7 0.1
v -0.55 0.7 0
v -0.45 0.7 0.1
v -0.45 0.7 0
v -0.45 0.8 0.1
v -0.45 0.8 0
v -0.35 0.8 0.1
v -0.35 0.8 0
v -0.35 0.9 0.1
v -0.35 0.9 0
v -0.25 0.9 0.1
v -0.25 0.9 0
v -0.25 1 0.1
v -0.25 1 0
v 0.05 -0.9 0.1
v 0.05 -0.9 0
v 0.05 -0.6 0.1
v 0.05 -0.6 0
v 0.25 -0.9 0.1
v 0.25 -0.9 0
v 0.25 -0.8 0.1
v 0.25 -0.8 0
v 0.15 -0.9 0.1
v 0.15 -0.9 0
v 0.15 -0.8 0.1
v 0.15 -0.8 0
v 0.35 -0.9 0.1
v 0.35 -0.9 0
v 0.35 -0.6 0.1
v 0.35 -0.6 0
v 0.45 0.9 0.1
v 0.45 0.9 0
v 0.45 1 0.1
v 0.45 1 0
v 0.55 -0.6 0.1
v 0.55 -0.6 0
v 0.55 -0.4 0.1
v 0.55 -0.4 0
v 0.55 0.8 0.1
v 0.55 0.8 0
v 0.55 0.9 0.1
v 0.55 0.9 0
v 0.65 0.3 0.1
v 0.65 0.3 0
v 0.65 0.4 0.1
v 0.65 0.4 0
v 0.65 0.5 0.1
v 0.65 0.5 0
v 0.65 0.7 0.1
v 0.65 0.7 0
v 0.65 0.8 0.1
v 0.65 0.8 0
v 0.85 0.5 0.1
v 0.85 0.5 0
v 0.85 0.6 0.1
v 0.85 0.6 0
v 0.85 0.7 0.1
v 0.85 0.7 0
v -0.65 -0.6 0.1
v -0.65 -0.4 0.1
v -0.65 0.3 0.1
v -0.65 0.4 0.1
v -0.65 0.5 0.1
v -0.65 0.6 0.1
v -0.55 -0.6 0.1
v -0.55 -0.4 0.1
v -0.55 0.5 0.1
v -0.55 0.6 0.1
v -0.55 0.7 0.1
v -0.45 0.6 0.1
v -0.45 0.7 0.1
v -0.45 0.8 0.1
v -0.35 0.7 0.1
v -0.35 0.8 0.1
v -0.35 0.9 0.1
v -0.25 0.8 0.1
v -0.25 0.9 0.1
v -0.25 1 0.1
v -0.05 -0.6 0.1
v -0.05 -0.4 0.1
v 0.05 -0.9 0.1
v 0.05 -0.6 0.1
v 0.05 -0.4 0.1
v 0.05 0.9 0.1
v 0.05 1 0.1
v 0.15 -0.9 0.1
v 0.15 -0.8 0.1
v 0.15 -0.4 0.1
v 0.25 -0.9 0.1
v 0.25 -0.8 0.1
v 0.35 -0.9 0.1
v 0.35 -0.6 0.1
v 0.35 -0.4 0.1
v 0.35 0.9 0.1
v 0.35 1 0.1
v 0.45 0.5 0.1
v 0.45 0.7 0.1
v 0.45 0.8 0.1
v 0.45 0.9 0.1
v 0.45 1 0.1
v 0.55 -0.6 0.1
v 0.55 -0.4 0.1
v 0.55 0.6 0.1
v 0.55 0.7 0.1
v 0.55 0.8 0.1
v 0.55 0.9 0.1
v 0.65 0.3 0.1
v 0.65 0.4 0.1
v 0.65 0.5 0.1
v 0.65 0.6 0.1
v 0.65 0.7 0.1
v 0.65 0.8 0.1
v 0.75 0.5 0.1
v 0.75 0.6 0.1
v 0.85 0.5 0.1
v 0.85 0.6 0.1
v 0.85 0.7 0.1
v -0.65 -0.6 0
v -0.65 -0.4 0
v -0.65 0.3 0
v -0.65 0.4 0
v -0.65 0.5 0
v -0.65 0.6 0
v -0.55 -0.6 0
v -0.55 -0.4 0
v -0.55 0.5 0
v -0.55 0.6 0
v -0.55 0.7 0
v -0.45 0.6 0
v -0.45 0.7 0
v -0.45 0.8 0
v -0.35 0.7 0
v -0.35 0.8 0
v -0.35 0.9 0
v -0.25 0.8 0
v -0.25 0.9 0
v -0.25 1 0
v -0.05 -0.6 0
v -0.05 -0.4 0
v 0.05 -0.9 0
v 0.05 -0.6 0
v 0.05 -0.4 0
v 0.05 0.9 0
v 0.05 1 0
v 0.15 -0.9 0
v 0.15 -0.8 0
v 0.15 -0.4 0
v 0.25 -0.9 0
v 0.25 -0.8 0
v 0.35 -0.9 0
v 0.35 -0.6 0
v 0.35 -0.4 0
v 0.35 0.9 0
v 0.35 1 0
v 0.45 0.5 0
v 0.45 0.7 0
v 0.45 0.8 0
v 0.45 0.9 0
v 0.45 1 0
v 0.55 -0.6 0
v 0.55 -0.4 0
v 0.55 0.6 0
v 0.55 0.7 0
v 0.55 0.8 0
v 0.55 0.9 0
v 0.65 0.3 0
v 0.65 0.4 0
v 0.65 0.5 0
v 0.65 0.6 0
v 0.65 0.7 0
v 0.65 0.8 0
v 0.75 0.5 0
v 0.75 0.6 0
v 0.85 0.5 0
v 0.85 0.6 0
v 0.85 0.7 0
v 0.05 -0.9 0.1
v 0.15 -0.9 0.1
v 0.25 -0.9 0.1
v 0.35 -0.9 0.1
v 0.05 -0.9 0
v 0.15 -0.9 0
v 0.25 -0.9 0
v 0.35 -0.9 0
v 0.15 -0.8 0.1
v 0.25 -0.8 0.1
v 0.15 -0.8 0
v 0.25 -0.8 0
v -0.65 -0.6 0.1
v -0.55 -0.6 0.1
v -0.05 -0.6 0.1
v 0.05 -0.6 0.1
v 0.35 -0.6 0.1
v 0.55 -0.6 0.1
v -0.65 -0.6 0
v -0.55 -0.6 0
v -0.05 -0.6 0
v 0.05 -0.6 0
v 0.35 -0.6 0
v 0.55 -0.6 0
v -0.65 0.3 0.1
v 0.65 0.3 0.1
v -0.65 0.3 0
v 0.65 0.3 0
v 0.65 0.5 0.1
v 0.75 0.5 0.1
v 0.85 0.5 0.1
v 0.65 0.5 0
v 0.75 0.5 0
v 0.85 0.5 0
v -0.65 -0.4 0.1
v -0.55 -0.4 0.1
v -0.05 -0.4 0.1
v 0.05 -0.4 0.1
v 0.15 -0.4 0.1
v 0.35 -0.4 0.1
v 0.55 -0.4 0.1
v -0.65 -0.4 0
v -0.55 -0.4 0
v -0.05 -0.4 0
v 0.05 -0.4 0
v 0.15 -0.4 0
v 0.35 -0.4 0
v 0.55 -0.4 0
v -0.65 0.6 0.1
v -0.55 0.6 0.1
v -0.65 0.6 0
v -0.55 0.6 0
v -0.55 0.7 0.1
v -0.45 0.7 0.1
v 0.65 0.7 0.1
v 0.85 0.7 0.1
v -0.55 0.7 0
v -0.45 0.7 0
v 0.65 0.7 0
v 0.85 0.7 0
v -0.45 0.8 0.1
v -0.35 0.8 0.1
v 0.55 0.8 0.1
v 0.65 0.8 0.1
v -0.45 0.8 0
v -0.35 0.8 0
v 0.55 0.8 0
v 0.65 0.8 0
v -0.35 0.9 0.1
v -0.25 0.9 0.1
v 0.45 0.9 0.1
v 0.55 0.9 0.1
v -0.35 0.9 0
v -0.25 0.9 0
v 0.45 0.9 0
v 0.55 0.9 0
v -0.25 1 0.1
v 0.05 1 0.1
v 0.35 1 0.1
v 0.45 1 0.1
v -0.25 1 0
v 0.05 1 0
v 0.35 1 0
v 0.45 1 0

# faces
f 3/1/1 2/1/1 1/1/1
f 4/1/1 2/1/1 3/1/1
f 7/5/1 6/5/1 5/5/1
f 8/5/1 6/5/1 7/5/1
f 9/4/1 8/4/1 7/4/1
f 10/4/1 8/4/1 9/4/1
f 11/1/1 10/1/1 9/1/1
f 12/1/1 10/1/1 11/1/1
f 15/1/1 14/1/1 13/1/1
f 16/1/1 14/1/1 15/1/1
f 19/1/1 18/1/1 17/1/1
f 20/1/1 18/1/1 19/1/1
f 23/1/1 22/1/1 21/1/1
f 24/1/1 22/1/1 23/1/1
f 27/1/1 26/1/1 25/1/1
f 28/1/1 26/1/1 27/1/1
f 31/1/1 30/1/1 29/1/1
f 32/1/1 30/1/1 31/1/1
f 35/2/1 34/2/1 33/2/1
f 36/2/1 34/2/1 35/2/1
f 37/1/2 38/1/2 39/1/2
f 39/1/2 38/1/2 40/1/2
f 41/2/2 42/2/2 43/2/2
f 43/2/2 42/2/2 44/2/2
f 45/3/2 46/3/2 47/3/2
f 47/3/2 46/3/2 48/3/2
f 49/3/2 50/3/2 51/3/2
f 51/3/2 50/3/2 52/3/2
f 53/3/2 54/3/2 55/3/2
f 55/3/2 54/3/2 56/3/2
f 57/5/2 58/5/2 59/5/2
f 59/5/2 58/5/2 60/5/2
f 59/4/2 60/4/2 61/4/2
f 61/4/2 60/4/2 62/4/2
f 63/3/2 64/3/2 65/3/2
f 65/3/2 64/3/2 66/3/2
f 67/6/2 68/6/2 69/6/2
f 69/6/2 68/6/2 70/6/2
f 69/4/2 70/4/2 71/4/2
f 71/4/2 70/4/2 72/4/2
f 79/1/3 74/1/3 73/1/3
f 80/1/3 74/1/3 79/1/3
f 81/1/3 78/1/3 77/1/3
f 81/4/3 77/4/3 76/4/3
f 82/1/3 78/1/3 81/1/3
f 84/2/3 82/2/3 81/2/3
f 84/1/3 83/1/3 82/1/3
f 85/1/3 83/1/3 84/1/3
f 87/2/3 85/2/3 84/2/3
f 87/1/3 86/1/3 85/1/3
f 88/1/3 86/1/3 87/1/3
f 90/2/3 88/2/3 87/2/3
f 90/1/3 89/1/3 88/1/3
f 91/1/3 89/1/3 90/1/3
f 93/2/3 80/2/3 79/2/3
f 94/2/3 80/2/3 93/2/3
f 96/3/3 94/3/3 93/3/3
f 97/3/3 94/3/3 96/3/3
f 98/1/3 92/1/3 91/1/3
f 98/2/3 91/2/3 90/2/3
f 99/1/3 92/1/3 98/1/3
f 100/1/3 97/1/3 96/1/3
f 100/1/3 96/1/3 95/1/3
f 101/1/3 97/1/3 100/1/3
f 102/1/3 97/1/3 101/1/3
f 104/2/3 102/2/3 101/2/3
f 105/2/3 104/2/3 103/2/3
f 106/2/3 102/2/3 104/2/3
f 106/2/3 104/2/3 105/2/3
f 107/2/3 102/2/3 106/2/3
f 108/2/3 99/2/3 98/2/3
f 108/2/3 98/2/3 90/2/3
f 109/2/3 99/2/3 108/2/3
f 110/4/3 81/4/3 76/4/3
f 110/2/3 84/2/3 81/2/3
f 110/2/3 87/2/3 84/2/3
f 110/2/3 108/2/3 90/2/3
f 110/2/3 90/2/3 87/2/3
f 111/2/3 108/2/3 110/2/3
f 112/2/3 108/2/3 111/2/3
f 113/3/3 109/3/3 108/3/3
f 113/2/3 108/2/3 112/2/3
f 114/3/3 109/3/3 113/3/3
f 115/3/3 107/3/3 106/3/3
f 116/3/3 107/3/3 115/3/3
f 117/3/3 111/3/3 110/3/3
f 118/2/3 112/2/3 111/2/3
f 118/3/3 111/3/3 117/3/3
f 119/3/3 113/3/3 112/3/3
f 119/2/3 112/2/3 118/2/3
f 120/3/3 113/3/3 119/3/3
f 121/5/3 76/5/3 75/5/3
f 122/4/3 110/4/3 76/4/3
f 122/5/3 76/5/3 121/5/3
f 123/3/3 117/3/3 110/3/3
f 123/4/3 110/4/3 122/4/3
f 124/2/3 118/2/3 117/2/3
f 124/3/3 117/3/3 123/3/3
f 125/3/3 119/3/3 118/3/3
f 125/2/3 118/2/3 124/2/3
f 126/3/3 119/3/3 125/3/3
f 127/4/3 124/4/3 123/4/3
f 127/4/3 125/4/3 124/4/3
f 128/4/3 125/4/3 127/4/3
f 129/6/3 128/6/3 127/6/3
f 130/4/3 125/4/3 128/4/3
f 130/6/3 128/6/3 129/6/3
f 131/4/3 125/4/3 130/4/3
f 132/1/4 133/1/4 138/1/4
f 138/1/4 133/1/4 139/1/4
f 136/1/4 137/1/4 140/1/4
f 135/4/4 136/4/4 140/4/4
f 140/1/4 137/1/4 141/1/4
f 140/2/4 141/2/4 143/2/4
f 141/1/4 142/1/4 143/1/4
f 143/1/4 142/1/4 144/1/4
f 143/2/4 144/2/4 146/2/4
f 144/1/4 145/1/4 146/1/4
f 146/1/4 145/1/4 147/1/4
f 146/2/4 147/2/4 149/2/4
f 147/1/4 148/1/4 149/1/4
f 149/1/4 148/1/4 150/1/4
f 138/2/4 139/2/4 152/2/4
f 152/2/4 139/2/4 153/2/4
f 152/3/4 153/3/4 155/3/4
f 155/3/4 153/3/4 156/3/4
f 150/1/4 151/1/4 157/1/4
f 149/2/4 150/2/4 157/2/4
f 157/1/4 151/1/4 158/1/4
f 155/1/4 156/1/4 159/1/4
f 154/1/4 155/1/4 159/1/4
f 159/1/4 156/1/4 160/1/4
f 160/1/4 156/1/4 161/1/4
f 160/2/4 161/2/4 163/2/4
f 162/2/4 163/2/4 164/2/4
f 163/2/4 161/2/4 165/2/4
f 164/2/4 163/2/4 165/2/4
f 165/2/4 161/2/4 166/2/4
f 157/2/4 158/2/4 167/2/4
f 149/2/4 157/2/4 167/2/4
f 167/2/4 158/2/4 168/2/4
f 135/4/4 140/4/4 169/4/4
f 140/2/4 143/2/4 169/2/4
f 143/2/4 146/2/4 169/2/4
f 149/2/4 167/2/4 169/2/4
f 146/2/4 149/2/4 169/2/4
f 169/2/4 167/2/4 170/2/4
f 170/2/4 167/2/4 171/2/4
f 167/3/4 168/3/4 172/3/4
f 171/2/4 167/2/4 172/2/4
f 172/3/4 168/3/4 173/3/4
f 165/3/4 166/3/4 174/3/4
f 174/3/4 166/3/4 175/3/4
f 169/3/4 170/3/4 176/3/4
f 170/2/4 171/2/4 177/2/4
f 176/3/4 170/3/4 177/3/4
f 171/3/4 172/3/4 178/3/4
f 177/2/4 171/2/4 178/2/4
f 178/3/4 172/3/4 179/3/4
f 134/5/4 135/5/4 180/5/4
f 135/4/4 169/4/4 181/4/4
f 180/5/4 135/5/4 181/5/4
f 169/3/4 176/3/4 182/3/4
f 181/4/4 169/4/4 182/4/4
f 176/2/4 177/2/4 183/2/4
f 182/3/4 176/3/4 183/3/4
f 177/3/4 178/3/4 184/3/4
f 183/2/4 177/2/4 184/2/4
f 184/3/4 178/3/4 185/3/4
f 182/4/4 183/4/4 186/4/4
f 183/4/4 184/4/4 186/4/4
f 186/4/4 184/4/4 187/4/4
f 186/6/4 187/6/4 188/6/4
f 187/4/4 184/4/4 189/4/4
f 188/6/4 187/6/4 189/6/4
f 189/4/4 184/4/4 190/4/4
f 195/1/5 192/1/5 191/1/5
f 196/1/5 192/1/5 195/1/5
f 197/2/5 194/2/5 193/2/5
f 198/2/5 194/2/5 197/2/5
f 201/2/5 200/2/5 199/2/5
f 202/2/5 200/2/5 201/2/5
f 209/1/5 204/1/5 203/1/5
f 210/2/5 205/2/5 204/2/5
f 210/1/5 204/1/5 209/1/5
f 211/3/5 206/3/5 205/3/5
f 211/2/5 205/2/5 210/2/5
f 212/3/5 206/3/5 211/3/5
f 213/3/5 208/3/5 207/3/5
f 214/3/5 208/3/5 213/3/5
f 217/5/5 216/5/5 215/5/5
f 218/5/5 216/5/5 217/5/5
f 222/4/5 220/4/5 219/4/5
f 223/6/5 221/6/5 220/6/5
f 223/4/5 220/4/5 222/4/5
f 224/6/5 221/6/5 223/6/5
f 225/1/6 226/1/6 232/1/6
f 226/2/6 227/2/6 233/2/6
f 232/1/6 226/1/6 233/1/6
f 227/3/6 228/3/6 234/3/6
f 233/2/6 227/2/6 234/2/6
f 228/1/6 229/1/6 235/1/6
f 234/3/6 228/3/6 235/3/6
f 229/2/6 230/2/6 236/2/6
f 235/1/6 229/1/6 236/1/6
f 230/3/6 231/3/6 237/3/6
f 236/2/6 230/2/6 237/2/6
f 237/3/6 231/3/6 238/3/6
f 239/1/6 240/1/6 241/1/6
f 241/1/6 240/1/6 242/1/6
f 243/1/6 244/1/6 247/1/6
f 247/1/6 244/1/6 248/1/6
f 245/4/6 246/4/6 249/4/6
f 249/4/6 246/4/6 250/4/6
f 251/1/6 252/1/6 255/1/6
f 255/1/6 252/1/6 256/1/6
f 253/3/6 254/3/6 257/3/6
f 257/3/6 254/3/6 258/3/6
f 259/1/6 260/1/6 263/1/6
f 263/1/6 260/1/6 264/1/6
f 261/3/6 262/3/6 265/3/6
f 265/3/6 262/3/6 266/3/6
f 267/1/6 268/1/6 271/1/6
f 268/2/6 269/2/6 272/2/6
f 271/1/6 268/1/6 272/1/6
f 269/3/6 270/3/6 273/3/6
f 272/2/6 269/2/6 273/2/6
f 273/3/6 270/3/6 274/3/6
