# MagicaVoxel @ Ephtracy

# group
o 

# material
mtllib pen2-0.mtl
usemtl palette

# normals
vn -1 0 0
vn 1 0 0
vn 0 0 1
vn 0 0 -1
vn 0 -1 0
vn 0 1 0

# texcoords
vt 0.0683594 0.5
vt 0.958984 0.5
vt 0.990234 0.5
vt 0.994141 0.5

# verts
v -0.7 -1.1 0.05
v -0.7 -1.1 -0.15
v -0.7 0.5 0.05
v -0.7 0.5 -0.15
v -0.6 -1.2 0.05
v -0.6 -1.2 -0.15
v -0.6 -1.1 0.05
v -0.6 -1.1 -0.15
v -0.6 0.5 0.05
v -0.6 0.5 -0.15
v -0.6 0.6 0.05
v -0.6 0.6 -0.15
v 0.3 -1.2 0.05
v 0.3 -1.2 -0.05
v 0.3 -1.1 0.05
v 0.3 -1.1 -0.05
v 0.3 0.5 0.05
v 0.3 0.5 -0.05
v 0.3 0.6 0.05
v 0.3 0.6 -0.05
v 0.4 -1.1 0.05
v 0.4 -1.1 -0.05
v 0.4 0.5 0.05
v 0.4 0.5 -0.05
v 0.5 -1.2 -0.05
v 0.5 -1.2 -0.15
v 0.5 -1.1 -0.05
v 0.5 -1.1 -0.15
v 0.5 0.5 -0.05
v 0.5 0.5 -0.15
v 0.5 0.6 -0.05
v 0.5 0.6 -0.15
v 0.6 -1.1 -0.05
v 0.6 -1.1 -0.15
v 0.6 0.5 -0.05
v 0.6 0.5 -0.15
v -0.7 -1.1 0.05
v -0.7 0.5 0.05
v -0.6 -1.2 0.05
v -0.6 -1.1 0.05
v -0.6 -0.4 0.05
v -0.6 0.0999999 0.05
v -0.6 0.5 0.05
v -0.6 0.6 0.05
v -0.5 -0.6 0.05
v -0.5 -0.4 0.05
v -0.5 -0.1 0.05
v -0.5 0 0.05
v -0.5 0.0999999 0.05
v -0.5 0.2 0.05
v -0.4 -1 0.05
v -0.4 -0.6 0.05
v -0.4 -0.4 0.05
v -0.4 -0.2 0.05
v -0.4 -0.1 0.05
v -0.4 0 0.05
v -0.1 -0.4 0.05
v -0.1 -0.3 0.05
v 0 -0.3 0.05
v 0 -0.2 0.05
v 0 -0.1 0.05
v 0 0 0.05
v 0.1 -1 0.05
v 0.1 -0.6 0.05
v 0.1 -0.1 0.05
v 0.1 0 0.05
v 0.2 -0.6 0.05
v 0.2 -0.4 0.05
v 0.2 0.0999999 0.05
v 0.2 0.2 0.05
v 0.3 -1.2 0.05
v 0.3 -1.1 0.05
v 0.3 -0.4 0.05
v 0.3 0.0999999 0.05
v 0.3 0.5 0.05
v 0.3 0.6 0.05
v 0.4 -1.1 0.05
v 0.4 0.5 0.05
v 0.3 -1.2 -0.05
v 0.3 -1.1 -0.05
v 0.3 0.5 -0.05
v 0.3 0.6 -0.05
v 0.4 -1.1 -0.05
v 0.4 0.5 -0.05
v 0.5 -1.2 -0.05
v 0.5 -1.1 -0.05
v 0.5 0.5 -0.05
v 0.5 0.6 -0.05
v 0.6 -1.1 -0.05
v 0.6 0.5 -0.05
v -0.7 -1.1 -0.15
v -0.7 0.5 -0.15
v -0.6 -1.2 -0.15
v -0.6 -1.1 -0.15
v -0.6 -0.4 -0.15
v -0.6 0.0999999 -0.15
v -0.6 0.5 -0.15
v -0.6 0.6 -0.15
v -0.5 -0.6 -0.15
v -0.5 -0.4 -0.15
v -0.5 -0.1 -0.15
v -0.5 0 -0.15
v -0.5 0.0999999 -0.15
v -0.5 0.2 -0.15
v -0.4 -1 -0.15
v -0.4 -0.6 -0.15
v -0.4 -0.4 -0.15
v -0.4 -0.2 -0.15
v -0.4 -0.1 -0.15
v -0.4 0 -0.15
v -0.1 -0.4 -0.15
v -0.1 -0.3 -0.15
v 0 -0.3 -0.15
v 0 -0.2 -0.15
v 0 -0.1 -0.15
v 0 0 -0.15
v 0.1 -1 -0.15
v 0.1 -0.6 -0.15
v 0.1 -0.1 -0.15
v 0.1 0 -0.15
v 0.2 -0.6 -0.15
v 0.2 -0.4 -0.15
v 0.2 0.0999999 -0.15
v 0.2 0.2 -0.15
v 0.3 -1.2 -0.15
v 0.3 -1.1 -0.15
v 0.3 -0.4 -0.15
v 0.3 0.0999999 -0.15
v 0.3 0.5 -0.15
v 0.3 0.6 -0.15
v 0.4 -1.1 -0.15
v 0.4 0.5 -0.15
v 0.5 -1.2 -0.15
v 0.5 -1.1 -0.15
v 0.5 0.5 -0.15
v 0.5 0.6 -0.15
v 0.6 -1.1 -0.15
v 0.6 0.5 -0.15
v -0.6 -1.2 0.05
v 0.3 -1.2 0.05
v 0.3 -1.2 -0.05
v 0.5 -1.2 -0.05
v -0.6 -1.2 -0.15
v 0.3 -1.2 -0.15
v 0.5 -1.2 -0.15
v -0.7 -1.1 0.05
v -0.6 -1.1 0.05
v 0.3 -1.1 0.05
v 0.4 -1.1 0.05
v 0.3 -1.1 -0.05
v 0.4 -1.1 -0.05
v 0.5 -1.1 -0.05
v 0.6 -1.1 -0.05
v -0.7 -1.1 -0.15
v -0.6 -1.1 -0.15
v 0.5 -1.1 -0.15
v 0.6 -1.1 -0.15
v -0.7 0.5 0.05
v -0.6 0.5 0.05
v 0.3 0.5 0.05
v 0.4 0.5 0.05
v 0.3 0.5 -0.05
v 0.4 0.5 -0.05
v 0.5 0.5 -0.05
v 0.6 0.5 -0.05
v -0.7 0.5 -0.15
v -0.6 0.5 -0.15
v 0.5 0.5 -0.15
v 0.6 0.5 -0.15
v -0.6 0.6 0.05
v 0.3 0.6 0.05
v 0.3 0.6 -0.05
v 0.5 0.6 -0.05
v -0.6 0.6 -0.15
v 0.3 0.6 -0.15
v 0.5 0.6 -0.15

# faces
f 3/3/1 2/3/1 1/3/1
f 4/3/1 2/3/1 3/3/1
f 7/3/1 6/3/1 5/3/1
f 8/3/1 6/3/1 7/3/1
f 11/3/1 10/3/1 9/3/1
f 12/3/1 10/3/1 11/3/1
f 13/3/2 14/3/2 15/3/2
f 15/3/2 14/3/2 16/3/2
f 17/3/2 18/3/2 19/3/2
f 19/3/2 18/3/2 20/3/2
f 21/3/2 22/3/2 23/3/2
f 23/3/2 22/3/2 24/3/2
f 25/4/2 26/4/2 27/4/2
f 27/4/2 26/4/2 28/4/2
f 29/4/2 30/4/2 31/4/2
f 31/4/2 30/4/2 32/4/2
f 33/4/2 34/4/2 35/4/2
f 35/4/2 34/4/2 36/4/2
f 40/3/3 38/3/3 37/3/3
f 41/3/3 38/3/3 40/3/3
f 42/3/3 38/3/3 41/3/3
f 43/3/3 38/3/3 42/3/3
f 45/3/3 40/3/3 39/3/3
f 45/3/3 41/3/3 40/3/3
f 46/2/3 42/2/3 41/2/3
f 46/3/3 41/3/3 45/3/3
f 47/2/3 42/2/3 46/2/3
f 48/2/3 42/2/3 47/2/3
f 49/3/3 44/3/3 43/3/3
f 49/2/3 42/2/3 48/2/3
f 49/3/3 43/3/3 42/3/3
f 50/3/3 44/3/3 49/3/3
f 51/3/3 45/3/3 39/3/3
f 52/2/3 47/2/3 46/2/3
f 52/3/3 45/3/3 51/3/3
f 52/2/3 46/2/3 45/2/3
f 53/2/3 47/2/3 52/2/3
f 54/2/3 47/2/3 53/2/3
f 55/4/3 48/4/3 47/4/3
f 55/2/3 47/2/3 54/2/3
f 56/2/3 50/2/3 49/2/3
f 56/4/3 48/4/3 55/4/3
f 56/2/3 49/2/3 48/2/3
f 57/1/3 54/1/3 53/1/3
f 57/2/3 53/2/3 52/2/3
f 57/2/3 52/2/3 51/2/3
f 58/1/3 54/1/3 57/1/3
f 59/2/3 58/2/3 57/2/3
f 59/1/3 54/1/3 58/1/3
f 60/2/3 55/2/3 54/2/3
f 60/1/3 54/1/3 59/1/3
f 60/2/3 56/2/3 55/2/3
f 61/2/3 56/2/3 60/2/3
f 62/2/3 50/2/3 56/2/3
f 62/2/3 56/2/3 61/2/3
f 63/2/3 61/2/3 60/2/3
f 63/3/3 51/3/3 39/3/3
f 63/2/3 59/2/3 57/2/3
f 63/2/3 60/2/3 59/2/3
f 63/2/3 57/2/3 51/2/3
f 64/2/3 61/2/3 63/2/3
f 65/4/3 62/4/3 61/4/3
f 65/2/3 61/2/3 64/2/3
f 66/2/3 50/2/3 62/2/3
f 66/4/3 62/4/3 65/4/3
f 67/2/3 65/2/3 64/2/3
f 67/3/3 64/3/3 63/3/3
f 67/2/3 66/2/3 65/2/3
f 68/2/3 66/2/3 67/2/3
f 69/2/3 50/2/3 66/2/3
f 69/2/3 66/2/3 68/2/3
f 70/3/3 44/3/3 50/3/3
f 70/2/3 50/2/3 69/2/3
f 71/3/3 68/3/3 67/3/3
f 71/3/3 63/3/3 39/3/3
f 71/3/3 67/3/3 63/3/3
f 72/3/3 68/3/3 71/3/3
f 73/2/3 69/2/3 68/2/3
f 73/3/3 68/3/3 72/3/3
f 74/3/3 70/3/3 69/3/3
f 74/2/3 69/2/3 73/2/3
f 75/3/3 44/3/3 70/3/3
f 75/3/3 70/3/3 74/3/3
f 76/3/3 44/3/3 75/3/3
f 77/3/3 74/3/3 73/3/3
f 77/3/3 73/3/3 72/3/3
f 77/3/3 75/3/3 74/3/3
f 78/3/3 75/3/3 77/3/3
f 83/4/3 80/4/3 79/4/3
f 84/4/3 82/4/3 81/4/3
f 85/4/3 83/4/3 79/4/3
f 85/4/3 84/4/3 83/4/3
f 86/4/3 84/4/3 85/4/3
f 87/4/3 82/4/3 84/4/3
f 87/4/3 84/4/3 86/4/3
f 88/4/3 82/4/3 87/4/3
f 89/4/3 87/4/3 86/4/3
f 90/4/3 87/4/3 89/4/3
f 91/3/4 92/3/4 94/3/4
f 94/3/4 92/3/4 95/3/4
f 95/3/4 92/3/4 96/3/4
f 96/3/4 92/3/4 97/3/4
f 93/3/4 94/3/4 99/3/4
f 94/3/4 95/3/4 99/3/4
f 95/2/4 96/2/4 100/2/4
f 99/3/4 95/3/4 100/3/4
f 100/2/4 96/2/4 101/2/4
f 101/2/4 96/2/4 102/2/4
f 97/3/4 98/3/4 103/3/4
f 102/2/4 96/2/4 103/2/4
f 96/3/4 97/3/4 103/3/4
f 103/3/4 98/3/4 104/3/4
f 93/3/4 99/3/4 105/3/4
f 100/2/4 101/2/4 106/2/4
f 105/3/4 99/3/4 106/3/4
f 99/2/4 100/2/4 106/2/4
f 106/2/4 101/2/4 107/2/4
f 107/2/4 101/2/4 108/2/4
f 101/4/4 102/4/4 109/4/4
f 108/2/4 101/2/4 109/2/4
f 103/2/4 104/2/4 110/2/4
f 109/4/4 102/4/4 110/4/4
f 102/2/4 103/2/4 110/2/4
f 107/1/4 108/1/4 111/1/4
f 106/2/4 107/2/4 111/2/4
f 105/2/4 106/2/4 111/2/4
f 111/1/4 108/1/4 112/1/4
f 111/2/4 112/2/4 113/2/4
f 112/1/4 108/1/4 113/1/4
f 108/2/4 109/2/4 114/2/4
f 113/1/4 108/1/4 114/1/4
f 109/2/4 110/2/4 114/2/4
f 114/2/4 110/2/4 115/2/4
f 110/2/4 104/2/4 116/2/4
f 115/2/4 110/2/4 116/2/4
f 114/2/4 115/2/4 117/2/4
f 93/3/4 105/3/4 117/3/4
f 111/2/4 113/2/4 117/2/4
f 113/2/4 114/2/4 117/2/4
f 105/2/4 111/2/4 117/2/4
f 117/2/4 115/2/4 118/2/4
f 115/4/4 116/4/4 119/4/4
f 118/2/4 115/2/4 119/2/4
f 116/2/4 104/2/4 120/2/4
f 119/4/4 116/4/4 120/4/4
f 118/2/4 119/2/4 121/2/4
f 117/3/4 118/3/4 121/3/4
f 119/2/4 120/2/4 121/2/4
f 121/2/4 120/2/4 122/2/4
f 120/2/4 104/2/4 123/2/4
f 122/2/4 120/2/4 123/2/4
f 104/3/4 98/3/4 124/3/4
f 123/2/4 104/2/4 124/2/4
f 121/3/4 122/3/4 125/3/4
f 93/3/4 117/3/4 125/3/4
f 117/3/4 121/3/4 125/3/4
f 125/3/4 122/3/4 126/3/4
f 122/2/4 123/2/4 127/2/4
f 126/3/4 122/3/4 127/3/4
f 123/3/4 124/3/4 128/3/4
f 127/2/4 123/2/4 128/2/4
f 124/3/4 98/3/4 129/3/4
f 128/3/4 124/3/4 129/3/4
f 129/3/4 98/3/4 130/3/4
f 127/3/4 128/3/4 131/3/4
f 126/3/4 127/3/4 131/3/4
f 125/4/4 126/4/4 131/4/4
f 128/3/4 129/3/4 131/3/4
f 129/4/4 130/4/4 132/4/4
f 131/3/4 129/3/4 132/3/4
f 125/4/4 131/4/4 133/4/4
f 131/4/4 132/4/4 133/4/4
f 133/4/4 132/4/4 134/4/4
f 132/4/4 130/4/4 135/4/4
f 134/4/4 132/4/4 135/4/4
f 135/4/4 130/4/4 136/4/4
f 134/4/4 135/4/4 137/4/4
f 137/4/4 135/4/4 138/4/4
f 141/3/5 140/3/5 139/3/5
f 143/3/5 141/3/5 139/3/5
f 144/4/5 142/4/5 141/4/5
f 144/3/5 141/3/5 143/3/5
f 145/4/5 142/4/5 144/4/5
f 150/3/5 149/3/5 148/3/5
f 151/3/5 149/3/5 150/3/5
f 154/3/5 147/3/5 146/3/5
f 155/3/5 147/3/5 154/3/5
f 156/4/5 153/4/5 152/4/5
f 157/4/5 153/4/5 156/4/5
f 160/3/6 161/3/6 162/3/6
f 162/3/6 161/3/6 163/3/6
f 158/3/6 159/3/6 166/3/6
f 166/3/6 159/3/6 167/3/6
f 164/4/6 165/4/6 168/4/6
f 168/4/6 165/4/6 169/4/6
f 170/3/6 171/3/6 172/3/6
f 170/3/6 172/3/6 174/3/6
f 172/4/6 173/4/6 175/4/6
f 174/3/6 172/3/6 175/3/6
f 175/4/6 173/4/6 176/4/6
