# MagicaVoxel @ Ephtracy

# group
o 

# material
mtllib pen3-5.mtl
usemtl palette

# normals
vn -1 0 0
vn 1 0 0
vn 0 0 1
vn 0 0 -1
vn 0 -1 0
vn 0 1 0

# texcoords
vt 0.0683594 0.5
vt 0.369141 0.5
vt 0.837891 0.5
vt 0.951172 0.5
vt 0.990234 0.5
vt 0.994141 0.5

# verts
v -0.8 -0.7 0
v -0.8 -0.7 -0.1
v -0.8 -0.6 0
v -0.8 -0.6 -0.1
v -0.8 -0.5 0
v -0.8 -0.5 -0.1
v -0.8 -0.4 0
v -0.8 -0.4 -0.1
v 0.5 -0.7 0.1
v 0.5 -0.7 0
v 0.5 -0.6 0.1
v 0.5 -0.6 0
v 0.5 -0.5 0.1
v 0.5 -0.5 0
v 0.5 -0.4 0.1
v 0.5 -0.4 0
v 0.6 -0.7 0
v 0.6 -0.7 -0.1
v 0.6 -0.6 0
v 0.6 -0.6 -0.1
v 0.6 -0.5 0
v 0.6 -0.5 -0.1
v 0.6 -0.4 0
v 0.6 -0.4 -0.1
v -0.7 -0.7 0
v -0.7 -0.7 -0.1
v -0.7 -0.6 0
v -0.7 -0.6 -0.1
v -0.7 -0.5 0
v -0.7 -0.5 -0.1
v -0.7 -0.4 0
v -0.7 -0.4 -0.1
v 0.6 -0.7 0.1
v 0.6 -0.7 0
v 0.6 -0.6 0.1
v 0.6 -0.6 0
v 0.6 -0.5 0.1
v 0.6 -0.5 0
v 0.6 -0.4 0.1
v 0.6 -0.4 0
v 0.7 -0.7 0
v 0.7 -0.7 -0.1
v 0.7 -0.6 0
v 0.7 -0.6 -0.1
v 0.7 -0.5 0
v 0.7 -0.5 -0.1
v 0.7 -0.4 0
v 0.7 -0.4 -0.1
v 0.5 -0.7 0.1
v 0.5 -0.6 0.1
v 0.5 -0.5 0.1
v 0.5 -0.4 0.1
v 0.6 -0.7 0.1
v 0.6 -0.6 0.1
v 0.6 -0.5 0.1
v 0.6 -0.4 0.1
v -0.8 -0.7 0
v -0.8 -0.6 0
v -0.8 -0.5 0
v -0.8 -0.4 0
v -0.7 -0.7 0
v -0.7 -0.6 0
v -0.7 -0.5 0
v -0.7 -0.4 0
v 0.6 -0.7 0
v 0.6 -0.6 0
v 0.6 -0.5 0
v 0.6 -0.4 0
v 0.7 -0.7 0
v 0.7 -0.6 0
v 0.7 -0.5 0
v 0.7 -0.4 0
v 0.5 -0.7 0
v 0.5 -0.6 0
v 0.5 -0.5 0
v 0.5 -0.4 0
v 0.6 -0.7 0
v 0.6 -0.6 0
v 0.6 -0.5 0
v 0.6 -0.4 0
v -0.8 -0.7 -0.1
v -0.8 -0.6 -0.1
v -0.8 -0.5 -0.1
v -0.8 -0.4 -0.1
v -0.7 -0.7 -0.1
v -0.7 -0.6 -0.1
v -0.7 -0.5 -0.1
v -0.7 -0.4 -0.1
v 0.6 -0.7 -0.1
v 0.6 -0.6 -0.1
v 0.6 -0.5 -0.1
v 0.6 -0.4 -0.1
v 0.7 -0.7 -0.1
v 0.7 -0.6 -0.1
v 0.7 -0.5 -0.1
v 0.7 -0.4 -0.1
v 0.5 -0.7 0.1
v 0.6 -0.7 0.1
v -0.8 -0.7 0
v -0.7 -0.7 0
v 0.5 -0.7 0
v 0.6 -0.7 0
v 0.7 -0.7 0
v -0.8 -0.7 -0.1
v -0.7 -0.7 -0.1
v 0.6 -0.7 -0.1
v 0.7 -0.7 -0.1
v 0.5 -0.4 0.1
v 0.6 -0.4 0.1
v -0.8 -0.4 0
v -0.7 -0.4 0
v 0.5 -0.4 0
v 0.6 -0.4 0
v 0.7 -0.4 0
v -0.8 -0.4 -0.1
v -0.7 -0.4 -0.1
v 0.6 -0.4 -0.1
v 0.7 -0.4 -0.1

# faces
f 3/5/1 2/5/1 1/5/1
f 4/5/1 2/5/1 3/5/1
f 5/3/1 4/3/1 3/3/1
f 6/3/1 4/3/1 5/3/1
f 7/1/1 6/1/1 5/1/1
f 8/1/1 6/1/1 7/1/1
f 11/5/1 10/5/1 9/5/1
f 12/5/1 10/5/1 11/5/1
f 13/3/1 12/3/1 11/3/1
f 14/3/1 12/3/1 13/3/1
f 15/1/1 14/1/1 13/1/1
f 16/1/1 14/1/1 15/1/1
f 19/6/1 18/6/1 17/6/1
f 20/6/1 18/6/1 19/6/1
f 21/4/1 20/4/1 19/4/1
f 22/4/1 20/4/1 21/4/1
f 23/2/1 22/2/1 21/2/1
f 24/2/1 22/2/1 23/2/1
f 25/5/2 26/5/2 27/5/2
f 27/5/2 26/5/2 28/5/2
f 27/3/2 28/3/2 29/3/2
f 29/3/2 28/3/2 30/3/2
f 29/1/2 30/1/2 31/1/2
f 31/1/2 30/1/2 32/1/2
f 33/5/2 34/5/2 35/5/2
f 35/5/2 34/5/2 36/5/2
f 35/3/2 36/3/2 37/3/2
f 37/3/2 36/3/2 38/3/2
f 37/1/2 38/1/2 39/1/2
f 39/1/2 38/1/2 40/1/2
f 41/6/2 42/6/2 43/6/2
f 43/6/2 42/6/2 44/6/2
f 43/4/2 44/4/2 45/4/2
f 45/4/2 44/4/2 46/4/2
f 45/2/2 46/2/2 47/2/2
f 47/2/2 46/2/2 48/2/2
f 53/5/3 50/5/3 49/5/3
f 54/3/3 51/3/3 50/3/3
f 54/5/3 50/5/3 53/5/3
f 55/1/3 52/1/3 51/1/3
f 55/3/3 51/3/3 54/3/3
f 56/1/3 52/1/3 55/1/3
f 61/5/3 58/5/3 57/5/3
f 62/3/3 59/3/3 58/3/3
f 62/5/3 58/5/3 61/5/3
f 63/1/3 60/1/3 59/1/3
f 63/3/3 59/3/3 62/3/3
f 64/1/3 60/1/3 63/1/3
f 69/6/3 66/6/3 65/6/3
f 70/4/3 67/4/3 66/4/3
f 70/6/3 66/6/3 69/6/3
f 71/2/3 68/2/3 67/2/3
f 71/4/3 67/4/3 70/4/3
f 72/2/3 68/2/3 71/2/3
f 73/5/4 74/5/4 77/5/4
f 74/3/4 75/3/4 78/3/4
f 77/5/4 74/5/4 78/5/4
f 75/1/4 76/1/4 79/1/4
f 78/3/4 75/3/4 79/3/4
f 79/1/4 76/1/4 80/1/4
f 81/5/4 82/5/4 85/5/4
f 82/3/4 83/3/4 86/3/4
f 85/5/4 82/5/4 86/5/4
f 83/1/4 84/1/4 87/1/4
f 86/3/4 83/3/4 87/3/4
f 87/1/4 84/1/4 88/1/4
f 89/6/4 90/6/4 93/6/4
f 90/4/4 91/4/4 94/4/4
f 93/6/4 90/6/4 94/6/4
f 91/2/4 92/2/4 95/2/4
f 94/4/4 91/4/4 95/4/4
f 95/2/4 92/2/4 96/2/4
f 101/5/5 98/5/5 97/5/5
f 102/5/5 98/5/5 101/5/5
f 104/5/5 100/5/5 99/5/5
f 105/5/5 100/5/5 104/5/5
f 106/6/5 103/6/5 102/6/5
f 107/6/5 103/6/5 106/6/5
f 108/1/6 109/1/6 112/1/6
f 112/1/6 109/1/6 113/1/6
f 110/1/6 111/1/6 115/1/6
f 115/1/6 111/1/6 116/1/6
f 113/2/6 114/2/6 117/2/6
f 117/2/6 114/2/6 118/2/6
