# MagicaVoxel @ Ephtracy

# group
o 

# material
mtllib seal2-7.mtl
usemtl palette

# normals
vn -1 0 0
vn 1 0 0
vn 0 0 1
vn 0 0 -1
vn 0 -1 0
vn 0 1 0

# texcoords
vt 0.958984 0.5
vt 0.966797 0.5
vt 0.974609 0.5
vt 0.982422 0.5

# verts
v -0.8 -1.2 0.05
v -0.8 -1.2 -0.05
v -0.8 -1 0.05
v -0.8 -1 -0.05
v -0.8 -0.9 0.05
v -0.8 -0.9 -0.05
v -0.1 -1.2 0.05
v -0.1 -1.2 -0.05
v -0.1 -1 0.05
v -0.1 -1 -0.05
v -0.1 -0.9 0.05
v -0.1 -0.9 -0.05
v -0.6 -1.2 0.05
v -0.6 -1.2 -0.05
v -0.6 -1 0.05
v -0.6 -1 -0.05
v -0.6 -0.9 0.05
v -0.6 -0.9 -0.05
v 0.1 -1.2 0.05
v 0.1 -1.2 -0.05
v 0.1 -1 0.05
v 0.1 -1 -0.05
v 0.1 -0.9 0.05
v 0.1 -0.9 -0.05
v -0.8 -1.2 0.05
v -0.8 -1 0.05
v -0.8 -0.9 0.05
v -0.7 -1.2 0.05
v -0.7 -1 0.05
v -0.7 -0.9 0.05
v -0.6 -1.2 0.05
v -0.6 -1 0.05
v -0.6 -0.9 0.05
v -0.1 -1.2 0.05
v -0.1 -1 0.05
v -0.1 -0.9 0.05
v 0 -1.2 0.05
v 0 -1 0.05
v 0 -0.9 0.05
v 0.1 -1.2 0.05
v 0.1 -1 0.05
v 0.1 -0.9 0.05
v -0.8 -1.2 -0.05
v -0.8 -1 -0.05
v -0.8 -0.9 -0.05
v -0.7 -1.2 -0.05
v -0.7 -1 -0.05
v -0.7 -0.9 -0.05
v -0.6 -1.2 -0.05
v -0.6 -1 -0.05
v -0.6 -0.9 -0.05
v -0.1 -1.2 -0.05
v -0.1 -1 -0.05
v -0.1 -0.9 -0.05
v 0 -1.2 -0.05
v 0 -1 -0.05
v 0 -0.9 -0.05
v 0.1 -1.2 -0.05
v 0.1 -1 -0.05
v 0.1 -0.9 -0.05
v -0.8 -1.2 0.05
v -0.7 -1.2 0.05
v -0.6 -1.2 0.05
v -0.1 -1.2 0.05
v 0 -1.2 0.05
v 0.1 -1.2 0.05
v -0.8 -1.2 -0.05
v -0.7 -1.2 -0.05
v -0.6 -1.2 -0.05
v -0.1 -1.2 -0.05
v 0 -1.2 -0.05
v 0.1 -1.2 -0.05
v -0.8 -0.9 0.05
v -0.7 -0.9 0.05
v -0.6 -0.9 0.05
v -0.1 -0.9 0.05
v 0 -0.9 0.05
v 0.1 -0.9 0.05
v -0.8 -0.9 -0.05
v -0.7 -0.9 -0.05
v -0.6 -0.9 -0.05
v -0.1 -0.9 -0.05
v 0 -0.9 -0.05
v 0.1 -0.9 -0.05

# faces
f 3/4/1 2/4/1 1/4/1
f 4/4/1 2/4/1 3/4/1
f 5/2/1 4/2/1 3/2/1
f 6/2/1 4/2/1 5/2/1
f 9/4/1 8/4/1 7/4/1
f 10/4/1 8/4/1 9/4/1
f 11/2/1 10/2/1 9/2/1
f 12/2/1 10/2/1 11/2/1
f 13/3/2 14/3/2 15/3/2
f 15/3/2 14/3/2 16/3/2
f 15/1/2 16/1/2 17/1/2
f 17/1/2 16/1/2 18/1/2
f 19/3/2 20/3/2 21/3/2
f 21/3/2 20/3/2 22/3/2
f 21/1/2 22/1/2 23/1/2
f 23/1/2 22/1/2 24/1/2
f 28/4/3 26/4/3 25/4/3
f 29/2/3 27/2/3 26/2/3
f 29/4/3 26/4/3 28/4/3
f 30/2/3 27/2/3 29/2/3
f 31/3/3 29/3/3 28/3/3
f 32/1/3 30/1/3 29/1/3
f 32/3/3 29/3/3 31/3/3
f 33/1/3 30/1/3 32/1/3
f 37/4/3 35/4/3 34/4/3
f 38/2/3 36/2/3 35/2/3
f 38/4/3 35/4/3 37/4/3
f 39/2/3 36/2/3 38/2/3
f 40/3/3 38/3/3 37/3/3
f 41/1/3 39/1/3 38/1/3
f 41/3/3 38/3/3 40/3/3
f 42/1/3 39/1/3 41/1/3
f 43/4/4 44/4/4 46/4/4
f 44/2/4 45/2/4 47/2/4
f 46/4/4 44/4/4 47/4/4
f 47/2/4 45/2/4 48/2/4
f 46/3/4 47/3/4 49/3/4
f 47/1/4 48/1/4 50/1/4
f 49/3/4 47/3/4 50/3/4
f 50/1/4 48/1/4 51/1/4
f 52/4/4 53/4/4 55/4/4
f 53/2/4 54/2/4 56/2/4
f 55/4/4 53/4/4 56/4/4
f 56/2/4 54/2/4 57/2/4
f 55/3/4 56/3/4 58/3/4
f 56/1/4 57/1/4 59/1/4
f 58/3/4 56/3/4 59/3/4
f 59/1/4 57/1/4 60/1/4
f 67/4/5 62/4/5 61/4/5
f 68/3/5 63/3/5 62/3/5
f 68/4/5 62/4/5 67/4/5
f 69/3/5 63/3/5 68/3/5
f 70/4/5 65/4/5 64/4/5
f 71/3/5 66/3/5 65/3/5
f 71/4/5 65/4/5 70/4/5
f 72/3/5 66/3/5 71/3/5
f 73/2/6 74/2/6 79/2/6
f 74/1/6 75/1/6 80/1/6
f 79/2/6 74/2/6 80/2/6
f 80/1/6 75/1/6 81/1/6
f 76/2/6 77/2/6 82/2/6
f 77/1/6 78/1/6 83/1/6
f 82/2/6 77/2/6 83/2/6
f 83/1/6 78/1/6 84/1/6
