# MagicaVoxel @ Ephtracy

# group
o 

# material
mtllib seal2-0.mtl
usemtl palette

# normals
vn -1 0 0
vn 1 0 0
vn 0 0 1
vn 0 0 -1
vn 0 -1 0
vn 0 1 0

# texcoords
vt 0.962891 0.5
vt 0.974609 0.5
vt 0.982422 0.5
vt 0.994141 0.5

# verts
v -1 -0.2 0.05
v -1 -0.2 -0.05
v -1 -0.1 0.05
v -1 -0.1 -0.05
v -0.9 -0.5 -0.05
v -0.9 -0.5 -0.15
v -0.9 -0.3 0.05
v -0.9 -0.3 -0.05
v -0.9 -0.2 0.05
v -0.9 -0.2 -0.05
v -0.9 -0.1 -0.05
v -0.9 0.4 -0.05
v -0.9 0.4 -0.15
v -0.8 -1 -0.05
v -0.8 -1 -0.15
v -0.8 -0.5 -0.05
v -0.8 -0.5 -0.15
v -0.8 -0.1 0.05
v -0.8 -0.1 -0.05
v -0.8 0 0.05
v -0.8 0 -0.05
v -0.8 0.4 -0.05
v -0.8 0.4 -0.15
v -0.8 0.6 -0.05
v -0.8 0.6 -0.15
v -0.7 -1.1 -0.05
v -0.7 -1.1 -0.15
v -0.7 -1 -0.05
v -0.7 -1 -0.15
v -0.7 0.6 -0.05
v -0.7 0.6 -0.15
v -0.7 0.7 -0.05
v -0.7 0.7 -0.15
v -0.5 -0.2 0.05
v -0.5 -0.2 -0.05
v -0.5 -0.1 0.05
v -0.5 -0.1 -0.05
v -0.4 -0.1 0.05
v -0.4 -0.1 -0.05
v -0.4 0 0.05
v -0.4 0 -0.05
v -0.2 -0.3 0.05
v -0.2 -0.3 -0.05
v -0.2 -0.2 0.05
v -0.2 -0.2 -0.05
v -0.8 -0.3 0.05
v -0.8 -0.3 -0.05
v -0.8 -0.2 0.05
v -0.8 -0.2 -0.05
v -0.6 -0.2 0.05
v -0.6 -0.2 -0.05
v -0.6 0 0.05
v -0.6 0 -0.05
v -0.2 -0.1 0.05
v -0.2 -0.1 -0.05
v -0.2 0 0.05
v -0.2 0 -0.05
v -0.1 -0.3 0.05
v -0.1 -0.3 -0.05
v -0.1 -0.2 0.05
v -0.1 -0.2 -0.05
v 0 -0.2 0.05
v 0 -0.2 -0.05
v 0 -0.1 0.05
v 0 -0.1 -0.05
v 0.1 0.6 -0.05
v 0.1 0.6 -0.15
v 0.1 0.7 -0.05
v 0.1 0.7 -0.15
v 0.2 0.5 -0.05
v 0.2 0.5 -0.15
v 0.2 0.6 -0.05
v 0.2 0.6 -0.15
v 0.3 -1.1 -0.05
v 0.3 -1.1 -0.15
v 0.3 -1 -0.05
v 0.3 -1 -0.15
v 0.3 -0.4 -0.05
v 0.3 -0.4 -0.15
v 0.3 0.5 -0.05
v 0.3 0.5 -0.15
v 0.4 -0.5 -0.05
v 0.4 -0.5 -0.15
v 0.4 -0.4 -0.05
v 0.4 -0.4 -0.15
v 0.5 -1 -0.05
v 0.5 -1 -0.15
v 0.5 -0.9 -0.05
v 0.5 -0.9 -0.15
v 0.5 -0.6 -0.05
v 0.5 -0.6 -0.15
v 0.5 -0.5 -0.05
v 0.5 -0.5 -0.15
v 0.7 -0.9 -0.05
v 0.7 -0.9 -0.15
v 0.7 -0.8 -0.05
v 0.7 -0.8 -0.15
v 0.8 -0.8 -0.05
v 0.8 -0.8 -0.15
v 0.8 -0.6 -0.05
v 0.8 -0.6 -0.15
v -1 -0.2 0.05
v -1 -0.1 0.05
v -0.9 -0.3 0.05
v -0.9 -0.2 0.05
v -0.8 -0.3 0.05
v -0.8 -0.2 0.05
v -0.8 -0.1 0.05
v -0.8 0 0.05
v -0.6 -0.2 0.05
v -0.6 0 0.05
v -0.5 -0.2 0.05
v -0.5 -0.1 0.05
v -0.4 -0.1 0.05
v -0.4 0 0.05
v -0.2 -0.3 0.05
v -0.2 -0.2 0.05
v -0.2 -0.1 0.05
v -0.2 0 0.05
v -0.1 -0.3 0.05
v -0.1 -0.2 0.05
v 0 -0.2 0.05
v 0 -0.1 0.05
v -0.9 -0.5 -0.05
v -0.9 -0.3 -0.05
v -0.9 -0.1 -0.05
v -0.9 0.4 -0.05
v -0.8 -1 -0.05
v -0.8 -0.5 -0.05
v -0.8 -0.3 -0.05
v -0.8 -0.2 -0.05
v -0.8 -0.1 -0.05
v -0.8 0 -0.05
v -0.8 0.1 -0.05
v -0.8 0.3 -0.05
v -0.8 0.4 -0.05
v -0.8 0.6 -0.05
v -0.7 -1.1 -0.05
v -0.7 -1 -0.05
v -0.7 0.1 -0.05
v -0.7 0.3 -0.05
v -0.7 0.6 -0.05
v -0.7 0.7 -0.05
v -0.6 -0.2 -0.05
v -0.6 0 -0.05
v -0.5 -0.2 -0.05
v -0.5 -0.1 -0.05
v -0.4 -0.1 -0.05
v -0.4 0 -0.05
v -0.2 -0.3 -0.05
v -0.2 -0.2 -0.05
v -0.2 -0.1 -0.05
v -0.2 0 -0.05
v -0.2 0.1 -0.05
v -0.2 0.3 -0.05
v -0.1 -0.3 -0.05
v -0.1 -0.2 -0.05
v -0.1 0.1 -0.05
v -0.1 0.3 -0.05
v 0 -0.2 -0.05
v 0 -0.1 -0.05
v 0 0.6 -0.05
v 0 0.7 -0.05
v 0.1 0.5 -0.05
v 0.1 0.6 -0.05
v 0.1 0.7 -0.05
v 0.2 -1.1 -0.05
v 0.2 -1 -0.05
v 0.2 -0.4 -0.05
v 0.2 0.5 -0.05
v 0.2 0.6 -0.05
v 0.3 -1.1 -0.05
v 0.3 -1 -0.05
v 0.3 -0.5 -0.05
v 0.3 -0.4 -0.05
v 0.3 0.5 -0.05
v 0.4 -1 -0.05
v 0.4 -0.9 -0.05
v 0.4 -0.6 -0.05
v 0.4 -0.5 -0.05
v 0.4 -0.4 -0.05
v 0.5 -1 -0.05
v 0.5 -0.9 -0.05
v 0.5 -0.6 -0.05
v 0.5 -0.5 -0.05
v 0.6 -0.9 -0.05
v 0.6 -0.8 -0.05
v 0.7 -0.9 -0.05
v 0.7 -0.8 -0.05
v 0.8 -0.8 -0.05
v 0.8 -0.6 -0.05
v -1 -0.2 -0.05
v -1 -0.1 -0.05
v -0.9 -0.2 -0.05
v -0.9 -0.1 -0.05
v -0.9 -0.5 -0.15
v -0.9 0.4 -0.15
v -0.8 -1 -0.15
v -0.8 -0.5 -0.15
v -0.8 -0.3 -0.15
v -0.8 -0.2 -0.15
v -0.8 0.1 -0.15
v -0.8 0.3 -0.15
v -0.8 0.4 -0.15
v -0.8 0.6 -0.15
v -0.7 -1.1 -0.15
v -0.7 -1 -0.15
v -0.7 0.1 -0.15
v -0.7 0.3 -0.15
v -0.7 0.6 -0.15
v -0.7 0.7 -0.15
v -0.6 -0.2 -0.15
v -0.6 0 -0.15
v -0.5 -0.2 -0.15
v -0.5 -0.1 -0.15
v -0.4 -0.1 -0.15
v -0.4 0 -0.15
v -0.2 -0.3 -0.15
v -0.2 -0.2 -0.15
v -0.2 0.1 -0.15
v -0.2 0.3 -0.15
v -0.1 0.1 -0.15
v -0.1 0.3 -0.15
v 0 0.6 -0.15
v 0 0.7 -0.15
v 0.1 0.5 -0.15
v 0.1 0.6 -0.15
v 0.1 0.7 -0.15
v 0.2 -1.1 -0.15
v 0.2 -1 -0.15
v 0.2 -0.4 -0.15
v 0.2 0.5 -0.15
v 0.2 0.6 -0.15
v 0.3 -1.1 -0.15
v 0.3 -1 -0.15
v 0.3 -0.5 -0.15
v 0.3 -0.4 -0.15
v 0.3 0.5 -0.15
v 0.4 -1 -0.15
v 0.4 -0.9 -0.15
v 0.4 -0.6 -0.15
v 0.4 -0.5 -0.15
v 0.4 -0.4 -0.15
v 0.5 -1 -0.15
v 0.5 -0.9 -0.15
v 0.5 -0.6 -0.15
v 0.5 -0.5 -0.15
v 0.6 -0.9 -0.15
v 0.6 -0.8 -0.15
v 0.7 -0.9 -0.15
v 0.7 -0.8 -0.15
v 0.8 -0.8 -0.15
v 0.8 -0.6 -0.15
v -0.7 -1.1 -0.05
v 0.2 -1.1 -0.05
v 0.3 -1.1 -0.05
v -0.7 -1.1 -0.15
v 0.2 -1.1 -0.15
v 0.3 -1.1 -0.15
v -0.8 -1 -0.05
v -0.7 -1 -0.05
v 0.3 -1 -0.05
v 0.4 -1 -0.05
v 0.5 -1 -0.05
v -0.8 -1 -0.15
v -0.7 -1 -0.15
v 0.3 -1 -0.15
v 0.4 -1 -0.15
v 0.5 -1 -0.15
v 0.5 -0.9 -0.05
v 0.6 -0.9 -0.05
v 0.7 -0.9 -0.05
v 0.5 -0.9 -0.15
v 0.6 -0.9 -0.15
v 0.7 -0.9 -0.15
v 0.7 -0.8 -0.05
v 0.8 -0.8 -0.05
v 0.7 -0.8 -0.15
v 0.8 -0.8 -0.15
v -0.9 -0.5 -0.05
v -0.8 -0.5 -0.05
v -0.9 -0.5 -0.15
v -0.8 -0.5 -0.15
v -0.9 -0.3 0.05
v -0.8 -0.3 0.05
v -0.2 -0.3 0.05
v -0.1 -0.3 0.05
v -0.9 -0.3 -0.05
v -0.8 -0.3 -0.05
v -0.2 -0.3 -0.05
v -0.1 -0.3 -0.05
v -1 -0.2 0.05
v -0.9 -0.2 0.05
v -0.8 -0.2 0.05
v -0.6 -0.2 0.05
v -0.5 -0.2 0.05
v -0.2 -0.2 0.05
v -0.1 -0.2 0.05
v 0 -0.2 0.05
v -1 -0.2 -0.05
v -0.9 -0.2 -0.05
v -0.8 -0.2 -0.05
v -0.6 -0.2 -0.05
v -0.5 -0.2 -0.05
v -0.2 -0.2 -0.05
v -0.1 -0.2 -0.05
v 0 -0.2 -0.05
v 0.5 -0.6 -0.05
v 0.8 -0.6 -0.05
v 0.5 -0.6 -0.15
v 0.8 -0.6 -0.15
v 0.4 -0.5 -0.05
v 0.5 -0.5 -0.05
v 0.4 -0.5 -0.15
v 0.5 -0.5 -0.15
v 0.3 -0.4 -0.05
v 0.4 -0.4 -0.05
v 0.3 -0.4 -0.15
v 0.4 -0.4 -0.15
v -1 -0.1 0.05
v -0.8 -0.1 0.05
v -0.5 -0.1 0.05
v -0.4 -0.1 0.05
v -0.2 -0.1 0.05
v 0 -0.1 0.05
v -1 -0.1 -0.05
v -0.9 -0.1 -0.05
v -0.8 -0.1 -0.05
v -0.5 -0.1 -0.05
v -0.4 -0.1 -0.05
v -0.2 -0.1 -0.05
v 0 -0.1 -0.05
v -0.8 0 0.05
v -0.6 0 0.05
v -0.4 0 0.05
v -0.2 0 0.05
v -0.8 0 -0.05
v -0.6 0 -0.05
v -0.4 0 -0.05
v -0.2 0 -0.05
v -0.9 0.4 -0.05
v -0.8 0.4 -0.05
v -0.9 0.4 -0.15
v -0.8 0.4 -0.15
v 0.2 0.5 -0.05
v 0.3 0.5 -0.05
v 0.2 0.5 -0.15
v 0.3 0.5 -0.15
v -0.8 0.6 -0.05
v -0.7 0.6 -0.05
v 0.1 0.6 -0.05
v 0.2 0.6 -0.05
v -0.8 0.6 -0.15
v -0.7 0.6 -0.15
v 0.1 0.6 -0.15
v 0.2 0.6 -0.15
v -0.7 0.7 -0.05
v 0 0.7 -0.05
v 0.1 0.7 -0.05
v -0.7 0.7 -0.15
v 0 0.7 -0.15
v 0.1 0.7 -0.15

# faces
f 3/1/1 2/1/1 1/1/1
f 4/1/1 2/1/1 3/1/1
f 8/3/1 6/3/1 5/3/1
f 9/1/1 8/1/1 7/1/1
f 10/3/1 6/3/1 8/3/1
f 10/1/1 8/1/1 9/1/1
f 11/3/1 6/3/1 10/3/1
f 12/3/1 6/3/1 11/3/1
f 13/3/1 6/3/1 12/3/1
f 16/3/1 15/3/1 14/3/1
f 17/3/1 15/3/1 16/3/1
f 20/1/1 19/1/1 18/1/1
f 21/1/1 19/1/1 20/1/1
f 24/3/1 23/3/1 22/3/1
f 25/3/1 23/3/1 24/3/1
f 28/3/1 27/3/1 26/3/1
f 29/3/1 27/3/1 28/3/1
f 32/3/1 31/3/1 30/3/1
f 33/3/1 31/3/1 32/3/1
f 36/1/1 35/1/1 34/1/1
f 37/1/1 35/1/1 36/1/1
f 40/1/1 39/1/1 38/1/1
f 41/1/1 39/1/1 40/1/1
f 44/1/1 43/1/1 42/1/1
f 45/1/1 43/1/1 44/1/1
f 46/1/2 47/1/2 48/1/2
f 48/1/2 47/1/2 49/1/2
f 50/1/2 51/1/2 52/1/2
f 52/1/2 51/1/2 53/1/2
f 54/1/2 55/1/2 56/1/2
f 56/1/2 55/1/2 57/1/2
f 58/1/2 59/1/2 60/1/2
f 60/1/2 59/1/2 61/1/2
f 62/1/2 63/1/2 64/1/2
f 64/1/2 63/1/2 65/1/2
f 66/2/2 67/2/2 68/2/2
f 68/2/2 67/2/2 69/2/2
f 70/2/2 71/2/2 72/2/2
f 72/2/2 71/2/2 73/2/2
f 74/2/2 75/2/2 76/2/2
f 76/2/2 75/2/2 77/2/2
f 78/2/2 79/2/2 80/2/2
f 80/2/2 79/2/2 81/2/2
f 82/2/2 83/2/2 84/2/2
f 84/2/2 83/2/2 85/2/2
f 86/2/2 87/2/2 88/2/2
f 88/2/2 87/2/2 89/2/2
f 90/2/2 91/2/2 92/2/2
f 92/2/2 91/2/2 93/2/2
f 94/2/2 95/2/2 96/2/2
f 96/2/2 95/2/2 97/2/2
f 98/3/2 99/3/2 100/3/2
f 100/3/2 99/3/2 101/3/2
f 105/1/3 103/1/3 102/1/3
f 106/1/3 105/1/3 104/1/3
f 107/1/3 103/1/3 105/1/3
f 107/1/3 105/1/3 106/1/3
f 108/1/3 103/1/3 107/1/3
f 110/1/3 109/1/3 108/1/3
f 110/1/3 108/1/3 107/1/3
f 111/1/3 109/1/3 110/1/3
f 114/1/3 113/1/3 112/1/3
f 117/1/3 114/1/3 112/1/3
f 117/1/3 115/1/3 114/1/3
f 118/1/3 115/1/3 117/1/3
f 119/1/3 115/1/3 118/1/3
f 120/1/3 117/1/3 116/1/3
f 120/1/3 118/1/3 117/1/3
f 121/1/3 118/1/3 120/1/3
f 122/1/3 118/1/3 121/1/3
f 123/1/3 118/1/3 122/1/3
f 129/3/3 125/3/3 124/3/3
f 130/3/3 125/3/3 129/3/3
f 132/3/3 127/3/3 126/3/3
f 133/3/3 127/3/3 132/3/3
f 134/3/3 127/3/3 133/3/3
f 135/3/3 127/3/3 134/3/3
f 136/3/3 127/3/3 135/3/3
f 139/3/3 129/3/3 128/3/3
f 139/3/3 130/3/3 129/3/3
f 140/4/3 135/4/3 134/4/3
f 140/3/3 134/3/3 133/3/3
f 141/3/3 136/3/3 135/3/3
f 141/4/3 135/4/3 140/4/3
f 141/3/3 137/3/3 136/3/3
f 142/3/3 137/3/3 141/3/3
f 144/4/3 131/4/3 130/4/3
f 145/3/3 143/3/3 142/3/3
f 145/3/3 140/3/3 133/3/3
f 145/3/3 142/3/3 141/3/3
f 145/3/3 141/3/3 140/3/3
f 146/4/3 144/4/3 130/4/3
f 146/4/3 145/4/3 144/4/3
f 147/4/3 145/4/3 146/4/3
f 148/4/3 145/4/3 147/4/3
f 149/3/3 143/3/3 145/3/3
f 149/4/3 145/4/3 148/4/3
f 150/3/3 130/3/3 139/3/3
f 150/3/3 139/3/3 138/3/3
f 150/4/3 146/4/3 130/4/3
f 151/4/3 146/4/3 150/4/3
f 153/3/3 143/3/3 149/3/3
f 154/3/3 143/3/3 153/3/3
f 155/3/3 143/3/3 154/3/3
f 156/3/3 150/3/3 138/3/3
f 158/4/3 155/4/3 154/4/3
f 158/3/3 153/3/3 152/3/3
f 158/3/3 154/3/3 153/3/3
f 159/3/3 143/3/3 155/3/3
f 159/4/3 155/4/3 158/4/3
f 160/3/3 157/3/3 156/3/3
f 161/3/3 158/3/3 152/3/3
f 161/3/3 159/3/3 158/3/3
f 162/3/3 143/3/3 159/3/3
f 162/3/3 159/3/3 161/3/3
f 163/3/3 143/3/3 162/3/3
f 164/3/3 161/3/3 160/3/3
f 164/3/3 162/3/3 161/3/3
f 165/2/3 163/2/3 162/2/3
f 165/3/3 162/3/3 164/3/3
f 166/2/3 163/2/3 165/2/3
f 167/3/3 160/3/3 156/3/3
f 167/3/3 156/3/3 138/3/3
f 167/3/3 164/3/3 160/3/3
f 168/3/3 164/3/3 167/3/3
f 169/3/3 164/3/3 168/3/3
f 170/2/3 165/2/3 164/2/3
f 170/3/3 164/3/3 169/3/3
f 171/2/3 165/2/3 170/2/3
f 172/2/3 168/2/3 167/2/3
f 173/3/3 169/3/3 168/3/3
f 173/2/3 168/2/3 172/2/3
f 174/3/3 169/3/3 173/3/3
f 175/2/3 170/2/3 169/2/3
f 175/3/3 169/3/3 174/3/3
f 176/2/3 170/2/3 175/2/3
f 177/3/3 174/3/3 173/3/3
f 178/3/3 174/3/3 177/3/3
f 179/3/3 174/3/3 178/3/3
f 180/2/3 175/2/3 174/2/3
f 180/3/3 174/3/3 179/3/3
f 181/2/3 175/2/3 180/2/3
f 182/2/3 178/2/3 177/2/3
f 183/3/3 179/3/3 178/3/3
f 183/2/3 178/2/3 182/2/3
f 184/2/3 180/2/3 179/2/3
f 184/3/3 179/3/3 183/3/3
f 185/2/3 180/2/3 184/2/3
f 186/3/3 184/3/3 183/3/3
f 187/3/3 184/3/3 186/3/3
f 188/2/3 187/2/3 186/2/3
f 189/3/3 184/3/3 187/3/3
f 189/2/3 187/2/3 188/2/3
f 190/3/3 184/3/3 189/3/3
f 191/3/3 184/3/3 190/3/3
f 192/1/4 193/1/4 194/1/4
f 194/1/4 193/1/4 195/1/4
f 196/3/4 197/3/4 199/3/4
f 199/3/4 197/3/4 200/3/4
f 200/3/4 197/3/4 201/3/4
f 201/3/4 197/3/4 202/3/4
f 202/3/4 197/3/4 203/3/4
f 203/3/4 197/3/4 204/3/4
f 198/3/4 199/3/4 207/3/4
f 199/3/4 200/3/4 207/3/4
f 201/3/4 202/3/4 208/3/4
f 202/4/4 203/4/4 208/4/4
f 204/3/4 205/3/4 209/3/4
f 208/4/4 203/4/4 209/4/4
f 203/3/4 204/3/4 209/3/4
f 209/3/4 205/3/4 210/3/4
f 201/3/4 208/3/4 212/3/4
f 210/3/4 211/3/4 212/3/4
f 209/3/4 210/3/4 212/3/4
f 208/3/4 209/3/4 212/3/4
f 200/4/4 201/4/4 212/4/4
f 212/3/4 211/3/4 213/3/4
f 200/4/4 212/4/4 214/4/4
f 212/4/4 213/4/4 214/4/4
f 214/4/4 213/4/4 215/4/4
f 214/3/4 215/3/4 216/3/4
f 215/4/4 213/4/4 216/4/4
f 213/3/4 211/3/4 217/3/4
f 216/4/4 213/4/4 217/4/4
f 207/3/4 200/3/4 218/3/4
f 206/3/4 207/3/4 218/3/4
f 200/4/4 214/4/4 218/4/4
f 216/3/4 217/3/4 219/3/4
f 218/4/4 214/4/4 219/4/4
f 214/3/4 216/3/4 219/3/4
f 217/3/4 211/3/4 220/3/4
f 219/3/4 217/3/4 220/3/4
f 220/3/4 211/3/4 221/3/4
f 218/3/4 219/3/4 222/3/4
f 219/3/4 220/3/4 222/3/4
f 220/4/4 221/4/4 222/4/4
f 221/3/4 211/3/4 223/3/4
f 222/4/4 221/4/4 223/4/4
f 222/3/4 223/3/4 224/3/4
f 223/3/4 211/3/4 224/3/4
f 224/3/4 211/3/4 225/3/4
f 222/3/4 224/3/4 226/3/4
f 224/2/4 225/2/4 227/2/4
f 226/3/4 224/3/4 227/3/4
f 227/2/4 225/2/4 228/2/4
f 218/3/4 222/3/4 229/3/4
f 206/3/4 218/3/4 229/3/4
f 222/3/4 226/3/4 229/3/4
f 229/3/4 226/3/4 230/3/4
f 230/3/4 226/3/4 231/3/4
f 226/2/4 227/2/4 232/2/4
f 231/3/4 226/3/4 232/3/4
f 232/2/4 227/2/4 233/2/4
f 229/2/4 230/2/4 234/2/4
f 230/3/4 231/3/4 235/3/4
f 234/2/4 230/2/4 235/2/4
f 235/3/4 231/3/4 236/3/4
f 231/2/4 232/2/4 237/2/4
f 236/3/4 231/3/4 237/3/4
f 237/2/4 232/2/4 238/2/4
f 235/3/4 236/3/4 239/3/4
f 239/3/4 236/3/4 240/3/4
f 240/3/4 236/3/4 241/3/4
f 236/2/4 237/2/4 242/2/4
f 241/3/4 236/3/4 242/3/4
f 242/2/4 237/2/4 243/2/4
f 239/2/4 240/2/4 244/2/4
f 240/3/4 241/3/4 245/3/4
f 244/2/4 240/2/4 245/2/4
f 241/2/4 242/2/4 246/2/4
f 245/3/4 241/3/4 246/3/4
f 246/2/4 242/2/4 247/2/4
f 245/3/4 246/3/4 248/3/4
f 248/3/4 246/3/4 249/3/4
f 248/2/4 249/2/4 250/2/4
f 249/3/4 246/3/4 251/3/4
f 250/2/4 249/2/4 251/2/4
f 251/3/4 246/3/4 252/3/4
f 252/3/4 246/3/4 253/3/4
f 257/3/5 255/3/5 254/3/5
f 258/2/5 256/2/5 255/2/5
f 258/3/5 255/3/5 257/3/5
f 259/2/5 256/2/5 258/2/5
f 265/3/5 261/3/5 260/3/5
f 266/3/5 261/3/5 265/3/5
f 267/3/5 263/3/5 262/3/5
f 268/2/5 264/2/5 263/2/5
f 268/3/5 263/3/5 267/3/5
f 269/2/5 264/2/5 268/2/5
f 273/3/5 271/3/5 270/3/5
f 274/2/5 272/2/5 271/2/5
f 274/3/5 271/3/5 273/3/5
f 275/2/5 272/2/5 274/2/5
f 278/3/5 277/3/5 276/3/5
f 279/3/5 277/3/5 278/3/5
f 282/3/5 281/3/5 280/3/5
f 283/3/5 281/3/5 282/3/5
f 288/1/5 285/1/5 284/1/5
f 289/1/5 285/1/5 288/1/5
f 290/1/5 287/1/5 286/1/5
f 291/1/5 287/1/5 290/1/5
f 300/1/5 293/1/5 292/1/5
f 301/1/5 293/1/5 300/1/5
f 302/1/5 295/1/5 294/1/5
f 303/1/5 295/1/5 302/1/5
f 304/1/5 297/1/5 296/1/5
f 305/1/5 297/1/5 304/1/5
f 306/1/5 299/1/5 298/1/5
f 307/1/5 299/1/5 306/1/5
f 308/3/6 309/3/6 310/3/6
f 310/3/6 309/3/6 311/3/6
f 312/2/6 313/2/6 314/2/6
f 314/2/6 313/2/6 315/2/6
f 316/2/6 317/2/6 318/2/6
f 318/2/6 317/2/6 319/2/6
f 320/1/6 321/1/6 326/1/6
f 326/1/6 321/1/6 327/1/6
f 327/1/6 321/1/6 328/1/6
f 322/1/6 323/1/6 329/1/6
f 329/1/6 323/1/6 330/1/6
f 324/1/6 325/1/6 331/1/6
f 331/1/6 325/1/6 332/1/6
f 333/1/6 334/1/6 337/1/6
f 337/1/6 334/1/6 338/1/6
f 335/1/6 336/1/6 339/1/6
f 339/1/6 336/1/6 340/1/6
f 341/3/6 342/3/6 343/3/6
f 343/3/6 342/3/6 344/3/6
f 345/2/6 346/2/6 347/2/6
f 347/2/6 346/2/6 348/2/6
f 349/3/6 350/3/6 353/3/6
f 353/3/6 350/3/6 354/3/6
f 351/2/6 352/2/6 355/2/6
f 355/2/6 352/2/6 356/2/6
f 357/3/6 358/3/6 360/3/6
f 358/2/6 359/2/6 361/2/6
f 360/3/6 358/3/6 361/3/6
f 361/2/6 359/2/6 362/2/6
