# MagicaVoxel @ Ephtracy

# group
o 

# material
mtllib seal2-4.mtl
usemtl palette

# normals
vn -1 0 0
vn 1 0 0
vn 0 0 1
vn 0 0 -1
vn 0 -1 0
vn 0 1 0

# texcoords
vt 0.841797 0.5
vt 0.849609 0.5
vt 0.861328 0.5

# verts
v -0.9 0.4 0.05
v -0.9 0.4 -0.05
v -0.9 0.6 0.05
v -0.9 0.6 -0.05
v -0.8 0.6 0.05
v -0.8 0.6 -0.05
v -0.8 0.7 0.05
v -0.8 0.7 -0.05
v -0.7 0.7 0.05
v -0.7 0.7 -0.05
v -0.7 0.8 0.05
v -0.7 0.8 -0.05
v -0.6 0.8 0.05
v -0.6 0.8 -0.05
v -0.6 0.9 0.05
v -0.6 0.9 -0.05
v 0.3 0.5 -0.05
v 0.3 0.5 -0.15
v 0.3 0.6 -0.05
v 0.3 0.7 -0.05
v 0.3 0.7 -0.15
v 0 0.8 0.05
v 0 0.8 -0.05
v 0 0.9 0.05
v 0 0.9 -0.05
v 0.1 0.7 0.05
v 0.1 0.7 -0.05
v 0.1 0.8 0.05
v 0.1 0.8 -0.05
v 0.2 0.6 0.05
v 0.2 0.6 -0.05
v 0.2 0.7 0.05
v 0.2 0.7 -0.05
v 0.3 0.4 0.05
v 0.3 0.4 -0.05
v 0.3 0.5 -0.05
v 0.3 0.6 0.05
v 0.3 0.6 -0.05
v 0.4 0.6 -0.05
v 0.4 0.6 -0.15
v 0.4 0.7 -0.05
v 0.4 0.7 -0.15
v 0.5 0.5 -0.05
v 0.5 0.5 -0.15
v 0.5 0.6 -0.05
v 0.5 0.6 -0.15
v -0.9 0.4 0.05
v -0.9 0.6 0.05
v -0.8 0.4 0.05
v -0.8 0.6 0.05
v -0.8 0.7 0.05
v -0.7 0.6 0.05
v -0.7 0.7 0.05
v -0.7 0.8 0.05
v -0.6 0.7 0.05
v -0.6 0.8 0.05
v -0.6 0.9 0.05
v -0.5 0.8 0.05
v -0.5 0.9 0.05
v -0.1 0.8 0.05
v -0.1 0.9 0.05
v 0 0.7 0.05
v 0 0.8 0.05
v 0 0.9 0.05
v 0.1 0.5 0.05
v 0.1 0.7 0.05
v 0.1 0.8 0.05
v 0.2 0.4 0.05
v 0.2 0.5 0.05
v 0.2 0.6 0.05
v 0.2 0.7 0.05
v 0.3 0.4 0.05
v 0.3 0.6 0.05
v 0.3 0.5 -0.05
v 0.3 0.6 -0.05
v 0.3 0.7 -0.05
v 0.4 0.6 -0.05
v 0.4 0.7 -0.05
v 0.5 0.5 -0.05
v 0.5 0.6 -0.05
v -0.9 0.4 -0.05
v -0.9 0.6 -0.05
v -0.8 0.4 -0.05
v -0.8 0.6 -0.05
v -0.8 0.7 -0.05
v -0.7 0.6 -0.05
v -0.7 0.7 -0.05
v -0.7 0.8 -0.05
v -0.6 0.7 -0.05
v -0.6 0.8 -0.05
v -0.6 0.9 -0.05
v -0.5 0.8 -0.05
v -0.5 0.9 -0.05
v -0.1 0.8 -0.05
v -0.1 0.9 -0.05
v 0 0.7 -0.05
v 0 0.8 -0.05
v 0 0.9 -0.05
v 0.1 0.5 -0.05
v 0.1 0.7 -0.05
v 0.1 0.8 -0.05
v 0.2 0.4 -0.05
v 0.2 0.5 -0.05
v 0.2 0.6 -0.05
v 0.2 0.7 -0.05
v 0.3 0.4 -0.05
v 0.3 0.5 -0.05
v 0.3 0.6 -0.05
v 0.3 0.5 -0.15
v 0.3 0.7 -0.15
v 0.4 0.6 -0.15
v 0.4 0.7 -0.15
v 0.5 0.5 -0.15
v 0.5 0.6 -0.15
v -0.9 0.4 0.05
v -0.8 0.4 0.05
v 0.2 0.4 0.05
v 0.3 0.4 0.05
v -0.9 0.4 -0.05
v -0.8 0.4 -0.05
v 0.2 0.4 -0.05
v 0.3 0.4 -0.05
v 0.3 0.5 -0.05
v 0.5 0.5 -0.05
v 0.3 0.5 -0.15
v 0.5 0.5 -0.15
v -0.9 0.6 0.05
v -0.8 0.6 0.05
v 0.2 0.6 0.05
v 0.3 0.6 0.05
v -0.9 0.6 -0.05
v -0.8 0.6 -0.05
v 0.2 0.6 -0.05
v 0.3 0.6 -0.05
v 0.4 0.6 -0.05
v 0.5 0.6 -0.05
v 0.4 0.6 -0.15
v 0.5 0.6 -0.15
v -0.8 0.7 0.05
v -0.7 0.7 0.05
v 0.1 0.7 0.05
v 0.2 0.7 0.05
v -0.8 0.7 -0.05
v -0.7 0.7 -0.05
v 0.1 0.7 -0.05
v 0.2 0.7 -0.05
v 0.3 0.7 -0.05
v 0.4 0.7 -0.05
v 0.3 0.7 -0.15
v 0.4 0.7 -0.15
v -0.7 0.8 0.05
v -0.6 0.8 0.05
v 0 0.8 0.05
v 0.1 0.8 0.05
v -0.7 0.8 -0.05
v -0.6 0.8 -0.05
v 0 0.8 -0.05
v 0.1 0.8 -0.05
v -0.6 0.9 0.05
v -0.5 0.9 0.05
v -0.1 0.9 0.05
v 0 0.9 0.05
v -0.6 0.9 -0.05
v -0.5 0.9 -0.05
v -0.1 0.9 -0.05
v 0 0.9 -0.05

# faces
f 3/3/1 2/3/1 1/3/1
f 4/3/1 2/3/1 3/3/1
f 7/3/1 6/3/1 5/3/1
f 8/3/1 6/3/1 7/3/1
f 11/3/1 10/3/1 9/3/1
f 12/3/1 10/3/1 11/3/1
f 15/3/1 14/3/1 13/3/1
f 16/3/1 14/3/1 15/3/1
f 19/1/1 18/1/1 17/1/1
f 20/1/1 18/1/1 19/1/1
f 21/1/1 18/1/1 20/1/1
f 22/1/2 23/1/2 24/1/2
f 24/1/2 23/1/2 25/1/2
f 26/1/2 27/1/2 28/1/2
f 28/1/2 27/1/2 29/1/2
f 30/1/2 31/1/2 32/1/2
f 32/1/2 31/1/2 33/1/2
f 34/1/2 35/1/2 36/1/2
f 34/1/2 36/1/2 37/1/2
f 37/1/2 36/1/2 38/1/2
f 39/1/2 40/1/2 41/1/2
f 41/1/2 40/1/2 42/1/2
f 43/1/2 44/1/2 45/1/2
f 45/1/2 44/1/2 46/1/2
f 49/3/3 48/3/3 47/3/3
f 50/3/3 48/3/3 49/3/3
f 52/2/3 50/2/3 49/2/3
f 52/3/3 51/3/3 50/3/3
f 53/3/3 51/3/3 52/3/3
f 55/2/3 53/2/3 52/2/3
f 55/3/3 54/3/3 53/3/3
f 56/3/3 54/3/3 55/3/3
f 58/2/3 56/2/3 55/2/3
f 58/3/3 57/3/3 56/3/3
f 59/3/3 57/3/3 58/3/3
f 60/2/3 58/2/3 55/2/3
f 60/2/3 59/2/3 58/2/3
f 61/2/3 59/2/3 60/2/3
f 62/2/3 55/2/3 52/2/3
f 62/2/3 60/2/3 55/2/3
f 63/1/3 61/1/3 60/1/3
f 63/2/3 60/2/3 62/2/3
f 64/1/3 61/1/3 63/1/3
f 65/2/3 52/2/3 49/2/3
f 65/2/3 62/2/3 52/2/3
f 66/1/3 63/1/3 62/1/3
f 66/2/3 62/2/3 65/2/3
f 67/1/3 63/1/3 66/1/3
f 68/2/3 65/2/3 49/2/3
f 69/1/3 66/1/3 65/1/3
f 69/2/3 65/2/3 68/2/3
f 70/1/3 66/1/3 69/1/3
f 71/1/3 66/1/3 70/1/3
f 72/1/3 69/1/3 68/1/3
f 72/1/3 70/1/3 69/1/3
f 73/1/3 70/1/3 72/1/3
f 77/1/3 75/1/3 74/1/3
f 77/1/3 76/1/3 75/1/3
f 78/1/3 76/1/3 77/1/3
f 79/1/3 77/1/3 74/1/3
f 80/1/3 77/1/3 79/1/3
f 81/3/4 82/3/4 83/3/4
f 83/3/4 82/3/4 84/3/4
f 83/2/4 84/2/4 86/2/4
f 84/3/4 85/3/4 86/3/4
f 86/3/4 85/3/4 87/3/4
f 86/2/4 87/2/4 89/2/4
f 87/3/4 88/3/4 89/3/4
f 89/3/4 88/3/4 90/3/4
f 89/2/4 90/2/4 92/2/4
f 90/3/4 91/3/4 92/3/4
f 92/3/4 91/3/4 93/3/4
f 89/2/4 92/2/4 94/2/4
f 92/2/4 93/2/4 94/2/4
f 94/2/4 93/2/4 95/2/4
f 86/2/4 89/2/4 96/2/4
f 89/2/4 94/2/4 96/2/4
f 94/1/4 95/1/4 97/1/4
f 96/2/4 94/2/4 97/2/4
f 97/1/4 95/1/4 98/1/4
f 83/2/4 86/2/4 99/2/4
f 86/2/4 96/2/4 99/2/4
f 96/1/4 97/1/4 100/1/4
f 99/2/4 96/2/4 100/2/4
f 100/1/4 97/1/4 101/1/4
f 83/2/4 99/2/4 102/2/4
f 99/1/4 100/1/4 103/1/4
f 102/2/4 99/2/4 103/2/4
f 103/1/4 100/1/4 104/1/4
f 104/1/4 100/1/4 105/1/4
f 102/1/4 103/1/4 106/1/4
f 103/1/4 104/1/4 106/1/4
f 106/1/4 104/1/4 107/1/4
f 107/1/4 104/1/4 108/1/4
f 109/1/4 110/1/4 111/1/4
f 111/1/4 110/1/4 112/1/4
f 109/1/4 111/1/4 113/1/4
f 113/1/4 111/1/4 114/1/4
f 119/3/5 116/3/5 115/3/5
f 120/2/5 117/2/5 116/2/5
f 120/3/5 116/3/5 119/3/5
f 121/1/5 118/1/5 117/1/5
f 121/2/5 117/2/5 120/2/5
f 122/1/5 118/1/5 121/1/5
f 125/1/5 124/1/5 123/1/5
f 126/1/5 124/1/5 125/1/5
f 127/3/6 128/3/6 131/3/6
f 131/3/6 128/3/6 132/3/6
f 129/1/6 130/1/6 133/1/6
f 133/1/6 130/1/6 134/1/6
f 135/1/6 136/1/6 137/1/6
f 137/1/6 136/1/6 138/1/6
f 139/3/6 140/3/6 143/3/6
f 143/3/6 140/3/6 144/3/6
f 141/1/6 142/1/6 145/1/6
f 145/1/6 142/1/6 146/1/6
f 147/1/6 148/1/6 149/1/6
f 149/1/6 148/1/6 150/1/6
f 151/3/6 152/3/6 155/3/6
f 155/3/6 152/3/6 156/3/6
f 153/1/6 154/1/6 157/1/6
f 157/1/6 154/1/6 158/1/6
f 159/3/6 160/3/6 163/3/6
f 160/2/6 161/2/6 164/2/6
f 163/3/6 160/3/6 164/3/6
f 161/1/6 162/1/6 165/1/6
f 164/2/6 161/2/6 165/2/6
f 165/1/6 162/1/6 166/1/6
