# MagicaVoxel @ Ephtracy

# group
o 

# material
mtllib seal-10.mtl
usemtl palette

# normals
vn -1 0 0
vn 1 0 0
vn 0 0 1
vn 0 0 -1
vn 0 -1 0
vn 0 1 0

# texcoords
vt 0.841797 0.5
vt 0.849609 0.5
vt 0.861328 0.5
vt 0.958984 0.5
vt 0.962891 0.5
vt 0.966797 0.5

# verts
v -0.9 0.4 0
v -0.9 0.4 -0.1
v -0.9 0.5 0
v -0.9 0.5 -0.1
v -0.9 0.6 0
v -0.9 0.6 -0.1
v -0.9 0.7 0
v -0.9 0.7 -0.1
v -0.8 -1 0
v -0.8 -1 -0.1
v -0.8 -0.6 0
v -0.8 -0.6 -0.1
v -0.8 -0.5 0
v -0.8 -0.5 -0.1
v -0.8 0.7 0
v -0.8 0.7 -0.1
v -0.8 0.8 0
v -0.8 0.8 -0.1
v -0.7 -1.1 0
v -0.7 -1.1 -0.1
v -0.7 -1 0
v -0.7 -1 -0.1
v -0.7 0.8 0
v -0.7 0.8 -0.1
v -0.7 0.9 0
v -0.7 0.9 -0.1
v -0.6 0.9 0
v -0.6 0.9 -0.1
v -0.6 1 0
v -0.6 1 -0.1
v -0.5 1 0
v -0.5 1 -0.1
v -0.5 1.1 0
v -0.5 1.1 -0.1
v -0.3 -0.6 0
v -0.3 -0.6 -0.1
v -0.3 -0.5 0
v -0.3 -0.5 -0.1
v -0.5 -0.6 0
v -0.5 -0.6 -0.1
v -0.5 -0.5 0
v -0.5 -0.5 -0.1
v 0.2 -1.1 0
v 0.2 -1.1 -0.1
v 0.2 -1 0
v 0.2 -1 -0.1
v 0.2 -0.7 0
v 0.2 -0.7 -0.1
v 0.2 -0.6 0
v 0.2 -0.6 -0.1
v 0.2 -0.5 0
v 0.2 -0.5 -0.1
v 0.2 1 0
v 0.2 1 -0.1
v 0.2 1.1 0
v 0.2 1.1 -0.1
v 0.3 -1 0
v 0.3 -1 -0.1
v 0.3 -0.7 0
v 0.3 -0.7 -0.1
v 0.3 0.4 0
v 0.3 0.4 -0.1
v 0.3 0.5 0
v 0.3 0.5 -0.1
v 0.3 0.6 0
v 0.3 0.6 -0.1
v 0.3 0.9 0
v 0.3 0.9 -0.1
v 0.3 1 0
v 0.3 1 -0.1
v 0.4 0.8 0
v 0.4 0.8 -0.1
v 0.4 0.9 0
v 0.4 0.9 -0.1
v 0.6 0.6 0
v 0.6 0.6 -0.1
v 0.6 0.7 0
v 0.6 0.7 -0.1
v 0.6 0.8 0
v 0.6 0.8 -0.1
v -0.9 0.4 0
v -0.9 0.5 0
v -0.9 0.6 0
v -0.9 0.7 0
v -0.8 -1 0
v -0.8 -0.6 0
v -0.8 -0.5 0
v -0.8 0.6 0
v -0.8 0.7 0
v -0.8 0.8 0
v -0.7 -1.1 0
v -0.7 -1 0
v -0.7 0.7 0
v -0.7 0.8 0
v -0.7 0.9 0
v -0.6 -0.7 0
v -0.6 -0.6 0
v -0.6 0.8 0
v -0.6 0.9 0
v -0.6 1 0
v -0.5 -1 0
v -0.5 -0.9 0
v -0.5 -0.8 0
v -0.5 -0.7 0
v -0.5 -0.6 0
v -0.5 -0.5 0
v -0.5 0.9 0
v -0.5 1 0
v -0.5 1.1 0
v -0.4 -1 0
v -0.4 -0.9 0
v -0.4 -0.8 0
v -0.4 -0.7 0
v -0.4 -0.6 0
v -0.3 -0.7 0
v -0.3 -0.6 0
v -0.3 -0.5 0
v -0.2 -0.7 0
v -0.2 -0.6 0
v -0.2 1 0
v -0.2 1.1 0
v 0 0.8 0
v 0 0.9 0
v 0.1 -1.1 0
v 0.1 -1 0
v 0.1 -0.7 0
v 0.1 -0.6 0
v 0.1 -0.5 0
v 0.1 0.6 0
v 0.1 0.8 0
v 0.1 0.9 0
v 0.1 1 0
v 0.1 1.1 0
v 0.2 -1.1 0
v 0.2 -1 0
v 0.2 -0.7 0
v 0.2 -0.6 0
v 0.2 -0.5 0
v 0.2 0.7 0
v 0.2 0.8 0
v 0.2 0.9 0
v 0.2 1 0
v 0.2 1.1 0
v 0.3 -1 0
v 0.3 -0.7 0
v 0.3 0.4 0
v 0.3 0.5 0
v 0.3 0.6 0
v 0.3 0.7 0
v 0.3 0.8 0
v 0.3 0.9 0
v 0.3 1 0
v 0.4 0.6 0
v 0.4 0.8 0
v 0.4 0.9 0
v 0.5 0.6 0
v 0.5 0.7 0
v 0.6 0.6 0
v 0.6 0.7 0
v 0.6 0.8 0
v -0.9 0.4 -0.1
v -0.9 0.5 -0.1
v -0.9 0.6 -0.1
v -0.9 0.7 -0.1
v -0.8 -1 -0.1
v -0.8 -0.6 -0.1
v -0.8 -0.5 -0.1
v -0.8 0.6 -0.1
v -0.8 0.7 -0.1
v -0.8 0.8 -0.1
v -0.7 -1.1 -0.1
v -0.7 -1 -0.1
v -0.7 0.7 -0.1
v -0.7 0.8 -0.1
v -0.7 0.9 -0.1
v -0.6 -0.7 -0.1
v -0.6 -0.6 -0.1
v -0.6 0.8 -0.1
v -0.6 0.9 -0.1
v -0.6 1 -0.1
v -0.5 -1 -0.1
v -0.5 -0.9 -0.1
v -0.5 -0.8 -0.1
v -0.5 -0.7 -0.1
v -0.5 -0.6 -0.1
v -0.5 -0.5 -0.1
v -0.5 0.9 -0.1
v -0.5 1 -0.1
v -0.5 1.1 -0.1
v -0.4 -1 -0.1
v -0.4 -0.9 -0.1
v -0.4 -0.8 -0.1
v -0.4 -0.7 -0.1
v -0.4 -0.6 -0.1
v -0.3 -0.7 -0.1
v -0.3 -0.6 -0.1
v -0.3 -0.5 -0.1
v -0.2 -0.7 -0.1
v -0.2 -0.6 -0.1
v -0.2 1 -0.1
v -0.2 1.1 -0.1
v 0 0.8 -0.1
v 0 0.9 -0.1
v 0.1 -1.1 -0.1
v 0.1 -1 -0.1
v 0.1 -0.7 -0.1
v 0.1 -0.6 -0.1
v 0.1 -0.5 -0.1
v 0.1 0.6 -0.1
v 0.1 0.8 -0.1
v 0.1 0.9 -0.1
v 0.1 1 -0.1
v 0.1 1.1 -0.1
v 0.2 -1.1 -0.1
v 0.2 -1 -0.1
v 0.2 -0.7 -0.1
v 0.2 -0.6 -0.1
v 0.2 -0.5 -0.1
v 0.2 0.7 -0.1
v 0.2 0.8 -0.1
v 0.2 0.9 -0.1
v 0.2 1 -0.1
v 0.2 1.1 -0.1
v 0.3 -1 -0.1
v 0.3 -0.7 -0.1
v 0.3 0.4 -0.1
v 0.3 0.5 -0.1
v 0.3 0.6 -0.1
v 0.3 0.7 -0.1
v 0.3 0.8 -0.1
v 0.3 0.9 -0.1
v 0.3 1 -0.1
v 0.4 0.6 -0.1
v 0.4 0.8 -0.1
v 0.4 0.9 -0.1
v 0.5 0.6 -0.1
v 0.5 0.7 -0.1
v 0.6 0.6 -0.1
v 0.6 0.7 -0.1
v 0.6 0.8 -0.1
v -0.7 -1.1 0
v 0.1 -1.1 0
v 0.2 -1.1 0
v -0.7 -1.1 -0.1
v 0.1 -1.1 -0.1
v 0.2 -1.1 -0.1
v -0.8 -1 0
v -0.7 -1 0
v 0.2 -1 0
v 0.3 -1 0
v -0.8 -1 -0.1
v -0.7 -1 -0.1
v 0.2 -1 -0.1
v 0.3 -1 -0.1
v -0.9 0.4 0
v 0.3 0.4 0
v -0.9 0.4 -0.1
v 0.3 0.4 -0.1
v 0.3 0.6 0
v 0.4 0.6 0
v 0.5 0.6 0
v 0.6 0.6 0
v 0.3 0.6 -0.1
v 0.4 0.6 -0.1
v 0.5 0.6 -0.1
v 0.6 0.6 -0.1
v 0.2 -0.7 0
v 0.3 -0.7 0
v 0.2 -0.7 -0.1
v 0.3 -0.7 -0.1
v -0.5 -0.6 0
v -0.4 -0.6 0
v -0.3 -0.6 0
v -0.5 -0.6 -0.1
v -0.4 -0.6 -0.1
v -0.3 -0.6 -0.1
v -0.8 -0.5 0
v -0.5 -0.5 0
v -0.3 -0.5 0
v 0.1 -0.5 0
v 0.2 -0.5 0
v -0.8 -0.5 -0.1
v -0.5 -0.5 -0.1
v -0.3 -0.5 -0.1
v 0.1 -0.5 -0.1
v 0.2 -0.5 -0.1
v -0.9 0.7 0
v -0.8 0.7 0
v -0.9 0.7 -0.1
v -0.8 0.7 -0.1
v -0.8 0.8 0
v -0.7 0.8 0
v 0.4 0.8 0
v 0.6 0.8 0
v -0.8 0.8 -0.1
v -0.7 0.8 -0.1
v 0.4 0.8 -0.1
v 0.6 0.8 -0.1
v -0.7 0.9 0
v -0.6 0.9 0
v 0.3 0.9 0
v 0.4 0.9 0
v -0.7 0.9 -0.1
v -0.6 0.9 -0.1
v 0.3 0.9 -0.1
v 0.4 0.9 -0.1
v -0.6 1 0
v -0.5 1 0
v 0.2 1 0
v 0.3 1 0
v -0.6 1 -0.1
v -0.5 1 -0.1
v 0.2 1 -0.1
v 0.3 1 -0.1
v -0.5 1.1 0
v -0.2 1.1 0
v 0.1 1.1 0
v 0.2 1.1 0
v -0.5 1.1 -0.1
v -0.2 1.1 -0.1
v 0.1 1.1 -0.1
v 0.2 1.1 -0.1

# faces
f 3/5/1 2/5/1 1/5/1
f 4/5/1 2/5/1 3/5/1
f 5/4/1 4/4/1 3/4/1
f 6/4/1 4/4/1 5/4/1
f 7/1/1 6/1/1 5/1/1
f 8/1/1 6/1/1 7/1/1
f 11/2/1 10/2/1 9/2/1
f 12/2/1 10/2/1 11/2/1
f 13/4/1 12/4/1 11/4/1
f 14/4/1 12/4/1 13/4/1
f 17/1/1 16/1/1 15/1/1
f 18/1/1 16/1/1 17/1/1
f 21/2/1 20/2/1 19/2/1
f 22/2/1 20/2/1 21/2/1
f 25/1/1 24/1/1 23/1/1
f 26/1/1 24/1/1 25/1/1
f 29/1/1 28/1/1 27/1/1
f 30/1/1 28/1/1 29/1/1
f 33/1/1 32/1/1 31/1/1
f 34/1/1 32/1/1 33/1/1
f 37/4/1 36/4/1 35/4/1
f 38/4/1 36/4/1 37/4/1
f 39/4/2 40/4/2 41/4/2
f 41/4/2 40/4/2 42/4/2
f 43/3/2 44/3/2 45/3/2
f 45/3/2 44/3/2 46/3/2
f 47/3/2 48/3/2 49/3/2
f 49/3/2 48/3/2 50/3/2
f 49/6/2 50/6/2 51/6/2
f 51/6/2 50/6/2 52/6/2
f 53/3/2 54/3/2 55/3/2
f 55/3/2 54/3/2 56/3/2
f 57/3/2 58/3/2 59/3/2
f 59/3/2 58/3/2 60/3/2
f 61/5/2 62/5/2 63/5/2
f 63/5/2 62/5/2 64/5/2
f 63/4/2 64/4/2 65/4/2
f 65/4/2 64/4/2 66/4/2
f 67/3/2 68/3/2 69/3/2
f 69/3/2 68/3/2 70/3/2
f 71/3/2 72/3/2 73/3/2
f 73/3/2 72/3/2 74/3/2
f 75/6/2 76/6/2 77/6/2
f 77/6/2 76/6/2 78/6/2
f 77/4/2 78/4/2 79/4/2
f 79/4/2 78/4/2 80/4/2
f 88/4/3 83/4/3 82/4/3
f 88/1/3 84/1/3 83/1/3
f 89/1/3 84/1/3 88/1/3
f 92/2/3 86/2/3 85/2/3
f 93/1/3 90/1/3 89/1/3
f 93/2/3 89/2/3 88/2/3
f 94/1/3 90/1/3 93/1/3
f 96/2/3 92/2/3 91/2/3
f 96/2/3 86/2/3 92/2/3
f 97/4/3 87/4/3 86/4/3
f 97/2/3 86/2/3 96/2/3
f 98/1/3 95/1/3 94/1/3
f 98/2/3 94/2/3 93/2/3
f 99/1/3 95/1/3 98/1/3
f 101/2/3 96/2/3 91/2/3
f 102/2/3 96/2/3 101/2/3
f 103/2/3 96/2/3 102/2/3
f 104/4/3 97/4/3 96/4/3
f 104/2/3 96/2/3 103/2/3
f 105/4/3 87/4/3 97/4/3
f 105/4/3 97/4/3 104/4/3
f 106/4/3 87/4/3 105/4/3
f 107/1/3 100/1/3 99/1/3
f 107/2/3 99/2/3 98/2/3
f 108/1/3 100/1/3 107/1/3
f 110/2/3 101/2/3 91/2/3
f 110/4/3 102/4/3 101/4/3
f 111/2/3 103/2/3 102/2/3
f 111/4/3 102/4/3 110/4/3
f 112/4/3 104/4/3 103/4/3
f 112/2/3 103/2/3 111/2/3
f 113/1/3 105/1/3 104/1/3
f 113/4/3 104/4/3 112/4/3
f 114/1/3 105/1/3 113/1/3
f 115/2/3 111/2/3 110/2/3
f 115/2/3 112/2/3 111/2/3
f 115/2/3 114/2/3 113/2/3
f 115/2/3 113/2/3 112/2/3
f 116/2/3 114/2/3 115/2/3
f 118/4/3 116/4/3 115/4/3
f 118/4/3 117/4/3 116/4/3
f 118/2/3 115/2/3 110/2/3
f 119/4/3 117/4/3 118/4/3
f 120/1/3 109/1/3 108/1/3
f 120/2/3 108/2/3 107/2/3
f 121/1/3 109/1/3 120/1/3
f 122/2/3 98/2/3 93/2/3
f 122/2/3 107/2/3 98/2/3
f 122/2/3 121/2/3 120/2/3
f 122/2/3 120/2/3 107/2/3
f 123/2/3 121/2/3 122/2/3
f 124/2/3 119/2/3 118/2/3
f 124/2/3 110/2/3 91/2/3
f 124/2/3 118/2/3 110/2/3
f 125/2/3 119/2/3 124/2/3
f 126/2/3 119/2/3 125/2/3
f 127/4/3 117/4/3 119/4/3
f 127/2/3 119/2/3 126/2/3
f 128/4/3 117/4/3 127/4/3
f 129/4/3 88/4/3 82/4/3
f 129/2/3 93/2/3 88/2/3
f 129/2/3 122/2/3 93/2/3
f 130/3/3 123/3/3 122/3/3
f 130/2/3 122/2/3 129/2/3
f 131/2/3 121/2/3 123/2/3
f 131/3/3 123/3/3 130/3/3
f 132/2/3 121/2/3 131/2/3
f 133/2/3 121/2/3 132/2/3
f 134/3/3 125/3/3 124/3/3
f 135/2/3 126/2/3 125/2/3
f 135/3/3 125/3/3 134/3/3
f 136/3/3 127/3/3 126/3/3
f 136/2/3 126/2/3 135/2/3
f 137/6/3 128/6/3 127/6/3
f 137/3/3 127/3/3 136/3/3
f 138/6/3 128/6/3 137/6/3
f 139/3/3 130/3/3 129/3/3
f 140/2/3 131/2/3 130/2/3
f 140/3/3 130/3/3 139/3/3
f 140/2/3 132/2/3 131/2/3
f 141/2/3 132/2/3 140/2/3
f 142/3/3 133/3/3 132/3/3
f 142/2/3 132/2/3 141/2/3
f 143/3/3 133/3/3 142/3/3
f 144/3/3 136/3/3 135/3/3
f 145/3/3 136/3/3 144/3/3
f 146/5/3 82/5/3 81/5/3
f 147/4/3 129/4/3 82/4/3
f 147/5/3 82/5/3 146/5/3
f 148/3/3 139/3/3 129/3/3
f 148/4/3 129/4/3 147/4/3
f 149/2/3 140/2/3 139/2/3
f 149/3/3 139/3/3 148/3/3
f 149/2/3 141/2/3 140/2/3
f 150/2/3 141/2/3 149/2/3
f 151/3/3 142/3/3 141/3/3
f 151/2/3 141/2/3 150/2/3
f 152/3/3 142/3/3 151/3/3
f 153/2/3 150/2/3 149/2/3
f 153/2/3 149/2/3 148/2/3
f 154/3/3 151/3/3 150/3/3
f 154/2/3 150/2/3 153/2/3
f 155/3/3 151/3/3 154/3/3
f 156/4/3 154/4/3 153/4/3
f 157/4/3 154/4/3 156/4/3
f 158/6/3 157/6/3 156/6/3
f 159/4/3 154/4/3 157/4/3
f 159/6/3 157/6/3 158/6/3
f 160/4/3 154/4/3 159/4/3
f 162/4/4 163/4/4 168/4/4
f 163/1/4 164/1/4 168/1/4
f 168/1/4 164/1/4 169/1/4
f 165/2/4 166/2/4 172/2/4
f 169/1/4 170/1/4 173/1/4
f 168/2/4 169/2/4 173/2/4
f 173/1/4 170/1/4 174/1/4
f 171/2/4 172/2/4 176/2/4
f 172/2/4 166/2/4 176/2/4
f 166/4/4 167/4/4 177/4/4
f 176/2/4 166/2/4 177/2/4
f 174/1/4 175/1/4 178/1/4
f 173/2/4 174/2/4 178/2/4
f 178/1/4 175/1/4 179/1/4
f 171/2/4 176/2/4 181/2/4
f 181/2/4 176/2/4 182/2/4
f 182/2/4 176/2/4 183/2/4
f 176/4/4 177/4/4 184/4/4
f 183/2/4 176/2/4 184/2/4
f 177/4/4 167/4/4 185/4/4
f 184/4/4 177/4/4 185/4/4
f 185/4/4 167/4/4 186/4/4
f 179/1/4 180/1/4 187/1/4
f 178/2/4 179/2/4 187/2/4
f 187/1/4 180/1/4 188/1/4
f 171/2/4 181/2/4 190/2/4
f 181/4/4 182/4/4 190/4/4
f 182/2/4 183/2/4 191/2/4
f 190/4/4 182/4/4 191/4/4
f 183/4/4 184/4/4 192/4/4
f 191/2/4 183/2/4 192/2/4
f 184/1/4 185/1/4 193/1/4
f 192/4/4 184/4/4 193/4/4
f 193/1/4 185/1/4 194/1/4
f 190/2/4 191/2/4 195/2/4
f 191/2/4 192/2/4 195/2/4
f 193/2/4 194/2/4 195/2/4
f 192/2/4 193/2/4 195/2/4
f 195/2/4 194/2/4 196/2/4
f 195/4/4 196/4/4 198/4/4
f 196/4/4 197/4/4 198/4/4
f 190/2/4 195/2/4 198/2/4
f 198/4/4 197/4/4 199/4/4
f 188/1/4 189/1/4 200/1/4
f 187/2/4 188/2/4 200/2/4
f 200/1/4 189/1/4 201/1/4
f 173/2/4 178/2/4 202/2/4
f 178/2/4 187/2/4 202/2/4
f 200/2/4 201/2/4 202/2/4
f 187/2/4 200/2/4 202/2/4
f 202/2/4 201/2/4 203/2/4
f 198/2/4 199/2/4 204/2/4
f 171/2/4 190/2/4 204/2/4
f 190/2/4 198/2/4 204/2/4
f 204/2/4 199/2/4 205/2/4
f 205/2/4 199/2/4 206/2/4
f 199/4/4 197/4/4 207/4/4
f 206/2/4 199/2/4 207/2/4
f 207/4/4 197/4/4 208/4/4
f 162/4/4 168/4/4 209/4/4
f 168/2/4 173/2/4 209/2/4
f 173/2/4 202/2/4 209/2/4
f 202/3/4 203/3/4 210/3/4
f 209/2/4 202/2/4 210/2/4
f 203/2/4 201/2/4 211/2/4
f 210/3/4 203/3/4 211/3/4
f 211/2/4 201/2/4 212/2/4
f 212/2/4 201/2/4 213/2/4
f 204/3/4 205/3/4 214/3/4
f 205/2/4 206/2/4 215/2/4
f 214/3/4 205/3/4 215/3/4
f 206/3/4 207/3/4 216/3/4
f 215/2/4 206/2/4 216/2/4
f 207/6/4 208/6/4 217/6/4
f 216/3/4 207/3/4 217/3/4
f 217/6/4 208/6/4 218/6/4
f 209/3/4 210/3/4 219/3/4
f 210/2/4 211/2/4 220/2/4
f 219/3/4 210/3/4 220/3/4
f 211/2/4 212/2/4 220/2/4
f 220/2/4 212/2/4 221/2/4
f 212/3/4 213/3/4 222/3/4
f 221/2/4 212/2/4 222/2/4
f 222/3/4 213/3/4 223/3/4
f 215/3/4 216/3/4 224/3/4
f 224/3/4 216/3/4 225/3/4
f 161/5/4 162/5/4 226/5/4
f 162/4/4 209/4/4 227/4/4
f 226/5/4 162/5/4 227/5/4
f 209/3/4 219/3/4 228/3/4
f 227/4/4 209/4/4 228/4/4
f 219/2/4 220/2/4 229/2/4
f 228/3/4 219/3/4 229/3/4
f 220/2/4 221/2/4 229/2/4
f 229/2/4 221/2/4 230/2/4
f 221/3/4 222/3/4 231/3/4
f 230/2/4 221/2/4 231/2/4
f 231/3/4 222/3/4 232/3/4
f 229/2/4 230/2/4 233/2/4
f 228/2/4 229/2/4 233/2/4
f 230/3/4 231/3/4 234/3/4
f 233/2/4 230/2/4 234/2/4
f 234/3/4 231/3/4 235/3/4
f 233/4/4 234/4/4 236/4/4
f 236/4/4 234/4/4 237/4/4
f 236/6/4 237/6/4 238/6/4
f 237/4/4 234/4/4 239/4/4
f 238/6/4 237/6/4 239/6/4
f 239/4/4 234/4/4 240/4/4
f 244/2/5 242/2/5 241/2/5
f 245/3/5 243/3/5 242/3/5
f 245/2/5 242/2/5 244/2/5
f 246/3/5 243/3/5 245/3/5
f 251/2/5 248/2/5 247/2/5
f 252/2/5 248/2/5 251/2/5
f 253/3/5 250/3/5 249/3/5
f 254/3/5 250/3/5 253/3/5
f 257/5/5 256/5/5 255/5/5
f 258/5/5 256/5/5 257/5/5
f 263/2/5 260/2/5 259/2/5
f 264/4/5 261/4/5 260/4/5
f 264/2/5 260/2/5 263/2/5
f 265/6/5 262/6/5 261/6/5
f 265/4/5 261/4/5 264/4/5
f 266/6/5 262/6/5 265/6/5
f 267/3/6 268/3/6 269/3/6
f 269/3/6 268/3/6 270/3/6
f 271/1/6 272/1/6 274/1/6
f 272/2/6 273/2/6 275/2/6
f 274/1/6 272/1/6 275/1/6
f 275/2/6 273/2/6 276/2/6
f 277/4/6 278/4/6 282/4/6
f 282/4/6 278/4/6 283/4/6
f 279/4/6 280/4/6 284/4/6
f 280/6/6 281/6/6 285/6/6
f 284/4/6 280/4/6 285/4/6
f 285/6/6 281/6/6 286/6/6
f 287/1/6 288/1/6 289/1/6
f 289/1/6 288/1/6 290/1/6
f 291/1/6 292/1/6 295/1/6
f 295/1/6 292/1/6 296/1/6
f 293/4/6 294/4/6 297/4/6
f 297/4/6 294/4/6 298/4/6
f 299/1/6 300/1/6 303/1/6
f 303/1/6 300/1/6 304/1/6
f 301/3/6 302/3/6 305/3/6
f 305/3/6 302/3/6 306/3/6
f 307/1/6 308/1/6 311/1/6
f 311/1/6 308/1/6 312/1/6
f 309/3/6 310/3/6 313/3/6
f 313/3/6 310/3/6 314/3/6
f 315/1/6 316/1/6 319/1/6
f 316/2/6 317/2/6 320/2/6
f 319/1/6 316/1/6 320/1/6
f 317/3/6 318/3/6 321/3/6
f 320/2/6 317/2/6 321/2/6
f 321/3/6 318/3/6 322/3/6
