# MagicaVoxel @ Ephtracy

# group
o 

# material
mtllib seal-9.mtl
usemtl palette

# normals
vn -1 0 0
vn 1 0 0
vn 0 0 1
vn 0 0 -1
vn 0 -1 0
vn 0 1 0

# texcoords
vt 0.208984 0.5
vt 0.373047 0.5
vt 0.849609 0.5
vt 0.982422 0.5

# verts
v -1.1 0.5 0.1
v -1.1 0.5 0
v -1.1 0.6 0.2
v -1.1 0.6 0.1
v -1.1 0.7 0.2
v -1.1 0.7 0
v -1 0.4 0.1
v -1 0.4 0
v -1 0.5 0.2
v -1 0.5 0.1
v -1 0.5 0
v -1 0.6 0.2
v -1 0.6 0.1
v -0.9 0.6 0
v -0.9 0.6 -0.1
v -0.9 0.7 0
v -0.9 0.7 -0.1
v -0.8 0.7 0.1
v -0.8 0.7 -0.1
v -0.8 1 0.1
v -0.8 1 -0.1
v -0.7 -0.6 0.1
v -0.7 -0.6 0
v -0.7 -0.5 0.1
v -0.7 -0.5 0
v -0.7 1 0.1
v -0.7 1 -0.1
v -0.7 1.1 0.1
v -0.7 1.1 -0.1
v -0.6 -0.7 0.1
v -0.6 -0.7 0
v -0.6 -0.6 0.1
v -0.6 -0.6 0
v -0.6 0.7 0.2
v -0.6 0.7 0.1
v -0.6 0.8 0.2
v -0.6 0.8 0.1
v -0.6 1.1 0.1
v -0.6 1.1 -0.1
v -0.6 1.2 0.1
v -0.6 1.2 -0.1
v -0.5 -0.8 0.1
v -0.5 -0.8 0
v -0.5 -0.7 0.1
v -0.5 -0.7 0
v -0.5 0.6 0.2
v -0.5 0.6 0.1
v -0.5 0.7 0.2
v -0.5 0.7 0.1
v -0.3 1 0.1
v -0.3 1 0
v -0.3 1.1 0
v -0.3 1.1 -0.1
v -0.3 1.2 0.1
v -0.3 1.2 -0.1
v 0 0.6 0.2
v 0 0.6 0.1
v 0 0.7 0.2
v 0 0.7 0.1
v 0.2 0.4 0
v 0.2 0.4 -0.1
v 0.2 0.5 0
v 0.2 0.5 -0.1
v 0.3 0.5 0
v 0.3 0.5 -0.1
v 0.3 0.6 0
v 0.3 0.6 -0.1
v -0.9 0.6 0.2
v -0.9 0.6 0.1
v -0.9 0.7 0.2
v -0.9 0.7 0.1
v -0.5 1.1 0.1
v -0.5 1.1 0
v -0.5 1.2 0.1
v -0.5 1.2 0
v -0.4 -0.8 0.1
v -0.4 -0.8 0
v -0.4 -0.7 0.1
v -0.4 -0.7 0
v -0.4 0.6 0.2
v -0.4 0.6 0.1
v -0.4 0.7 0.2
v -0.4 0.7 0.1
v -0.4 1 0.1
v -0.4 1 0
v -0.4 1.1 0.1
v -0.4 1.1 0
v -0.4 1.1 -0.1
v -0.4 1.2 0
v -0.4 1.2 -0.1
v -0.3 -0.7 0.1
v -0.3 -0.7 0
v -0.3 -0.6 0.1
v -0.3 -0.6 0
v -0.3 0.7 0.2
v -0.3 0.7 0.1
v -0.3 0.8 0.2
v -0.3 0.8 0.1
v -0.2 1.1 0.1
v -0.2 1.1 0
v -0.2 1.2 0.1
v -0.2 1.2 0
v -0.1 -0.6 0.1
v -0.1 -0.6 0
v -0.1 -0.5 0.1
v -0.1 -0.5 0
v -0.1 1 0.1
v -0.1 1 0
v -0.1 1.1 0.1
v -0.1 1.1 0
v -0.1 1.1 -0.1
v -0.1 1.2 0
v -0.1 1.2 -0.1
v 0 0.7 0.1
v 0 0.7 0
v 0 1 0.1
v 0 1 0
v 0 1 -0.1
v 0 1.1 0
v 0 1.1 -0.1
v 0.1 0.7 0
v 0.1 0.7 -0.1
v 0.1 1 0
v 0.1 1 -0.1
v 0.2 0.4 0.1
v 0.2 0.4 0
v 0.2 0.5 0.1
v 0.2 0.5 0
v 0.3 0.5 0.2
v 0.3 0.5 0.1
v 0.3 0.5 0
v 0.3 0.6 0
v 0.3 0.7 0.2
v 0.3 0.7 0.1
v 0.3 0.7 0
v 0.4 0.4 0
v 0.4 0.4 -0.1
v 0.4 0.5 0
v 0.4 0.5 -0.1
v 0.5 0.5 0
v 0.5 0.5 -0.1
v 0.5 0.7 0
v 0.5 0.7 -0.1
v -1.1 0.6 0.2
v -1.1 0.7 0.2
v -1 0.5 0.2
v -1 0.6 0.2
v -0.9 0.6 0.2
v -0.9 0.7 0.2
v -0.6 0.7 0.2
v -0.6 0.8 0.2
v -0.5 0.6 0.2
v -0.5 0.7 0.2
v -0.4 0.6 0.2
v -0.4 0.7 0.2
v -0.3 0.7 0.2
v -0.3 0.8 0.2
v 0 0.6 0.2
v 0 0.7 0.2
v 0.3 0.5 0.2
v 0.3 0.7 0.2
v -1.1 0.5 0.1
v -1.1 0.6 0.1
v -1 0.4 0.1
v -1 0.5 0.1
v -1 0.6 0.1
v -0.9 0.6 0.1
v -0.9 0.7 0.1
v -0.8 0.7 0.1
v -0.8 1 0.1
v -0.7 -0.6 0.1
v -0.7 -0.5 0.1
v -0.7 1 0.1
v -0.7 1.1 0.1
v -0.6 -0.7 0.1
v -0.6 -0.6 0.1
v -0.6 0.7 0.1
v -0.6 0.8 0.1
v -0.6 1.1 0.1
v -0.6 1.2 0.1
v -0.5 -0.8 0.1
v -0.5 -0.7 0.1
v -0.5 0.6 0.1
v -0.5 0.7 0.1
v -0.5 1.1 0.1
v -0.5 1.2 0.1
v -0.4 -0.8 0.1
v -0.4 -0.7 0.1
v -0.4 0.6 0.1
v -0.4 0.7 0.1
v -0.4 1 0.1
v -0.4 1.1 0.1
v -0.3 -0.7 0.1
v -0.3 -0.6 0.1
v -0.3 0.7 0.1
v -0.3 0.8 0.1
v -0.3 1 0.1
v -0.3 1.2 0.1
v -0.2 1.1 0.1
v -0.2 1.2 0.1
v -0.1 -0.6 0.1
v -0.1 -0.5 0.1
v -0.1 1 0.1
v -0.1 1.1 0.1
v 0 0.6 0.1
v 0 0.7 0.1
v 0 1 0.1
v 0.2 0.4 0.1
v 0.2 0.5 0.1
v -0.5 1.1 0
v -0.5 1.2 0
v -0.4 1 0
v -0.4 1.1 0
v -0.4 1.2 0
v -0.3 1 0
v -0.3 1.1 0
v -0.2 1.1 0
v -0.2 1.2 0
v -0.1 1 0
v -0.1 1.1 0
v -0.1 1.2 0
v 0 0.7 0
v 0 1 0
v 0 1.1 0
v 0.1 0.7 0
v 0.1 1 0
v 0.2 0.4 0
v 0.2 0.5 0
v 0.3 0.5 0
v 0.3 0.6 0
v 0.3 0.7 0
v 0.4 0.4 0
v 0.4 0.5 0
v 0.4 0.6 0
v 0.4 0.7 0
v 0.5 0.5 0
v 0.5 0.7 0
v -1.1 0.5 0
v -1.1 0.7 0
v -1 0.4 0
v -1 0.5 0
v -0.9 0.6 0
v -0.9 0.7 0
v -0.7 -0.6 0
v -0.7 -0.5 0
v -0.6 -0.7 0
v -0.6 -0.6 0
v -0.5 -0.8 0
v -0.5 -0.7 0
v -0.4 -0.8 0
v -0.4 -0.7 0
v -0.3 -0.7 0
v -0.3 -0.6 0
v -0.1 -0.6 0
v -0.1 -0.5 0
v 0.1 0.5 0
v 0.1 0.6 0
v 0.2 0.4 0
v 0.2 0.5 0
v 0.2 0.6 0
v 0.3 0.5 0
v 0.3 0.6 0
v -0.9 0.6 -0.1
v -0.9 0.7 -0.1
v -0.8 0.7 -0.1
v -0.8 1 -0.1
v -0.7 1 -0.1
v -0.7 1.1 -0.1
v -0.6 1.1 -0.1
v -0.6 1.2 -0.1
v -0.5 1.1 -0.1
v -0.5 1.2 -0.1
v -0.4 1 -0.1
v -0.4 1.1 -0.1
v -0.4 1.2 -0.1
v -0.3 1 -0.1
v -0.3 1.1 -0.1
v -0.3 1.2 -0.1
v -0.2 1.1 -0.1
v -0.2 1.2 -0.1
v -0.1 1 -0.1
v -0.1 1.1 -0.1
v -0.1 1.2 -0.1
v 0 0.7 -0.1
v 0 1 -0.1
v 0 1.1 -0.1
v 0.1 0.7 -0.1
v 0.1 1 -0.1
v 0.2 0.4 -0.1
v 0.2 0.5 -0.1
v 0.2 0.6 -0.1
v 0.2 0.7 -0.1
v 0.3 0.5 -0.1
v 0.3 0.6 -0.1
v 0.4 0.4 -0.1
v 0.4 0.5 -0.1
v 0.4 0.6 -0.1
v 0.4 0.7 -0.1
v 0.5 0.5 -0.1
v 0.5 0.7 -0.1
v -0.5 -0.8 0.1
v -0.4 -0.8 0.1
v -0.5 -0.8 0
v -0.4 -0.8 0
v -0.6 -0.7 0.1
v -0.5 -0.7 0.1
v -0.4 -0.7 0.1
v -0.3 -0.7 0.1
v -0.6 -0.7 0
v -0.5 -0.7 0
v -0.4 -0.7 0
v -0.3 -0.7 0
v -0.7 -0.6 0.1
v -0.6 -0.6 0.1
v -0.3 -0.6 0.1
v -0.1 -0.6 0.1
v -0.7 -0.6 0
v -0.6 -0.6 0
v -0.3 -0.6 0
v -0.1 -0.6 0
v -1 0.4 0.1
v 0.2 0.4 0.1
v -1 0.4 0
v 0.2 0.4 0
v 0.4 0.4 0
v 0.2 0.4 -0.1
v 0.4 0.4 -0.1
v -1 0.5 0.2
v 0.3 0.5 0.2
v -1.1 0.5 0.1
v -1 0.5 0.1
v 0.2 0.5 0.1
v 0.3 0.5 0.1
v -1.1 0.5 0
v -1 0.5 0
v 0.2 0.5 0
v 0.3 0.5 0
v 0.4 0.5 0
v 0.5 0.5 0
v 0.4 0.5 -0.1
v 0.5 0.5 -0.1
v -1.1 0.6 0.2
v -1 0.6 0.2
v -1.1 0.6 0.1
v -1 0.6 0.1
v -0.9 0.6 0
v 0.1 0.6 0
v 0.2 0.6 0
v 0.3 0.6 0
v -0.9 0.6 -0.1
v 0.2 0.6 -0.1
v 0.3 0.6 -0.1
v -0.6 0.7 0.2
v -0.5 0.7 0.2
v -0.4 0.7 0.2
v -0.3 0.7 0.2
v -0.6 0.7 0.1
v -0.5 0.7 0.1
v -0.4 0.7 0.1
v -0.3 0.7 0.1
v -0.7 -0.5 0.1
v -0.1 -0.5 0.1
v -0.7 -0.5 0
v -0.1 -0.5 0
v 0.2 0.5 0
v 0.3 0.5 0
v 0.2 0.5 -0.1
v 0.3 0.5 -0.1
v -0.9 0.6 0.2
v -0.5 0.6 0.2
v -0.4 0.6 0.2
v 0 0.6 0.2
v -0.9 0.6 0.1
v -0.5 0.6 0.1
v -0.4 0.6 0.1
v 0 0.6 0.1
v -1.1 0.7 0.2
v -0.9 0.7 0.2
v 0 0.7 0.2
v 0.3 0.7 0.2
v -0.9 0.7 0.1
v -0.8 0.7 0.1
v 0 0.7 0.1
v 0.2 0.7 0.1
v 0.3 0.7 0.1
v -1.1 0.7 0
v -0.9 0.7 0
v 0 0.7 0
v 0.1 0.7 0
v 0.2 0.7 0
v 0.3 0.7 0
v 0.4 0.7 0
v 0.5 0.7 0
v -0.9 0.7 -0.1
v -0.8 0.7 -0.1
v 0.1 0.7 -0.1
v 0.2 0.7 -0.1
v 0.4 0.7 -0.1
v 0.5 0.7 -0.1
v -0.6 0.8 0.2
v -0.3 0.8 0.2
v -0.6 0.8 0.1
v -0.3 0.8 0.1
v -0.8 1 0.1
v -0.7 1 0.1
v -0.4 1 0.1
v -0.3 1 0.1
v -0.1 1 0.1
v 0 1 0.1
v -0.4 1 0
v -0.3 1 0
v -0.1 1 0
v 0 1 0
v 0.1 1 0
v -0.8 1 -0.1
v -0.7 1 -0.1
v 0 1 -0.1
v 0.1 1 -0.1
v -0.7 1.1 0.1
v -0.6 1.1 0.1
v -0.5 1.1 0.1
v -0.4 1.1 0.1
v -0.2 1.1 0.1
v -0.1 1.1 0.1
v -0.5 1.1 0
v -0.4 1.1 0
v -0.3 1.1 0
v -0.2 1.1 0
v -0.1 1.1 0
v 0 1.1 0
v -0.7 1.1 -0.1
v -0.6 1.1 -0.1
v -0.4 1.1 -0.1
v -0.3 1.1 -0.1
v -0.1 1.1 -0.1
v 0 1.1 -0.1
v -0.6 1.2 0.1
v -0.5 1.2 0.1
v -0.3 1.2 0.1
v -0.2 1.2 0.1
v -0.5 1.2 0
v -0.4 1.2 0
v -0.2 1.2 0
v -0.1 1.2 0
v -0.6 1.2 -0.1
v -0.5 1.2 -0.1
v -0.4 1.2 -0.1
v -0.3 1.2 -0.1
v -0.2 1.2 -0.1
v -0.1 1.2 -0.1

# faces
f 4/1/1 2/1/1 1/1/1
f 5/1/1 4/1/1 3/1/1
f 6/1/1 2/1/1 4/1/1
f 6/1/1 4/1/1 5/1/1
f 10/2/1 8/2/1 7/2/1
f 11/2/1 8/2/1 10/2/1
f 12/1/1 10/1/1 9/1/1
f 13/1/1 10/1/1 12/1/1
f 16/2/1 15/2/1 14/2/1
f 17/2/1 15/2/1 16/2/1
f 20/1/1 19/1/1 18/1/1
f 21/1/1 19/1/1 20/1/1
f 24/3/1 23/3/1 22/3/1
f 25/3/1 23/3/1 24/3/1
f 28/1/1 27/1/1 26/1/1
f 29/1/1 27/1/1 28/1/1
f 32/3/1 31/3/1 30/3/1
f 33/3/1 31/3/1 32/3/1
f 36/4/1 35/4/1 34/4/1
f 37/4/1 35/4/1 36/4/1
f 40/1/1 39/1/1 38/1/1
f 41/1/1 39/1/1 40/1/1
f 44/3/1 43/3/1 42/3/1
f 45/3/1 43/3/1 44/3/1
f 48/4/1 47/4/1 46/4/1
f 49/4/1 47/4/1 48/4/1
f 52/1/1 51/1/1 50/1/1
f 54/1/1 52/1/1 50/1/1
f 54/1/1 53/1/1 52/1/1
f 55/1/1 53/1/1 54/1/1
f 58/1/1 57/1/1 56/1/1
f 59/1/1 57/1/1 58/1/1
f 62/2/1 61/2/1 60/2/1
f 63/2/1 61/2/1 62/2/1
f 66/2/1 65/2/1 64/2/1
f 67/2/1 65/2/1 66/2/1
f 68/1/2 69/1/2 70/1/2
f 70/1/2 69/1/2 71/1/2
f 72/1/2 73/1/2 74/1/2
f 74/1/2 73/1/2 75/1/2
f 76/3/2 77/3/2 78/3/2
f 78/3/2 77/3/2 79/3/2
f 80/4/2 81/4/2 82/4/2
f 82/4/2 81/4/2 83/4/2
f 84/1/2 85/1/2 86/1/2
f 86/1/2 85/1/2 87/1/2
f 87/2/2 88/2/2 89/2/2
f 89/2/2 88/2/2 90/2/2
f 91/3/2 92/3/2 93/3/2
f 93/3/2 92/3/2 94/3/2
f 95/4/2 96/4/2 97/4/2
f 97/4/2 96/4/2 98/4/2
f 99/1/2 100/1/2 101/1/2
f 101/1/2 100/1/2 102/1/2
f 103/3/2 104/3/2 105/3/2
f 105/3/2 104/3/2 106/3/2
f 107/1/2 108/1/2 109/1/2
f 109/1/2 108/1/2 110/1/2
f 110/2/2 111/2/2 112/2/2
f 112/2/2 111/2/2 113/2/2
f 114/1/2 115/1/2 116/1/2
f 116/1/2 115/1/2 117/1/2
f 117/2/2 118/2/2 119/2/2
f 119/2/2 118/2/2 120/2/2
f 121/2/2 122/2/2 123/2/2
f 123/2/2 122/2/2 124/2/2
f 125/2/2 126/2/2 127/2/2
f 127/2/2 126/2/2 128/2/2
f 130/2/2 131/2/2 132/2/2
f 129/1/2 130/1/2 133/1/2
f 130/2/2 132/2/2 134/2/2
f 133/1/2 130/1/2 134/1/2
f 134/2/2 132/2/2 135/2/2
f 136/2/2 137/2/2 138/2/2
f 138/2/2 137/2/2 139/2/2
f 140/2/2 141/2/2 142/2/2
f 142/2/2 141/2/2 143/2/2
f 147/1/3 145/1/3 144/1/3
f 148/1/3 145/1/3 147/1/3
f 148/1/3 147/1/3 146/1/3
f 149/1/3 145/1/3 148/1/3
f 152/1/3 148/1/3 146/1/3
f 153/4/3 151/4/3 150/4/3
f 154/1/3 152/1/3 146/1/3
f 154/4/3 153/4/3 152/4/3
f 155/4/3 151/4/3 153/4/3
f 155/4/3 153/4/3 154/4/3
f 156/4/3 151/4/3 155/4/3
f 157/4/3 151/4/3 156/4/3
f 158/1/3 154/1/3 146/1/3
f 160/1/3 158/1/3 146/1/3
f 160/1/3 159/1/3 158/1/3
f 161/1/3 159/1/3 160/1/3
f 165/1/3 163/1/3 162/1/3
f 166/1/3 163/1/3 165/1/3
f 169/2/3 168/2/3 167/2/3
f 173/1/3 170/1/3 169/1/3
f 176/3/3 172/3/3 171/3/3
f 177/2/3 169/2/3 167/2/3
f 177/1/3 174/1/3 173/1/3
f 177/1/3 173/1/3 169/1/3
f 178/1/3 174/1/3 177/1/3
f 179/1/3 174/1/3 178/1/3
f 182/3/3 176/3/3 175/3/3
f 183/2/3 177/2/3 167/2/3
f 184/2/3 177/2/3 183/2/3
f 185/1/3 179/1/3 178/1/3
f 185/1/3 180/1/3 179/1/3
f 186/1/3 180/1/3 185/1/3
f 187/3/3 182/3/3 181/3/3
f 188/3/3 176/3/3 182/3/3
f 188/3/3 182/3/3 187/3/3
f 191/1/3 185/1/3 178/1/3
f 192/1/3 185/1/3 191/1/3
f 193/3/3 176/3/3 188/3/3
f 194/3/3 172/3/3 176/3/3
f 194/3/3 176/3/3 193/3/3
f 195/2/3 190/2/3 189/2/3
f 196/1/3 191/1/3 178/1/3
f 197/1/3 191/1/3 196/1/3
f 199/1/3 197/1/3 196/1/3
f 199/1/3 198/1/3 197/1/3
f 199/1/3 196/1/3 195/1/3
f 200/1/3 198/1/3 199/1/3
f 201/3/3 172/3/3 194/3/3
f 202/3/3 172/3/3 201/3/3
f 203/1/3 199/1/3 195/1/3
f 204/1/3 199/1/3 203/1/3
f 205/2/3 195/2/3 189/2/3
f 206/1/3 203/1/3 195/1/3
f 206/2/3 195/2/3 205/2/3
f 207/1/3 203/1/3 206/1/3
f 208/2/3 165/2/3 164/2/3
f 209/2/3 165/2/3 208/2/3
f 213/2/3 211/2/3 210/2/3
f 214/2/3 211/2/3 213/2/3
f 215/2/3 213/2/3 212/2/3
f 216/2/3 213/2/3 215/2/3
f 220/2/3 218/2/3 217/2/3
f 221/2/3 218/2/3 220/2/3
f 223/2/3 220/2/3 219/2/3
f 224/2/3 220/2/3 223/2/3
f 225/2/3 223/2/3 222/2/3
f 226/2/3 223/2/3 225/2/3
f 229/2/3 228/2/3 227/2/3
f 232/2/3 229/2/3 227/2/3
f 232/2/3 230/2/3 229/2/3
f 233/2/3 230/2/3 232/2/3
f 234/1/3 231/1/3 230/1/3
f 234/2/3 230/2/3 233/2/3
f 235/1/3 231/1/3 234/1/3
f 236/2/3 234/2/3 233/2/3
f 236/2/3 235/2/3 234/2/3
f 237/2/3 235/2/3 236/2/3
f 238/1/4 239/1/4 241/1/4
f 241/1/4 239/1/4 242/1/4
f 242/1/4 239/1/4 243/1/4
f 244/3/4 245/3/4 247/3/4
f 246/3/4 247/3/4 249/3/4
f 248/3/4 249/3/4 250/3/4
f 249/3/4 247/3/4 251/3/4
f 250/3/4 249/3/4 251/3/4
f 251/3/4 247/3/4 252/3/4
f 247/3/4 245/3/4 253/3/4
f 252/3/4 247/3/4 253/3/4
f 253/3/4 245/3/4 254/3/4
f 254/3/4 245/3/4 255/3/4
f 240/2/4 241/2/4 256/2/4
f 241/1/4 242/1/4 256/1/4
f 256/1/4 242/1/4 257/1/4
f 240/2/4 256/2/4 258/2/4
f 256/2/4 257/2/4 258/2/4
f 258/2/4 257/2/4 259/2/4
f 259/2/4 257/2/4 260/2/4
f 259/2/4 260/2/4 261/2/4
f 261/2/4 260/2/4 262/2/4
f 263/2/4 264/2/4 265/2/4
f 265/1/4 266/1/4 267/1/4
f 267/1/4 268/1/4 269/1/4
f 267/1/4 269/1/4 271/1/4
f 269/1/4 270/1/4 271/1/4
f 271/1/4 270/1/4 272/1/4
f 265/1/4 267/1/4 273/1/4
f 267/1/4 271/1/4 273/1/4
f 271/2/4 272/2/4 274/2/4
f 273/1/4 271/1/4 274/1/4
f 274/2/4 272/2/4 275/2/4
f 265/1/4 273/1/4 276/1/4
f 273/2/4 274/2/4 276/2/4
f 276/2/4 274/2/4 277/2/4
f 276/1/4 277/1/4 279/1/4
f 277/1/4 278/1/4 279/1/4
f 279/1/4 278/1/4 280/1/4
f 265/1/4 276/1/4 281/1/4
f 276/1/4 279/1/4 281/1/4
f 279/2/4 280/2/4 282/2/4
f 281/1/4 279/1/4 282/1/4
f 282/2/4 280/2/4 283/2/4
f 263/2/4 265/2/4 284/2/4
f 265/1/4 281/1/4 284/1/4
f 281/2/4 282/2/4 285/2/4
f 284/1/4 281/1/4 285/1/4
f 285/2/4 282/2/4 286/2/4
f 263/2/4 284/2/4 287/2/4
f 284/2/4 285/2/4 287/2/4
f 287/2/4 285/2/4 288/2/4
f 263/2/4 287/2/4 291/2/4
f 291/2/4 287/2/4 292/2/4
f 289/2/4 290/2/4 293/2/4
f 291/1/4 292/1/4 294/1/4
f 289/2/4 293/2/4 295/2/4
f 293/2/4 294/2/4 295/2/4
f 295/2/4 294/2/4 296/2/4
f 294/1/4 292/1/4 297/1/4
f 296/2/4 294/2/4 297/2/4
f 297/1/4 292/1/4 298/1/4
f 296/2/4 297/2/4 299/2/4
f 297/2/4 298/2/4 299/2/4
f 299/2/4 298/2/4 300/2/4
f 303/3/5 302/3/5 301/3/5
f 304/3/5 302/3/5 303/3/5
f 309/3/5 306/3/5 305/3/5
f 310/3/5 306/3/5 309/3/5
f 311/3/5 308/3/5 307/3/5
f 312/3/5 308/3/5 311/3/5
f 317/3/5 314/3/5 313/3/5
f 318/3/5 314/3/5 317/3/5
f 319/3/5 316/3/5 315/3/5
f 320/3/5 316/3/5 319/3/5
f 323/2/5 322/2/5 321/2/5
f 324/2/5 322/2/5 323/2/5
f 326/2/5 325/2/5 324/2/5
f 327/2/5 325/2/5 326/2/5
f 331/1/5 329/1/5 328/1/5
f 332/1/5 329/1/5 331/1/5
f 333/1/5 329/1/5 332/1/5
f 334/1/5 331/1/5 330/1/5
f 335/1/5 331/1/5 334/1/5
f 336/2/5 333/2/5 332/2/5
f 337/2/5 333/2/5 336/2/5
f 340/2/5 339/2/5 338/2/5
f 341/2/5 339/2/5 340/2/5
f 344/1/5 343/1/5 342/1/5
f 345/1/5 343/1/5 344/1/5
f 350/2/5 347/2/5 346/2/5
f 350/2/5 348/2/5 347/2/5
f 351/1/5 349/1/5 348/1/5
f 351/2/5 348/2/5 350/2/5
f 352/1/5 349/1/5 351/1/5
f 357/4/5 354/4/5 353/4/5
f 358/4/5 354/4/5 357/4/5
f 359/4/5 356/4/5 355/4/5
f 360/4/5 356/4/5 359/4/5
f 361/3/6 362/3/6 363/3/6
f 363/3/6 362/3/6 364/3/6
f 365/2/6 366/2/6 367/2/6
f 367/2/6 366/2/6 368/2/6
f 369/1/6 370/1/6 373/1/6
f 373/1/6 370/1/6 374/1/6
f 371/1/6 372/1/6 375/1/6
f 375/1/6 372/1/6 376/1/6
f 377/1/6 378/1/6 381/1/6
f 379/1/6 380/1/6 383/1/6
f 383/1/6 380/1/6 384/1/6
f 384/1/6 380/1/6 385/1/6
f 377/1/6 381/1/6 386/1/6
f 381/2/6 382/2/6 387/2/6
f 386/1/6 381/1/6 387/1/6
f 383/1/6 384/1/6 388/1/6
f 388/1/6 384/1/6 389/1/6
f 384/2/6 385/2/6 390/2/6
f 389/1/6 384/1/6 390/1/6
f 390/2/6 385/2/6 391/2/6
f 387/2/6 382/2/6 394/2/6
f 394/2/6 382/2/6 395/2/6
f 389/2/6 390/2/6 396/2/6
f 390/1/6 391/1/6 397/1/6
f 396/2/6 390/2/6 397/2/6
f 391/1/6 392/1/6 397/1/6
f 392/2/6 393/2/6 398/2/6
f 397/1/6 392/1/6 398/1/6
f 398/2/6 393/2/6 399/2/6
f 400/4/6 401/4/6 402/4/6
f 402/4/6 401/4/6 403/4/6
f 406/1/6 407/1/6 410/1/6
f 410/1/6 407/1/6 411/1/6
f 408/1/6 409/1/6 412/1/6
f 412/1/6 409/1/6 413/1/6
f 404/1/6 405/1/6 415/1/6
f 415/1/6 405/1/6 416/1/6
f 413/2/6 414/2/6 417/2/6
f 417/2/6 414/2/6 418/2/6
f 421/1/6 422/1/6 425/1/6
f 425/1/6 422/1/6 426/1/6
f 423/1/6 424/1/6 428/1/6
f 428/1/6 424/1/6 429/1/6
f 419/1/6 420/1/6 431/1/6
f 431/1/6 420/1/6 432/1/6
f 426/2/6 427/2/6 433/2/6
f 433/2/6 427/2/6 434/2/6
f 429/2/6 430/2/6 435/2/6
f 435/2/6 430/2/6 436/2/6
f 437/1/6 438/1/6 441/1/6
f 439/1/6 440/1/6 443/1/6
f 437/1/6 441/1/6 445/1/6
f 441/2/6 442/2/6 446/2/6
f 445/1/6 441/1/6 446/1/6
f 446/2/6 442/2/6 447/2/6
f 439/1/6 443/1/6 448/1/6
f 443/2/6 444/2/6 449/2/6
f 448/1/6 443/1/6 449/1/6
f 449/2/6 444/2/6 450/2/6
