# MagicaVoxel @ Ephtracy

# group
o 

# material
mtllib swhale-0.mtl
usemtl palette

# normals
vn -1 0 0
vn 1 0 0
vn 0 0 1
vn 0 0 -1
vn 0 -1 0
vn 0 1 0

# texcoords
vt 0.916016 0.5
vt 0.919922 0.5
vt 0.982422 0.5
vt 0.994141 0.5

# verts
v -1 -0.8 0.2
v -1 -0.8 0.1
v -1 -0.7 0.2
v -1 -0.7 0.1
v -1 0 0.2
v -1 0 0.1
v -1 0.1 0.2
v -1 0.1 0.1
v -0.9 -0.9 0.2
v -0.9 -0.9 0.1
v -0.9 -0.8 0.2
v -0.9 -0.8 0.1
v -0.8 -1 0.2
v -0.8 -1 0.1
v -0.8 -0.9 0.2
v -0.8 -0.9 0.1
v -0.8 0.1 0.2
v -0.8 0.1 0.1
v -0.8 0.2 0.2
v -0.8 0.2 0.1
v -0.7 -1.1 0.2
v -0.7 -1.1 0.1
v -0.7 -1 0.2
v -0.7 -1 0.1
v 0 -1.1 0.2
v 0 -1.1 0.1
v 0 -1 0.2
v 0 -1 0.1
v 0.1 -1 0.2
v 0.1 -1 0.1
v 0.1 -0.9 0.2
v 0.1 -0.9 0.1
v 0.1 0.1 0.2
v 0.1 0.1 0.1
v 0.1 0.2 0.2
v 0.1 0.2 0.1
v 0.2 -0.9 0.2
v 0.2 -0.9 0.1
v 0.2 -0.8 0.2
v 0.2 -0.8 0.1
v 0.2 0 0.2
v 0.2 0 0.1
v 0.2 0.1 0.2
v 0.2 0.1 0.1
v 0.3 -0.8 0.2
v 0.3 -0.8 0.1
v 0.3 -0.7 0.2
v 0.3 -0.7 0.1
v 0.3 0 0.2
v 0.3 0 0.1
v -1 -0.8 0.2
v -1 -0.7 0.2
v -1 0 0.2
v -1 0.1 0.2
v -0.9 -0.9 0.2
v -0.9 -0.8 0.2
v -0.9 -0.7 0.2
v -0.9 0 0.2
v -0.9 0.1 0.2
v -0.8 -1 0.2
v -0.8 -0.9 0.2
v -0.8 -0.7 0.2
v -0.8 -0.5 0.2
v -0.8 -0.3 0.2
v -0.8 0 0.2
v -0.8 0.1 0.2
v -0.8 0.2 0.2
v -0.7 -1.1 0.2
v -0.7 -1 0.2
v -0.7 -0.9 0.2
v -0.7 -0.5 0.2
v -0.7 -0.3 0.2
v -0.6 -1.1 0.2
v -0.6 -0.8 0.2
v -0.6 -0.7 0.2
v -0.6 0.2 0.2
v -0.5 -1.1 0.2
v -0.5 -0.8 0.2
v -0.5 -0.7 0.2
v -0.5 0.2 0.2
v -0.3 -1.1 0.2
v -0.3 -0.8 0.2
v -0.3 -0.7 0.2
v -0.3 0.2 0.2
v -0.2 -1.1 0.2
v -0.2 -0.8 0.2
v -0.2 -0.7 0.2
v -0.2 0.2 0.2
v -0.1 -1.1 0.2
v -0.1 -1 0.2
v -0.1 -0.5 0.2
v -0.1 -0.3 0.2
v 0 -1.1 0.2
v 0 -1 0.2
v 0 -0.7 0.2
v 0 -0.5 0.2
v 0 -0.3 0.2
v 0 0.1 0.2
v 0 0.2 0.2
v 0.1 -1 0.2
v 0.1 -0.9 0.2
v 0.1 -0.7 0.2
v 0.1 0.1 0.2
v 0.1 0.2 0.2
v 0.2 -0.9 0.2
v 0.2 -0.8 0.2
v 0.2 -0.7 0.2
v 0.2 0 0.2
v 0.2 0.1 0.2
v 0.3 -0.8 0.2
v 0.3 -0.7 0.2
v 0.3 0 0.2
v -1 -0.8 0.1
v -1 -0.7 0.1
v -1 0 0.1
v -1 0.1 0.1
v -0.9 -0.9 0.1
v -0.9 -0.8 0.1
v -0.9 -0.7 0.1
v -0.9 0 0.1
v -0.9 0.1 0.1
v -0.8 -1 0.1
v -0.8 -0.9 0.1
v -0.8 -0.7 0.1
v -0.8 -0.5 0.1
v -0.8 -0.3 0.1
v -0.8 0 0.1
v -0.8 0.1 0.1
v -0.8 0.2 0.1
v -0.7 -1.1 0.1
v -0.7 -1 0.1
v -0.7 -0.9 0.1
v -0.7 -0.5 0.1
v -0.7 -0.3 0.1
v -0.6 -1.1 0.1
v -0.6 -0.8 0.1
v -0.6 -0.7 0.1
v -0.6 0.2 0.1
v -0.5 -1.1 0.1
v -0.5 -0.8 0.1
v -0.5 -0.7 0.1
v -0.5 0.2 0.1
v -0.3 -1.1 0.1
v -0.3 -0.8 0.1
v -0.3 -0.7 0.1
v -0.3 0.2 0.1
v -0.2 -1.1 0.1
v -0.2 -0.8 0.1
v -0.2 -0.7 0.1
v -0.2 0.2 0.1
v -0.1 -1.1 0.1
v -0.1 -1 0.1
v -0.1 -0.5 0.1
v -0.1 -0.3 0.1
v 0 -1.1 0.1
v 0 -1 0.1
v 0 -0.7 0.1
v 0 -0.5 0.1
v 0 -0.3 0.1
v 0 0.1 0.1
v 0 0.2 0.1
v 0.1 -1 0.1
v 0.1 -0.9 0.1
v 0.1 -0.7 0.1
v 0.1 0.1 0.1
v 0.1 0.2 0.1
v 0.2 -0.9 0.1
v 0.2 -0.8 0.1
v 0.2 -0.7 0.1
v 0.2 0 0.1
v 0.2 0.1 0.1
v 0.3 -0.8 0.1
v 0.3 -0.7 0.1
v 0.3 0 0.1
v -0.7 -1.1 0.2
v -0.6 -1.1 0.2
v -0.5 -1.1 0.2
v -0.3 -1.1 0.2
v -0.2 -1.1 0.2
v -0.1 -1.1 0.2
v 0 -1.1 0.2
v -0.7 -1.1 0.1
v -0.6 -1.1 0.1
v -0.5 -1.1 0.1
v -0.3 -1.1 0.1
v -0.2 -1.1 0.1
v -0.1 -1.1 0.1
v 0 -1.1 0.1
v -0.8 -1 0.2
v -0.7 -1 0.2
v 0 -1 0.2
v 0.1 -1 0.2
v -0.8 -1 0.1
v -0.7 -1 0.1
v 0 -1 0.1
v 0.1 -1 0.1
v -0.9 -0.9 0.2
v -0.8 -0.9 0.2
v 0.1 -0.9 0.2
v 0.2 -0.9 0.2
v -0.9 -0.9 0.1
v -0.8 -0.9 0.1
v 0.1 -0.9 0.1
v 0.2 -0.9 0.1
v -1 -0.8 0.2
v -0.9 -0.8 0.2
v 0.2 -0.8 0.2
v 0.3 -0.8 0.2
v -1 -0.8 0.1
v -0.9 -0.8 0.1
v 0.2 -0.8 0.1
v 0.3 -0.8 0.1
v 0.2 0 0.2
v 0.3 0 0.2
v 0.2 0 0.1
v 0.3 0 0.1
v -1 0.1 0.2
v -0.9 0.1 0.2
v -0.8 0.1 0.2
v 0.1 0.1 0.2
v 0.2 0.1 0.2
v -1 0.1 0.1
v -0.9 0.1 0.1
v -0.8 0.1 0.1
v 0.1 0.1 0.1
v 0.2 0.1 0.1
v -0.8 0.2 0.2
v -0.6 0.2 0.2
v -0.5 0.2 0.2
v -0.3 0.2 0.2
v -0.2 0.2 0.2
v 0 0.2 0.2
v 0.1 0.2 0.2
v -0.8 0.2 0.1
v -0.6 0.2 0.1
v -0.5 0.2 0.1
v -0.3 0.2 0.1
v -0.2 0.2 0.1
v 0 0.2 0.1
v 0.1 0.2 0.1

# faces
f 3/1/1 2/1/1 1/1/1
f 4/1/1 2/1/1 3/1/1
f 5/3/1 4/3/1 3/3/1
f 6/3/1 4/3/1 5/3/1
f 7/2/1 6/2/1 5/2/1
f 8/2/1 6/2/1 7/2/1
f 11/3/1 10/3/1 9/3/1
f 12/3/1 10/3/1 11/3/1
f 15/3/1 14/3/1 13/3/1
f 16/3/1 14/3/1 15/3/1
f 19/2/1 18/2/1 17/2/1
f 20/2/1 18/2/1 19/2/1
f 23/1/1 22/1/1 21/1/1
f 24/1/1 22/1/1 23/1/1
f 25/3/2 26/3/2 27/3/2
f 27/3/2 26/3/2 28/3/2
f 29/3/2 30/3/2 31/3/2
f 31/3/2 30/3/2 32/3/2
f 33/3/2 34/3/2 35/3/2
f 35/3/2 34/3/2 36/3/2
f 37/1/2 38/1/2 39/1/2
f 39/1/2 38/1/2 40/1/2
f 41/3/2 42/3/2 43/3/2
f 43/3/2 42/3/2 44/3/2
f 45/1/2 46/1/2 47/1/2
f 47/1/2 46/1/2 48/1/2
f 47/2/2 48/2/2 49/2/2
f 49/2/2 48/2/2 50/2/2
f 56/1/3 52/1/3 51/1/3
f 57/3/3 53/3/3 52/3/3
f 57/1/3 52/1/3 56/1/3
f 58/2/3 54/2/3 53/2/3
f 58/3/3 53/3/3 57/3/3
f 59/2/3 54/2/3 58/2/3
f 61/3/3 57/3/3 56/3/3
f 61/3/3 56/3/3 55/3/3
f 62/2/3 58/2/3 57/2/3
f 62/3/3 57/3/3 61/3/3
f 63/2/3 58/2/3 62/2/3
f 64/2/3 58/2/3 63/2/3
f 65/3/3 59/3/3 58/3/3
f 65/2/3 58/2/3 64/2/3
f 66/3/3 59/3/3 65/3/3
f 69/3/3 61/3/3 60/3/3
f 70/1/3 62/1/3 61/1/3
f 70/3/3 61/3/3 69/3/3
f 71/4/3 64/4/3 63/4/3
f 71/2/3 63/2/3 62/2/3
f 72/2/3 66/2/3 65/2/3
f 72/4/3 64/4/3 71/4/3
f 72/2/3 67/2/3 66/2/3
f 72/2/3 65/2/3 64/2/3
f 73/1/3 69/1/3 68/1/3
f 73/1/3 70/1/3 69/1/3
f 74/1/3 62/1/3 70/1/3
f 74/1/3 70/1/3 73/1/3
f 75/2/3 71/2/3 62/2/3
f 75/1/3 62/1/3 74/1/3
f 75/2/3 72/2/3 71/2/3
f 76/2/3 67/2/3 72/2/3
f 76/2/3 72/2/3 75/2/3
f 77/3/3 74/3/3 73/3/3
f 78/4/3 75/4/3 74/4/3
f 78/3/3 74/3/3 77/3/3
f 79/3/3 76/3/3 75/3/3
f 79/4/3 75/4/3 78/4/3
f 80/3/3 76/3/3 79/3/3
f 81/1/3 78/1/3 77/1/3
f 82/4/3 79/4/3 78/4/3
f 82/1/3 78/1/3 81/1/3
f 83/2/3 80/2/3 79/2/3
f 83/4/3 79/4/3 82/4/3
f 84/2/3 80/2/3 83/2/3
f 85/3/3 82/3/3 81/3/3
f 86/4/3 83/4/3 82/4/3
f 86/3/3 82/3/3 85/3/3
f 87/3/3 84/3/3 83/3/3
f 87/4/3 83/4/3 86/4/3
f 88/3/3 84/3/3 87/3/3
f 89/1/3 86/1/3 85/1/3
f 89/1/3 87/1/3 86/1/3
f 90/1/3 87/1/3 89/1/3
f 91/2/3 88/2/3 87/2/3
f 92/2/3 88/2/3 91/2/3
f 93/3/3 90/3/3 89/3/3
f 94/1/3 87/1/3 90/1/3
f 94/3/3 90/3/3 93/3/3
f 95/2/3 91/2/3 87/2/3
f 95/1/3 87/1/3 94/1/3
f 96/4/3 92/4/3 91/4/3
f 96/2/3 91/2/3 95/2/3
f 97/2/3 88/2/3 92/2/3
f 97/4/3 92/4/3 96/4/3
f 98/2/3 88/2/3 97/2/3
f 99/2/3 88/2/3 98/2/3
f 100/3/3 95/3/3 94/3/3
f 101/3/3 95/3/3 100/3/3
f 102/2/3 96/2/3 95/2/3
f 102/3/3 95/3/3 101/3/3
f 102/2/3 97/2/3 96/2/3
f 102/2/3 98/2/3 97/2/3
f 103/3/3 99/3/3 98/3/3
f 103/2/3 98/2/3 102/2/3
f 104/3/3 99/3/3 103/3/3
f 105/1/3 102/1/3 101/1/3
f 106/1/3 102/1/3 105/1/3
f 107/3/3 103/3/3 102/3/3
f 107/1/3 102/1/3 106/1/3
f 108/3/3 103/3/3 107/3/3
f 109/3/3 103/3/3 108/3/3
f 110/1/3 107/1/3 106/1/3
f 111/2/3 108/2/3 107/2/3
f 111/1/3 107/1/3 110/1/3
f 112/2/3 108/2/3 111/2/3
f 113/1/4 114/1/4 118/1/4
f 114/3/4 115/3/4 119/3/4
f 118/1/4 114/1/4 119/1/4
f 115/2/4 116/2/4 120/2/4
f 119/3/4 115/3/4 120/3/4
f 120/2/4 116/2/4 121/2/4
f 118/3/4 119/3/4 123/3/4
f 117/3/4 118/3/4 123/3/4
f 119/2/4 120/2/4 124/2/4
f 123/3/4 119/3/4 124/3/4
f 124/2/4 120/2/4 125/2/4
f 125/2/4 120/2/4 126/2/4
f 120/3/4 121/3/4 127/3/4
f 126/2/4 120/2/4 127/2/4
f 127/3/4 121/3/4 128/3/4
f 122/3/4 123/3/4 131/3/4
f 123/1/4 124/1/4 132/1/4
f 131/3/4 123/3/4 132/3/4
f 125/4/4 126/4/4 133/4/4
f 124/2/4 125/2/4 133/2/4
f 127/2/4 128/2/4 134/2/4
f 133/4/4 126/4/4 134/4/4
f 128/2/4 129/2/4 134/2/4
f 126/2/4 127/2/4 134/2/4
f 130/1/4 131/1/4 135/1/4
f 131/1/4 132/1/4 135/1/4
f 132/1/4 124/1/4 136/1/4
f 135/1/4 132/1/4 136/1/4
f 124/2/4 133/2/4 137/2/4
f 136/1/4 124/1/4 137/1/4
f 133/2/4 134/2/4 137/2/4
f 134/2/4 129/2/4 138/2/4
f 137/2/4 134/2/4 138/2/4
f 135/3/4 136/3/4 139/3/4
f 136/4/4 137/4/4 140/4/4
f 139/3/4 136/3/4 140/3/4
f 137/3/4 138/3/4 141/3/4
f 140/4/4 137/4/4 141/4/4
f 141/3/4 138/3/4 142/3/4
f 139/1/4 140/1/4 143/1/4
f 140/4/4 141/4/4 144/4/4
f 143/1/4 140/1/4 144/1/4
f 141/2/4 142/2/4 145/2/4
f 144/4/4 141/4/4 145/4/4
f 145/2/4 142/2/4 146/2/4
f 143/3/4 144/3/4 147/3/4
f 144/4/4 145/4/4 148/4/4
f 147/3/4 144/3/4 148/3/4
f 145/3/4 146/3/4 149/3/4
f 148/4/4 145/4/4 149/4/4
f 149/3/4 146/3/4 150/3/4
f 147/1/4 148/1/4 151/1/4
f 148/1/4 149/1/4 151/1/4
f 151/1/4 149/1/4 152/1/4
f 149/2/4 150/2/4 153/2/4
f 153/2/4 150/2/4 154/2/4
f 151/3/4 152/3/4 155/3/4
f 152/1/4 149/1/4 156/1/4
f 155/3/4 152/3/4 156/3/4
f 149/2/4 153/2/4 157/2/4
f 156/1/4 149/1/4 157/1/4
f 153/4/4 154/4/4 158/4/4
f 157/2/4 153/2/4 158/2/4
f 154/2/4 150/2/4 159/2/4
f 158/4/4 154/4/4 159/4/4
f 159/2/4 150/2/4 160/2/4
f 160/2/4 150/2/4 161/2/4
f 156/3/4 157/3/4 162/3/4
f 162/3/4 157/3/4 163/3/4
f 157/2/4 158/2/4 164/2/4
f 163/3/4 157/3/4 164/3/4
f 158/2/4 159/2/4 164/2/4
f 159/2/4 160/2/4 164/2/4
f 160/3/4 161/3/4 165/3/4
f 164/2/4 160/2/4 165/2/4
f 165/3/4 161/3/4 166/3/4
f 163/1/4 164/1/4 167/1/4
f 167/1/4 164/1/4 168/1/4
f 164/3/4 165/3/4 169/3/4
f 168/1/4 164/1/4 169/1/4
f 169/3/4 165/3/4 170/3/4
f 170/3/4 165/3/4 171/3/4
f 168/1/4 169/1/4 172/1/4
f 169/2/4 170/2/4 173/2/4
f 172/1/4 169/1/4 173/1/4
f 173/2/4 170/2/4 174/2/4
f 182/1/5 176/1/5 175/1/5
f 183/3/5 177/3/5 176/3/5
f 183/1/5 176/1/5 182/1/5
f 184/1/5 178/1/5 177/1/5
f 184/3/5 177/3/5 183/3/5
f 185/3/5 179/3/5 178/3/5
f 185/1/5 178/1/5 184/1/5
f 186/1/5 180/1/5 179/1/5
f 186/3/5 179/3/5 185/3/5
f 187/3/5 181/3/5 180/3/5
f 187/1/5 180/1/5 186/1/5
f 188/3/5 181/3/5 187/3/5
f 193/3/5 190/3/5 189/3/5
f 194/3/5 190/3/5 193/3/5
f 195/3/5 192/3/5 191/3/5
f 196/3/5 192/3/5 195/3/5
f 201/3/5 198/3/5 197/3/5
f 202/3/5 198/3/5 201/3/5
f 203/1/5 200/1/5 199/1/5
f 204/1/5 200/1/5 203/1/5
f 209/1/5 206/1/5 205/1/5
f 210/1/5 206/1/5 209/1/5
f 211/1/5 208/1/5 207/1/5
f 212/1/5 208/1/5 211/1/5
f 213/2/6 214/2/6 215/2/6
f 215/2/6 214/2/6 216/2/6
f 217/2/6 218/2/6 222/2/6
f 218/3/6 219/3/6 223/3/6
f 222/2/6 218/2/6 223/2/6
f 223/3/6 219/3/6 224/3/6
f 220/3/6 221/3/6 225/3/6
f 225/3/6 221/3/6 226/3/6
f 227/2/6 228/2/6 234/2/6
f 228/3/6 229/3/6 235/3/6
f 234/2/6 228/2/6 235/2/6
f 229/2/6 230/2/6 236/2/6
f 235/3/6 229/3/6 236/3/6
f 230/3/6 231/3/6 237/3/6
f 236/2/6 230/2/6 237/2/6
f 231/2/6 232/2/6 238/2/6
f 237/3/6 231/3/6 238/3/6
f 232/3/6 233/3/6 239/3/6
f 238/2/6 232/2/6 239/2/6
f 239/3/6 233/3/6 240/3/6
