# MagicaVoxel @ Ephtracy

# group
o 

# material
mtllib swhale-4.mtl
usemtl palette

# normals
vn -1 0 0
vn 1 0 0
vn 0 0 1
vn 0 0 -1
vn 0 -1 0
vn 0 1 0

# texcoords
vt 0.919922 0.5
vt 0.923828 0.5
vt 0.927734 0.5

# verts
v -0.9 0.2 0
v -0.9 0.2 -0.2
v -0.9 0.4 0
v -0.9 0.4 -0.1
v -0.9 0.4 -0.2
v -0.9 0.5 -0.1
v -0.9 0.5 -0.2
v -0.8 0.4 0
v -0.8 0.4 -0.1
v -0.8 0.5 0
v -0.8 0.5 -0.1
v -0.8 0.5 -0.2
v -0.8 0.6 -0.1
v -0.8 0.6 -0.2
v -0.7 0.5 0
v -0.7 0.5 -0.1
v -0.7 0.6 0
v -0.7 0.6 -0.1
v -0.7 0.6 -0.2
v -0.7 0.7 -0.1
v -0.7 0.7 -0.2
v -0.1 0.8 0
v -0.1 0.8 -0.2
v -0.1 1 0
v -0.1 1 -0.1
v -0.1 1 -0.2
v -0.1 1.1 -0.1
v -0.1 1.1 -0.2
v -0.7 0.2 0
v -0.7 0.2 -0.2
v -0.7 0.3 0
v -0.7 0.3 -0.2
v -0.4 0.3 0
v -0.4 0.3 -0.2
v -0.4 0.6 0
v -0.4 0.6 -0.1
v -0.4 0.6 -0.2
v -0.4 0.7 -0.1
v -0.4 0.7 -0.2
v 0.2 0.9 0
v 0.2 0.9 -0.1
v 0.2 1 0
v 0.2 1 -0.1
v 0.3 1 -0.1
v 0.3 1 -0.2
v 0.3 1.1 -0.1
v 0.3 1.1 -0.2
v 0.5 0.8 0
v 0.5 0.8 -0.1
v 0.5 0.9 0
v 0.5 0.9 -0.1
v 0.5 0.9 -0.2
v 0.5 1 -0.1
v 0.5 1 -0.2
v 0.6 0.8 -0.1
v 0.6 0.8 -0.2
v 0.6 0.9 -0.1
v 0.6 0.9 -0.2
v -0.9 0.2 0
v -0.9 0.4 0
v -0.8 0.4 0
v -0.8 0.5 0
v -0.7 0.2 0
v -0.7 0.3 0
v -0.7 0.5 0
v -0.7 0.6 0
v -0.4 0.3 0
v -0.4 0.6 0
v -0.1 0.8 0
v -0.1 1 0
v 0.2 0.9 0
v 0.2 1 0
v 0.5 0.8 0
v 0.5 0.9 0
v -0.9 0.4 -0.1
v -0.9 0.5 -0.1
v -0.8 0.4 -0.1
v -0.8 0.5 -0.1
v -0.8 0.6 -0.1
v -0.7 0.5 -0.1
v -0.7 0.6 -0.1
v -0.7 0.7 -0.1
v -0.4 0.6 -0.1
v -0.4 0.7 -0.1
v -0.1 1 -0.1
v -0.1 1.1 -0.1
v 0.2 0.9 -0.1
v 0.2 1 -0.1
v 0.2 1.1 -0.1
v 0.3 1 -0.1
v 0.3 1.1 -0.1
v 0.4 0.9 -0.1
v 0.4 1 -0.1
v 0.5 0.8 -0.1
v 0.5 0.9 -0.1
v 0.5 1 -0.1
v 0.6 0.8 -0.1
v 0.6 0.9 -0.1
v -0.9 0.2 -0.2
v -0.9 0.4 -0.2
v -0.9 0.5 -0.2
v -0.8 0.4 -0.2
v -0.8 0.5 -0.2
v -0.8 0.6 -0.2
v -0.7 0.2 -0.2
v -0.7 0.3 -0.2
v -0.7 0.5 -0.2
v -0.7 0.6 -0.2
v -0.7 0.7 -0.2
v -0.4 0.3 -0.2
v -0.4 0.6 -0.2
v -0.4 0.7 -0.2
v -0.1 0.8 -0.2
v -0.1 1 -0.2
v -0.1 1.1 -0.2
v 0.2 0.9 -0.2
v 0.2 1 -0.2
v 0.2 1.1 -0.2
v 0.3 1 -0.2
v 0.3 1.1 -0.2
v 0.4 0.9 -0.2
v 0.4 1 -0.2
v 0.5 0.8 -0.2
v 0.5 0.9 -0.2
v 0.5 1 -0.2
v 0.6 0.8 -0.2
v 0.6 0.9 -0.2
v -0.9 0.2 0
v -0.7 0.2 0
v -0.9 0.2 -0.2
v -0.7 0.2 -0.2
v -0.7 0.3 0
v -0.4 0.3 0
v -0.7 0.3 -0.2
v -0.4 0.3 -0.2
v -0.1 0.8 0
v 0.5 0.8 0
v 0.5 0.8 -0.1
v 0.6 0.8 -0.1
v -0.1 0.8 -0.2
v 0.5 0.8 -0.2
v 0.6 0.8 -0.2
v -0.9 0.4 0
v -0.8 0.4 0
v -0.9 0.4 -0.1
v -0.8 0.4 -0.1
v -0.8 0.5 0
v -0.7 0.5 0
v -0.9 0.5 -0.1
v -0.8 0.5 -0.1
v -0.7 0.5 -0.1
v -0.9 0.5 -0.2
v -0.8 0.5 -0.2
v -0.7 0.6 0
v -0.4 0.6 0
v -0.8 0.6 -0.1
v -0.7 0.6 -0.1
v -0.4 0.6 -0.1
v -0.8 0.6 -0.2
v -0.7 0.6 -0.2
v -0.7 0.7 -0.1
v -0.4 0.7 -0.1
v -0.7 0.7 -0.2
v -0.4 0.7 -0.2
v 0.2 0.9 0
v 0.5 0.9 0
v 0.2 0.9 -0.1
v 0.4 0.9 -0.1
v 0.5 0.9 -0.1
v 0.6 0.9 -0.1
v 0.5 0.9 -0.2
v 0.6 0.9 -0.2
v -0.1 1 0
v 0.2 1 0
v -0.1 1 -0.1
v 0.2 1 -0.1
v 0.3 1 -0.1
v 0.4 1 -0.1
v 0.5 1 -0.1
v 0.3 1 -0.2
v 0.4 1 -0.2
v 0.5 1 -0.2
v -0.1 1.1 -0.1
v 0.2 1.1 -0.1
v 0.3 1.1 -0.1
v -0.1 1.1 -0.2
v 0.2 1.1 -0.2
v 0.3 1.1 -0.2

# faces
f 3/1/1 2/1/1 1/1/1
f 4/1/1 2/1/1 3/1/1
f 5/1/1 2/1/1 4/1/1
f 6/2/1 5/2/1 4/2/1
f 7/2/1 5/2/1 6/2/1
f 10/1/1 9/1/1 8/1/1
f 11/1/1 9/1/1 10/1/1
f 13/2/1 12/2/1 11/2/1
f 14/2/1 12/2/1 13/2/1
f 17/1/1 16/1/1 15/1/1
f 18/1/1 16/1/1 17/1/1
f 20/2/1 19/2/1 18/2/1
f 21/2/1 19/2/1 20/2/1
f 24/1/1 23/1/1 22/1/1
f 25/1/1 23/1/1 24/1/1
f 26/1/1 23/1/1 25/1/1
f 27/2/1 26/2/1 25/2/1
f 28/2/1 26/2/1 27/2/1
f 29/1/2 30/1/2 31/1/2
f 31/1/2 30/1/2 32/1/2
f 33/1/2 34/1/2 35/1/2
f 35/1/2 34/1/2 36/1/2
f 36/1/2 34/1/2 37/1/2
f 36/2/2 37/2/2 38/2/2
f 38/2/2 37/2/2 39/2/2
f 40/1/2 41/1/2 42/1/2
f 42/1/2 41/1/2 43/1/2
f 44/3/2 45/3/2 46/3/2
f 46/3/2 45/3/2 47/3/2
f 48/1/2 49/1/2 50/1/2
f 50/1/2 49/1/2 51/1/2
f 51/3/2 52/3/2 53/3/2
f 53/3/2 52/3/2 54/3/2
f 55/3/2 56/3/2 57/3/2
f 57/3/2 56/3/2 58/3/2
f 61/1/3 60/1/3 59/1/3
f 63/1/3 61/1/3 59/1/3
f 63/1/3 62/1/3 61/1/3
f 64/1/3 62/1/3 63/1/3
f 65/1/3 62/1/3 64/1/3
f 67/1/3 66/1/3 65/1/3
f 67/1/3 65/1/3 64/1/3
f 68/1/3 66/1/3 67/1/3
f 71/1/3 70/1/3 69/1/3
f 72/1/3 70/1/3 71/1/3
f 73/1/3 71/1/3 69/1/3
f 74/1/3 71/1/3 73/1/3
f 77/2/3 76/2/3 75/2/3
f 78/2/3 76/2/3 77/2/3
f 80/2/3 79/2/3 78/2/3
f 81/2/3 79/2/3 80/2/3
f 83/2/3 82/2/3 81/2/3
f 84/2/3 82/2/3 83/2/3
f 88/2/3 86/2/3 85/2/3
f 89/2/3 86/2/3 88/2/3
f 90/2/3 88/2/3 87/2/3
f 90/3/3 89/3/3 88/3/3
f 91/3/3 89/3/3 90/3/3
f 92/2/3 90/2/3 87/2/3
f 93/2/3 90/2/3 92/2/3
f 95/3/3 93/3/3 92/3/3
f 96/3/3 93/3/3 95/3/3
f 97/3/3 95/3/3 94/3/3
f 98/3/3 95/3/3 97/3/3
f 99/1/4 100/1/4 102/1/4
f 100/2/4 101/2/4 102/2/4
f 102/2/4 101/2/4 103/2/4
f 99/1/4 102/1/4 105/1/4
f 102/1/4 103/1/4 105/1/4
f 105/1/4 103/1/4 106/1/4
f 103/2/4 104/2/4 107/2/4
f 106/1/4 103/1/4 107/1/4
f 107/2/4 104/2/4 108/2/4
f 106/1/4 107/1/4 110/1/4
f 107/1/4 108/1/4 110/1/4
f 108/2/4 109/2/4 111/2/4
f 110/1/4 108/1/4 111/1/4
f 111/2/4 109/2/4 112/2/4
f 113/1/4 114/1/4 116/1/4
f 114/2/4 115/2/4 117/2/4
f 116/1/4 114/1/4 117/1/4
f 117/2/4 115/2/4 118/2/4
f 116/2/4 117/2/4 119/2/4
f 117/3/4 118/3/4 119/3/4
f 119/3/4 118/3/4 120/3/4
f 113/1/4 116/1/4 121/1/4
f 116/2/4 119/2/4 121/2/4
f 121/2/4 119/2/4 122/2/4
f 113/1/4 121/1/4 123/1/4
f 121/3/4 122/3/4 124/3/4
f 123/1/4 121/1/4 124/1/4
f 124/3/4 122/3/4 125/3/4
f 123/3/4 124/3/4 126/3/4
f 126/3/4 124/3/4 127/3/4
f 130/1/5 129/1/5 128/1/5
f 131/1/5 129/1/5 130/1/5
f 134/1/5 133/1/5 132/1/5
f 135/1/5 133/1/5 134/1/5
f 138/1/5 137/1/5 136/1/5
f 140/1/5 138/1/5 136/1/5
f 141/3/5 139/3/5 138/3/5
f 141/1/5 138/1/5 140/1/5
f 142/3/5 139/3/5 141/3/5
f 143/1/6 144/1/6 145/1/6
f 145/1/6 144/1/6 146/1/6
f 147/1/6 148/1/6 150/1/6
f 150/1/6 148/1/6 151/1/6
f 149/2/6 150/2/6 152/2/6
f 152/2/6 150/2/6 153/2/6
f 154/1/6 155/1/6 157/1/6
f 157/1/6 155/1/6 158/1/6
f 156/2/6 157/2/6 159/2/6
f 159/2/6 157/2/6 160/2/6
f 161/2/6 162/2/6 163/2/6
f 163/2/6 162/2/6 164/2/6
f 165/1/6 166/1/6 167/1/6
f 167/1/6 166/1/6 168/1/6
f 168/1/6 166/1/6 169/1/6
f 169/3/6 170/3/6 171/3/6
f 171/3/6 170/3/6 172/3/6
f 173/1/6 174/1/6 175/1/6
f 175/1/6 174/1/6 176/1/6
f 177/2/6 178/2/6 180/2/6
f 178/3/6 179/3/6 181/3/6
f 180/2/6 178/2/6 181/2/6
f 181/3/6 179/3/6 182/3/6
f 183/2/6 184/2/6 186/2/6
f 184/3/6 185/3/6 187/3/6
f 186/2/6 184/2/6 187/2/6
f 187/3/6 185/3/6 188/3/6
