# MagicaVoxel @ Ephtracy

# group
o 

# material
mtllib swhale-1.mtl
usemtl palette

# normals
vn -1 0 0
vn 1 0 0
vn 0 0 1
vn 0 0 -1
vn 0 -1 0
vn 0 1 0

# texcoords
vt 0.912109 0.5
vt 0.916016 0.5
vt 0.919922 0.5
vt 0.923828 0.5
vt 0.927734 0.5
vt 0.978516 0.5
vt 0.986328 0.5
vt 0.994141 0.5

# verts
v -0.95 -0.75 0.1
v -0.95 -0.75 0
v -0.95 -0.65 0.1
v -0.95 -0.65 0
v -0.95 0.15 0.1
v -0.95 0.15 0
v -0.85 -0.85 0.1
v -0.85 -0.85 0
v -0.85 -0.75 0.1
v -0.85 -0.75 0
v -0.85 0.15 0.1
v -0.85 0.15 0
v -0.85 0.25 0.1
v -0.85 0.25 0
v -0.75 -0.95 0.1
v -0.75 -0.95 0
v -0.75 -0.85 0.1
v -0.75 -0.85 0
v -0.75 0.25 0.1
v -0.75 0.25 0
v -0.75 0.35 0.1
v -0.75 0.35 0
v -0.65 -1.05 0.1
v -0.65 -1.05 0
v -0.65 -0.95 0.1
v -0.65 -0.95 0
v -0.65 0.35 0.1
v -0.65 0.35 0
v -0.65 0.45 0.1
v -0.65 0.45 0
v -0.45 0.45 0.1
v -0.45 0.45 0
v -0.45 0.55 0.1
v -0.45 0.55 0
v -0.0500001 -1.15 0.1
v -0.0500001 -1.15 0
v -0.0500001 -1.05 0.1
v -0.0500001 -1.05 0
v 0.35 -1.15 0.1
v 0.35 -1.15 0
v 0.35 -1.05 0.1
v 0.35 -1.05 0
v 0.55 -1.05 0.1
v 0.55 -1.05 0
v 0.55 -0.95 0.1
v 0.55 -0.95 0
v 0.55 0.45 0.1
v 0.55 0.45 0
v 0.55 0.55 0.1
v 0.55 0.55 0
v 0.65 -0.95 0.1
v 0.65 -0.95 0
v 0.65 -0.85 0.1
v 0.65 -0.85 0
v 0.75 -0.85 0.1
v 0.75 -0.85 0
v 0.75 -0.75 0.1
v 0.75 -0.75 0
v 0.75 0.35 0.1
v 0.75 0.35 0
v 0.75 0.45 0.1
v 0.75 0.45 0
v 0.85 -0.75 0.1
v 0.85 -0.75 0
v 0.85 -0.65 0.1
v 0.85 -0.65 0
v 0.85 0.25 0.1
v 0.85 0.25 0
v 0.85 0.35 0.1
v 0.85 0.35 0
v 0.95 -0.65 0.1
v 0.95 -0.65 0
v 0.95 0.15 0.1
v 0.95 0.15 0
v 0.95 0.25 0.1
v 0.95 0.25 0
v -0.95 -0.75 0.1
v -0.95 -0.65 0.1
v -0.95 0.15 0.1
v -0.85 -0.85 0.1
v -0.85 -0.75 0.1
v -0.85 0.15 0.1
v -0.85 0.25 0.1
v -0.75 -0.95 0.1
v -0.75 -0.85 0.1
v -0.75 -0.45 0.1
v -0.75 -0.25 0.1
v -0.75 0.15 0.1
v -0.75 0.25 0.1
v -0.75 0.35 0.1
v -0.65 -1.05 0.1
v -0.65 -0.95 0.1
v -0.65 -0.45 0.1
v -0.65 -0.25 0.1
v -0.65 0.25 0.1
v -0.65 0.35 0.1
v -0.65 0.45 0.1
v -0.55 -0.75 0.1
v -0.55 -0.65 0.1
v -0.55 0.25 0.1
v -0.55 0.35 0.1
v -0.45 0.25 0.1
v -0.45 0.35 0.1
v -0.45 0.45 0.1
v -0.45 0.55 0.1
v -0.35 0.35 0.1
v -0.35 0.45 0.1
v -0.35 0.55 0.1
v -0.25 0.25 0.1
v -0.25 0.35 0.1
v -0.15 -0.75 0.1
v -0.15 -0.65 0.1
v -0.15 0.25 0.1
v -0.15 0.35 0.1
v -0.15 0.45 0.1
v -0.15 0.55 0.1
v -0.0500001 -1.15 0.1
v -0.0500001 -1.05 0.1
v -0.0500001 -0.45 0.1
v -0.0500001 -0.25 0.1
v -0.0500001 0.35 0.1
v -0.0500001 0.45 0.1
v -0.0500001 0.55 0.1
v 0.05 -1.15 0.1
v 0.05 -1.05 0.1
v 0.05 -0.95 0.1
v 0.05 -0.45 0.1
v 0.05 -0.25 0.1
v 0.05 0.25 0.1
v 0.05 0.45 0.1
v 0.05 0.55 0.1
v 0.15 -1.15 0.1
v 0.15 -1.05 0.1
v 0.15 -0.95 0.1
v 0.15 -0.85 0.1
v 0.15 0.15 0.1
v 0.15 0.25 0.1
v 0.15 0.45 0.1
v 0.15 0.55 0.1
v 0.25 -1.15 0.1
v 0.25 -1.05 0.1
v 0.25 -0.85 0.1
v 0.25 -0.75 0.1
v 0.25 0.0500001 0.1
v 0.25 0.15 0.1
v 0.25 0.35 0.1
v 0.25 0.45 0.1
v 0.25 0.55 0.1
v 0.35 -1.15 0.1
v 0.35 -1.05 0.1
v 0.35 -0.85 0.1
v 0.35 -0.75 0.1
v 0.35 -0.65 0.1
v 0.35 0.0500001 0.1
v 0.35 0.25 0.1
v 0.35 0.35 0.1
v 0.35 0.45 0.1
v 0.45 -1.05 0.1
v 0.45 -0.85 0.1
v 0.45 -0.75 0.1
v 0.45 -0.65 0.1
v 0.45 0.0500001 0.1
v 0.45 0.25 0.1
v 0.45 0.35 0.1
v 0.45 0.45 0.1
v 0.45 0.55 0.1
v 0.55 -1.05 0.1
v 0.55 -0.95 0.1
v 0.55 -0.85 0.1
v 0.55 -0.75 0.1
v 0.55 -0.65 0.1
v 0.55 0.25 0.1
v 0.55 0.35 0.1
v 0.55 0.45 0.1
v 0.55 0.55 0.1
v 0.65 -0.95 0.1
v 0.65 -0.85 0.1
v 0.65 -0.75 0.1
v 0.65 -0.65 0.1
v 0.65 0.25 0.1
v 0.65 0.35 0.1
v 0.65 0.45 0.1
v 0.75 -0.85 0.1
v 0.75 -0.75 0.1
v 0.75 -0.55 0.1
v 0.75 0.15 0.1
v 0.75 0.25 0.1
v 0.75 0.35 0.1
v 0.75 0.45 0.1
v 0.85 -0.75 0.1
v 0.85 -0.65 0.1
v 0.85 -0.55 0.1
v 0.85 0.15 0.1
v 0.85 0.25 0.1
v 0.85 0.35 0.1
v 0.95 -0.65 0.1
v 0.95 0.15 0.1
v 0.95 0.25 0.1
v -0.95 -0.75 0
v -0.95 -0.65 0
v -0.95 0.15 0
v -0.85 -0.85 0
v -0.85 -0.75 0
v -0.85 0.15 0
v -0.85 0.25 0
v -0.75 -0.95 0
v -0.75 -0.85 0
v -0.75 -0.45 0
v -0.75 -0.25 0
v -0.75 0.15 0
v -0.75 0.25 0
v -0.75 0.35 0
v -0.65 -1.05 0
v -0.65 -0.95 0
v -0.65 -0.45 0
v -0.65 -0.25 0
v -0.65 0.25 0
v -0.65 0.35 0
v -0.65 0.45 0
v -0.55 -0.75 0
v -0.55 -0.65 0
v -0.55 0.25 0
v -0.55 0.35 0
v -0.45 0.25 0
v -0.45 0.35 0
v -0.45 0.45 0
v -0.45 0.55 0
v -0.35 0.35 0
v -0.35 0.45 0
v -0.35 0.55 0
v -0.25 0.25 0
v -0.25 0.35 0
v -0.15 -0.75 0
v -0.15 -0.65 0
v -0.15 0.25 0
v -0.15 0.35 0
v -0.15 0.45 0
v -0.15 0.55 0
v -0.0500001 -1.15 0
v -0.0500001 -1.05 0
v -0.0500001 -0.45 0
v -0.0500001 -0.25 0
v -0.0500001 0.35 0
v -0.0500001 0.45 0
v -0.0500001 0.55 0
v 0.05 -1.15 0
v 0.05 -1.05 0
v 0.05 -0.95 0
v 0.05 -0.45 0
v 0.05 -0.25 0
v 0.05 0.25 0
v 0.05 0.45 0
v 0.05 0.55 0
v 0.15 -1.15 0
v 0.15 -1.05 0
v 0.15 -0.95 0
v 0.15 -0.85 0
v 0.15 0.15 0
v 0.15 0.25 0
v 0.15 0.45 0
v 0.15 0.55 0
v 0.25 -1.15 0
v 0.25 -1.05 0
v 0.25 -0.85 0
v 0.25 -0.75 0
v 0.25 0.0500001 0
v 0.25 0.15 0
v 0.25 0.35 0
v 0.25 0.45 0
v 0.25 0.55 0
v 0.35 -1.15 0
v 0.35 -1.05 0
v 0.35 -0.85 0
v 0.35 -0.75 0
v 0.35 -0.65 0
v 0.35 0.0500001 0
v 0.35 0.25 0
v 0.35 0.35 0
v 0.35 0.45 0
v 0.45 -1.05 0
v 0.45 -0.85 0
v 0.45 -0.75 0
v 0.45 -0.65 0
v 0.45 0.0500001 0
v 0.45 0.25 0
v 0.45 0.35 0
v 0.45 0.45 0
v 0.45 0.55 0
v 0.55 -1.05 0
v 0.55 -0.95 0
v 0.55 -0.85 0
v 0.55 -0.75 0
v 0.55 -0.65 0
v 0.55 0.25 0
v 0.55 0.35 0
v 0.55 0.45 0
v 0.55 0.55 0
v 0.65 -0.95 0
v 0.65 -0.85 0
v 0.65 -0.75 0
v 0.65 -0.65 0
v 0.65 0.25 0
v 0.65 0.35 0
v 0.65 0.45 0
v 0.75 -0.85 0
v 0.75 -0.75 0
v 0.75 -0.55 0
v 0.75 0.15 0
v 0.75 0.25 0
v 0.75 0.35 0
v 0.75 0.45 0
v 0.85 -0.75 0
v 0.85 -0.65 0
v 0.85 -0.55 0
v 0.85 0.15 0
v 0.85 0.25 0
v 0.85 0.35 0
v 0.95 -0.65 0
v 0.95 0.15 0
v 0.95 0.25 0
v -0.0500001 -1.15 0.1
v 0.05 -1.15 0.1
v 0.15 -1.15 0.1
v 0.25 -1.15 0.1
v 0.35 -1.15 0.1
v -0.0500001 -1.15 0
v 0.05 -1.15 0
v 0.15 -1.15 0
v 0.25 -1.15 0
v 0.35 -1.15 0
v -0.65 -1.05 0.1
v -0.0500001 -1.05 0.1
v 0.35 -1.05 0.1
v 0.45 -1.05 0.1
v 0.55 -1.05 0.1
v -0.65 -1.05 0
v -0.0500001 -1.05 0
v 0.35 -1.05 0
v 0.45 -1.05 0
v 0.55 -1.05 0
v -0.75 -0.95 0.1
v -0.65 -0.95 0.1
v 0.55 -0.95 0.1
v 0.65 -0.95 0.1
v -0.75 -0.95 0
v -0.65 -0.95 0
v 0.55 -0.95 0
v 0.65 -0.95 0
v -0.85 -0.85 0.1
v -0.75 -0.85 0.1
v 0.65 -0.85 0.1
v 0.75 -0.85 0.1
v -0.85 -0.85 0
v -0.75 -0.85 0
v 0.65 -0.85 0
v 0.75 -0.85 0
v -0.95 -0.75 0.1
v -0.85 -0.75 0.1
v 0.75 -0.75 0.1
v 0.85 -0.75 0.1
v -0.95 -0.75 0
v -0.85 -0.75 0
v 0.75 -0.75 0
v 0.85 -0.75 0
v 0.85 -0.65 0.1
v 0.95 -0.65 0.1
v 0.85 -0.65 0
v 0.95 -0.65 0
v -0.95 0.15 0.1
v -0.85 0.15 0.1
v -0.95 0.15 0
v -0.85 0.15 0
v -0.85 0.25 0.1
v -0.75 0.25 0.1
v 0.85 0.25 0.1
v 0.95 0.25 0.1
v -0.85 0.25 0
v -0.75 0.25 0
v 0.85 0.25 0
v 0.95 0.25 0
v -0.75 0.35 0.1
v -0.65 0.35 0.1
v 0.75 0.35 0.1
v 0.85 0.35 0.1
v -0.75 0.35 0
v -0.65 0.35 0
v 0.75 0.35 0
v 0.85 0.35 0
v -0.65 0.45 0.1
v -0.45 0.45 0.1
v 0.55 0.45 0.1
v 0.65 0.45 0.1
v 0.75 0.45 0.1
v -0.65 0.45 0
v -0.45 0.45 0
v 0.55 0.45 0
v 0.65 0.45 0
v 0.75 0.45 0
v -0.45 0.55 0.1
v -0.35 0.55 0.1
v -0.15 0.55 0.1
v -0.0500001 0.55 0.1
v 0.05 0.55 0.1
v 0.15 0.55 0.1
v 0.25 0.55 0.1
v 0.45 0.55 0.1
v 0.55 0.55 0.1
v -0.45 0.55 0
v -0.35 0.55 0
v -0.15 0.55 0
v -0.0500001 0.55 0
v 0.05 0.55 0
v 0.15 0.55 0
v 0.25 0.55 0
v 0.45 0.55 0
v 0.55 0.55 0

# faces
f 3/2/1 2/2/1 1/2/1
f 4/2/1 2/2/1 3/2/1
f 5/3/1 4/3/1 3/3/1
f 6/3/1 4/3/1 5/3/1
f 9/2/1 8/2/1 7/2/1
f 10/2/1 8/2/1 9/2/1
f 13/6/1 12/6/1 11/6/1
f 14/6/1 12/6/1 13/6/1
f 17/2/1 16/2/1 15/2/1
f 18/2/1 16/2/1 17/2/1
f 21/6/1 20/6/1 19/6/1
f 22/6/1 20/6/1 21/6/1
f 25/2/1 24/2/1 23/2/1
f 26/2/1 24/2/1 25/2/1
f 29/4/1 28/4/1 27/4/1
f 30/4/1 28/4/1 29/4/1
f 33/4/1 32/4/1 31/4/1
f 34/4/1 32/4/1 33/4/1
f 37/7/1 36/7/1 35/7/1
f 38/7/1 36/7/1 37/7/1
f 39/1/2 40/1/2 41/1/2
f 41/1/2 40/1/2 42/1/2
f 43/7/2 44/7/2 45/7/2
f 45/7/2 44/7/2 46/7/2
f 47/6/2 48/6/2 49/6/2
f 49/6/2 48/6/2 50/6/2
f 51/1/2 52/1/2 53/1/2
f 53/1/2 52/1/2 54/1/2
f 55/1/2 56/1/2 57/1/2
f 57/1/2 56/1/2 58/1/2
f 59/4/2 60/4/2 61/4/2
f 61/4/2 60/4/2 62/4/2
f 63/1/2 64/1/2 65/1/2
f 65/1/2 64/1/2 66/1/2
f 67/4/2 68/4/2 69/4/2
f 69/4/2 68/4/2 70/4/2
f 71/7/2 72/7/2 73/7/2
f 73/7/2 72/7/2 74/7/2
f 73/6/2 74/6/2 75/6/2
f 75/6/2 74/6/2 76/6/2
f 81/2/3 78/2/3 77/2/3
f 82/3/3 79/3/3 78/3/3
f 85/2/3 81/2/3 80/2/3
f 86/3/3 82/3/3 78/3/3
f 87/3/3 82/3/3 86/3/3
f 88/6/3 83/6/3 82/6/3
f 88/3/3 82/3/3 87/3/3
f 89/6/3 83/6/3 88/6/3
f 92/2/3 85/2/3 84/2/3
f 93/8/3 87/8/3 86/8/3
f 93/3/3 86/3/3 78/3/3
f 94/3/3 88/3/3 87/3/3
f 94/8/3 87/8/3 93/8/3
f 94/3/3 89/3/3 88/3/3
f 95/6/3 90/6/3 89/6/3
f 95/3/3 89/3/3 94/3/3
f 96/6/3 90/6/3 95/6/3
f 98/2/3 92/2/3 91/2/3
f 98/2/3 78/2/3 81/2/3
f 98/2/3 81/2/3 85/2/3
f 98/2/3 85/2/3 92/2/3
f 99/3/3 94/3/3 93/3/3
f 99/2/3 78/2/3 98/2/3
f 99/3/3 95/3/3 94/3/3
f 99/3/3 93/3/3 78/3/3
f 100/4/3 97/4/3 96/4/3
f 100/3/3 95/3/3 99/3/3
f 100/4/3 96/4/3 95/4/3
f 101/4/3 97/4/3 100/4/3
f 102/3/3 100/3/3 99/3/3
f 102/6/3 101/6/3 100/6/3
f 103/4/3 97/4/3 101/4/3
f 103/6/3 101/6/3 102/6/3
f 104/4/3 97/4/3 103/4/3
f 106/4/3 103/4/3 102/4/3
f 106/6/3 104/6/3 103/6/3
f 107/4/3 105/4/3 104/4/3
f 107/6/3 104/6/3 106/6/3
f 108/4/3 105/4/3 107/4/3
f 109/3/3 102/3/3 99/3/3
f 109/4/3 106/4/3 102/4/3
f 109/4/3 107/4/3 106/4/3
f 110/4/3 107/4/3 109/4/3
f 111/8/3 99/8/3 98/8/3
f 111/2/3 98/2/3 91/2/3
f 112/3/3 109/3/3 99/3/3
f 112/8/3 99/8/3 111/8/3
f 113/6/3 110/6/3 109/6/3
f 113/3/3 109/3/3 112/3/3
f 114/4/3 107/4/3 110/4/3
f 114/6/3 110/6/3 113/6/3
f 115/6/3 108/6/3 107/6/3
f 115/4/3 107/4/3 114/4/3
f 116/6/3 108/6/3 115/6/3
f 118/2/3 112/2/3 111/2/3
f 118/2/3 111/2/3 91/2/3
f 119/3/3 113/3/3 112/3/3
f 120/3/3 113/3/3 119/3/3
f 121/4/3 114/4/3 113/4/3
f 121/6/3 115/6/3 114/6/3
f 122/4/3 116/4/3 115/4/3
f 122/6/3 115/6/3 121/6/3
f 123/4/3 116/4/3 122/4/3
f 124/7/3 118/7/3 117/7/3
f 125/2/3 112/2/3 118/2/3
f 125/7/3 118/7/3 124/7/3
f 126/2/3 112/2/3 125/2/3
f 127/8/3 120/8/3 119/8/3
f 127/3/3 119/3/3 112/3/3
f 128/3/3 113/3/3 120/3/3
f 128/8/3 120/8/3 127/8/3
f 129/4/3 121/4/3 113/4/3
f 129/3/3 113/3/3 128/3/3
f 129/4/3 122/4/3 121/4/3
f 130/6/3 123/6/3 122/6/3
f 130/4/3 122/4/3 129/4/3
f 131/6/3 123/6/3 130/6/3
f 132/1/3 126/1/3 125/1/3
f 132/1/3 125/1/3 124/1/3
f 133/1/3 126/1/3 132/1/3
f 134/2/3 112/2/3 126/2/3
f 134/1/3 126/1/3 133/1/3
f 135/2/3 112/2/3 134/2/3
f 136/3/3 128/3/3 127/3/3
f 136/3/3 129/3/3 128/3/3
f 137/6/3 130/6/3 129/6/3
f 137/3/3 129/3/3 136/3/3
f 138/4/3 131/4/3 130/4/3
f 138/6/3 130/6/3 137/6/3
f 139/4/3 131/4/3 138/4/3
f 140/7/3 133/7/3 132/7/3
f 141/1/3 135/1/3 134/1/3
f 141/7/3 133/7/3 140/7/3
f 141/1/3 134/1/3 133/1/3
f 142/2/3 112/2/3 135/2/3
f 142/1/3 135/1/3 141/1/3
f 143/2/3 112/2/3 142/2/3
f 144/3/3 136/3/3 127/3/3
f 145/4/3 137/4/3 136/4/3
f 145/3/3 136/3/3 144/3/3
f 145/4/3 138/4/3 137/4/3
f 146/4/3 138/4/3 145/4/3
f 147/6/3 139/6/3 138/6/3
f 147/4/3 138/4/3 146/4/3
f 148/6/3 139/6/3 147/6/3
f 149/1/3 141/1/3 140/1/3
f 150/7/3 142/7/3 141/7/3
f 150/1/3 141/1/3 149/1/3
f 151/1/3 143/1/3 142/1/3
f 151/7/3 142/7/3 150/7/3
f 152/2/3 112/2/3 143/2/3
f 152/1/3 143/1/3 151/1/3
f 153/3/3 127/3/3 112/3/3
f 153/2/3 112/2/3 152/2/3
f 153/3/3 144/3/3 127/3/3
f 154/4/3 146/4/3 145/4/3
f 154/3/3 144/3/3 153/3/3
f 154/4/3 145/4/3 144/4/3
f 155/4/3 146/4/3 154/4/3
f 156/6/3 147/6/3 146/6/3
f 156/4/3 146/4/3 155/4/3
f 157/4/3 148/4/3 147/4/3
f 157/6/3 147/6/3 156/6/3
f 158/1/3 151/1/3 150/1/3
f 159/7/3 152/7/3 151/7/3
f 159/1/3 151/1/3 158/1/3
f 160/1/3 153/1/3 152/1/3
f 160/7/3 152/7/3 159/7/3
f 161/5/3 154/5/3 153/5/3
f 161/1/3 153/1/3 160/1/3
f 162/4/3 155/4/3 154/4/3
f 162/5/3 154/5/3 161/5/3
f 163/6/3 156/6/3 155/6/3
f 163/4/3 155/4/3 162/4/3
f 164/4/3 157/4/3 156/4/3
f 164/6/3 156/6/3 163/6/3
f 165/4/3 148/4/3 157/4/3
f 165/4/3 157/4/3 164/4/3
f 166/4/3 148/4/3 165/4/3
f 167/7/3 159/7/3 158/7/3
f 168/7/3 159/7/3 167/7/3
f 169/1/3 160/1/3 159/1/3
f 169/7/3 159/7/3 168/7/3
f 170/7/3 162/7/3 161/7/3
f 170/1/3 160/1/3 169/1/3
f 170/7/3 163/7/3 162/7/3
f 170/7/3 161/7/3 160/7/3
f 171/7/3 163/7/3 170/7/3
f 172/4/3 164/4/3 163/4/3
f 172/7/3 163/7/3 171/7/3
f 172/4/3 165/4/3 164/4/3
f 173/4/3 165/4/3 172/4/3
f 174/6/3 166/6/3 165/6/3
f 174/4/3 165/4/3 173/4/3
f 175/6/3 166/6/3 174/6/3
f 176/1/3 169/1/3 168/1/3
f 177/7/3 170/7/3 169/7/3
f 177/1/3 169/1/3 176/1/3
f 178/1/3 171/1/3 170/1/3
f 178/7/3 170/7/3 177/7/3
f 179/5/3 172/5/3 171/5/3
f 179/1/3 171/1/3 178/1/3
f 180/4/3 173/4/3 172/4/3
f 180/5/3 172/5/3 179/5/3
f 181/6/3 174/6/3 173/6/3
f 181/4/3 173/4/3 180/4/3
f 182/6/3 174/6/3 181/6/3
f 183/1/3 178/1/3 177/1/3
f 184/7/3 179/7/3 178/7/3
f 184/1/3 178/1/3 183/1/3
f 184/7/3 180/7/3 179/7/3
f 185/7/3 180/7/3 184/7/3
f 186/7/3 180/7/3 185/7/3
f 187/6/3 181/6/3 180/6/3
f 187/7/3 180/7/3 186/7/3
f 188/4/3 182/4/3 181/4/3
f 188/6/3 181/6/3 187/6/3
f 189/4/3 182/4/3 188/4/3
f 190/1/3 185/1/3 184/1/3
f 191/1/3 185/1/3 190/1/3
f 192/5/3 186/5/3 185/5/3
f 192/1/3 185/1/3 191/1/3
f 193/4/3 187/4/3 186/4/3
f 193/5/3 186/5/3 192/5/3
f 193/4/3 188/4/3 187/4/3
f 194/4/3 188/4/3 193/4/3
f 195/4/3 188/4/3 194/4/3
f 196/7/3 192/7/3 191/7/3
f 196/7/3 193/7/3 192/7/3
f 197/6/3 194/6/3 193/6/3
f 197/7/3 193/7/3 196/7/3
f 198/6/3 194/6/3 197/6/3
f 199/2/4 200/2/4 203/2/4
f 200/3/4 201/3/4 204/3/4
f 202/2/4 203/2/4 207/2/4
f 200/3/4 204/3/4 208/3/4
f 208/3/4 204/3/4 209/3/4
f 204/6/4 205/6/4 210/6/4
f 209/3/4 204/3/4 210/3/4
f 210/6/4 205/6/4 211/6/4
f 206/2/4 207/2/4 214/2/4
f 208/8/4 209/8/4 215/8/4
f 200/3/4 208/3/4 215/3/4
f 209/3/4 210/3/4 216/3/4
f 215/8/4 209/8/4 216/8/4
f 210/3/4 211/3/4 216/3/4
f 211/6/4 212/6/4 217/6/4
f 216/3/4 211/3/4 217/3/4
f 217/6/4 212/6/4 218/6/4
f 213/2/4 214/2/4 220/2/4
f 203/2/4 200/2/4 220/2/4
f 207/2/4 203/2/4 220/2/4
f 214/2/4 207/2/4 220/2/4
f 215/3/4 216/3/4 221/3/4
f 220/2/4 200/2/4 221/2/4
f 216/3/4 217/3/4 221/3/4
f 200/3/4 215/3/4 221/3/4
f 218/4/4 219/4/4 222/4/4
f 221/3/4 217/3/4 222/3/4
f 217/4/4 218/4/4 222/4/4
f 222/4/4 219/4/4 223/4/4
f 221/3/4 222/3/4 224/3/4
f 222/6/4 223/6/4 224/6/4
f 223/4/4 219/4/4 225/4/4
f 224/6/4 223/6/4 225/6/4
f 225/4/4 219/4/4 226/4/4
f 224/4/4 225/4/4 228/4/4
f 225/6/4 226/6/4 228/6/4
f 226/4/4 227/4/4 229/4/4
f 228/6/4 226/6/4 229/6/4
f 229/4/4 227/4/4 230/4/4
f 221/3/4 224/3/4 231/3/4
f 224/4/4 228/4/4 231/4/4
f 228/4/4 229/4/4 231/4/4
f 231/4/4 229/4/4 232/4/4
f 220/8/4 221/8/4 233/8/4
f 213/2/4 220/2/4 233/2/4
f 221/3/4 231/3/4 234/3/4
f 233/8/4 221/8/4 234/8/4
f 231/6/4 232/6/4 235/6/4
f 234/3/4 231/3/4 235/3/4
f 232/4/4 229/4/4 236/4/4
f 235/6/4 232/6/4 236/6/4
f 229/6/4 230/6/4 237/6/4
f 236/4/4 229/4/4 237/4/4
f 237/6/4 230/6/4 238/6/4
f 233/2/4 234/2/4 240/2/4
f 213/2/4 233/2/4 240/2/4
f 234/3/4 235/3/4 241/3/4
f 241/3/4 235/3/4 242/3/4
f 235/4/4 236/4/4 243/4/4
f 236/6/4 237/6/4 243/6/4
f 237/4/4 238/4/4 244/4/4
f 243/6/4 237/6/4 244/6/4
f 244/4/4 238/4/4 245/4/4
f 239/7/4 240/7/4 246/7/4
f 240/2/4 234/2/4 247/2/4
f 246/7/4 240/7/4 247/7/4
f 247/2/4 234/2/4 248/2/4
f 241/8/4 242/8/4 249/8/4
f 234/3/4 241/3/4 249/3/4
f 242/3/4 235/3/4 250/3/4
f 249/8/4 242/8/4 250/8/4
f 235/4/4 243/4/4 251/4/4
f 250/3/4 235/3/4 251/3/4
f 243/4/4 244/4/4 251/4/4
f 244/6/4 245/6/4 252/6/4
f 251/4/4 244/4/4 252/4/4
f 252/6/4 245/6/4 253/6/4
f 247/1/4 248/1/4 254/1/4
f 246/1/4 247/1/4 254/1/4
f 254/1/4 248/1/4 255/1/4
f 248/2/4 234/2/4 256/2/4
f 255/1/4 248/1/4 256/1/4
f 256/2/4 234/2/4 257/2/4
f 249/3/4 250/3/4 258/3/4
f 250/3/4 251/3/4 258/3/4
f 251/6/4 252/6/4 259/6/4
f 258/3/4 251/3/4 259/3/4
f 252/4/4 253/4/4 260/4/4
f 259/6/4 252/6/4 260/6/4
f 260/4/4 253/4/4 261/4/4
f 254/7/4 255/7/4 262/7/4
f 256/1/4 257/1/4 263/1/4
f 262/7/4 255/7/4 263/7/4
f 255/1/4 256/1/4 263/1/4
f 257/2/4 234/2/4 264/2/4
f 263/1/4 257/1/4 264/1/4
f 264/2/4 234/2/4 265/2/4
f 249/3/4 258/3/4 266/3/4
f 258/4/4 259/4/4 267/4/4
f 266/3/4 258/3/4 267/3/4
f 259/4/4 260/4/4 267/4/4
f 267/4/4 260/4/4 268/4/4
f 260/6/4 261/6/4 269/6/4
f 268/4/4 260/4/4 269/4/4
f 269/6/4 261/6/4 270/6/4
f 262/1/4 263/1/4 271/1/4
f 263/7/4 264/7/4 272/7/4
f 271/1/4 263/1/4 272/1/4
f 264/1/4 265/1/4 273/1/4
f 272/7/4 264/7/4 273/7/4
f 265/2/4 234/2/4 274/2/4
f 273/1/4 265/1/4 274/1/4
f 234/3/4 249/3/4 275/3/4
f 274/2/4 234/2/4 275/2/4
f 249/3/4 266/3/4 275/3/4
f 267/4/4 268/4/4 276/4/4
f 275/3/4 266/3/4 276/3/4
f 266/4/4 267/4/4 276/4/4
f 276/4/4 268/4/4 277/4/4
f 268/6/4 269/6/4 278/6/4
f 277/4/4 268/4/4 278/4/4
f 269/4/4 270/4/4 279/4/4
f 278/6/4 269/6/4 279/6/4
f 272/1/4 273/1/4 280/1/4
f 273/7/4 274/7/4 281/7/4
f 280/1/4 273/1/4 281/1/4
f 274/1/4 275/1/4 282/1/4
f 281/7/4 274/7/4 282/7/4
f 275/5/4 276/5/4 283/5/4
f 282/1/4 275/1/4 283/1/4
f 276/4/4 277/4/4 284/4/4
f 283/5/4 276/5/4 284/5/4
f 277/6/4 278/6/4 285/6/4
f 284/4/4 277/4/4 285/4/4
f 278/4/4 279/4/4 286/4/4
f 285/6/4 278/6/4 286/6/4
f 279/4/4 270/4/4 287/4/4
f 286/4/4 279/4/4 287/4/4
f 287/4/4 270/4/4 288/4/4
f 280/7/4 281/7/4 289/7/4
f 289/7/4 281/7/4 290/7/4
f 281/1/4 282/1/4 291/1/4
f 290/7/4 281/7/4 291/7/4
f 283/7/4 284/7/4 292/7/4
f 291/1/4 282/1/4 292/1/4
f 284/7/4 285/7/4 292/7/4
f 282/7/4 283/7/4 292/7/4
f 292/7/4 285/7/4 293/7/4
f 285/4/4 286/4/4 294/4/4
f 293/7/4 285/7/4 294/7/4
f 286/4/4 287/4/4 294/4/4
f 294/4/4 287/4/4 295/4/4
f 287/6/4 288/6/4 296/6/4
f 295/4/4 287/4/4 296/4/4
f 296/6/4 288/6/4 297/6/4
f 290/1/4 291/1/4 298/1/4
f 291/7/4 292/7/4 299/7/4
f 298/1/4 291/1/4 299/1/4
f 292/1/4 293/1/4 300/1/4
f 299/7/4 292/7/4 300/7/4
f 293/5/4 294/5/4 301/5/4
f 300/1/4 293/1/4 301/1/4
f 294/4/4 295/4/4 302/4/4
f 301/5/4 294/5/4 302/5/4
f 295/6/4 296/6/4 303/6/4
f 302/4/4 295/4/4 303/4/4
f 303/6/4 296/6/4 304/6/4
f 299/1/4 300/1/4 305/1/4
f 300/7/4 301/7/4 306/7/4
f 305/1/4 300/1/4 306/1/4
f 301/7/4 302/7/4 306/7/4
f 306/7/4 302/7/4 307/7/4
f 307/7/4 302/7/4 308/7/4
f 302/6/4 303/6/4 309/6/4
f 308/7/4 302/7/4 309/7/4
f 303/4/4 304/4/4 310/4/4
f 309/6/4 303/6/4 310/6/4
f 310/4/4 304/4/4 311/4/4
f 306/1/4 307/1/4 312/1/4
f 312/1/4 307/1/4 313/1/4
f 307/5/4 308/5/4 314/5/4
f 313/1/4 307/1/4 314/1/4
f 308/4/4 309/4/4 315/4/4
f 314/5/4 308/5/4 315/5/4
f 309/4/4 310/4/4 315/4/4
f 315/4/4 310/4/4 316/4/4
f 316/4/4 310/4/4 317/4/4
f 313/7/4 314/7/4 318/7/4
f 314/7/4 315/7/4 318/7/4
f 315/6/4 316/6/4 319/6/4
f 318/7/4 315/7/4 319/7/4
f 319/6/4 316/6/4 320/6/4
f 326/7/5 322/7/5 321/7/5
f 327/1/5 323/1/5 322/1/5
f 327/7/5 322/7/5 326/7/5
f 328/7/5 324/7/5 323/7/5
f 328/1/5 323/1/5 327/1/5
f 329/1/5 325/1/5 324/1/5
f 329/7/5 324/7/5 328/7/5
f 330/1/5 325/1/5 329/1/5
f 336/2/5 332/2/5 331/2/5
f 337/2/5 332/2/5 336/2/5
f 338/1/5 334/1/5 333/1/5
f 339/7/5 335/7/5 334/7/5
f 339/1/5 334/1/5 338/1/5
f 340/7/5 335/7/5 339/7/5
f 345/2/5 342/2/5 341/2/5
f 346/2/5 342/2/5 345/2/5
f 347/1/5 344/1/5 343/1/5
f 348/1/5 344/1/5 347/1/5
f 353/2/5 350/2/5 349/2/5
f 354/2/5 350/2/5 353/2/5
f 355/1/5 352/1/5 351/1/5
f 356/1/5 352/1/5 355/1/5
f 361/2/5 358/2/5 357/2/5
f 362/2/5 358/2/5 361/2/5
f 363/1/5 360/1/5 359/1/5
f 364/1/5 360/1/5 363/1/5
f 367/7/5 366/7/5 365/7/5
f 368/7/5 366/7/5 367/7/5
f 369/3/6 370/3/6 371/3/6
f 371/3/6 370/3/6 372/3/6
f 373/6/6 374/6/6 377/6/6
f 377/6/6 374/6/6 378/6/6
f 375/6/6 376/6/6 379/6/6
f 379/6/6 376/6/6 380/6/6
f 381/6/6 382/6/6 385/6/6
f 385/6/6 382/6/6 386/6/6
f 383/4/6 384/4/6 387/4/6
f 387/4/6 384/4/6 388/4/6
f 389/4/6 390/4/6 394/4/6
f 394/4/6 390/4/6 395/4/6
f 391/6/6 392/6/6 396/6/6
f 392/4/6 393/4/6 397/4/6
f 396/6/6 392/6/6 397/6/6
f 397/4/6 393/4/6 398/4/6
f 399/4/6 400/4/6 408/4/6
f 400/6/6 401/6/6 409/6/6
f 408/4/6 400/4/6 409/4/6
f 401/4/6 402/4/6 410/4/6
f 409/6/6 401/6/6 410/6/6
f 402/6/6 403/6/6 411/6/6
f 410/4/6 402/4/6 411/4/6
f 403/4/6 404/4/6 412/4/6
f 411/6/6 403/6/6 412/6/6
f 404/6/6 405/6/6 413/6/6
f 412/4/6 404/4/6 413/4/6
f 405/4/6 406/4/6 414/4/6
f 413/6/6 405/6/6 414/6/6
f 406/6/6 407/6/6 415/6/6
f 414/4/6 406/4/6 415/4/6
f 415/6/6 407/6/6 416/6/6
