# MagicaVoxel @ Ephtracy

# group
o 

# material
mtllib swhale-3.mtl
usemtl palette

# normals
vn -1 0 0
vn 1 0 0
vn 0 0 1
vn 0 0 -1
vn 0 -1 0
vn 0 1 0

# texcoords
vt 0.912109 0.5
vt 0.919922 0.5
vt 0.923828 0.5
vt 0.927734 0.5
vt 0.986328 0.5

# verts
v -0.35 0.35 0
v -0.35 0.35 -0.2
v -0.35 0.85 0
v -0.35 0.85 -0.2
v -0.25 0.85 0
v -0.25 0.85 -0.2
v -0.25 0.95 0
v -0.25 0.95 -0.2
v -0.15 0.95 -0.1
v -0.15 0.95 -0.2
v -0.15 1.05 -0.1
v -0.15 1.05 -0.2
v -0.05 0.55 0
v -0.05 0.55 -0.2
v -0.05 0.65 0
v -0.05 0.65 -0.2
v 0.15 0.45 0
v 0.15 0.45 -0.2
v 0.15 0.55 0
v 0.15 0.55 -0.2
v 0.25 -1.05 -0.1
v 0.25 -1.05 -0.2
v 0.25 -0.95 -0.1
v 0.25 -0.95 -0.2
v 0.45 -0.95 -0.1
v 0.45 -0.95 -0.2
v 0.45 -0.75 -0.1
v 0.45 -0.75 -0.2
v 0.45 0.35 0
v 0.45 0.35 -0.2
v 0.45 0.45 0
v 0.45 0.45 -0.2
v 0.55 -0.75 -0.1
v 0.55 -0.75 -0.2
v 0.55 -0.65 -0.1
v 0.55 -0.65 -0.2
v 0.65 -0.65 -0.1
v 0.65 -0.65 -0.2
v 0.65 -0.55 -0.1
v 0.65 -0.55 -0.2
v 0.75 -0.55 -0.1
v 0.75 -0.55 -0.2
v 0.75 -0.45 -0.1
v 0.75 -0.45 -0.2
v 0.75 0.15 0
v 0.75 0.15 -0.2
v 0.75 0.35 0
v 0.75 0.35 -0.2
v 0.85 -0.45 0
v 0.85 -0.45 -0.1
v 0.85 -0.45 -0.2
v 0.85 -0.35 0
v 0.85 -0.35 -0.1
v 0.85 0.15 0
v 0.85 0.15 -0.2
v -0.25 0.45 0
v -0.25 0.45 -0.2
v -0.25 0.55 -0.1
v -0.25 0.55 -0.2
v -0.25 0.65 0
v -0.25 0.65 -0.1
v -0.15 0.35 0
v -0.15 0.35 -0.2
v -0.15 0.45 0
v -0.15 0.45 -0.2
v -0.15 0.55 -0.1
v -0.15 0.55 -0.2
v -0.15 0.65 -0.1
v -0.15 0.65 -0.2
v -0.05 0.85 0
v -0.05 0.85 -0.2
v -0.05 0.95 0
v -0.05 0.95 -0.1
v -0.05 0.95 -0.2
v -0.05 1.05 -0.1
v -0.05 1.05 -0.2
v 0.05 0.75 0
v 0.05 0.75 -0.1
v 0.05 0.85 0
v 0.05 0.85 -0.1
v 0.15 0.75 -0.1
v 0.15 0.75 -0.2
v 0.15 0.85 -0.1
v 0.15 0.85 -0.2
v 0.55 0.65 0
v 0.55 0.65 -0.1
v 0.55 0.75 0
v 0.55 0.75 -0.1
v 0.65 -1.05 -0.1
v 0.65 -1.05 -0.2
v 0.65 -0.95 -0.1
v 0.65 -0.95 -0.2
v 0.75 -0.95 -0.1
v 0.75 -0.95 -0.2
v 0.75 -0.85 -0.1
v 0.75 -0.85 -0.2
v 0.75 0.55 0
v 0.75 0.55 -0.1
v 0.75 0.65 0
v 0.75 0.65 -0.1
v 0.75 0.65 -0.2
v 0.75 0.75 -0.1
v 0.75 0.75 -0.2
v 0.85 -0.85 -0.1
v 0.85 -0.85 -0.2
v 0.85 -0.75 -0.1
v 0.85 -0.75 -0.2
v 0.85 0.35 0
v 0.85 0.35 -0.1
v 0.85 0.55 0
v 0.85 0.55 -0.1
v 0.85 0.55 -0.2
v 0.85 0.65 -0.1
v 0.85 0.65 -0.2
v 0.95 -0.75 -0.1
v 0.95 -0.75 -0.2
v 0.95 -0.65 -0.1
v 0.95 -0.65 -0.2
v 0.95 -0.45 0
v 0.95 -0.45 -0.1
v 0.95 -0.35 0
v 0.95 -0.35 -0.1
v 0.95 -0.25 -0.1
v 0.95 0.15 0
v 0.95 0.15 -0.1
v 0.95 0.35 0
v 0.95 0.35 -0.1
v 0.95 0.35 -0.2
v 0.95 0.55 -0.1
v 0.95 0.55 -0.2
v 1.05 -0.65 -0.1
v 1.05 -0.65 -0.2
v 1.05 -0.25 -0.1
v 1.05 -0.25 -0.2
v 1.05 0.35 -0.1
v 1.05 0.35 -0.2
v -0.35 0.35 0
v -0.35 0.85 0
v -0.25 0.45 0
v -0.25 0.65 0
v -0.25 0.85 0
v -0.25 0.95 0
v -0.15 0.35 0
v -0.15 0.45 0
v -0.05 0.55 0
v -0.05 0.65 0
v -0.05 0.85 0
v -0.05 0.95 0
v 0.05 0.75 0
v 0.05 0.85 0
v 0.15 0.45 0
v 0.15 0.55 0
v 0.45 0.35 0
v 0.45 0.45 0
v 0.55 0.65 0
v 0.55 0.75 0
v 0.75 0.15 0
v 0.75 0.35 0
v 0.75 0.55 0
v 0.75 0.65 0
v 0.85 -0.45 0
v 0.85 -0.35 0
v 0.85 0.15 0
v 0.85 0.35 0
v 0.85 0.55 0
v 0.95 -0.45 0
v 0.95 -0.35 0
v 0.95 0.15 0
v 0.95 0.35 0
v -0.25 0.55 -0.1
v -0.25 0.65 -0.1
v -0.15 0.55 -0.1
v -0.15 0.65 -0.1
v -0.15 0.95 -0.1
v -0.15 1.05 -0.1
v -0.05 0.95 -0.1
v -0.05 1.05 -0.1
v 0.05 0.75 -0.1
v 0.05 0.85 -0.1
v 0.15 0.75 -0.1
v 0.15 0.85 -0.1
v 0.25 -1.05 -0.1
v 0.25 -0.95 -0.1
v 0.45 -0.95 -0.1
v 0.45 -0.75 -0.1
v 0.55 -0.75 -0.1
v 0.55 -0.65 -0.1
v 0.55 0.65 -0.1
v 0.55 0.75 -0.1
v 0.65 -1.05 -0.1
v 0.65 -0.95 -0.1
v 0.65 -0.65 -0.1
v 0.65 -0.55 -0.1
v 0.75 -0.95 -0.1
v 0.75 -0.85 -0.1
v 0.75 -0.75 -0.1
v 0.75 -0.55 -0.1
v 0.75 -0.45 -0.1
v 0.75 0.55 -0.1
v 0.75 0.65 -0.1
v 0.75 0.75 -0.1
v 0.85 -0.85 -0.1
v 0.85 -0.75 -0.1
v 0.85 -0.45 -0.1
v 0.85 0.35 -0.1
v 0.85 0.55 -0.1
v 0.85 0.65 -0.1
v 0.95 -0.75 -0.1
v 0.95 -0.65 -0.1
v 0.95 -0.45 -0.1
v 0.95 -0.35 -0.1
v 0.95 -0.25 -0.1
v 0.95 0.15 -0.1
v 0.95 0.35 -0.1
v 0.95 0.55 -0.1
v 1.05 -0.65 -0.1
v 1.05 -0.25 -0.1
v 1.05 0.35 -0.1
v -0.35 0.35 -0.2
v -0.35 0.85 -0.2
v -0.25 0.45 -0.2
v -0.25 0.55 -0.2
v -0.25 0.65 -0.2
v -0.25 0.85 -0.2
v -0.25 0.95 -0.2
v -0.15 0.35 -0.2
v -0.15 0.45 -0.2
v -0.15 0.55 -0.2
v -0.15 0.65 -0.2
v -0.15 0.95 -0.2
v -0.15 1.05 -0.2
v -0.05 0.55 -0.2
v -0.05 0.65 -0.2
v -0.05 0.85 -0.2
v -0.05 0.95 -0.2
v -0.05 1.05 -0.2
v 0.05 0.75 -0.2
v 0.05 0.85 -0.2
v 0.15 0.45 -0.2
v 0.15 0.55 -0.2
v 0.15 0.75 -0.2
v 0.15 0.85 -0.2
v 0.25 -1.05 -0.2
v 0.25 -0.95 -0.2
v 0.45 -0.95 -0.2
v 0.45 -0.75 -0.2
v 0.45 0.35 -0.2
v 0.45 0.45 -0.2
v 0.55 -0.75 -0.2
v 0.55 -0.65 -0.2
v 0.55 0.65 -0.2
v 0.55 0.75 -0.2
v 0.65 -1.05 -0.2
v 0.65 -0.95 -0.2
v 0.65 -0.65 -0.2
v 0.65 -0.55 -0.2
v 0.75 -0.95 -0.2
v 0.75 -0.85 -0.2
v 0.75 -0.75 -0.2
v 0.75 -0.55 -0.2
v 0.75 -0.45 -0.2
v 0.75 0.15 -0.2
v 0.75 0.35 -0.2
v 0.75 0.55 -0.2
v 0.75 0.65 -0.2
v 0.75 0.75 -0.2
v 0.85 -0.85 -0.2
v 0.85 -0.75 -0.2
v 0.85 -0.45 -0.2
v 0.85 0.15 -0.2
v 0.85 0.35 -0.2
v 0.85 0.55 -0.2
v 0.85 0.65 -0.2
v 0.95 -0.75 -0.2
v 0.95 -0.65 -0.2
v 0.95 -0.45 -0.2
v 0.95 -0.25 -0.2
v 0.95 0.15 -0.2
v 0.95 0.35 -0.2
v 0.95 0.55 -0.2
v 1.05 -0.65 -0.2
v 1.05 -0.25 -0.2
v 1.05 0.35 -0.2
v 0.25 -1.05 -0.1
v 0.65 -1.05 -0.1
v 0.25 -1.05 -0.2
v 0.65 -1.05 -0.2
v 0.65 -0.95 -0.1
v 0.75 -0.95 -0.1
v 0.65 -0.95 -0.2
v 0.75 -0.95 -0.2
v 0.75 -0.85 -0.1
v 0.85 -0.85 -0.1
v 0.75 -0.85 -0.2
v 0.85 -0.85 -0.2
v 0.85 -0.75 -0.1
v 0.95 -0.75 -0.1
v 0.85 -0.75 -0.2
v 0.95 -0.75 -0.2
v 0.95 -0.65 -0.1
v 1.05 -0.65 -0.1
v 0.95 -0.65 -0.2
v 1.05 -0.65 -0.2
v 0.85 -0.45 0
v 0.95 -0.45 0
v 0.85 -0.45 -0.1
v 0.95 -0.45 -0.1
v 0.75 0.15 0
v 0.85 0.15 0
v 0.75 0.15 -0.2
v 0.85 0.15 -0.2
v -0.35 0.35 0
v -0.15 0.35 0
v 0.45 0.35 0
v 0.75 0.35 0
v -0.35 0.35 -0.2
v -0.15 0.35 -0.2
v 0.45 0.35 -0.2
v 0.75 0.35 -0.2
v 0.15 0.45 0
v 0.45 0.45 0
v 0.15 0.45 -0.2
v 0.45 0.45 -0.2
v -0.05 0.55 0
v 0.15 0.55 0
v -0.25 0.55 -0.1
v -0.15 0.55 -0.1
v -0.25 0.55 -0.2
v -0.15 0.55 -0.2
v -0.05 0.55 -0.2
v 0.15 0.55 -0.2
v -0.25 0.65 0
v -0.05 0.65 0
v -0.25 0.65 -0.1
v -0.15 0.65 -0.1
v -0.15 0.65 -0.2
v -0.05 0.65 -0.2
v 0.25 -0.95 -0.1
v 0.45 -0.95 -0.1
v 0.25 -0.95 -0.2
v 0.45 -0.95 -0.2
v 0.45 -0.75 -0.1
v 0.55 -0.75 -0.1
v 0.45 -0.75 -0.2
v 0.55 -0.75 -0.2
v 0.55 -0.65 -0.1
v 0.65 -0.65 -0.1
v 0.55 -0.65 -0.2
v 0.65 -0.65 -0.2
v 0.65 -0.55 -0.1
v 0.75 -0.55 -0.1
v 0.65 -0.55 -0.2
v 0.75 -0.55 -0.2
v 0.75 -0.45 -0.1
v 0.85 -0.45 -0.1
v 0.75 -0.45 -0.2
v 0.85 -0.45 -0.2
v 0.85 0.35 0
v 0.95 0.35 0
v 0.85 0.35 -0.1
v 0.95 0.35 -0.1
v 1.05 0.35 -0.1
v 0.95 0.35 -0.2
v 1.05 0.35 -0.2
v -0.25 0.45 0
v -0.15 0.45 0
v -0.25 0.45 -0.2
v -0.15 0.45 -0.2
v 0.75 0.55 0
v 0.85 0.55 0
v 0.75 0.55 -0.1
v 0.85 0.55 -0.1
v 0.95 0.55 -0.1
v 0.85 0.55 -0.2
v 0.95 0.55 -0.2
v 0.55 0.65 0
v 0.75 0.65 0
v 0.55 0.65 -0.1
v 0.75 0.65 -0.1
v 0.85 0.65 -0.1
v 0.75 0.65 -0.2
v 0.85 0.65 -0.2
v 0.05 0.75 0
v 0.55 0.75 0
v 0.05 0.75 -0.1
v 0.15 0.75 -0.1
v 0.55 0.75 -0.1
v 0.75 0.75 -0.1
v 0.15 0.75 -0.2
v 0.55 0.75 -0.2
v 0.75 0.75 -0.2
v -0.35 0.85 0
v -0.25 0.85 0
v -0.05 0.85 0
v 0.05 0.85 0
v 0.05 0.85 -0.1
v 0.15 0.85 -0.1
v -0.35 0.85 -0.2
v -0.25 0.85 -0.2
v -0.05 0.85 -0.2
v 0.05 0.85 -0.2
v 0.15 0.85 -0.2
v -0.25 0.95 0
v -0.05 0.95 0
v -0.15 0.95 -0.1
v -0.05 0.95 -0.1
v -0.25 0.95 -0.2
v -0.15 0.95 -0.2
v -0.15 1.05 -0.1
v -0.05 1.05 -0.1
v -0.15 1.05 -0.2
v -0.05 1.05 -0.2

# faces
f 3/2/1 2/2/1 1/2/1
f 4/2/1 2/2/1 3/2/1
f 7/2/1 6/2/1 5/2/1
f 8/2/1 6/2/1 7/2/1
f 11/3/1 10/3/1 9/3/1
f 12/3/1 10/3/1 11/3/1
f 15/2/1 14/2/1 13/2/1
f 16/2/1 14/2/1 15/2/1
f 19/2/1 18/2/1 17/2/1
f 20/2/1 18/2/1 19/2/1
f 23/1/1 22/1/1 21/1/1
f 24/1/1 22/1/1 23/1/1
f 27/1/1 26/1/1 25/1/1
f 28/1/1 26/1/1 27/1/1
f 31/2/1 30/2/1 29/2/1
f 32/2/1 30/2/1 31/2/1
f 35/1/1 34/1/1 33/1/1
f 36/1/1 34/1/1 35/1/1
f 39/1/1 38/1/1 37/1/1
f 40/1/1 38/1/1 39/1/1
f 43/1/1 42/1/1 41/1/1
f 44/1/1 42/1/1 43/1/1
f 47/2/1 46/2/1 45/2/1
f 48/2/1 46/2/1 47/2/1
f 52/1/1 50/1/1 49/1/1
f 53/4/1 51/4/1 50/4/1
f 53/1/1 50/1/1 52/1/1
f 54/4/1 53/4/1 52/4/1
f 55/4/1 51/4/1 53/4/1
f 55/4/1 53/4/1 54/4/1
f 56/2/2 57/2/2 58/2/2
f 58/2/2 57/2/2 59/2/2
f 56/2/2 58/2/2 60/2/2
f 60/2/2 58/2/2 61/2/2
f 62/2/2 63/2/2 64/2/2
f 64/2/2 63/2/2 65/2/2
f 66/4/2 67/4/2 68/4/2
f 68/4/2 67/4/2 69/4/2
f 70/2/2 71/2/2 72/2/2
f 72/2/2 71/2/2 73/2/2
f 73/2/2 71/2/2 74/2/2
f 73/3/2 74/3/2 75/3/2
f 75/3/2 74/3/2 76/3/2
f 77/2/2 78/2/2 79/2/2
f 79/2/2 78/2/2 80/2/2
f 81/4/2 82/4/2 83/4/2
f 83/4/2 82/4/2 84/4/2
f 85/2/2 86/2/2 87/2/2
f 87/2/2 86/2/2 88/2/2
f 89/1/2 90/1/2 91/1/2
f 91/1/2 90/1/2 92/1/2
f 93/1/2 94/1/2 95/1/2
f 95/1/2 94/1/2 96/1/2
f 97/2/2 98/2/2 99/2/2
f 99/2/2 98/2/2 100/2/2
f 100/4/2 101/4/2 102/4/2
f 102/4/2 101/4/2 103/4/2
f 104/5/2 105/5/2 106/5/2
f 106/5/2 105/5/2 107/5/2
f 108/2/2 109/2/2 110/2/2
f 110/2/2 109/2/2 111/2/2
f 111/4/2 112/4/2 113/4/2
f 113/4/2 112/4/2 114/4/2
f 115/1/2 116/1/2 117/1/2
f 117/1/2 116/1/2 118/1/2
f 119/1/2 120/1/2 121/1/2
f 121/1/2 120/1/2 122/1/2
f 121/4/2 122/4/2 123/4/2
f 121/4/2 123/4/2 124/4/2
f 124/4/2 123/4/2 125/4/2
f 124/2/2 125/2/2 126/2/2
f 126/2/2 125/2/2 127/2/2
f 127/4/2 128/4/2 129/4/2
f 129/4/2 128/4/2 130/4/2
f 131/1/2 132/1/2 133/1/2
f 133/1/2 132/1/2 134/1/2
f 133/4/2 134/4/2 135/4/2
f 135/4/2 134/4/2 136/4/2
f 139/2/3 138/2/3 137/2/3
f 140/2/3 138/2/3 139/2/3
f 141/2/3 138/2/3 140/2/3
f 143/2/3 139/2/3 137/2/3
f 144/2/3 139/2/3 143/2/3
f 146/2/3 142/2/3 141/2/3
f 146/2/3 141/2/3 140/2/3
f 147/2/3 142/2/3 146/2/3
f 148/2/3 142/2/3 147/2/3
f 149/2/3 146/2/3 145/2/3
f 149/2/3 147/2/3 146/2/3
f 150/2/3 147/2/3 149/2/3
f 152/2/3 149/2/3 145/2/3
f 154/2/3 152/2/3 151/2/3
f 155/2/3 149/2/3 152/2/3
f 155/2/3 154/2/3 153/2/3
f 155/2/3 152/2/3 154/2/3
f 156/2/3 149/2/3 155/2/3
f 158/2/3 155/2/3 153/2/3
f 159/2/3 155/2/3 158/2/3
f 160/2/3 155/2/3 159/2/3
f 163/2/3 158/2/3 157/2/3
f 163/2/3 159/2/3 158/2/3
f 164/2/3 159/2/3 163/2/3
f 165/2/3 159/2/3 164/2/3
f 166/1/3 162/1/3 161/1/3
f 167/4/3 163/4/3 162/4/3
f 167/1/3 162/1/3 166/1/3
f 168/2/3 164/2/3 163/2/3
f 168/4/3 163/4/3 167/4/3
f 169/2/3 164/2/3 168/2/3
f 172/4/3 171/4/3 170/4/3
f 173/4/3 171/4/3 172/4/3
f 176/3/3 175/3/3 174/3/3
f 177/3/3 175/3/3 176/3/3
f 180/4/3 179/4/3 178/4/3
f 181/4/3 179/4/3 180/4/3
f 184/1/3 183/1/3 182/1/3
f 186/1/3 185/1/3 184/1/3
f 190/1/3 184/1/3 182/1/3
f 190/1/3 186/1/3 184/1/3
f 190/1/3 187/1/3 186/1/3
f 191/1/3 187/1/3 190/1/3
f 192/1/3 187/1/3 191/1/3
f 194/1/3 193/1/3 192/1/3
f 194/1/3 192/1/3 191/1/3
f 195/1/3 193/1/3 194/1/3
f 196/1/3 193/1/3 195/1/3
f 197/1/3 193/1/3 196/1/3
f 200/4/3 189/4/3 188/4/3
f 201/4/3 189/4/3 200/4/3
f 202/5/3 196/5/3 195/5/3
f 203/1/3 198/1/3 197/1/3
f 203/5/3 196/5/3 202/5/3
f 203/1/3 197/1/3 196/1/3
f 204/1/3 198/1/3 203/1/3
f 206/4/3 200/4/3 199/4/3
f 207/4/3 200/4/3 206/4/3
f 208/1/3 204/1/3 203/1/3
f 209/1/3 204/1/3 208/1/3
f 210/1/3 204/1/3 209/1/3
f 214/4/3 206/4/3 205/4/3
f 215/4/3 206/4/3 214/4/3
f 216/1/3 210/1/3 209/1/3
f 216/1/3 211/1/3 210/1/3
f 216/1/3 212/1/3 211/1/3
f 217/4/3 213/4/3 212/4/3
f 217/1/3 212/1/3 216/1/3
f 217/4/3 214/4/3 213/4/3
f 218/4/3 214/4/3 217/4/3
f 219/2/4 220/2/4 221/2/4
f 221/2/4 220/2/4 222/2/4
f 222/2/4 220/2/4 223/2/4
f 223/2/4 220/2/4 224/2/4
f 219/2/4 221/2/4 226/2/4
f 226/2/4 221/2/4 227/2/4
f 222/4/4 223/4/4 228/4/4
f 224/2/4 225/2/4 229/2/4
f 228/4/4 223/4/4 229/4/4
f 223/2/4 224/2/4 229/2/4
f 229/2/4 225/2/4 230/2/4
f 229/2/4 230/2/4 233/2/4
f 233/2/4 230/2/4 234/2/4
f 230/3/4 231/3/4 235/3/4
f 234/2/4 230/2/4 235/2/4
f 235/3/4 231/3/4 236/3/4
f 233/2/4 234/2/4 237/2/4
f 232/2/4 233/2/4 237/2/4
f 237/2/4 234/2/4 238/2/4
f 232/2/4 237/2/4 240/2/4
f 237/4/4 238/4/4 241/4/4
f 240/2/4 237/2/4 241/2/4
f 241/4/4 238/4/4 242/4/4
f 243/1/4 244/1/4 245/1/4
f 239/2/4 240/2/4 248/2/4
f 240/2/4 241/2/4 248/2/4
f 245/1/4 246/1/4 249/1/4
f 247/2/4 248/2/4 251/2/4
f 248/2/4 241/2/4 251/2/4
f 251/2/4 241/2/4 252/2/4
f 249/1/4 250/1/4 253/1/4
f 243/1/4 245/1/4 253/1/4
f 245/1/4 249/1/4 253/1/4
f 253/1/4 250/1/4 254/1/4
f 254/1/4 250/1/4 255/1/4
f 255/1/4 256/1/4 257/1/4
f 254/1/4 255/1/4 257/1/4
f 257/1/4 256/1/4 258/1/4
f 258/1/4 256/1/4 259/1/4
f 259/1/4 256/1/4 260/1/4
f 247/2/4 251/2/4 263/2/4
f 263/2/4 251/2/4 264/2/4
f 251/4/4 252/4/4 265/4/4
f 264/2/4 251/2/4 265/2/4
f 265/4/4 252/4/4 266/4/4
f 258/5/4 259/5/4 267/5/4
f 260/1/4 261/1/4 268/1/4
f 267/5/4 259/5/4 268/5/4
f 259/1/4 260/1/4 268/1/4
f 268/1/4 261/1/4 269/1/4
f 263/2/4 264/2/4 270/2/4
f 262/2/4 263/2/4 270/2/4
f 270/2/4 264/2/4 271/2/4
f 264/4/4 265/4/4 272/4/4
f 271/2/4 264/2/4 272/2/4
f 272/4/4 265/4/4 273/4/4
f 268/1/4 269/1/4 274/1/4
f 274/1/4 269/1/4 275/1/4
f 269/4/4 270/4/4 276/4/4
f 275/1/4 269/1/4 276/1/4
f 276/4/4 270/4/4 277/4/4
f 270/2/4 271/2/4 278/2/4
f 277/4/4 270/4/4 278/4/4
f 271/4/4 272/4/4 279/4/4
f 278/2/4 271/2/4 279/2/4
f 279/4/4 272/4/4 280/4/4
f 276/1/4 277/1/4 281/1/4
f 275/1/4 276/1/4 281/1/4
f 277/4/4 278/4/4 282/4/4
f 281/1/4 277/1/4 282/1/4
f 278/4/4 279/4/4 282/4/4
f 282/4/4 279/4/4 283/4/4
f 286/1/5 285/1/5 284/1/5
f 287/1/5 285/1/5 286/1/5
f 290/1/5 289/1/5 288/1/5
f 291/1/5 289/1/5 290/1/5
f 294/5/5 293/5/5 292/5/5
f 295/5/5 293/5/5 294/5/5
f 298/1/5 297/1/5 296/1/5
f 299/1/5 297/1/5 298/1/5
f 302/1/5 301/1/5 300/1/5
f 303/1/5 301/1/5 302/1/5
f 306/1/5 305/1/5 304/1/5
f 307/1/5 305/1/5 306/1/5
f 310/2/5 309/2/5 308/2/5
f 311/2/5 309/2/5 310/2/5
f 316/2/5 313/2/5 312/2/5
f 317/2/5 313/2/5 316/2/5
f 318/2/5 315/2/5 314/2/5
f 319/2/5 315/2/5 318/2/5
f 322/2/5 321/2/5 320/2/5
f 323/2/5 321/2/5 322/2/5
f 328/4/5 327/4/5 326/4/5
f 329/4/5 327/4/5 328/4/5
f 330/2/5 325/2/5 324/2/5
f 331/2/5 325/2/5 330/2/5
f 334/2/5 333/2/5 332/2/5
f 335/2/5 333/2/5 334/2/5
f 336/2/5 333/2/5 335/2/5
f 337/2/5 333/2/5 336/2/5
f 338/1/6 339/1/6 340/1/6
f 340/1/6 339/1/6 341/1/6
f 342/1/6 343/1/6 344/1/6
f 344/1/6 343/1/6 345/1/6
f 346/1/6 347/1/6 348/1/6
f 348/1/6 347/1/6 349/1/6
f 350/1/6 351/1/6 352/1/6
f 352/1/6 351/1/6 353/1/6
f 354/1/6 355/1/6 356/1/6
f 356/1/6 355/1/6 357/1/6
f 358/2/6 359/2/6 360/2/6
f 360/2/6 359/2/6 361/2/6
f 361/4/6 362/4/6 363/4/6
f 363/4/6 362/4/6 364/4/6
f 365/2/6 366/2/6 367/2/6
f 367/2/6 366/2/6 368/2/6
f 369/2/6 370/2/6 371/2/6
f 371/2/6 370/2/6 372/2/6
f 372/4/6 373/4/6 374/4/6
f 374/4/6 373/4/6 375/4/6
f 376/2/6 377/2/6 378/2/6
f 378/2/6 377/2/6 379/2/6
f 379/4/6 380/4/6 381/4/6
f 381/4/6 380/4/6 382/4/6
f 383/2/6 384/2/6 385/2/6
f 385/2/6 384/2/6 386/2/6
f 386/2/6 384/2/6 387/2/6
f 386/2/6 387/2/6 389/2/6
f 387/4/6 388/4/6 390/4/6
f 389/2/6 387/2/6 390/2/6
f 390/4/6 388/4/6 391/4/6
f 394/2/6 395/2/6 396/2/6
f 392/2/6 393/2/6 398/2/6
f 398/2/6 393/2/6 399/2/6
f 394/2/6 396/2/6 400/2/6
f 396/4/6 397/4/6 401/4/6
f 400/2/6 396/2/6 401/2/6
f 401/4/6 397/4/6 402/4/6
f 403/2/6 404/2/6 405/2/6
f 405/2/6 404/2/6 406/2/6
f 403/2/6 405/2/6 407/2/6
f 407/2/6 405/2/6 408/2/6
f 409/3/6 410/3/6 411/3/6
f 411/3/6 410/3/6 412/3/6
