# MagicaVoxel @ Ephtracy

# group
o 

# material
mtllib whale-3.mtl
usemtl palette

# normals
vn -1 0 0
vn 1 0 0
vn 0 0 1
vn 0 0 -1
vn 0 -1 0
vn 0 1 0

# texcoords
vt 0.912109 0.5
vt 0.919922 0.5
vt 0.923828 0.5
vt 0.927734 0.5

# verts
v -0.35 0.35 0
v -0.35 0.35 -0.2
v -0.35 0.85 0
v -0.35 0.85 -0.2
v -0.25 0.85 0
v -0.25 0.85 -0.2
v -0.25 0.95 0
v -0.25 0.95 -0.2
v -0.15 0.95 -0.1
v -0.15 0.95 -0.2
v -0.15 1.05 -0.1
v -0.15 1.05 -0.2
v -0.05 0.55 0
v -0.05 0.55 -0.2
v -0.05 0.65 0
v -0.05 0.65 -0.2
v 0.15 0.45 0
v 0.15 0.45 -0.2
v 0.15 0.55 0
v 0.15 0.55 -0.2
v 0.45 0.35 0
v 0.45 0.35 -0.2
v 0.45 0.45 0
v 0.45 0.45 -0.2
v 0.55 -1.05 -0.1
v 0.55 -1.05 -0.2
v 0.55 -0.95 -0.1
v 0.55 -0.95 -0.2
v 0.65 -0.95 -0.1
v 0.65 -0.95 -0.2
v 0.65 -0.85 -0.1
v 0.65 -0.85 -0.2
v 0.75 -0.85 -0.1
v 0.75 -0.85 -0.2
v 0.75 -0.75 -0.1
v 0.75 -0.75 -0.2
v 0.75 0.15 0
v 0.75 0.15 -0.2
v 0.75 0.35 0
v 0.75 0.35 -0.2
v 0.85 -0.75 -0.1
v 0.85 -0.75 -0.2
v 0.85 -0.65 -0.1
v 0.85 -0.65 -0.2
v 0.85 -0.55 -0.1
v 0.85 -0.55 -0.2
v 0.85 -0.45 0
v 0.85 -0.45 -0.1
v 0.85 -0.45 -0.2
v 0.85 -0.35 0
v 0.85 -0.35 -0.1
v 0.85 0.15 0
v 0.85 0.15 -0.2
v 0.95 -0.65 -0.1
v 0.95 -0.65 -0.2
v 0.95 -0.55 -0.1
v 0.95 -0.55 -0.2
v -0.25 0.45 0
v -0.25 0.45 -0.2
v -0.25 0.55 -0.1
v -0.25 0.55 -0.2
v -0.25 0.65 0
v -0.25 0.65 -0.1
v -0.15 0.35 0
v -0.15 0.35 -0.2
v -0.15 0.45 0
v -0.15 0.45 -0.2
v -0.15 0.55 -0.1
v -0.15 0.55 -0.2
v -0.15 0.65 -0.1
v -0.15 0.65 -0.2
v -0.05 0.85 0
v -0.05 0.85 -0.2
v -0.05 0.95 0
v -0.05 0.95 -0.1
v -0.05 0.95 -0.2
v -0.05 1.05 -0.1
v -0.05 1.05 -0.2
v 0.05 0.75 0
v 0.05 0.75 -0.1
v 0.05 0.85 0
v 0.05 0.85 -0.1
v 0.15 0.75 -0.1
v 0.15 0.75 -0.2
v 0.15 0.85 -0.1
v 0.15 0.85 -0.2
v 0.55 0.65 0
v 0.55 0.65 -0.1
v 0.55 0.75 0
v 0.55 0.75 -0.1
v 0.65 -1.05 -0.1
v 0.65 -1.05 -0.2
v 0.65 -0.95 -0.1
v 0.65 -0.95 -0.2
v 0.75 -0.95 -0.1
v 0.75 -0.95 -0.2
v 0.75 -0.85 -0.1
v 0.75 -0.85 -0.2
v 0.75 0.55 0
v 0.75 0.55 -0.1
v 0.75 0.65 0
v 0.75 0.65 -0.1
v 0.75 0.65 -0.2
v 0.75 0.75 -0.1
v 0.75 0.75 -0.2
v 0.85 -0.85 -0.1
v 0.85 -0.85 -0.2
v 0.85 -0.75 -0.1
v 0.85 -0.75 -0.2
v 0.85 0.35 0
v 0.85 0.35 -0.1
v 0.85 0.55 0
v 0.85 0.55 -0.1
v 0.85 0.55 -0.2
v 0.85 0.65 -0.1
v 0.85 0.65 -0.2
v 0.95 -0.75 -0.1
v 0.95 -0.75 -0.2
v 0.95 -0.65 -0.1
v 0.95 -0.65 -0.2
v 0.95 -0.45 0
v 0.95 -0.45 -0.1
v 0.95 -0.35 0
v 0.95 -0.35 -0.1
v 0.95 -0.25 -0.1
v 0.95 0.15 0
v 0.95 0.15 -0.1
v 0.95 0.35 0
v 0.95 0.35 -0.1
v 0.95 0.35 -0.2
v 0.95 0.55 -0.1
v 0.95 0.55 -0.2
v 1.05 -0.65 -0.1
v 1.05 -0.65 -0.2
v 1.05 -0.25 -0.1
v 1.05 -0.25 -0.2
v 1.05 0.35 -0.1
v 1.05 0.35 -0.2
v -0.35 0.35 0
v -0.35 0.85 0
v -0.25 0.45 0
v -0.25 0.65 0
v -0.25 0.85 0
v -0.25 0.95 0
v -0.15 0.35 0
v -0.15 0.45 0
v -0.05 0.55 0
v -0.05 0.65 0
v -0.05 0.85 0
v -0.05 0.95 0
v 0.05 0.75 0
v 0.05 0.85 0
v 0.15 0.45 0
v 0.15 0.55 0
v 0.45 0.35 0
v 0.45 0.45 0
v 0.55 0.65 0
v 0.55 0.75 0
v 0.75 0.15 0
v 0.75 0.35 0
v 0.75 0.55 0
v 0.75 0.65 0
v 0.85 -0.45 0
v 0.85 -0.35 0
v 0.85 0.15 0
v 0.85 0.35 0
v 0.85 0.55 0
v 0.95 -0.45 0
v 0.95 -0.35 0
v 0.95 0.15 0
v 0.95 0.35 0
v -0.25 0.55 -0.1
v -0.25 0.65 -0.1
v -0.15 0.55 -0.1
v -0.15 0.65 -0.1
v -0.15 0.95 -0.1
v -0.15 1.05 -0.1
v -0.05 0.95 -0.1
v -0.05 1.05 -0.1
v 0.05 0.75 -0.1
v 0.05 0.85 -0.1
v 0.15 0.75 -0.1
v 0.15 0.85 -0.1
v 0.55 -1.05 -0.1
v 0.55 -0.95 -0.1
v 0.55 0.65 -0.1
v 0.55 0.75 -0.1
v 0.65 -1.05 -0.1
v 0.65 -0.95 -0.1
v 0.65 -0.85 -0.1
v 0.75 -0.95 -0.1
v 0.75 -0.85 -0.1
v 0.75 -0.75 -0.1
v 0.75 0.55 -0.1
v 0.75 0.65 -0.1
v 0.75 0.75 -0.1
v 0.85 -0.85 -0.1
v 0.85 -0.75 -0.1
v 0.85 -0.65 -0.1
v 0.85 -0.55 -0.1
v 0.85 -0.45 -0.1
v 0.85 0.35 -0.1
v 0.85 0.55 -0.1
v 0.85 0.65 -0.1
v 0.95 -0.75 -0.1
v 0.95 -0.65 -0.1
v 0.95 -0.55 -0.1
v 0.95 -0.45 -0.1
v 0.95 -0.35 -0.1
v 0.95 -0.25 -0.1
v 0.95 0.15 -0.1
v 0.95 0.35 -0.1
v 0.95 0.55 -0.1
v 1.05 -0.65 -0.1
v 1.05 -0.25 -0.1
v 1.05 0.35 -0.1
v -0.35 0.35 -0.2
v -0.35 0.85 -0.2
v -0.25 0.45 -0.2
v -0.25 0.55 -0.2
v -0.25 0.65 -0.2
v -0.25 0.85 -0.2
v -0.25 0.95 -0.2
v -0.15 0.35 -0.2
v -0.15 0.45 -0.2
v -0.15 0.55 -0.2
v -0.15 0.65 -0.2
v -0.15 0.95 -0.2
v -0.15 1.05 -0.2
v -0.05 0.55 -0.2
v -0.05 0.65 -0.2
v -0.05 0.85 -0.2
v -0.05 0.95 -0.2
v -0.05 1.05 -0.2
v 0.05 0.75 -0.2
v 0.05 0.85 -0.2
v 0.15 0.45 -0.2
v 0.15 0.55 -0.2
v 0.15 0.75 -0.2
v 0.15 0.85 -0.2
v 0.45 0.35 -0.2
v 0.45 0.45 -0.2
v 0.55 -1.05 -0.2
v 0.55 -0.95 -0.2
v 0.55 0.65 -0.2
v 0.55 0.75 -0.2
v 0.65 -1.05 -0.2
v 0.65 -0.95 -0.2
v 0.65 -0.85 -0.2
v 0.75 -0.95 -0.2
v 0.75 -0.85 -0.2
v 0.75 -0.75 -0.2
v 0.75 0.15 -0.2
v 0.75 0.35 -0.2
v 0.75 0.55 -0.2
v 0.75 0.65 -0.2
v 0.75 0.75 -0.2
v 0.85 -0.85 -0.2
v 0.85 -0.75 -0.2
v 0.85 -0.65 -0.2
v 0.85 -0.55 -0.2
v 0.85 -0.45 -0.2
v 0.85 0.15 -0.2
v 0.85 0.35 -0.2
v 0.85 0.55 -0.2
v 0.85 0.65 -0.2
v 0.95 -0.75 -0.2
v 0.95 -0.65 -0.2
v 0.95 -0.55 -0.2
v 0.95 -0.45 -0.2
v 0.95 -0.25 -0.2
v 0.95 0.15 -0.2
v 0.95 0.35 -0.2
v 0.95 0.55 -0.2
v 1.05 -0.65 -0.2
v 1.05 -0.25 -0.2
v 1.05 0.35 -0.2
v 0.55 -1.05 -0.1
v 0.65 -1.05 -0.1
v 0.55 -1.05 -0.2
v 0.65 -1.05 -0.2
v 0.65 -0.95 -0.1
v 0.75 -0.95 -0.1
v 0.65 -0.95 -0.2
v 0.75 -0.95 -0.2
v 0.75 -0.85 -0.1
v 0.85 -0.85 -0.1
v 0.75 -0.85 -0.2
v 0.85 -0.85 -0.2
v 0.85 -0.75 -0.1
v 0.95 -0.75 -0.1
v 0.85 -0.75 -0.2
v 0.95 -0.75 -0.2
v 0.95 -0.65 -0.1
v 1.05 -0.65 -0.1
v 0.95 -0.65 -0.2
v 1.05 -0.65 -0.2
v 0.85 -0.55 -0.1
v 0.95 -0.55 -0.1
v 0.85 -0.55 -0.2
v 0.95 -0.55 -0.2
v 0.85 -0.45 0
v 0.95 -0.45 0
v 0.85 -0.45 -0.1
v 0.95 -0.45 -0.1
v 0.75 0.15 0
v 0.85 0.15 0
v 0.75 0.15 -0.2
v 0.85 0.15 -0.2
v -0.35 0.35 0
v -0.15 0.35 0
v 0.45 0.35 0
v 0.75 0.35 0
v -0.35 0.35 -0.2
v -0.15 0.35 -0.2
v 0.45 0.35 -0.2
v 0.75 0.35 -0.2
v 0.15 0.45 0
v 0.45 0.45 0
v 0.15 0.45 -0.2
v 0.45 0.45 -0.2
v -0.05 0.55 0
v 0.15 0.55 0
v -0.25 0.55 -0.1
v -0.15 0.55 -0.1
v -0.25 0.55 -0.2
v -0.15 0.55 -0.2
v -0.05 0.55 -0.2
v 0.15 0.55 -0.2
v -0.25 0.65 0
v -0.05 0.65 0
v -0.25 0.65 -0.1
v -0.15 0.65 -0.1
v -0.15 0.65 -0.2
v -0.05 0.65 -0.2
v 0.55 -0.95 -0.1
v 0.65 -0.95 -0.1
v 0.55 -0.95 -0.2
v 0.65 -0.95 -0.2
v 0.65 -0.85 -0.1
v 0.75 -0.85 -0.1
v 0.65 -0.85 -0.2
v 0.75 -0.85 -0.2
v 0.75 -0.75 -0.1
v 0.85 -0.75 -0.1
v 0.75 -0.75 -0.2
v 0.85 -0.75 -0.2
v 0.85 -0.65 -0.1
v 0.95 -0.65 -0.1
v 0.85 -0.65 -0.2
v 0.95 -0.65 -0.2
v 0.85 0.35 0
v 0.95 0.35 0
v 0.85 0.35 -0.1
v 0.95 0.35 -0.1
v 1.05 0.35 -0.1
v 0.95 0.35 -0.2
v 1.05 0.35 -0.2
v -0.25 0.45 0
v -0.15 0.45 0
v -0.25 0.45 -0.2
v -0.15 0.45 -0.2
v 0.75 0.55 0
v 0.85 0.55 0
v 0.75 0.55 -0.1
v 0.85 0.55 -0.1
v 0.95 0.55 -0.1
v 0.85 0.55 -0.2
v 0.95 0.55 -0.2
v 0.55 0.65 0
v 0.75 0.65 0
v 0.55 0.65 -0.1
v 0.75 0.65 -0.1
v 0.85 0.65 -0.1
v 0.75 0.65 -0.2
v 0.85 0.65 -0.2
v 0.05 0.75 0
v 0.55 0.75 0
v 0.05 0.75 -0.1
v 0.15 0.75 -0.1
v 0.55 0.75 -0.1
v 0.75 0.75 -0.1
v 0.15 0.75 -0.2
v 0.55 0.75 -0.2
v 0.75 0.75 -0.2
v -0.35 0.85 0
v -0.25 0.85 0
v -0.05 0.85 0
v 0.05 0.85 0
v 0.05 0.85 -0.1
v 0.15 0.85 -0.1
v -0.35 0.85 -0.2
v -0.25 0.85 -0.2
v -0.05 0.85 -0.2
v 0.05 0.85 -0.2
v 0.15 0.85 -0.2
v -0.25 0.95 0
v -0.05 0.95 0
v -0.15 0.95 -0.1
v -0.05 0.95 -0.1
v -0.25 0.95 -0.2
v -0.15 0.95 -0.2
v -0.15 1.05 -0.1
v -0.05 1.05 -0.1
v -0.15 1.05 -0.2
v -0.05 1.05 -0.2

# faces
f 3/2/1 2/2/1 1/2/1
f 4/2/1 2/2/1 3/2/1
f 7/2/1 6/2/1 5/2/1
f 8/2/1 6/2/1 7/2/1
f 11/3/1 10/3/1 9/3/1
f 12/3/1 10/3/1 11/3/1
f 15/2/1 14/2/1 13/2/1
f 16/2/1 14/2/1 15/2/1
f 19/2/1 18/2/1 17/2/1
f 20/2/1 18/2/1 19/2/1
f 23/2/1 22/2/1 21/2/1
f 24/2/1 22/2/1 23/2/1
f 27/1/1 26/1/1 25/1/1
f 28/1/1 26/1/1 27/1/1
f 31/1/1 30/1/1 29/1/1
f 32/1/1 30/1/1 31/1/1
f 35/1/1 34/1/1 33/1/1
f 36/1/1 34/1/1 35/1/1
f 39/2/1 38/2/1 37/2/1
f 40/2/1 38/2/1 39/2/1
f 43/1/1 42/1/1 41/1/1
f 44/1/1 42/1/1 43/1/1
f 48/1/1 46/1/1 45/1/1
f 49/1/1 46/1/1 48/1/1
f 50/1/1 48/1/1 47/1/1
f 51/4/1 49/4/1 48/4/1
f 51/1/1 48/1/1 50/1/1
f 52/4/1 51/4/1 50/4/1
f 53/4/1 49/4/1 51/4/1
f 53/4/1 51/4/1 52/4/1
f 56/1/1 55/1/1 54/1/1
f 57/1/1 55/1/1 56/1/1
f 58/2/2 59/2/2 60/2/2
f 60/2/2 59/2/2 61/2/2
f 58/2/2 60/2/2 62/2/2
f 62/2/2 60/2/2 63/2/2
f 64/2/2 65/2/2 66/2/2
f 66/2/2 65/2/2 67/2/2
f 68/4/2 69/4/2 70/4/2
f 70/4/2 69/4/2 71/4/2
f 72/2/2 73/2/2 74/2/2
f 74/2/2 73/2/2 75/2/2
f 75/2/2 73/2/2 76/2/2
f 75/3/2 76/3/2 77/3/2
f 77/3/2 76/3/2 78/3/2
f 79/2/2 80/2/2 81/2/2
f 81/2/2 80/2/2 82/2/2
f 83/4/2 84/4/2 85/4/2
f 85/4/2 84/4/2 86/4/2
f 87/2/2 88/2/2 89/2/2
f 89/2/2 88/2/2 90/2/2
f 91/1/2 92/1/2 93/1/2
f 93/1/2 92/1/2 94/1/2
f 95/1/2 96/1/2 97/1/2
f 97/1/2 96/1/2 98/1/2
f 99/2/2 100/2/2 101/2/2
f 101/2/2 100/2/2 102/2/2
f 102/4/2 103/4/2 104/4/2
f 104/4/2 103/4/2 105/4/2
f 106/1/2 107/1/2 108/1/2
f 108/1/2 107/1/2 109/1/2
f 110/2/2 111/2/2 112/2/2
f 112/2/2 111/2/2 113/2/2
f 113/4/2 114/4/2 115/4/2
f 115/4/2 114/4/2 116/4/2
f 117/1/2 118/1/2 119/1/2
f 119/1/2 118/1/2 120/1/2
f 121/1/2 122/1/2 123/1/2
f 123/1/2 122/1/2 124/1/2
f 123/4/2 124/4/2 125/4/2
f 123/4/2 125/4/2 126/4/2
f 126/4/2 125/4/2 127/4/2
f 126/2/2 127/2/2 128/2/2
f 128/2/2 127/2/2 129/2/2
f 129/4/2 130/4/2 131/4/2
f 131/4/2 130/4/2 132/4/2
f 133/1/2 134/1/2 135/1/2
f 135/1/2 134/1/2 136/1/2
f 135/4/2 136/4/2 137/4/2
f 137/4/2 136/4/2 138/4/2
f 141/2/3 140/2/3 139/2/3
f 142/2/3 140/2/3 141/2/3
f 143/2/3 140/2/3 142/2/3
f 145/2/3 141/2/3 139/2/3
f 146/2/3 141/2/3 145/2/3
f 148/2/3 144/2/3 143/2/3
f 148/2/3 143/2/3 142/2/3
f 149/2/3 144/2/3 148/2/3
f 150/2/3 144/2/3 149/2/3
f 151/2/3 148/2/3 147/2/3
f 151/2/3 149/2/3 148/2/3
f 152/2/3 149/2/3 151/2/3
f 154/2/3 151/2/3 147/2/3
f 156/2/3 154/2/3 153/2/3
f 157/2/3 151/2/3 154/2/3
f 157/2/3 156/2/3 155/2/3
f 157/2/3 154/2/3 156/2/3
f 158/2/3 151/2/3 157/2/3
f 160/2/3 157/2/3 155/2/3
f 161/2/3 157/2/3 160/2/3
f 162/2/3 157/2/3 161/2/3
f 165/2/3 160/2/3 159/2/3
f 165/2/3 161/2/3 160/2/3
f 166/2/3 161/2/3 165/2/3
f 167/2/3 161/2/3 166/2/3
f 168/1/3 164/1/3 163/1/3
f 169/4/3 165/4/3 164/4/3
f 169/1/3 164/1/3 168/1/3
f 170/2/3 166/2/3 165/2/3
f 170/4/3 165/4/3 169/4/3
f 171/2/3 166/2/3 170/2/3
f 174/4/3 173/4/3 172/4/3
f 175/4/3 173/4/3 174/4/3
f 178/3/3 177/3/3 176/3/3
f 179/3/3 177/3/3 178/3/3
f 182/4/3 181/4/3 180/4/3
f 183/4/3 181/4/3 182/4/3
f 188/1/3 185/1/3 184/1/3
f 189/1/3 185/1/3 188/1/3
f 191/1/3 190/1/3 189/1/3
f 192/1/3 190/1/3 191/1/3
f 195/4/3 187/4/3 186/4/3
f 196/4/3 187/4/3 195/4/3
f 197/1/3 193/1/3 192/1/3
f 198/1/3 193/1/3 197/1/3
f 203/4/3 195/4/3 194/4/3
f 204/4/3 195/4/3 203/4/3
f 205/1/3 199/1/3 198/1/3
f 206/1/3 199/1/3 205/1/3
f 207/1/3 201/1/3 200/1/3
f 208/1/3 201/1/3 207/1/3
f 212/4/3 203/4/3 202/4/3
f 213/4/3 203/4/3 212/4/3
f 214/1/3 207/1/3 206/1/3
f 214/1/3 208/1/3 207/1/3
f 214/1/3 209/1/3 208/1/3
f 214/1/3 210/1/3 209/1/3
f 215/4/3 211/4/3 210/4/3
f 215/1/3 210/1/3 214/1/3
f 215/4/3 212/4/3 211/4/3
f 216/4/3 212/4/3 215/4/3
f 217/2/4 218/2/4 219/2/4
f 219/2/4 218/2/4 220/2/4
f 220/2/4 218/2/4 221/2/4
f 221/2/4 218/2/4 222/2/4
f 217/2/4 219/2/4 224/2/4
f 224/2/4 219/2/4 225/2/4
f 220/4/4 221/4/4 226/4/4
f 222/2/4 223/2/4 227/2/4
f 226/4/4 221/4/4 227/4/4
f 221/2/4 222/2/4 227/2/4
f 227/2/4 223/2/4 228/2/4
f 227/2/4 228/2/4 231/2/4
f 231/2/4 228/2/4 232/2/4
f 228/3/4 229/3/4 233/3/4
f 232/2/4 228/2/4 233/2/4
f 233/3/4 229/3/4 234/3/4
f 231/2/4 232/2/4 235/2/4
f 230/2/4 231/2/4 235/2/4
f 235/2/4 232/2/4 236/2/4
f 230/2/4 235/2/4 238/2/4
f 235/4/4 236/4/4 239/4/4
f 238/2/4 235/2/4 239/2/4
f 239/4/4 236/4/4 240/4/4
f 237/2/4 238/2/4 242/2/4
f 238/2/4 239/2/4 242/2/4
f 242/2/4 239/2/4 245/2/4
f 241/2/4 242/2/4 245/2/4
f 245/2/4 239/2/4 246/2/4
f 243/1/4 244/1/4 247/1/4
f 247/1/4 244/1/4 248/1/4
f 248/1/4 249/1/4 250/1/4
f 250/1/4 249/1/4 251/1/4
f 241/2/4 245/2/4 254/2/4
f 254/2/4 245/2/4 255/2/4
f 245/4/4 246/4/4 256/4/4
f 255/2/4 245/2/4 256/2/4
f 256/4/4 246/4/4 257/4/4
f 251/1/4 252/1/4 258/1/4
f 258/1/4 252/1/4 259/1/4
f 254/2/4 255/2/4 263/2/4
f 253/2/4 254/2/4 263/2/4
f 263/2/4 255/2/4 264/2/4
f 255/4/4 256/4/4 265/4/4
f 264/2/4 255/2/4 265/2/4
f 265/4/4 256/4/4 266/4/4
f 259/1/4 260/1/4 267/1/4
f 267/1/4 260/1/4 268/1/4
f 261/1/4 262/1/4 269/1/4
f 262/4/4 263/4/4 270/4/4
f 269/1/4 262/1/4 270/1/4
f 270/4/4 263/4/4 271/4/4
f 263/2/4 264/2/4 272/2/4
f 271/4/4 263/4/4 272/4/4
f 264/4/4 265/4/4 273/4/4
f 272/2/4 264/2/4 273/2/4
f 273/4/4 265/4/4 274/4/4
f 270/1/4 271/1/4 275/1/4
f 268/1/4 269/1/4 275/1/4
f 269/1/4 270/1/4 275/1/4
f 272/4/4 273/4/4 276/4/4
f 275/1/4 271/1/4 276/1/4
f 271/4/4 272/4/4 276/4/4
f 276/4/4 273/4/4 277/4/4
f 280/1/5 279/1/5 278/1/5
f 281/1/5 279/1/5 280/1/5
f 284/1/5 283/1/5 282/1/5
f 285/1/5 283/1/5 284/1/5
f 288/1/5 287/1/5 286/1/5
f 289/1/5 287/1/5 288/1/5
f 292/1/5 291/1/5 290/1/5
f 293/1/5 291/1/5 292/1/5
f 296/1/5 295/1/5 294/1/5
f 297/1/5 295/1/5 296/1/5
f 300/1/5 299/1/5 298/1/5
f 301/1/5 299/1/5 300/1/5
f 304/1/5 303/1/5 302/1/5
f 305/1/5 303/1/5 304/1/5
f 308/2/5 307/2/5 306/2/5
f 309/2/5 307/2/5 308/2/5
f 314/2/5 311/2/5 310/2/5
f 315/2/5 311/2/5 314/2/5
f 316/2/5 313/2/5 312/2/5
f 317/2/5 313/2/5 316/2/5
f 320/2/5 319/2/5 318/2/5
f 321/2/5 319/2/5 320/2/5
f 326/4/5 325/4/5 324/4/5
f 327/4/5 325/4/5 326/4/5
f 328/2/5 323/2/5 322/2/5
f 329/2/5 323/2/5 328/2/5
f 332/2/5 331/2/5 330/2/5
f 333/2/5 331/2/5 332/2/5
f 334/2/5 331/2/5 333/2/5
f 335/2/5 331/2/5 334/2/5
f 336/1/6 337/1/6 338/1/6
f 338/1/6 337/1/6 339/1/6
f 340/1/6 341/1/6 342/1/6
f 342/1/6 341/1/6 343/1/6
f 344/1/6 345/1/6 346/1/6
f 346/1/6 345/1/6 347/1/6
f 348/1/6 349/1/6 350/1/6
f 350/1/6 349/1/6 351/1/6
f 352/2/6 353/2/6 354/2/6
f 354/2/6 353/2/6 355/2/6
f 355/4/6 356/4/6 357/4/6
f 357/4/6 356/4/6 358/4/6
f 359/2/6 360/2/6 361/2/6
f 361/2/6 360/2/6 362/2/6
f 363/2/6 364/2/6 365/2/6
f 365/2/6 364/2/6 366/2/6
f 366/4/6 367/4/6 368/4/6
f 368/4/6 367/4/6 369/4/6
f 370/2/6 371/2/6 372/2/6
f 372/2/6 371/2/6 373/2/6
f 373/4/6 374/4/6 375/4/6
f 375/4/6 374/4/6 376/4/6
f 377/2/6 378/2/6 379/2/6
f 379/2/6 378/2/6 380/2/6
f 380/2/6 378/2/6 381/2/6
f 380/2/6 381/2/6 383/2/6
f 381/4/6 382/4/6 384/4/6
f 383/2/6 381/2/6 384/2/6
f 384/4/6 382/4/6 385/4/6
f 388/2/6 389/2/6 390/2/6
f 386/2/6 387/2/6 392/2/6
f 392/2/6 387/2/6 393/2/6
f 388/2/6 390/2/6 394/2/6
f 390/4/6 391/4/6 395/4/6
f 394/2/6 390/2/6 395/2/6
f 395/4/6 391/4/6 396/4/6
f 397/2/6 398/2/6 399/2/6
f 399/2/6 398/2/6 400/2/6
f 397/2/6 399/2/6 401/2/6
f 401/2/6 399/2/6 402/2/6
f 403/3/6 404/3/6 405/3/6
f 405/3/6 404/3/6 406/3/6
