# MagicaVoxel @ Ephtracy

# group
o 

# material
mtllib whale-0.mtl
usemtl palette

# normals
vn -1 0 0
vn 1 0 0
vn 0 0 1
vn 0 0 -1
vn 0 -1 0
vn 0 1 0

# texcoords
vt 0.912109 0.5
vt 0.916016 0.5
vt 0.919922 0.5
vt 0.994141 0.5

# verts
v -1.1 -0.55 0.2
v -1.1 -0.55 0.1
v -1.1 -0.05 0.2
v -1.1 -0.05 0.1
v -1 -0.75 0.2
v -1 -0.75 0.1
v -1 -0.65 0.2
v -1 -0.65 0.1
v -1 -0.55 0.2
v -1 -0.55 0.1
v -1 -0.05 0.2
v -1 -0.05 0.1
v -1 0.0500001 0.2
v -1 0.0500001 0.1
v -0.9 -0.85 0.2
v -0.9 -0.85 0.1
v -0.9 -0.75 0.2
v -0.9 -0.75 0.1
v -0.9 0.0500001 0.2
v -0.9 0.0500001 0.1
v -0.9 0.15 0.2
v -0.9 0.15 0.1
v -0.8 -0.95 0.2
v -0.8 -0.95 0.1
v -0.8 -0.85 0.2
v -0.8 -0.85 0.1
v -0.8 0.15 0.2
v -0.8 0.15 0.1
v -0.8 0.25 0.2
v -0.8 0.25 0.1
v -0.7 -1.05 0.2
v -0.7 -1.05 0.1
v -0.7 -0.95 0.2
v -0.7 -0.95 0.1
v -0.5 -1.15 0.2
v -0.5 -1.15 0.1
v -0.5 -1.05 0.2
v -0.5 -1.05 0.1
v -0.2 -1.15 0.1
v -0.2 -1.15 0
v -0.2 -1.05 0.1
v -0.2 -1.05 0
v -0.2 -1.15 0.2
v -0.2 -1.15 0.1
v -0.2 -1.05 0.2
v -0.2 -1.05 0.1
v 0 -1.05 0.2
v 0 -1.05 0.1
v 0 -0.95 0.2
v 0 -0.95 0.1
v 0.1 -0.95 0.2
v 0.1 -0.95 0.1
v 0.1 -0.85 0.2
v 0.1 -0.85 0.1
v 0.1 0.15 0.2
v 0.1 0.15 0.1
v 0.1 0.25 0.2
v 0.1 0.25 0.1
v 0.2 -0.85 0.2
v 0.2 -0.85 0.1
v 0.2 -0.75 0.2
v 0.2 -0.75 0.1
v 0.2 0.0500001 0.2
v 0.2 0.0500001 0.1
v 0.2 0.15 0.2
v 0.2 0.15 0.1
v 0.3 -0.75 0.2
v 0.3 -0.75 0.1
v 0.3 -0.65 0.2
v 0.3 -0.65 0.1
v 0.3 -0.55 0.2
v 0.3 -0.55 0.1
v 0.3 -0.05 0.2
v 0.3 -0.05 0.1
v 0.3 0.0500001 0.2
v 0.3 0.0500001 0.1
v 0.4 -1.15 0.1
v 0.4 -1.15 0
v 0.4 -1.05 0.1
v 0.4 -1.05 0
v 0.4 -0.55 0.2
v 0.4 -0.55 0.1
v 0.4 -0.05 0.2
v 0.4 -0.05 0.1
v -1.1 -0.55 0.2
v -1.1 -0.05 0.2
v -1 -0.75 0.2
v -1 -0.65 0.2
v -1 -0.55 0.2
v -1 -0.05 0.2
v -1 0.0500001 0.2
v -0.9 -0.85 0.2
v -0.9 -0.75 0.2
v -0.9 0.0500001 0.2
v -0.9 0.15 0.2
v -0.8 -0.95 0.2
v -0.8 -0.85 0.2
v -0.8 -0.45 0.2
v -0.8 -0.25 0.2
v -0.8 0.15 0.2
v -0.8 0.25 0.2
v -0.7 -1.05 0.2
v -0.7 -0.95 0.2
v -0.7 -0.45 0.2
v -0.7 -0.25 0.2
v -0.6 -0.75 0.2
v -0.6 -0.65 0.2
v -0.5 -1.15 0.2
v -0.5 -1.05 0.2
v -0.2 -1.15 0.2
v -0.2 -1.05 0.2
v -0.2 -0.75 0.2
v -0.2 -0.65 0.2
v -0.1 -0.45 0.2
v -0.1 -0.25 0.2
v 0 -1.05 0.2
v 0 -0.95 0.2
v 0 -0.45 0.2
v 0 -0.25 0.2
v 0.1 -0.95 0.2
v 0.1 -0.85 0.2
v 0.1 0.15 0.2
v 0.1 0.25 0.2
v 0.2 -0.85 0.2
v 0.2 -0.75 0.2
v 0.2 0.0500001 0.2
v 0.2 0.15 0.2
v 0.3 -0.75 0.2
v 0.3 -0.65 0.2
v 0.3 -0.55 0.2
v 0.3 -0.05 0.2
v 0.3 0.0500001 0.2
v 0.4 -0.55 0.2
v 0.4 -0.05 0.2
v -0.2 -1.15 0.1
v -0.2 -1.05 0.1
v 0 -1.05 0.1
v 0.4 -1.15 0.1
v 0.4 -1.05 0.1
v -1.1 -0.55 0.1
v -1.1 -0.05 0.1
v -1 -0.75 0.1
v -1 -0.65 0.1
v -1 -0.55 0.1
v -1 -0.05 0.1
v -1 0.0500001 0.1
v -0.9 -0.85 0.1
v -0.9 -0.75 0.1
v -0.9 0.0500001 0.1
v -0.9 0.15 0.1
v -0.8 -0.95 0.1
v -0.8 -0.85 0.1
v -0.8 -0.45 0.1
v -0.8 -0.25 0.1
v -0.8 0.15 0.1
v -0.8 0.25 0.1
v -0.7 -1.05 0.1
v -0.7 -0.95 0.1
v -0.7 -0.45 0.1
v -0.7 -0.25 0.1
v -0.6 -0.75 0.1
v -0.6 -0.65 0.1
v -0.5 -1.15 0.1
v -0.5 -1.05 0.1
v -0.2 -1.15 0.1
v -0.2 -1.05 0.1
v -0.2 -0.75 0.1
v -0.2 -0.65 0.1
v -0.1 -0.45 0.1
v -0.1 -0.25 0.1
v 0 -1.05 0.1
v 0 -0.95 0.1
v 0 -0.45 0.1
v 0 -0.25 0.1
v 0.1 -0.95 0.1
v 0.1 -0.85 0.1
v 0.1 0.15 0.1
v 0.1 0.25 0.1
v 0.2 -0.85 0.1
v 0.2 -0.75 0.1
v 0.2 0.0500001 0.1
v 0.2 0.15 0.1
v 0.3 -0.75 0.1
v 0.3 -0.65 0.1
v 0.3 -0.55 0.1
v 0.3 -0.05 0.1
v 0.3 0.0500001 0.1
v 0.4 -0.55 0.1
v 0.4 -0.05 0.1
v -0.2 -1.15 0
v -0.2 -1.05 0
v 0.4 -1.15 0
v 0.4 -1.05 0
v -0.5 -1.15 0.2
v -0.2 -1.15 0.2
v -0.5 -1.15 0.1
v -0.2 -1.15 0.1
v 0.4 -1.15 0.1
v -0.2 -1.15 0
v 0.4 -1.15 0
v -0.7 -1.05 0.2
v -0.5 -1.05 0.2
v -0.2 -1.05 0.2
v 0 -1.05 0.2
v -0.7 -1.05 0.1
v -0.5 -1.05 0.1
v -0.2 -1.05 0.1
v 0 -1.05 0.1
v -0.8 -0.95 0.2
v -0.7 -0.95 0.2
v 0 -0.95 0.2
v 0.1 -0.95 0.2
v -0.8 -0.95 0.1
v -0.7 -0.95 0.1
v 0 -0.95 0.1
v 0.1 -0.95 0.1
v -0.9 -0.85 0.2
v -0.8 -0.85 0.2
v 0.1 -0.85 0.2
v 0.2 -0.85 0.2
v -0.9 -0.85 0.1
v -0.8 -0.85 0.1
v 0.1 -0.85 0.1
v 0.2 -0.85 0.1
v -1 -0.75 0.2
v -0.9 -0.75 0.2
v 0.2 -0.75 0.2
v 0.3 -0.75 0.2
v -1 -0.75 0.1
v -0.9 -0.75 0.1
v 0.2 -0.75 0.1
v 0.3 -0.75 0.1
v -1.1 -0.55 0.2
v -1 -0.55 0.2
v 0.3 -0.55 0.2
v 0.4 -0.55 0.2
v -1.1 -0.55 0.1
v -1 -0.55 0.1
v 0.3 -0.55 0.1
v 0.4 -0.55 0.1
v -0.2 -1.05 0.1
v 0 -1.05 0.1
v 0.4 -1.05 0.1
v -0.2 -1.05 0
v 0.4 -1.05 0
v -1.1 -0.05 0.2
v -1 -0.05 0.2
v 0.3 -0.05 0.2
v 0.4 -0.05 0.2
v -1.1 -0.05 0.1
v -1 -0.05 0.1
v 0.3 -0.05 0.1
v 0.4 -0.05 0.1
v -1 0.0500001 0.2
v -0.9 0.0500001 0.2
v 0.2 0.0500001 0.2
v 0.3 0.0500001 0.2
v -1 0.0500001 0.1
v -0.9 0.0500001 0.1
v 0.2 0.0500001 0.1
v 0.3 0.0500001 0.1
v -0.9 0.15 0.2
v -0.8 0.15 0.2
v 0.1 0.15 0.2
v 0.2 0.15 0.2
v -0.9 0.15 0.1
v -0.8 0.15 0.1
v 0.1 0.15 0.1
v 0.2 0.15 0.1
v -0.8 0.25 0.2
v 0.1 0.25 0.2
v -0.8 0.25 0.1
v 0.1 0.25 0.1

# faces
f 3/3/1 2/3/1 1/3/1
f 4/3/1 2/3/1 3/3/1
f 7/2/1 6/2/1 5/2/1
f 8/2/1 6/2/1 7/2/1
f 9/3/1 8/3/1 7/3/1
f 10/3/1 8/3/1 9/3/1
f 13/3/1 12/3/1 11/3/1
f 14/3/1 12/3/1 13/3/1
f 17/2/1 16/2/1 15/2/1
f 18/2/1 16/2/1 17/2/1
f 21/3/1 20/3/1 19/3/1
f 22/3/1 20/3/1 21/3/1
f 25/2/1 24/2/1 23/2/1
f 26/2/1 24/2/1 25/2/1
f 29/3/1 28/3/1 27/3/1
f 30/3/1 28/3/1 29/3/1
f 33/2/1 32/2/1 31/2/1
f 34/2/1 32/2/1 33/2/1
f 37/2/1 36/2/1 35/2/1
f 38/2/1 36/2/1 37/2/1
f 41/1/1 40/1/1 39/1/1
f 42/1/1 40/1/1 41/1/1
f 43/2/2 44/2/2 45/2/2
f 45/2/2 44/2/2 46/2/2
f 47/2/2 48/2/2 49/2/2
f 49/2/2 48/2/2 50/2/2
f 51/2/2 52/2/2 53/2/2
f 53/2/2 52/2/2 54/2/2
f 55/3/2 56/3/2 57/3/2
f 57/3/2 56/3/2 58/3/2
f 59/2/2 60/2/2 61/2/2
f 61/2/2 60/2/2 62/2/2
f 63/3/2 64/3/2 65/3/2
f 65/3/2 64/3/2 66/3/2
f 67/2/2 68/2/2 69/2/2
f 69/2/2 68/2/2 70/2/2
f 69/3/2 70/3/2 71/3/2
f 71/3/2 70/3/2 72/3/2
f 73/3/2 74/3/2 75/3/2
f 75/3/2 74/3/2 76/3/2
f 77/1/2 78/1/2 79/1/2
f 79/1/2 78/1/2 80/1/2
f 81/3/2 82/3/2 83/3/2
f 83/3/2 82/3/2 84/3/2
f 89/3/3 86/3/3 85/3/3
f 90/3/3 86/3/3 89/3/3
f 93/2/3 88/2/3 87/2/3
f 94/3/3 91/3/3 90/3/3
f 94/3/3 89/3/3 88/3/3
f 94/3/3 90/3/3 89/3/3
f 97/2/3 93/2/3 92/2/3
f 98/3/3 95/3/3 94/3/3
f 98/3/3 94/3/3 88/3/3
f 99/3/3 95/3/3 98/3/3
f 100/3/3 95/3/3 99/3/3
f 103/2/3 97/2/3 96/2/3
f 104/3/3 98/3/3 88/3/3
f 104/4/3 99/4/3 98/4/3
f 105/3/3 101/3/3 100/3/3
f 105/4/3 99/4/3 104/4/3
f 105/3/3 100/3/3 99/3/3
f 106/2/3 88/2/3 93/2/3
f 106/2/3 93/2/3 97/2/3
f 106/2/3 103/2/3 102/2/3
f 106/2/3 97/2/3 103/2/3
f 107/3/3 104/3/3 88/3/3
f 107/2/3 88/2/3 106/2/3
f 107/3/3 105/3/3 104/3/3
f 109/2/3 106/2/3 102/2/3
f 110/2/3 109/2/3 108/2/3
f 111/2/3 106/2/3 109/2/3
f 111/2/3 109/2/3 110/2/3
f 112/4/3 107/4/3 106/4/3
f 112/2/3 106/2/3 111/2/3
f 113/3/3 105/3/3 107/3/3
f 113/4/3 107/4/3 112/4/3
f 114/3/3 105/3/3 113/3/3
f 115/3/3 101/3/3 105/3/3
f 115/3/3 105/3/3 114/3/3
f 116/2/3 112/2/3 111/2/3
f 116/2/3 113/2/3 112/2/3
f 117/2/3 113/2/3 116/2/3
f 118/3/3 114/3/3 113/3/3
f 118/4/3 115/4/3 114/4/3
f 119/3/3 101/3/3 115/3/3
f 119/4/3 115/4/3 118/4/3
f 120/2/3 113/2/3 117/2/3
f 121/2/3 113/2/3 120/2/3
f 122/3/3 101/3/3 119/3/3
f 122/3/3 119/3/3 118/3/3
f 123/3/3 101/3/3 122/3/3
f 124/2/3 113/2/3 121/2/3
f 125/2/3 113/2/3 124/2/3
f 126/3/3 122/3/3 118/3/3
f 127/3/3 122/3/3 126/3/3
f 128/2/3 113/2/3 125/2/3
f 129/3/3 118/3/3 113/3/3
f 129/2/3 113/2/3 128/2/3
f 129/3/3 126/3/3 118/3/3
f 130/3/3 126/3/3 129/3/3
f 131/3/3 126/3/3 130/3/3
f 132/3/3 126/3/3 131/3/3
f 133/3/3 131/3/3 130/3/3
f 134/3/3 131/3/3 133/3/3
f 137/1/3 136/1/3 135/1/3
f 138/1/3 137/1/3 135/1/3
f 139/1/3 137/1/3 138/1/3
f 140/3/4 141/3/4 144/3/4
f 144/3/4 141/3/4 145/3/4
f 142/2/4 143/2/4 148/2/4
f 145/3/4 146/3/4 149/3/4
f 143/3/4 144/3/4 149/3/4
f 144/3/4 145/3/4 149/3/4
f 147/2/4 148/2/4 152/2/4
f 149/3/4 150/3/4 153/3/4
f 143/3/4 149/3/4 153/3/4
f 153/3/4 150/3/4 154/3/4
f 154/3/4 150/3/4 155/3/4
f 151/2/4 152/2/4 158/2/4
f 143/3/4 153/3/4 159/3/4
f 153/4/4 154/4/4 159/4/4
f 155/3/4 156/3/4 160/3/4
f 159/4/4 154/4/4 160/4/4
f 154/3/4 155/3/4 160/3/4
f 148/2/4 143/2/4 161/2/4
f 152/2/4 148/2/4 161/2/4
f 157/2/4 158/2/4 161/2/4
f 158/2/4 152/2/4 161/2/4
f 143/3/4 159/3/4 162/3/4
f 161/2/4 143/2/4 162/2/4
f 159/3/4 160/3/4 162/3/4
f 157/2/4 161/2/4 164/2/4
f 163/2/4 164/2/4 165/2/4
f 164/2/4 161/2/4 166/2/4
f 165/2/4 164/2/4 166/2/4
f 161/4/4 162/4/4 167/4/4
f 166/2/4 161/2/4 167/2/4
f 162/3/4 160/3/4 168/3/4
f 167/4/4 162/4/4 168/4/4
f 168/3/4 160/3/4 169/3/4
f 160/3/4 156/3/4 170/3/4
f 169/3/4 160/3/4 170/3/4
f 166/2/4 167/2/4 171/2/4
f 167/2/4 168/2/4 171/2/4
f 171/2/4 168/2/4 172/2/4
f 168/3/4 169/3/4 173/3/4
f 169/4/4 170/4/4 173/4/4
f 170/3/4 156/3/4 174/3/4
f 173/4/4 170/4/4 174/4/4
f 172/2/4 168/2/4 175/2/4
f 175/2/4 168/2/4 176/2/4
f 174/3/4 156/3/4 177/3/4
f 173/3/4 174/3/4 177/3/4
f 177/3/4 156/3/4 178/3/4
f 176/2/4 168/2/4 179/2/4
f 179/2/4 168/2/4 180/2/4
f 173/3/4 177/3/4 181/3/4
f 181/3/4 177/3/4 182/3/4
f 180/2/4 168/2/4 183/2/4
f 168/3/4 173/3/4 184/3/4
f 183/2/4 168/2/4 184/2/4
f 173/3/4 181/3/4 184/3/4
f 184/3/4 181/3/4 185/3/4
f 185/3/4 181/3/4 186/3/4
f 186/3/4 181/3/4 187/3/4
f 185/3/4 186/3/4 188/3/4
f 188/3/4 186/3/4 189/3/4
f 190/1/4 191/1/4 192/1/4
f 192/1/4 191/1/4 193/1/4
f 196/2/5 195/2/5 194/2/5
f 197/2/5 195/2/5 196/2/5
f 199/1/5 198/1/5 197/1/5
f 200/1/5 198/1/5 199/1/5
f 205/2/5 202/2/5 201/2/5
f 206/2/5 202/2/5 205/2/5
f 207/2/5 204/2/5 203/2/5
f 208/2/5 204/2/5 207/2/5
f 213/2/5 210/2/5 209/2/5
f 214/2/5 210/2/5 213/2/5
f 215/2/5 212/2/5 211/2/5
f 216/2/5 212/2/5 215/2/5
f 221/2/5 218/2/5 217/2/5
f 222/2/5 218/2/5 221/2/5
f 223/2/5 220/2/5 219/2/5
f 224/2/5 220/2/5 223/2/5
f 229/2/5 226/2/5 225/2/5
f 230/2/5 226/2/5 229/2/5
f 231/2/5 228/2/5 227/2/5
f 232/2/5 228/2/5 231/2/5
f 237/3/5 234/3/5 233/3/5
f 238/3/5 234/3/5 237/3/5
f 239/3/5 236/3/5 235/3/5
f 240/3/5 236/3/5 239/3/5
f 241/1/6 242/1/6 244/1/6
f 242/1/6 243/1/6 244/1/6
f 244/1/6 243/1/6 245/1/6
f 246/3/6 247/3/6 250/3/6
f 250/3/6 247/3/6 251/3/6
f 248/3/6 249/3/6 252/3/6
f 252/3/6 249/3/6 253/3/6
f 254/3/6 255/3/6 258/3/6
f 258/3/6 255/3/6 259/3/6
f 256/3/6 257/3/6 260/3/6
f 260/3/6 257/3/6 261/3/6
f 262/3/6 263/3/6 266/3/6
f 266/3/6 263/3/6 267/3/6
f 264/3/6 265/3/6 268/3/6
f 268/3/6 265/3/6 269/3/6
f 270/3/6 271/3/6 272/3/6
f 272/3/6 271/3/6 273/3/6
