# MagicaVoxel @ Ephtracy

# group
o 

# material
mtllib whale-0.mtl
usemtl palette

# normals
vn -1 0 0
vn 1 0 0
vn 0 0 1
vn 0 0 -1
vn 0 -1 0
vn 0 1 0

# texcoords
vt 0.916016 0.5
vt 0.919922 0.5
vt 0.994141 0.5

# verts
v -1 -0.8 0.2
v -1 -0.8 0.1
v -1 -0.7 0.2
v -1 -0.7 0.1
v -1 0.1 0.2
v -1 0.1 0.1
v -0.9 -0.9 0.2
v -0.9 -0.9 0.1
v -0.9 -0.8 0.2
v -0.9 -0.8 0.1
v -0.8 -1 0.2
v -0.8 -1 0.1
v -0.8 -0.9 0.2
v -0.8 -0.9 0.1
v -0.8 0.1 0.2
v -0.8 0.1 0.1
v -0.8 0.2 0.2
v -0.8 0.2 0.1
v -0.7 -1.1 0.2
v -0.7 -1.1 0.1
v -0.7 -1 0.2
v -0.7 -1 0.1
v 0 -1.1 0.2
v 0 -1.1 0.1
v 0 -1 0.2
v 0 -1 0.1
v 0.1 -1 0.2
v 0.1 -1 0.1
v 0.1 -0.9 0.2
v 0.1 -0.9 0.1
v 0.1 0.1 0.2
v 0.1 0.1 0.1
v 0.1 0.2 0.2
v 0.1 0.2 0.1
v 0.2 -0.9 0.2
v 0.2 -0.9 0.1
v 0.2 -0.8 0.2
v 0.2 -0.8 0.1
v 0.2 0 0.2
v 0.2 0 0.1
v 0.2 0.1 0.2
v 0.2 0.1 0.1
v 0.3 -0.8 0.2
v 0.3 -0.8 0.1
v 0.3 -0.7 0.2
v 0.3 -0.7 0.1
v 0.3 0 0.2
v 0.3 0 0.1
v -1 -0.8 0.2
v -1 -0.7 0.2
v -1 0.1 0.2
v -0.9 -0.9 0.2
v -0.9 -0.8 0.2
v -0.8 -1 0.2
v -0.8 -0.9 0.2
v -0.8 -0.5 0.2
v -0.8 -0.3 0.2
v -0.8 0.1 0.2
v -0.8 0.2 0.2
v -0.7 -1.1 0.2
v -0.7 -1 0.2
v -0.7 -0.5 0.2
v -0.7 -0.3 0.2
v -0.6 -0.8 0.2
v -0.6 -0.7 0.2
v -0.2 -0.8 0.2
v -0.2 -0.7 0.2
v -0.1 -0.5 0.2
v -0.1 -0.3 0.2
v 0 -1.1 0.2
v 0 -1 0.2
v 0 -0.5 0.2
v 0 -0.3 0.2
v 0.1 -1 0.2
v 0.1 -0.9 0.2
v 0.1 0.1 0.2
v 0.1 0.2 0.2
v 0.2 -0.9 0.2
v 0.2 -0.8 0.2
v 0.2 0 0.2
v 0.2 0.1 0.2
v 0.3 -0.8 0.2
v 0.3 -0.7 0.2
v 0.3 0 0.2
v -1 -0.8 0.1
v -1 -0.7 0.1
v -1 0.1 0.1
v -0.9 -0.9 0.1
v -0.9 -0.8 0.1
v -0.8 -1 0.1
v -0.8 -0.9 0.1
v -0.8 -0.5 0.1
v -0.8 -0.3 0.1
v -0.8 0.1 0.1
v -0.8 0.2 0.1
v -0.7 -1.1 0.1
v -0.7 -1 0.1
v -0.7 -0.5 0.1
v -0.7 -0.3 0.1
v -0.6 -0.8 0.1
v -0.6 -0.7 0.1
v -0.2 -0.8 0.1
v -0.2 -0.7 0.1
v -0.1 -0.5 0.1
v -0.1 -0.3 0.1
v 0 -1.1 0.1
v 0 -1 0.1
v 0 -0.5 0.1
v 0 -0.3 0.1
v 0.1 -1 0.1
v 0.1 -0.9 0.1
v 0.1 0.1 0.1
v 0.1 0.2 0.1
v 0.2 -0.9 0.1
v 0.2 -0.8 0.1
v 0.2 0 0.1
v 0.2 0.1 0.1
v 0.3 -0.8 0.1
v 0.3 -0.7 0.1
v 0.3 0 0.1
v -0.7 -1.1 0.2
v 0 -1.1 0.2
v -0.7 -1.1 0.1
v 0 -1.1 0.1
v -0.8 -1 0.2
v -0.7 -1 0.2
v 0 -1 0.2
v 0.1 -1 0.2
v -0.8 -1 0.1
v -0.7 -1 0.1
v 0 -1 0.1
v 0.1 -1 0.1
v -0.9 -0.9 0.2
v -0.8 -0.9 0.2
v 0.1 -0.9 0.2
v 0.2 -0.9 0.2
v -0.9 -0.9 0.1
v -0.8 -0.9 0.1
v 0.1 -0.9 0.1
v 0.2 -0.9 0.1
v -1 -0.8 0.2
v -0.9 -0.8 0.2
v 0.2 -0.8 0.2
v 0.3 -0.8 0.2
v -1 -0.8 0.1
v -0.9 -0.8 0.1
v 0.2 -0.8 0.1
v 0.3 -0.8 0.1
v 0.2 0 0.2
v 0.3 0 0.2
v 0.2 0 0.1
v 0.3 0 0.1
v -1 0.1 0.2
v -0.8 0.1 0.2
v 0.1 0.1 0.2
v 0.2 0.1 0.2
v -1 0.1 0.1
v -0.8 0.1 0.1
v 0.1 0.1 0.1
v 0.2 0.1 0.1
v -0.8 0.2 0.2
v 0.1 0.2 0.2
v -0.8 0.2 0.1
v 0.1 0.2 0.1

# faces
f 3/1/1 2/1/1 1/1/1
f 4/1/1 2/1/1 3/1/1
f 5/2/1 4/2/1 3/2/1
f 6/2/1 4/2/1 5/2/1
f 9/1/1 8/1/1 7/1/1
f 10/1/1 8/1/1 9/1/1
f 13/1/1 12/1/1 11/1/1
f 14/1/1 12/1/1 13/1/1
f 17/2/1 16/2/1 15/2/1
f 18/2/1 16/2/1 17/2/1
f 21/1/1 20/1/1 19/1/1
f 22/1/1 20/1/1 21/1/1
f 23/1/2 24/1/2 25/1/2
f 25/1/2 24/1/2 26/1/2
f 27/1/2 28/1/2 29/1/2
f 29/1/2 28/1/2 30/1/2
f 31/2/2 32/2/2 33/2/2
f 33/2/2 32/2/2 34/2/2
f 35/1/2 36/1/2 37/1/2
f 37/1/2 36/1/2 38/1/2
f 39/2/2 40/2/2 41/2/2
f 41/2/2 40/2/2 42/2/2
f 43/1/2 44/1/2 45/1/2
f 45/1/2 44/1/2 46/1/2
f 45/2/2 46/2/2 47/2/2
f 47/2/2 46/2/2 48/2/2
f 53/1/3 50/1/3 49/1/3
f 55/1/3 53/1/3 52/1/3
f 56/2/3 51/2/3 50/2/3
f 57/2/3 51/2/3 56/2/3
f 58/2/3 51/2/3 57/2/3
f 61/1/3 55/1/3 54/1/3
f 62/2/3 56/2/3 50/2/3
f 62/3/3 57/3/3 56/3/3
f 63/2/3 59/2/3 58/2/3
f 63/3/3 57/3/3 62/3/3
f 63/2/3 58/2/3 57/2/3
f 64/1/3 50/1/3 53/1/3
f 64/1/3 53/1/3 55/1/3
f 64/1/3 61/1/3 60/1/3
f 64/1/3 55/1/3 61/1/3
f 65/2/3 62/2/3 50/2/3
f 65/1/3 50/1/3 64/1/3
f 65/2/3 63/2/3 62/2/3
f 66/1/3 64/1/3 60/1/3
f 66/3/3 65/3/3 64/3/3
f 67/2/3 63/2/3 65/2/3
f 67/3/3 65/3/3 66/3/3
f 68/2/3 63/2/3 67/2/3
f 69/2/3 59/2/3 63/2/3
f 69/2/3 63/2/3 68/2/3
f 70/1/3 66/1/3 60/1/3
f 70/1/3 67/1/3 66/1/3
f 71/1/3 67/1/3 70/1/3
f 72/2/3 68/2/3 67/2/3
f 72/3/3 69/3/3 68/3/3
f 73/2/3 59/2/3 69/2/3
f 73/3/3 69/3/3 72/3/3
f 74/1/3 67/1/3 71/1/3
f 75/1/3 67/1/3 74/1/3
f 76/2/3 59/2/3 73/2/3
f 76/2/3 73/2/3 72/2/3
f 77/2/3 59/2/3 76/2/3
f 78/1/3 67/1/3 75/1/3
f 79/1/3 67/1/3 78/1/3
f 80/2/3 76/2/3 72/2/3
f 81/2/3 76/2/3 80/2/3
f 82/1/3 67/1/3 79/1/3
f 83/2/3 72/2/3 67/2/3
f 83/1/3 67/1/3 82/1/3
f 83/2/3 80/2/3 72/2/3
f 84/2/3 80/2/3 83/2/3
f 85/1/4 86/1/4 89/1/4
f 88/1/4 89/1/4 91/1/4
f 86/2/4 87/2/4 92/2/4
f 92/2/4 87/2/4 93/2/4
f 93/2/4 87/2/4 94/2/4
f 90/1/4 91/1/4 97/1/4
f 86/2/4 92/2/4 98/2/4
f 92/3/4 93/3/4 98/3/4
f 94/2/4 95/2/4 99/2/4
f 98/3/4 93/3/4 99/3/4
f 93/2/4 94/2/4 99/2/4
f 89/1/4 86/1/4 100/1/4
f 91/1/4 89/1/4 100/1/4
f 96/1/4 97/1/4 100/1/4
f 97/1/4 91/1/4 100/1/4
f 86/2/4 98/2/4 101/2/4
f 100/1/4 86/1/4 101/1/4
f 98/2/4 99/2/4 101/2/4
f 96/1/4 100/1/4 102/1/4
f 100/3/4 101/3/4 102/3/4
f 101/2/4 99/2/4 103/2/4
f 102/3/4 101/3/4 103/3/4
f 103/2/4 99/2/4 104/2/4
f 99/2/4 95/2/4 105/2/4
f 104/2/4 99/2/4 105/2/4
f 96/1/4 102/1/4 106/1/4
f 102/1/4 103/1/4 106/1/4
f 106/1/4 103/1/4 107/1/4
f 103/2/4 104/2/4 108/2/4
f 104/3/4 105/3/4 108/3/4
f 105/2/4 95/2/4 109/2/4
f 108/3/4 105/3/4 109/3/4
f 107/1/4 103/1/4 110/1/4
f 110/1/4 103/1/4 111/1/4
f 109/2/4 95/2/4 112/2/4
f 108/2/4 109/2/4 112/2/4
f 112/2/4 95/2/4 113/2/4
f 111/1/4 103/1/4 114/1/4
f 114/1/4 103/1/4 115/1/4
f 108/2/4 112/2/4 116/2/4
f 116/2/4 112/2/4 117/2/4
f 115/1/4 103/1/4 118/1/4
f 103/2/4 108/2/4 119/2/4
f 118/1/4 103/1/4 119/1/4
f 108/2/4 116/2/4 119/2/4
f 119/2/4 116/2/4 120/2/4
f 123/1/5 122/1/5 121/1/5
f 124/1/5 122/1/5 123/1/5
f 129/1/5 126/1/5 125/1/5
f 130/1/5 126/1/5 129/1/5
f 131/1/5 128/1/5 127/1/5
f 132/1/5 128/1/5 131/1/5
f 137/1/5 134/1/5 133/1/5
f 138/1/5 134/1/5 137/1/5
f 139/1/5 136/1/5 135/1/5
f 140/1/5 136/1/5 139/1/5
f 145/1/5 142/1/5 141/1/5
f 146/1/5 142/1/5 145/1/5
f 147/1/5 144/1/5 143/1/5
f 148/1/5 144/1/5 147/1/5
f 149/2/6 150/2/6 151/2/6
f 151/2/6 150/2/6 152/2/6
f 153/2/6 154/2/6 157/2/6
f 157/2/6 154/2/6 158/2/6
f 155/2/6 156/2/6 159/2/6
f 159/2/6 156/2/6 160/2/6
f 161/2/6 162/2/6 163/2/6
f 163/2/6 162/2/6 164/2/6
