# MagicaVoxel @ Ephtracy

# group
o 

# material
mtllib whale-4.mtl
usemtl palette

# normals
vn -1 0 0
vn 1 0 0
vn 0 0 1
vn 0 0 -1
vn 0 -1 0
vn 0 1 0

# texcoords
vt 0.919922 0.5
vt 0.923828 0.5
vt 0.927734 0.5

# verts
v -0.85 0.25 -0.1
v -0.85 0.25 -0.3
v -0.85 0.45 -0.1
v -0.85 0.45 -0.2
v -0.85 0.45 -0.3
v -0.85 0.55 -0.2
v -0.85 0.55 -0.3
v -0.75 0.45 -0.1
v -0.75 0.45 -0.2
v -0.75 0.55 -0.1
v -0.75 0.55 -0.2
v -0.75 0.55 -0.3
v -0.75 0.65 -0.2
v -0.75 0.65 -0.3
v -0.65 0.55 -0.1
v -0.65 0.55 -0.2
v -0.65 0.65 -0.1
v -0.65 0.65 -0.2
v -0.65 0.65 -0.3
v -0.65 0.75 -0.2
v -0.65 0.75 -0.3
v -0.55 0.75 -0.2
v -0.55 0.75 -0.3
v -0.55 0.85 -0.2
v -0.55 0.85 -0.3
v -0.45 0.65 -0.1
v -0.45 0.65 -0.2
v -0.45 0.75 -0.1
v -0.45 0.75 -0.2
v -0.35 0.85 -0.2
v -0.35 0.85 -0.3
v -0.35 0.95 -0.2
v -0.35 0.95 -0.3
v -0.05 0.85 -0.1
v -0.05 0.85 -0.3
v -0.05 1.05 -0.1
v -0.05 1.05 -0.2
v -0.05 1.05 -0.3
v -0.05 1.15 -0.2
v -0.05 1.15 -0.3
v 0.35 0.75 -0.1
v 0.35 0.75 -0.2
v 0.35 0.85 -0.1
v 0.35 0.85 -0.2
v 0.35 0.95 -0.1
v 0.35 0.95 -0.2
v -0.65 0.25 -0.1
v -0.65 0.25 -0.3
v -0.65 0.35 -0.1
v -0.65 0.35 -0.3
v -0.35 0.35 -0.1
v -0.35 0.35 -0.3
v -0.35 0.65 -0.2
v -0.35 0.65 -0.3
v -0.35 0.75 -0.1
v -0.35 0.75 -0.2
v -0.35 0.75 -0.3
v -0.25 0.75 -0.2
v -0.25 0.75 -0.3
v -0.25 0.95 -0.2
v -0.25 0.95 -0.3
v 0.15 0.85 -0.1
v 0.15 0.85 -0.2
v 0.15 0.95 -0.1
v 0.15 0.95 -0.2
v 0.25 0.95 -0.1
v 0.25 0.95 -0.2
v 0.25 1.05 -0.1
v 0.25 1.05 -0.2
v 0.35 1.05 -0.2
v 0.35 1.05 -0.3
v 0.35 1.15 -0.2
v 0.35 1.15 -0.3
v 0.55 0.85 -0.1
v 0.55 0.85 -0.2
v 0.55 0.95 -0.1
v 0.55 0.95 -0.2
v 0.55 0.95 -0.3
v 0.55 1.05 -0.2
v 0.55 1.05 -0.3
v 0.65 0.75 -0.1
v 0.65 0.75 -0.2
v 0.65 0.85 -0.1
v 0.65 0.85 -0.2
v 0.65 0.85 -0.3
v 0.65 0.95 -0.2
v 0.65 0.95 -0.3
v -0.85 0.25 -0.1
v -0.85 0.45 -0.1
v -0.75 0.45 -0.1
v -0.75 0.55 -0.1
v -0.65 0.25 -0.1
v -0.65 0.35 -0.1
v -0.65 0.55 -0.1
v -0.65 0.65 -0.1
v -0.45 0.65 -0.1
v -0.45 0.75 -0.1
v -0.35 0.35 -0.1
v -0.35 0.75 -0.1
v -0.05 0.85 -0.1
v -0.05 1.05 -0.1
v 0.15 0.85 -0.1
v 0.15 0.95 -0.1
v 0.25 0.95 -0.1
v 0.25 1.05 -0.1
v 0.35 0.75 -0.1
v 0.35 0.85 -0.1
v 0.35 0.95 -0.1
v 0.55 0.85 -0.1
v 0.55 0.95 -0.1
v 0.65 0.75 -0.1
v 0.65 0.85 -0.1
v -0.85 0.45 -0.2
v -0.85 0.55 -0.2
v -0.75 0.45 -0.2
v -0.75 0.55 -0.2
v -0.75 0.65 -0.2
v -0.65 0.55 -0.2
v -0.65 0.65 -0.2
v -0.65 0.75 -0.2
v -0.55 0.75 -0.2
v -0.55 0.85 -0.2
v -0.45 0.65 -0.2
v -0.45 0.75 -0.2
v -0.35 0.75 -0.2
v -0.35 0.85 -0.2
v -0.35 0.95 -0.2
v -0.25 0.75 -0.2
v -0.25 0.95 -0.2
v -0.05 1.05 -0.2
v -0.05 1.15 -0.2
v 0.15 0.85 -0.2
v 0.15 0.95 -0.2
v 0.25 0.95 -0.2
v 0.25 1.05 -0.2
v 0.25 1.15 -0.2
v 0.35 0.85 -0.2
v 0.35 0.95 -0.2
v 0.35 1.05 -0.2
v 0.35 1.15 -0.2
v 0.45 0.95 -0.2
v 0.45 1.05 -0.2
v 0.55 0.85 -0.2
v 0.55 0.95 -0.2
v 0.55 1.05 -0.2
v 0.65 0.85 -0.2
v 0.65 0.95 -0.2
v 0.35 0.75 -0.2
v 0.35 0.85 -0.2
v 0.55 0.85 -0.2
v 0.65 0.75 -0.2
v 0.65 0.85 -0.2
v -0.85 0.25 -0.3
v -0.85 0.45 -0.3
v -0.85 0.55 -0.3
v -0.75 0.45 -0.3
v -0.75 0.55 -0.3
v -0.75 0.65 -0.3
v -0.65 0.25 -0.3
v -0.65 0.35 -0.3
v -0.65 0.55 -0.3
v -0.65 0.65 -0.3
v -0.65 0.75 -0.3
v -0.55 0.75 -0.3
v -0.55 0.85 -0.3
v -0.35 0.35 -0.3
v -0.35 0.65 -0.3
v -0.35 0.75 -0.3
v -0.35 0.85 -0.3
v -0.35 0.95 -0.3
v -0.25 0.75 -0.3
v -0.25 0.95 -0.3
v -0.05 0.85 -0.3
v -0.05 1.05 -0.3
v -0.05 1.15 -0.3
v 0.15 0.85 -0.3
v 0.15 0.95 -0.3
v 0.25 0.95 -0.3
v 0.25 1.05 -0.3
v 0.25 1.15 -0.3
v 0.35 0.85 -0.3
v 0.35 0.95 -0.3
v 0.35 1.05 -0.3
v 0.35 1.15 -0.3
v 0.45 0.95 -0.3
v 0.45 1.05 -0.3
v 0.55 0.85 -0.3
v 0.55 0.95 -0.3
v 0.55 1.05 -0.3
v 0.65 0.85 -0.3
v 0.65 0.95 -0.3
v -0.85 0.25 -0.1
v -0.65 0.25 -0.1
v -0.85 0.25 -0.3
v -0.65 0.25 -0.3
v -0.65 0.35 -0.1
v -0.35 0.35 -0.1
v -0.65 0.35 -0.3
v -0.35 0.35 -0.3
v 0.35 0.75 -0.1
v 0.65 0.75 -0.1
v -0.35 0.75 -0.2
v -0.25 0.75 -0.2
v 0.35 0.75 -0.2
v 0.65 0.75 -0.2
v -0.35 0.75 -0.3
v -0.25 0.75 -0.3
v -0.05 0.85 -0.1
v 0.15 0.85 -0.1
v 0.15 0.85 -0.2
v 0.35 0.85 -0.2
v 0.55 0.85 -0.2
v 0.65 0.85 -0.2
v -0.05 0.85 -0.3
v 0.15 0.85 -0.3
v 0.35 0.85 -0.3
v 0.55 0.85 -0.3
v 0.65 0.85 -0.3
v 0.15 0.95 -0.1
v 0.25 0.95 -0.1
v 0.15 0.95 -0.2
v 0.25 0.95 -0.2
v -0.85 0.45 -0.1
v -0.75 0.45 -0.1
v -0.85 0.45 -0.2
v -0.75 0.45 -0.2
v -0.75 0.55 -0.1
v -0.65 0.55 -0.1
v -0.85 0.55 -0.2
v -0.75 0.55 -0.2
v -0.65 0.55 -0.2
v -0.85 0.55 -0.3
v -0.75 0.55 -0.3
v -0.65 0.65 -0.1
v -0.45 0.65 -0.1
v -0.75 0.65 -0.2
v -0.65 0.65 -0.2
v -0.45 0.65 -0.2
v -0.75 0.65 -0.3
v -0.65 0.65 -0.3
v -0.45 0.75 -0.1
v -0.35 0.75 -0.1
v -0.65 0.75 -0.2
v -0.55 0.75 -0.2
v -0.45 0.75 -0.2
v -0.35 0.75 -0.2
v -0.65 0.75 -0.3
v -0.55 0.75 -0.3
v 0.55 0.85 -0.1
v 0.65 0.85 -0.1
v -0.55 0.85 -0.2
v -0.35 0.85 -0.2
v 0.55 0.85 -0.2
v 0.65 0.85 -0.2
v -0.55 0.85 -0.3
v -0.35 0.85 -0.3
v 0.35 0.95 -0.1
v 0.55 0.95 -0.1
v -0.35 0.95 -0.2
v -0.25 0.95 -0.2
v 0.35 0.95 -0.2
v 0.45 0.95 -0.2
v 0.55 0.95 -0.2
v 0.65 0.95 -0.2
v -0.35 0.95 -0.3
v -0.25 0.95 -0.3
v 0.55 0.95 -0.3
v 0.65 0.95 -0.3
v -0.05 1.05 -0.1
v 0.25 1.05 -0.1
v -0.05 1.05 -0.2
v 0.25 1.05 -0.2
v 0.35 1.05 -0.2
v 0.45 1.05 -0.2
v 0.55 1.05 -0.2
v 0.35 1.05 -0.3
v 0.45 1.05 -0.3
v 0.55 1.05 -0.3
v -0.05 1.15 -0.2
v 0.25 1.15 -0.2
v 0.35 1.15 -0.2
v -0.05 1.15 -0.3
v 0.25 1.15 -0.3
v 0.35 1.15 -0.3

# faces
f 3/1/1 2/1/1 1/1/1
f 4/1/1 2/1/1 3/1/1
f 5/1/1 2/1/1 4/1/1
f 6/2/1 5/2/1 4/2/1
f 7/2/1 5/2/1 6/2/1
f 10/1/1 9/1/1 8/1/1
f 11/1/1 9/1/1 10/1/1
f 13/2/1 12/2/1 11/2/1
f 14/2/1 12/2/1 13/2/1
f 17/1/1 16/1/1 15/1/1
f 18/1/1 16/1/1 17/1/1
f 20/2/1 19/2/1 18/2/1
f 21/2/1 19/2/1 20/2/1
f 24/2/1 23/2/1 22/2/1
f 25/2/1 23/2/1 24/2/1
f 28/1/1 27/1/1 26/1/1
f 29/1/1 27/1/1 28/1/1
f 32/2/1 31/2/1 30/2/1
f 33/2/1 31/2/1 32/2/1
f 36/1/1 35/1/1 34/1/1
f 37/1/1 35/1/1 36/1/1
f 38/1/1 35/1/1 37/1/1
f 39/2/1 38/2/1 37/2/1
f 40/2/1 38/2/1 39/2/1
f 43/3/1 42/3/1 41/3/1
f 44/3/1 42/3/1 43/3/1
f 45/1/1 44/1/1 43/1/1
f 46/1/1 44/1/1 45/1/1
f 47/1/2 48/1/2 49/1/2
f 49/1/2 48/1/2 50/1/2
f 51/1/2 52/1/2 53/1/2
f 53/1/2 52/1/2 54/1/2
f 51/1/2 53/1/2 55/1/2
f 53/2/2 54/2/2 56/2/2
f 55/1/2 53/1/2 56/1/2
f 56/2/2 54/2/2 57/2/2
f 58/2/2 59/2/2 60/2/2
f 60/2/2 59/2/2 61/2/2
f 62/1/2 63/1/2 64/1/2
f 64/1/2 63/1/2 65/1/2
f 66/1/2 67/1/2 68/1/2
f 68/1/2 67/1/2 69/1/2
f 70/3/2 71/3/2 72/3/2
f 72/3/2 71/3/2 73/3/2
f 74/1/2 75/1/2 76/1/2
f 76/1/2 75/1/2 77/1/2
f 77/3/2 78/3/2 79/3/2
f 79/3/2 78/3/2 80/3/2
f 81/3/2 82/3/2 83/3/2
f 83/3/2 82/3/2 84/3/2
f 84/3/2 85/3/2 86/3/2
f 86/3/2 85/3/2 87/3/2
f 90/1/3 89/1/3 88/1/3
f 92/1/3 90/1/3 88/1/3
f 92/1/3 91/1/3 90/1/3
f 93/1/3 91/1/3 92/1/3
f 94/1/3 91/1/3 93/1/3
f 96/1/3 95/1/3 94/1/3
f 96/1/3 94/1/3 93/1/3
f 98/1/3 96/1/3 93/1/3
f 98/1/3 97/1/3 96/1/3
f 99/1/3 97/1/3 98/1/3
f 102/1/3 101/1/3 100/1/3
f 103/1/3 101/1/3 102/1/3
f 104/1/3 101/1/3 103/1/3
f 105/1/3 101/1/3 104/1/3
f 109/3/3 107/3/3 106/3/3
f 109/1/3 108/1/3 107/1/3
f 110/1/3 108/1/3 109/1/3
f 111/3/3 109/3/3 106/3/3
f 112/3/3 109/3/3 111/3/3
f 115/2/3 114/2/3 113/2/3
f 116/2/3 114/2/3 115/2/3
f 118/2/3 117/2/3 116/2/3
f 119/2/3 117/2/3 118/2/3
f 121/2/3 120/2/3 119/2/3
f 123/2/3 121/2/3 119/2/3
f 123/2/3 122/2/3 121/2/3
f 124/2/3 122/2/3 123/2/3
f 125/2/3 122/2/3 124/2/3
f 126/2/3 122/2/3 125/2/3
f 128/2/3 126/2/3 125/2/3
f 128/2/3 127/2/3 126/2/3
f 129/2/3 127/2/3 128/2/3
f 134/3/3 133/3/3 132/3/3
f 135/2/3 131/2/3 130/2/3
f 136/2/3 131/2/3 135/2/3
f 137/3/3 134/3/3 132/3/3
f 138/2/3 135/2/3 134/2/3
f 138/3/3 134/3/3 137/3/3
f 139/3/3 136/3/3 135/3/3
f 139/2/3 135/2/3 138/2/3
f 140/3/3 136/3/3 139/3/3
f 141/2/3 139/2/3 138/2/3
f 142/2/3 139/2/3 141/2/3
f 144/3/3 142/3/3 141/3/3
f 145/3/3 142/3/3 144/3/3
f 146/3/3 144/3/3 143/3/3
f 147/3/3 144/3/3 146/3/3
f 148/3/4 149/3/4 150/3/4
f 148/3/4 150/3/4 151/3/4
f 151/3/4 150/3/4 152/3/4
f 153/1/4 154/1/4 156/1/4
f 154/2/4 155/2/4 156/2/4
f 156/2/4 155/2/4 157/2/4
f 153/1/4 156/1/4 159/1/4
f 156/1/4 157/1/4 159/1/4
f 159/1/4 157/1/4 160/1/4
f 157/2/4 158/2/4 161/2/4
f 160/1/4 157/1/4 161/1/4
f 161/2/4 158/2/4 162/2/4
f 162/2/4 163/2/4 164/2/4
f 161/1/4 162/1/4 166/1/4
f 160/1/4 161/1/4 166/1/4
f 164/2/4 165/2/4 167/2/4
f 166/1/4 162/1/4 167/1/4
f 162/2/4 164/2/4 167/2/4
f 167/2/4 165/2/4 168/2/4
f 168/2/4 165/2/4 169/2/4
f 169/2/4 170/2/4 171/2/4
f 168/2/4 169/2/4 171/2/4
f 171/2/4 170/2/4 172/2/4
f 173/1/4 174/1/4 176/1/4
f 176/1/4 174/1/4 177/1/4
f 176/3/4 177/3/4 178/3/4
f 177/1/4 174/1/4 178/1/4
f 174/2/4 175/2/4 179/2/4
f 178/1/4 174/1/4 179/1/4
f 179/2/4 175/2/4 180/2/4
f 176/3/4 178/3/4 181/3/4
f 178/2/4 179/2/4 182/2/4
f 181/3/4 178/3/4 182/3/4
f 179/3/4 180/3/4 183/3/4
f 182/2/4 179/2/4 183/2/4
f 183/3/4 180/3/4 184/3/4
f 181/1/4 182/1/4 185/1/4
f 182/2/4 183/2/4 185/2/4
f 185/2/4 183/2/4 186/2/4
f 181/1/4 185/1/4 187/1/4
f 185/3/4 186/3/4 188/3/4
f 187/1/4 185/1/4 188/1/4
f 188/3/4 186/3/4 189/3/4
f 187/3/4 188/3/4 190/3/4
f 190/3/4 188/3/4 191/3/4
f 194/1/5 193/1/5 192/1/5
f 195/1/5 193/1/5 194/1/5
f 198/1/5 197/1/5 196/1/5
f 199/1/5 197/1/5 198/1/5
f 204/3/5 201/3/5 200/3/5
f 205/3/5 201/3/5 204/3/5
f 206/2/5 203/2/5 202/2/5
f 207/2/5 203/2/5 206/2/5
f 210/1/5 209/1/5 208/1/5
f 214/1/5 210/1/5 208/1/5
f 215/3/5 211/3/5 210/3/5
f 215/1/5 210/1/5 214/1/5
f 216/1/5 212/1/5 211/1/5
f 216/3/5 211/3/5 215/3/5
f 217/3/5 213/3/5 212/3/5
f 217/1/5 212/1/5 216/1/5
f 218/3/5 213/3/5 217/3/5
f 221/1/5 220/1/5 219/1/5
f 222/1/5 220/1/5 221/1/5
f 223/1/6 224/1/6 225/1/6
f 225/1/6 224/1/6 226/1/6
f 227/1/6 228/1/6 230/1/6
f 230/1/6 228/1/6 231/1/6
f 229/2/6 230/2/6 232/2/6
f 232/2/6 230/2/6 233/2/6
f 234/1/6 235/1/6 237/1/6
f 237/1/6 235/1/6 238/1/6
f 236/2/6 237/2/6 239/2/6
f 239/2/6 237/2/6 240/2/6
f 241/1/6 242/1/6 245/1/6
f 245/1/6 242/1/6 246/1/6
f 243/2/6 244/2/6 247/2/6
f 247/2/6 244/2/6 248/2/6
f 249/3/6 250/3/6 253/3/6
f 253/3/6 250/3/6 254/3/6
f 251/2/6 252/2/6 255/2/6
f 255/2/6 252/2/6 256/2/6
f 257/1/6 258/1/6 261/1/6
f 261/1/6 258/1/6 262/1/6
f 262/1/6 258/1/6 263/1/6
f 259/2/6 260/2/6 265/2/6
f 265/2/6 260/2/6 266/2/6
f 263/3/6 264/3/6 267/3/6
f 267/3/6 264/3/6 268/3/6
f 269/1/6 270/1/6 271/1/6
f 271/1/6 270/1/6 272/1/6
f 273/2/6 274/2/6 276/2/6
f 274/3/6 275/3/6 277/3/6
f 276/2/6 274/2/6 277/2/6
f 277/3/6 275/3/6 278/3/6
f 279/2/6 280/2/6 282/2/6
f 280/3/6 281/3/6 283/3/6
f 282/2/6 280/2/6 283/2/6
f 283/3/6 281/3/6 284/3/6
