# MagicaVoxel @ Ephtracy

# group
o 

# material
mtllib whale-4.mtl
usemtl palette

# normals
vn -1 0 0
vn 1 0 0
vn 0 0 1
vn 0 0 -1
vn 0 -1 0
vn 0 1 0

# texcoords
vt 0.919922 0.5
vt 0.923828 0.5
vt 0.927734 0.5

# verts
v -0.85 0.25 -0.1
v -0.85 0.25 -0.3
v -0.85 0.45 -0.1
v -0.85 0.45 -0.2
v -0.85 0.45 -0.3
v -0.85 0.55 -0.2
v -0.85 0.55 -0.3
v -0.75 0.45 -0.1
v -0.75 0.45 -0.2
v -0.75 0.55 -0.1
v -0.75 0.55 -0.2
v -0.75 0.55 -0.3
v -0.75 0.65 -0.2
v -0.75 0.65 -0.3
v -0.65 0.55 -0.1
v -0.65 0.55 -0.2
v -0.65 0.65 -0.1
v -0.65 0.65 -0.2
v -0.65 0.65 -0.3
v -0.65 0.75 -0.2
v -0.65 0.75 -0.3
v -0.55 0.65 -0.1
v -0.55 0.65 -0.2
v -0.55 0.75 -0.1
v -0.55 0.75 -0.2
v -0.55 0.75 -0.3
v -0.55 0.85 -0.2
v -0.55 0.85 -0.3
v -0.35 0.85 -0.2
v -0.35 0.85 -0.3
v -0.35 0.95 -0.2
v -0.35 0.95 -0.3
v -0.05 0.85 -0.1
v -0.05 0.85 -0.3
v -0.05 1.05 -0.1
v -0.05 1.05 -0.2
v -0.05 1.05 -0.3
v -0.05 1.15 -0.2
v -0.05 1.15 -0.3
v 0.25 0.75 -0.2
v 0.25 0.75 -0.3
v 0.25 0.85 -0.2
v 0.25 0.85 -0.3
v 0.25 1.05 -0.1
v 0.25 1.05 -0.2
v 0.25 1.15 -0.1
v 0.25 1.15 -0.2
v 0.35 0.85 -0.1
v 0.35 0.85 -0.2
v 0.35 0.95 -0.1
v 0.35 0.95 -0.2
v -0.65 0.25 -0.1
v -0.65 0.25 -0.3
v -0.65 0.35 -0.1
v -0.65 0.35 -0.3
v -0.35 0.35 -0.1
v -0.35 0.35 -0.3
v -0.35 0.65 -0.2
v -0.35 0.65 -0.3
v -0.35 0.75 -0.1
v -0.35 0.75 -0.2
v -0.35 0.75 -0.3
v -0.25 0.75 -0.2
v -0.25 0.75 -0.3
v -0.25 0.95 -0.2
v -0.25 0.95 -0.3
v 0.15 0.85 -0.1
v 0.15 0.85 -0.2
v 0.15 0.95 -0.1
v 0.15 0.95 -0.2
v 0.35 1.05 -0.1
v 0.35 1.05 -0.2
v 0.35 1.05 -0.3
v 0.35 1.15 -0.1
v 0.35 1.15 -0.2
v 0.35 1.15 -0.3
v 0.45 0.95 -0.1
v 0.45 0.95 -0.2
v 0.45 1.05 -0.1
v 0.45 1.05 -0.2
v 0.55 0.75 -0.2
v 0.55 0.75 -0.3
v 0.55 0.85 -0.1
v 0.55 0.85 -0.2
v 0.55 0.85 -0.3
v 0.55 0.95 -0.1
v 0.55 0.95 -0.2
v 0.55 0.95 -0.3
v 0.55 1.05 -0.2
v 0.55 1.05 -0.3
v -0.85 0.25 -0.1
v -0.85 0.45 -0.1
v -0.75 0.45 -0.1
v -0.75 0.55 -0.1
v -0.65 0.25 -0.1
v -0.65 0.35 -0.1
v -0.65 0.55 -0.1
v -0.65 0.65 -0.1
v -0.55 0.65 -0.1
v -0.55 0.75 -0.1
v -0.35 0.35 -0.1
v -0.35 0.75 -0.1
v -0.05 0.85 -0.1
v -0.05 1.05 -0.1
v 0.15 0.85 -0.1
v 0.15 0.95 -0.1
v 0.25 1.05 -0.1
v 0.25 1.15 -0.1
v 0.35 0.85 -0.1
v 0.35 0.95 -0.1
v 0.35 1.05 -0.1
v 0.35 1.15 -0.1
v 0.45 0.95 -0.1
v 0.45 1.05 -0.1
v 0.55 0.85 -0.1
v 0.55 0.95 -0.1
v -0.85 0.45 -0.2
v -0.85 0.55 -0.2
v -0.75 0.45 -0.2
v -0.75 0.55 -0.2
v -0.75 0.65 -0.2
v -0.65 0.55 -0.2
v -0.65 0.65 -0.2
v -0.65 0.75 -0.2
v -0.55 0.65 -0.2
v -0.55 0.75 -0.2
v -0.55 0.85 -0.2
v -0.35 0.75 -0.2
v -0.35 0.85 -0.2
v -0.35 0.95 -0.2
v -0.25 0.75 -0.2
v -0.25 0.95 -0.2
v -0.05 1.05 -0.2
v -0.05 1.15 -0.2
v 0.15 0.85 -0.2
v 0.15 0.95 -0.2
v 0.25 0.75 -0.2
v 0.25 0.85 -0.2
v 0.25 1.05 -0.2
v 0.25 1.15 -0.2
v 0.35 0.85 -0.2
v 0.35 0.95 -0.2
v 0.45 0.95 -0.2
v 0.45 1.05 -0.2
v 0.55 0.75 -0.2
v 0.55 0.85 -0.2
v 0.55 0.95 -0.2
v 0.55 1.05 -0.2
v -0.85 0.25 -0.3
v -0.85 0.45 -0.3
v -0.85 0.55 -0.3
v -0.75 0.45 -0.3
v -0.75 0.55 -0.3
v -0.75 0.65 -0.3
v -0.65 0.25 -0.3
v -0.65 0.35 -0.3
v -0.65 0.55 -0.3
v -0.65 0.65 -0.3
v -0.65 0.75 -0.3
v -0.55 0.75 -0.3
v -0.55 0.85 -0.3
v -0.35 0.35 -0.3
v -0.35 0.65 -0.3
v -0.35 0.75 -0.3
v -0.35 0.85 -0.3
v -0.35 0.95 -0.3
v -0.25 0.75 -0.3
v -0.25 0.95 -0.3
v -0.05 0.85 -0.3
v -0.05 1.05 -0.3
v -0.05 1.15 -0.3
v 0.15 0.85 -0.3
v 0.15 0.95 -0.3
v 0.15 1.05 -0.3
v 0.25 0.75 -0.3
v 0.25 0.85 -0.3
v 0.25 1.05 -0.3
v 0.25 1.15 -0.3
v 0.35 0.85 -0.3
v 0.35 0.95 -0.3
v 0.35 1.05 -0.3
v 0.35 1.15 -0.3
v 0.45 0.95 -0.3
v 0.45 1.05 -0.3
v 0.55 0.75 -0.3
v 0.55 0.85 -0.3
v 0.55 0.95 -0.3
v 0.55 1.05 -0.3
v -0.85 0.25 -0.1
v -0.65 0.25 -0.1
v -0.85 0.25 -0.3
v -0.65 0.25 -0.3
v -0.65 0.35 -0.1
v -0.35 0.35 -0.1
v -0.65 0.35 -0.3
v -0.35 0.35 -0.3
v -0.35 0.75 -0.2
v -0.25 0.75 -0.2
v 0.25 0.75 -0.2
v 0.55 0.75 -0.2
v -0.35 0.75 -0.3
v -0.25 0.75 -0.3
v 0.25 0.75 -0.3
v 0.55 0.75 -0.3
v -0.05 0.85 -0.1
v 0.15 0.85 -0.1
v 0.35 0.85 -0.1
v 0.55 0.85 -0.1
v 0.15 0.85 -0.2
v 0.25 0.85 -0.2
v 0.35 0.85 -0.2
v 0.55 0.85 -0.2
v -0.05 0.85 -0.3
v 0.15 0.85 -0.3
v 0.25 0.85 -0.3
v 0.15 0.95 -0.1
v 0.35 0.95 -0.1
v 0.15 0.95 -0.2
v 0.35 0.95 -0.2
v -0.85 0.45 -0.1
v -0.75 0.45 -0.1
v -0.85 0.45 -0.2
v -0.75 0.45 -0.2
v -0.75 0.55 -0.1
v -0.65 0.55 -0.1
v -0.85 0.55 -0.2
v -0.75 0.55 -0.2
v -0.65 0.55 -0.2
v -0.85 0.55 -0.3
v -0.75 0.55 -0.3
v -0.65 0.65 -0.1
v -0.55 0.65 -0.1
v -0.75 0.65 -0.2
v -0.65 0.65 -0.2
v -0.55 0.65 -0.2
v -0.75 0.65 -0.3
v -0.65 0.65 -0.3
v -0.55 0.75 -0.1
v -0.35 0.75 -0.1
v -0.65 0.75 -0.2
v -0.55 0.75 -0.2
v -0.35 0.75 -0.2
v -0.65 0.75 -0.3
v -0.55 0.75 -0.3
v -0.55 0.85 -0.2
v -0.35 0.85 -0.2
v -0.55 0.85 -0.3
v -0.35 0.85 -0.3
v 0.45 0.95 -0.1
v 0.55 0.95 -0.1
v -0.35 0.95 -0.2
v -0.25 0.95 -0.2
v 0.45 0.95 -0.2
v 0.55 0.95 -0.2
v -0.35 0.95 -0.3
v -0.25 0.95 -0.3
v -0.05 1.05 -0.1
v 0.25 1.05 -0.1
v 0.35 1.05 -0.1
v 0.45 1.05 -0.1
v -0.05 1.05 -0.2
v 0.25 1.05 -0.2
v 0.35 1.05 -0.2
v 0.45 1.05 -0.2
v 0.55 1.05 -0.2
v 0.35 1.05 -0.3
v 0.45 1.05 -0.3
v 0.55 1.05 -0.3
v 0.25 1.15 -0.1
v 0.35 1.15 -0.1
v -0.05 1.15 -0.2
v 0.25 1.15 -0.2
v 0.35 1.15 -0.2
v -0.05 1.15 -0.3
v 0.25 1.15 -0.3
v 0.35 1.15 -0.3

# faces
f 3/1/1 2/1/1 1/1/1
f 4/1/1 2/1/1 3/1/1
f 5/1/1 2/1/1 4/1/1
f 6/2/1 5/2/1 4/2/1
f 7/2/1 5/2/1 6/2/1
f 10/1/1 9/1/1 8/1/1
f 11/1/1 9/1/1 10/1/1
f 13/2/1 12/2/1 11/2/1
f 14/2/1 12/2/1 13/2/1
f 17/1/1 16/1/1 15/1/1
f 18/1/1 16/1/1 17/1/1
f 20/2/1 19/2/1 18/2/1
f 21/2/1 19/2/1 20/2/1
f 24/1/1 23/1/1 22/1/1
f 25/1/1 23/1/1 24/1/1
f 27/2/1 26/2/1 25/2/1
f 28/2/1 26/2/1 27/2/1
f 31/2/1 30/2/1 29/2/1
f 32/2/1 30/2/1 31/2/1
f 35/1/1 34/1/1 33/1/1
f 36/1/1 34/1/1 35/1/1
f 37/1/1 34/1/1 36/1/1
f 38/2/1 37/2/1 36/2/1
f 39/2/1 37/2/1 38/2/1
f 42/3/1 41/3/1 40/3/1
f 43/3/1 41/3/1 42/3/1
f 46/1/1 45/1/1 44/1/1
f 47/1/1 45/1/1 46/1/1
f 50/1/1 49/1/1 48/1/1
f 51/1/1 49/1/1 50/1/1
f 52/1/2 53/1/2 54/1/2
f 54/1/2 53/1/2 55/1/2
f 56/1/2 57/1/2 58/1/2
f 58/1/2 57/1/2 59/1/2
f 56/1/2 58/1/2 60/1/2
f 58/2/2 59/2/2 61/2/2
f 60/1/2 58/1/2 61/1/2
f 61/2/2 59/2/2 62/2/2
f 63/2/2 64/2/2 65/2/2
f 65/2/2 64/2/2 66/2/2
f 67/1/2 68/1/2 69/1/2
f 69/1/2 68/1/2 70/1/2
f 71/1/2 72/1/2 74/1/2
f 72/3/2 73/3/2 75/3/2
f 74/1/2 72/1/2 75/1/2
f 75/3/2 73/3/2 76/3/2
f 77/1/2 78/1/2 79/1/2
f 79/1/2 78/1/2 80/1/2
f 81/3/2 82/3/2 84/3/2
f 84/3/2 82/3/2 85/3/2
f 83/1/2 84/1/2 86/1/2
f 84/1/2 85/1/2 86/1/2
f 86/1/2 85/1/2 87/1/2
f 87/1/2 85/1/2 88/1/2
f 87/3/2 88/3/2 89/3/2
f 89/3/2 88/3/2 90/3/2
f 93/1/3 92/1/3 91/1/3
f 95/1/3 93/1/3 91/1/3
f 95/1/3 94/1/3 93/1/3
f 96/1/3 94/1/3 95/1/3
f 97/1/3 94/1/3 96/1/3
f 99/1/3 98/1/3 97/1/3
f 99/1/3 97/1/3 96/1/3
f 101/1/3 99/1/3 96/1/3
f 101/1/3 100/1/3 99/1/3
f 102/1/3 100/1/3 101/1/3
f 105/1/3 104/1/3 103/1/3
f 106/1/3 104/1/3 105/1/3
f 107/1/3 104/1/3 106/1/3
f 110/1/3 107/1/3 106/1/3
f 110/1/3 108/1/3 107/1/3
f 111/1/3 108/1/3 110/1/3
f 112/1/3 108/1/3 111/1/3
f 113/1/3 110/1/3 109/1/3
f 113/1/3 111/1/3 110/1/3
f 114/1/3 111/1/3 113/1/3
f 115/1/3 113/1/3 109/1/3
f 116/1/3 113/1/3 115/1/3
f 119/2/3 118/2/3 117/2/3
f 120/2/3 118/2/3 119/2/3
f 122/2/3 121/2/3 120/2/3
f 123/2/3 121/2/3 122/2/3
f 125/2/3 124/2/3 123/2/3
f 126/2/3 124/2/3 125/2/3
f 128/2/3 127/2/3 126/2/3
f 129/2/3 127/2/3 128/2/3
f 131/2/3 129/2/3 128/2/3
f 131/2/3 130/2/3 129/2/3
f 132/2/3 130/2/3 131/2/3
f 138/3/3 136/3/3 135/3/3
f 139/2/3 134/2/3 133/2/3
f 140/2/3 134/2/3 139/2/3
f 141/3/3 138/3/3 137/3/3
f 141/3/3 136/3/3 138/3/3
f 142/3/3 136/3/3 141/3/3
f 145/3/3 141/3/3 137/3/3
f 146/3/3 141/3/3 145/3/3
f 147/3/3 144/3/3 143/3/3
f 148/3/3 144/3/3 147/3/3
f 149/1/4 150/1/4 152/1/4
f 150/2/4 151/2/4 152/2/4
f 152/2/4 151/2/4 153/2/4
f 149/1/4 152/1/4 155/1/4
f 152/1/4 153/1/4 155/1/4
f 155/1/4 153/1/4 156/1/4
f 153/2/4 154/2/4 157/2/4
f 156/1/4 153/1/4 157/1/4
f 157/2/4 154/2/4 158/2/4
f 158/2/4 159/2/4 160/2/4
f 157/1/4 158/1/4 162/1/4
f 156/1/4 157/1/4 162/1/4
f 160/2/4 161/2/4 163/2/4
f 162/1/4 158/1/4 163/1/4
f 158/2/4 160/2/4 163/2/4
f 163/2/4 161/2/4 164/2/4
f 164/2/4 161/2/4 165/2/4
f 165/2/4 166/2/4 167/2/4
f 164/2/4 165/2/4 167/2/4
f 167/2/4 166/2/4 168/2/4
f 169/1/4 170/1/4 172/1/4
f 172/1/4 170/1/4 173/1/4
f 170/2/4 171/2/4 174/2/4
f 173/1/4 170/1/4 174/1/4
f 172/3/4 173/3/4 176/3/4
f 174/2/4 171/2/4 177/2/4
f 173/2/4 174/2/4 177/2/4
f 177/2/4 171/2/4 178/2/4
f 175/3/4 176/3/4 179/3/4
f 176/3/4 173/3/4 179/3/4
f 173/2/4 177/2/4 180/2/4
f 179/3/4 173/3/4 180/3/4
f 177/3/4 178/3/4 181/3/4
f 180/2/4 177/2/4 181/2/4
f 181/3/4 178/3/4 182/3/4
f 179/1/4 180/1/4 183/1/4
f 180/2/4 181/2/4 183/2/4
f 183/2/4 181/2/4 184/2/4
f 175/3/4 179/3/4 185/3/4
f 179/1/4 183/1/4 186/1/4
f 185/3/4 179/3/4 186/3/4
f 183/3/4 184/3/4 187/3/4
f 186/1/4 183/1/4 187/1/4
f 187/3/4 184/3/4 188/3/4
f 191/1/5 190/1/5 189/1/5
f 192/1/5 190/1/5 191/1/5
f 195/1/5 194/1/5 193/1/5
f 196/1/5 194/1/5 195/1/5
f 201/2/5 198/2/5 197/2/5
f 202/2/5 198/2/5 201/2/5
f 203/3/5 200/3/5 199/3/5
f 204/3/5 200/3/5 203/3/5
f 209/1/5 206/1/5 205/1/5
f 211/1/5 208/1/5 207/1/5
f 212/1/5 208/1/5 211/1/5
f 213/1/5 209/1/5 205/1/5
f 214/3/5 210/3/5 209/3/5
f 214/1/5 209/1/5 213/1/5
f 215/3/5 210/3/5 214/3/5
f 218/1/5 217/1/5 216/1/5
f 219/1/5 217/1/5 218/1/5
f 220/1/6 221/1/6 222/1/6
f 222/1/6 221/1/6 223/1/6
f 224/1/6 225/1/6 227/1/6
f 227/1/6 225/1/6 228/1/6
f 226/2/6 227/2/6 229/2/6
f 229/2/6 227/2/6 230/2/6
f 231/1/6 232/1/6 234/1/6
f 234/1/6 232/1/6 235/1/6
f 233/2/6 234/2/6 236/2/6
f 236/2/6 234/2/6 237/2/6
f 238/1/6 239/1/6 241/1/6
f 241/1/6 239/1/6 242/1/6
f 240/2/6 241/2/6 243/2/6
f 243/2/6 241/2/6 244/2/6
f 245/2/6 246/2/6 247/2/6
f 247/2/6 246/2/6 248/2/6
f 249/1/6 250/1/6 253/1/6
f 253/1/6 250/1/6 254/1/6
f 251/2/6 252/2/6 255/2/6
f 255/2/6 252/2/6 256/2/6
f 257/1/6 258/1/6 261/1/6
f 261/1/6 258/1/6 262/1/6
f 259/1/6 260/1/6 263/1/6
f 263/1/6 260/1/6 264/1/6
f 263/2/6 264/2/6 266/2/6
f 264/3/6 265/3/6 267/3/6
f 266/2/6 264/2/6 267/2/6
f 267/3/6 265/3/6 268/3/6
f 269/1/6 270/1/6 272/1/6
f 272/1/6 270/1/6 273/1/6
f 271/2/6 272/2/6 274/2/6
f 272/3/6 273/3/6 275/3/6
f 274/2/6 272/2/6 275/2/6
f 275/3/6 273/3/6 276/3/6
